<svg width="20" height="20" viewBox="0 0 20 20" fill="none" xmlns="http://www.w3.org/2000/svg">
<path d="M5.2718 10.652H7.46412V19.6774C7.46412 19.8556 7.60851 20 7.7867 20H11.5039C11.682 20 11.8264 19.8556 11.8264 19.6774V10.6945H14.3467C14.5106 10.6945 14.6484 10.5715 14.6671 10.4088L15.0499 7.08606C15.0604 6.99465 15.0315 6.9031 14.9703 6.83452C14.9091 6.76587 14.8215 6.72658 14.7295 6.72658H11.8266V4.64374C11.8266 4.01587 12.1646 3.69748 12.8315 3.69748C12.9265 3.69748 14.7295 3.69748 14.7295 3.69748C14.9077 3.69748 15.0521 3.55303 15.0521 3.3749V0.324968C15.0521 0.146774 14.9077 0.0023871 14.7295 0.0023871H12.1137C12.0953 0.00148387 12.0543 0 11.9939 0C11.54 0 9.96244 0.0890969 8.71625 1.23555C7.33548 2.506 7.52741 4.02716 7.57328 4.2909V6.72652H5.2718C5.09361 6.72652 4.94922 6.8709 4.94922 7.0491V10.3294C4.94922 10.5075 5.09361 10.652 5.2718 10.652Z" fill="#121212"/>
</svg>
