<svg width="117" height="43" viewBox="0 0 117 43" fill="none" xmlns="http://www.w3.org/2000/svg">
<path fill-rule="evenodd" clip-rule="evenodd" d="M84.0221 20.4798H80.8627V42.5267H93.9468V39.6475H84.0221V20.4798ZM107.17 20.643C106.327 20.526 105.321 20.4791 104.174 20.4791H96.7316V42.4798H103.706C105.788 42.4554 107.123 42.386 107.685 42.2916C108.386 42.199 109.159 41.9876 109.955 41.6599C111.405 41.0983 112.67 40.3016 113.722 39.2723C114.751 38.251 115.577 37.044 116.157 35.7151C116.692 34.374 116.978 32.9464 117 31.5026C117 29.4189 116.485 27.5233 115.455 25.7911C114.425 24.0363 113.02 22.7017 111.265 21.8124C110.142 21.2283 108.784 20.8537 107.17 20.643ZM107.147 23.4753H107.17C107.872 23.5922 108.597 23.8268 109.323 24.1776C110.048 24.5284 110.726 24.9737 111.336 25.5584C112.928 27.0324 113.722 28.9517 113.722 31.3394C113.722 33.7258 112.951 35.7157 111.405 37.2842C110.927 37.7697 110.383 38.1868 109.791 38.5237C109.275 38.8276 108.55 39.0853 107.614 39.3435C106.702 39.5537 105.484 39.6706 103.94 39.6706H99.9141V23.2877H103.846C105.321 23.2877 106.421 23.3346 107.147 23.4753ZM74.1225 25.2776C73.8648 24.0137 73.2563 22.96 72.2964 22.1176C70.9856 21.0176 69.2077 20.4791 66.9845 20.4791H61.4599V42.5261H64.6199V32.9059H65.416C66.4454 32.9059 67.1946 33.0235 67.6392 33.2574C68.0607 33.4675 68.5516 33.8659 69.0901 34.4506C69.6054 34.9659 70.2139 35.6914 70.8686 36.5806L74.6847 42.5254H78.4526L77.2593 40.9339C77.0248 40.5824 76.4163 39.6462 75.4101 38.1016C74.3095 36.2292 73.3739 34.849 72.6009 33.9353C71.9462 33.1405 71.2439 32.5088 70.5416 32.0398C71.7348 31.5489 72.6716 30.8466 73.3032 29.9342C73.9361 28.9742 74.24 27.8748 74.24 26.6341C74.24 26.19 74.2169 25.7454 74.1225 25.2776ZM70.424 24.7154C70.5891 24.9493 70.6817 25.1369 70.7292 25.277C70.893 25.651 70.9625 26.0718 70.9856 26.5878C70.9625 27.3364 70.7986 27.9448 70.4947 28.4833C70.1676 29.0217 69.6986 29.4189 69.0901 29.6765C68.5285 29.9573 67.4291 30.1211 65.79 30.1211H64.6199V23.1707H65.5567C67.0776 23.1707 68.1777 23.2639 68.88 23.4978C69.5585 23.7329 70.0738 24.1301 70.424 24.7154ZM3.20692 20.4798H0L8.89407 42.5961H9.54946L16.852 24.6685L24.0131 42.5961H24.7154L33.6326 20.4798H30.4964L24.4815 35.6682L18.326 20.4798H15.3773L9.24553 35.6682L3.20692 20.4798ZM55.7033 25.2776C55.1886 24.5284 54.6502 23.8968 54.0886 23.4046C51.8185 21.2515 49.0099 20.1746 45.616 20.1746C42.2221 20.1746 39.3904 21.2515 37.1666 23.4046C36.5727 23.9722 36.0393 24.5999 35.575 25.2776C34.405 27.1025 33.7965 29.1862 33.7965 31.5726C33.7965 34.7558 34.9196 37.4243 37.1435 39.5781C39.3435 41.7068 42.1052 42.7844 45.4522 42.7844C48.8924 42.7844 51.771 41.7068 54.0648 39.5781C56.3581 37.4249 57.4819 34.7327 57.4819 31.5032C57.4819 29.1387 56.8965 27.0562 55.7033 25.2776ZM51.5139 25.2776L51.7947 25.5584C53.4332 27.15 54.2525 29.0918 54.2525 31.4326C54.2525 33.8202 53.4332 35.8333 51.7947 37.448C50.18 39.0165 48.12 39.8345 45.6392 39.8582C43.1815 39.8351 41.1452 39.0634 39.5305 37.4949C37.892 35.9265 37.0728 33.9372 37.0728 31.5733C37.0728 29.1155 37.892 27.1031 39.483 25.5115L39.7407 25.2782C41.3322 23.8737 43.3447 23.1714 45.7555 23.1714C47.98 23.1476 49.8992 23.8493 51.5139 25.2776ZM83.6951 15.0027V0H68.0839V15.0021L83.6951 15.0027ZM80.1605 2.73851V4.33009C78.9441 3.6278 77.7503 3.2532 76.6033 3.2532C75.4101 3.2532 74.427 3.65094 73.6547 4.42327C72.8586 5.17247 72.4602 6.10865 72.4602 7.25496C72.4602 8.355 72.8354 9.29119 73.6303 10.0635C74.4264 10.7658 75.4101 11.1404 76.5802 11.1404C77.8441 11.1404 79.0842 10.7658 80.2774 9.99348V11.6082C79.178 12.2173 77.9141 12.5212 76.5095 12.5212C75.3394 12.5212 74.3576 12.2874 73.5378 11.8189C72.7464 11.3595 72.092 10.6972 71.6422 9.9003C71.1501 9.05729 70.8937 8.16801 70.9168 7.25559C70.9168 5.71092 71.4553 4.44704 72.5315 3.41705C73.6309 2.38768 74.9417 1.87237 76.5327 1.87237C77.6333 1.873 78.8509 2.15379 80.1605 2.73851ZM50.7416 0V15.0021H66.3291V0H50.7416ZM61.3442 3.53462C61.5775 3.93235 61.7182 4.40076 61.7182 4.93921C61.7182 5.96857 61.181 6.69463 60.1266 7.13927C60.8996 7.25622 61.508 7.56078 61.9527 8.07546C62.3742 8.54386 62.5843 9.10545 62.5843 9.76084C62.5843 10.2993 62.4667 10.7671 62.186 11.1886C61.9296 11.6094 61.5312 11.9378 60.9927 12.2186C60.4555 12.4525 59.7995 12.5932 59.0272 12.5932H55.5163V2.24697H58.2311C59.1197 2.24697 59.7758 2.36454 60.2435 2.57467C60.7113 2.83232 61.0865 3.13688 61.3442 3.53462Z" fill="#2F2F2F"/>
<path fill-rule="evenodd" clip-rule="evenodd" d="M58.2771 3.55776H56.9901V6.69401H57.9732C58.7455 6.67024 59.3309 6.50702 59.658 6.2256C60.0088 5.92167 60.1733 5.5233 60.1733 5.05552C60.1739 4.0493 59.541 3.55776 58.2771 3.55776ZM60.0088 8.1924C59.6817 8.07483 59.1439 8.00479 58.3709 8.00479H56.9901V11.2817H58.4641C59.1902 11.2817 59.7286 11.2348 60.1026 11.1179C60.4297 10.9303 60.6642 10.7433 60.8049 10.5088C60.9687 10.228 61.0625 9.9472 61.0625 9.64264C61.0625 9.36185 60.9687 9.05729 60.8049 8.80026C60.641 8.54323 60.3609 8.30935 60.0088 8.1924ZM33.3047 0V15.0021H48.9153V0H33.3047ZM43.8835 3.53461C44.1412 3.93235 44.2813 4.377 44.2813 4.93921C44.2813 5.94543 43.7428 6.69463 42.6897 7.13927C43.462 7.25622 44.0705 7.58391 44.492 8.07546C44.9335 8.53393 45.1772 9.14752 45.1705 9.78398C45.1705 10.3224 45.0305 10.7902 44.7728 11.1886C44.4607 11.6204 44.0519 11.9731 43.579 12.2186C43.0411 12.4756 42.3851 12.6163 41.5665 12.6163H38.0794V2.2476H40.7942C41.6603 2.2476 42.3157 2.36517 42.7841 2.59906C43.275 2.83232 43.6496 3.13688 43.8835 3.53461Z" fill="#2F2F2F"/>
<path fill-rule="evenodd" clip-rule="evenodd" d="M43.346 8.80061C43.159 8.51982 42.9013 8.30907 42.5736 8.21527C42.2222 8.07456 41.6844 8.00452 40.9352 8.00452H39.5543V11.2815H41.029C41.8007 11.2815 42.3629 11.2346 42.6668 11.1176C42.9476 11.0001 43.1815 10.7899 43.3691 10.5323C43.5098 10.2746 43.603 9.97069 43.6261 9.64299C43.603 9.29216 43.5098 9.01137 43.346 8.80061ZM42.2222 6.22658C42.5499 5.92264 42.7137 5.54804 42.7369 5.0565C42.7369 4.07341 42.1052 3.55811 40.8414 3.55811H39.5537V6.69436H40.5368C41.3329 6.69436 41.8945 6.53051 42.2222 6.22658Z" fill="#2F2F2F"/>
</svg>
