<svg width="170" height="68" viewBox="0 0 170 68" fill="none" xmlns="http://www.w3.org/2000/svg">
<path d="M86.4889 15.0304V14.3733H86.5152C86.9883 14.3733 87.2774 14.2945 87.4876 14.1631C87.6453 14.0842 87.7505 13.9791 87.8556 13.8477C87.987 13.6637 88.0921 13.4272 88.1447 13.1643C88.2235 12.9015 88.2498 12.6124 88.2761 12.3496L88.3812 11.7188L89.012 11.7977C95.1095 12.6387 99.6826 17.7637 99.6826 23.8612C99.6826 29.7484 95.3723 34.8209 89.5376 36.0036L88.7492 36.1613V35.3728C88.7492 35.3203 88.7492 35.2414 88.7492 35.1626C88.7492 34.9523 88.7492 34.7158 88.6966 34.4792C88.644 34.1376 88.5389 33.8747 88.3287 33.7171C88.2235 33.6382 88.1184 33.5331 87.9081 33.4805C87.7242 33.4279 87.4613 33.3754 87.146 33.3754H87.1197C86.7254 33.3754 86.4363 33.4805 86.2261 33.5856C85.9107 33.7696 85.7267 34.085 85.5953 34.4267C85.4639 34.7683 85.4376 35.1626 85.4376 35.3991V35.4254V36.2139L84.6754 36.0825C81.653 35.5568 78.9196 34.0324 76.9222 31.8773C74.9247 29.7222 73.6895 26.91 73.6895 23.8612C73.6895 20.8913 74.8459 18.1842 76.6856 16.0554C78.5254 13.9265 81.0222 12.3759 83.7555 11.7188L84.36 11.5874L84.544 12.1656C84.7017 12.6913 84.8331 13.2695 85.0959 13.6637C85.2274 13.8477 85.3588 14.0054 85.569 14.1105C85.7793 14.2156 86.0421 14.2945 86.4363 14.2945L86.4889 15.0304V15.6874C85.9107 15.6874 85.4113 15.556 84.9908 15.3195C84.36 14.9778 84.0184 14.4522 83.7818 13.9265C83.5453 13.4272 83.4402 12.9278 83.335 12.5861L83.9658 12.4022L84.1235 13.0329C81.6793 13.6111 79.3927 15.0041 77.7369 16.949C76.0811 18.8676 75.0561 21.3118 75.0561 23.9138C75.0561 26.6208 76.16 29.1177 77.9472 31.0625C79.7344 33.0074 82.2312 34.4004 84.9645 34.8735L84.8594 35.5042H84.2024V35.4517C84.2024 34.9786 84.2812 34.2164 84.7017 33.5068C84.912 33.1388 85.2011 32.7972 85.6216 32.5344C86.0421 32.2715 86.5677 32.1138 87.1722 32.1138H87.1985C87.803 32.1138 88.3024 32.219 88.7229 32.4292C89.0383 32.5869 89.3011 32.7972 89.4851 33.0337C89.7742 33.4017 89.9056 33.7959 89.9844 34.1901C90.0633 34.5581 90.0633 34.926 90.0633 35.1889C90.0633 35.2677 90.0633 35.3465 90.0633 35.3991H89.4062L89.2748 34.7683C94.505 33.6908 98.3948 29.1439 98.3685 23.8875C98.3685 18.4471 94.2947 13.8477 88.828 13.0855L88.9069 12.4547L89.5376 12.5598C89.5114 12.7438 89.4851 13.0329 89.4062 13.3483C89.3011 13.8214 89.1171 14.3996 88.644 14.8727C88.4075 15.1092 88.1184 15.3195 87.7505 15.4509C87.3825 15.5823 86.9883 15.6611 86.5152 15.6611H86.4889V15.0304Z" fill="#EC1B23"/>
<path fill-rule="evenodd" clip-rule="evenodd" d="M77.6572 28.382L79.9964 19.5249L85.3842 19.63L84.5957 23.2044L82.9662 23.0993L83.3868 21.1807L81.3367 21.1281L79.7598 26.9365L81.915 26.9628L82.3618 25.307L83.9387 25.3596L83.1239 28.4871L77.6572 28.382Z" fill="#EC1B23"/>
<path d="M77.6576 28.3816L77.5262 28.3553L79.8916 19.3931L85.5423 19.5245L84.7012 23.3354L82.8089 23.204L83.2294 21.3117L81.416 21.2591L79.9179 26.8047L81.8102 26.8309L82.257 25.1752L84.0968 25.2277L83.2294 28.6181L77.4736 28.513L77.5262 28.3553L77.6576 28.3816V28.2502L83.0192 28.3553L83.7814 25.4643L82.4673 25.438L81.9942 27.0938L79.6025 27.0412L81.232 20.9963L83.5711 21.0488L83.1243 22.9675L84.491 23.0726L85.2269 19.761L80.0756 19.6559L77.7627 28.4079L77.6576 28.3816V28.2502V28.3816Z" fill="#EC1B23"/>
<path fill-rule="evenodd" clip-rule="evenodd" d="M84.7803 28.3286L86.7777 19.5503L91.4822 19.6291L91.1406 21.2586L88.0656 21.2061L87.6976 23.3087H90.1156L89.9053 24.9644L87.3034 24.9382L86.8829 26.8042L89.9579 26.8568L89.6162 28.46L84.7803 28.3286Z" fill="#EC1B23"/>
<path d="M84.7798 28.3291L84.6484 28.3028L86.6721 19.4194L91.6394 19.5246L91.2452 21.3906L88.1965 21.338L87.8548 23.1778H90.2465L90.0362 25.0964L87.408 25.0701L87.04 26.6733L90.1151 26.7259L89.7208 28.5919L84.6221 28.4605L84.6484 28.3028L84.7798 28.3291V28.224L89.5106 28.3291L89.7997 26.9624L86.7246 26.9362L87.1977 24.8073L89.7997 24.8336L89.9574 23.4406H87.5394L87.9599 21.0752L91.0349 21.1278L91.324 19.7611L86.8823 19.6823L84.9112 28.3817L84.7798 28.3291V28.224V28.3291Z" fill="#EC1B23"/>
<path fill-rule="evenodd" clip-rule="evenodd" d="M91.1133 28.4604L93.3736 19.6821L94.9768 19.761L93.137 26.936L96.0543 26.9623V28.5392L91.1133 28.4604Z" fill="#EC1B23"/>
<path d="M91.1137 28.46L90.9823 28.4337L93.2688 19.5503L95.1348 19.6291L93.2951 26.8042L96.1861 26.8305V28.6702L90.9297 28.5914L90.9823 28.4337L91.1137 28.46V28.3286L95.9233 28.4074V27.0933L92.9797 27.0407L94.8195 19.8657L93.4528 19.8131L91.2188 28.4863L91.1137 28.46V28.3286V28.46Z" fill="#EC1B23"/>
<path d="M14.0812 62.6535C13.3716 62.9426 12.7408 63.074 12.1363 63.074C11.085 63.074 10.1651 62.7324 9.35037 62.0753C8.29908 61.2343 7.77344 60.1041 7.77344 58.7374C7.77344 57.3708 8.29908 56.2669 9.35037 55.3996C10.1651 54.7426 11.1113 54.4009 12.1626 54.4009C12.7408 54.4009 13.3716 54.5323 14.0812 54.8214V57.3971C13.8709 57.1605 13.6869 56.9503 13.4504 56.8451C13.0562 56.6086 12.6619 56.5035 12.2151 56.5035C11.6632 56.5035 11.1638 56.6612 10.7696 57.0028C10.244 57.4233 9.98115 58.0015 9.98115 58.7374C9.98115 59.4734 10.244 60.0516 10.7696 60.4721C11.1901 60.8137 11.6632 60.9714 12.2151 60.9714C12.6619 60.9714 13.0562 60.8663 13.4504 60.6298C13.6607 60.4984 13.8709 60.3144 14.0812 60.0778V62.6535Z" fill="#00588A"/>
<path d="M20.1254 62.838H15.4209V54.5591H20.1254V56.3463H17.576V57.7918H19.994V59.5527H17.576V61.0508H20.1254V62.838Z" fill="#00588A"/>
<path d="M29.7448 62.838H27.5897L23.6473 57.7655V62.838H21.4922V54.5591H23.6473L27.5897 59.6316V54.5591H29.7448V62.838Z" fill="#00588A"/>
<path d="M36.3684 56.3463H34.5812V62.838H32.4523V56.3463H30.6914V54.5591H36.3684V56.3463Z" fill="#00588A"/>
<path d="M41.1517 57.2399C41.1517 56.9508 41.0465 56.6879 40.8363 56.504C40.626 56.32 40.3106 56.2149 39.8638 56.2149H39.4696V58.2912H39.8638C40.3106 58.2912 40.6523 58.186 40.8363 58.0021C41.0465 57.7918 41.1517 57.529 41.1517 57.2399ZM44.1741 62.838H41.5196L39.4696 59.6841V62.838H37.3145V54.5591H40.6523C41.6247 54.5591 42.3606 54.8482 42.8074 55.4264C43.1754 55.8995 43.3856 56.4514 43.3856 57.0822C43.3856 57.8181 43.1754 58.3963 42.7286 58.8431C42.4395 59.1322 42.0715 59.3162 41.5722 59.4213L44.1741 62.838Z" fill="#00588A"/>
<path d="M49.5358 59.763L48.6422 57.1347L47.7224 59.763H49.5358ZM52.9262 62.838H50.6397L50.114 61.3925H47.1441L46.5659 62.838H44.3057L47.4858 54.5591H49.8249L52.9262 62.838Z" fill="#00588A"/>
<path d="M58.603 62.838H53.8984V54.5591H56.0273V61.0508H58.603V62.838Z" fill="#00588A"/>
<path d="M67.8539 62.838H63.1494V54.5591H67.8539V56.3463H65.3046V57.7918H67.7225V59.5527H65.3046V61.0508H67.8539V62.838Z" fill="#00588A"/>
<path d="M73.9515 62.838H69.2207V54.5591H71.3496V61.0508H73.9515V62.838Z" fill="#00588A"/>
<path d="M79.7339 62.838H75.0557V54.5591H79.7339V56.3463H77.1845V57.7918H79.6025V59.5527H77.1845V61.0508H79.7339V62.838Z" fill="#00588A"/>
<path d="M87.0665 62.6535C86.3569 62.9426 85.7261 63.074 85.1216 63.074C84.0704 63.074 83.1505 62.7324 82.3357 62.0753C81.2844 61.2343 80.7588 60.1041 80.7588 58.7374C80.7588 57.3708 81.2844 56.2669 82.3357 55.3996C83.1505 54.7426 84.0966 54.4009 85.1479 54.4009C85.7261 54.4009 86.3569 54.5323 87.0665 54.8214V57.3971C86.8563 57.1605 86.6723 56.9503 86.4358 56.8451C86.0415 56.6086 85.6473 56.5035 85.2005 56.5035C84.6486 56.5035 84.1492 56.6612 83.755 57.0028C83.2293 57.4233 82.9665 58.0015 82.9665 58.7374C82.9665 59.4734 83.2293 60.0516 83.755 60.4721C84.1755 60.8137 84.6486 60.9714 85.2005 60.9714C85.6473 60.9714 86.0415 60.8663 86.4358 60.6298C86.646 60.4984 86.8563 60.3144 87.0665 60.0778V62.6535Z" fill="#00588A"/>
<path d="M93.3215 56.3463H91.5343V62.838H89.3792V56.3463H87.6445V54.5591H93.3215V56.3463Z" fill="#00588A"/>
<path d="M98.1048 57.2399C98.1048 56.9508 97.9997 56.6879 97.7894 56.504C97.5791 56.32 97.2638 56.2149 96.817 56.2149H96.4227V58.2912H96.817C97.2638 58.2912 97.6054 58.186 97.7894 58.0021C97.9997 57.7918 98.1048 57.529 98.1048 57.2399ZM101.127 62.838H98.4727L96.4227 59.6841V62.838H94.2676V54.5591H97.6054C98.5779 54.5591 99.3138 54.8482 99.7606 55.4264C100.129 55.8995 100.339 56.4514 100.339 57.0822C100.339 57.8181 100.129 58.3963 99.6817 58.8431C99.3926 59.1322 99.0247 59.3162 98.5253 59.4213L101.127 62.838Z" fill="#00588A"/>
<path d="M108.565 58.7372C108.565 58.159 108.381 57.6596 108.014 57.2128C107.54 56.6609 106.936 56.3981 106.226 56.3981C105.727 56.3981 105.28 56.5295 104.886 56.8186C104.492 57.1077 104.203 57.4756 104.019 57.9224C103.914 58.1853 103.861 58.4481 103.861 58.7109C103.861 59.2628 104.045 59.7622 104.413 60.209C104.886 60.7609 105.464 61.0237 106.2 61.0237C106.936 61.0237 107.514 60.7609 107.987 60.209C108.381 59.8148 108.565 59.2891 108.565 58.7372ZM110.799 58.7372C110.799 59.8673 110.432 60.8398 109.669 61.6808C108.828 62.6532 107.672 63.1263 106.2 63.1263C104.755 63.1263 103.598 62.6532 102.757 61.6808C102.021 60.8398 101.627 59.841 101.627 58.7372C101.627 58.2378 101.732 57.7122 101.942 57.1603C102.153 56.6083 102.415 56.1615 102.757 55.7673C103.598 54.7949 104.755 54.3218 106.226 54.3218C107.672 54.3218 108.828 54.7949 109.696 55.7673C110.432 56.6083 110.799 57.6071 110.799 58.7372Z" fill="#00588A"/>
<path d="M120.419 62.838H118.263L114.321 57.7655V62.838H112.166V54.5591H114.321L118.263 59.6316V54.5591H120.419V62.838Z" fill="#00588A"/>
<path d="M124.308 54.5591H122.153V62.838H124.308V54.5591Z" fill="#00588A"/>
<path d="M131.983 62.6535C131.273 62.9426 130.642 63.074 130.038 63.074C128.986 63.074 128.066 62.7324 127.252 62.0753C126.2 61.2343 125.675 60.1041 125.675 58.7374C125.675 57.3708 126.2 56.2669 127.252 55.3996C128.066 54.7426 129.013 54.4009 130.064 54.4009C130.642 54.4009 131.273 54.5323 131.983 54.8214V57.3971C131.772 57.1605 131.588 56.9503 131.352 56.8451C130.958 56.6086 130.563 56.5035 130.117 56.5035C129.565 56.5035 129.065 56.6612 128.671 57.0028C128.145 57.4233 127.883 58.0015 127.883 58.7374C127.883 59.4734 128.145 60.0516 128.671 60.4721C129.091 60.8137 129.565 60.9714 130.117 60.9714C130.563 60.9714 130.958 60.8663 131.352 60.6298C131.562 60.4984 131.772 60.3144 131.983 60.0778V62.6535Z" fill="#00588A"/>
<path d="M139.053 60.1035C139.053 61.4965 138.448 62.4164 137.213 62.8369C136.792 62.9946 136.319 63.0734 135.846 63.0734C134.821 63.0734 133.849 62.7581 132.981 62.1273L133.901 60.3927C134.558 60.9709 135.163 61.26 135.794 61.26C136.083 61.26 136.319 61.1811 136.503 61.076C136.74 60.9183 136.845 60.708 136.845 60.4452C136.845 60.2087 136.714 59.9984 136.477 59.8407C136.293 59.7093 135.978 59.6042 135.531 59.4728C135.005 59.3151 134.664 59.21 134.532 59.1574C134.322 59.0523 134.138 58.9471 133.98 58.842C133.533 58.4741 133.323 57.9221 133.323 57.1862C133.323 56.424 133.56 55.7933 134.006 55.2676C134.532 54.6631 135.242 54.374 136.135 54.374C137.029 54.374 137.896 54.5843 138.764 55.0574L137.896 56.7394C137.423 56.3715 136.95 56.1875 136.477 56.1875C136.24 56.1875 136.03 56.2401 135.846 56.3715C135.636 56.5029 135.531 56.6869 135.531 56.8971C135.531 57.1074 135.662 57.3176 135.925 57.4753C136.056 57.5542 136.398 57.6856 137.003 57.8433C137.765 58.0535 138.29 58.3689 138.632 58.7894C138.921 59.1048 139.053 59.5516 139.053 60.1035Z" fill="#00588A"/>
<path d="M148.593 62.838H143.862V54.5591H146.017V61.0508H148.593V62.838Z" fill="#00588A"/>
<path d="M154.585 56.3463H152.798V62.838H150.643V56.3463H148.908V54.5591H154.585V56.3463Z" fill="#00588A"/>
<path d="M160.526 58.6853C160.526 58.1071 160.368 57.6077 160.053 57.1872C159.632 56.6353 159.001 56.3462 158.16 56.3462H157.661V61.0507H158.16C159.001 61.0507 159.632 60.7616 160.053 60.2097C160.368 59.7629 160.526 59.2635 160.526 58.6853ZM162.76 58.6853C162.76 59.5526 162.497 60.3411 161.971 61.077C161.446 61.8129 160.788 62.3123 159.974 62.6014C159.553 62.7591 159.106 62.8116 158.66 62.8116H155.479V54.5327H158.66C159.422 54.5327 160.158 54.743 160.815 55.1898C161.472 55.6103 161.971 56.1622 162.313 56.8718C162.628 57.4763 162.76 58.0808 162.76 58.6853Z" fill="#00588A"/>
<path d="M165.441 62.2072C165.441 62.4174 165.362 62.5751 165.23 62.7328C165.099 62.8642 164.915 62.9431 164.705 62.9431C164.494 62.9431 164.31 62.8642 164.179 62.7328C164.048 62.6014 163.969 62.4174 163.969 62.2072C163.969 61.9969 164.048 61.8392 164.179 61.7078C164.337 61.5764 164.494 61.4976 164.705 61.4976C164.915 61.4976 165.073 61.5764 165.23 61.7078C165.362 61.8392 165.441 61.9969 165.441 62.2072Z" fill="#00588A"/>
<path d="M29.3767 46.1744H31.0851V44.3346H29.1139C29.3767 44.7026 29.5081 45.1231 29.5081 45.5699C29.5081 45.8327 29.4556 46.0167 29.3767 46.1744ZM29.1139 50.7212C27.6947 49.6699 26.5645 48.2507 25.7498 46.4372L26.8011 45.7013C26.8799 45.9116 27.0113 46.0955 27.169 46.2269C27.2742 46.3584 27.4056 46.4109 27.537 46.4109C27.6947 46.4109 27.7998 46.3321 27.9049 46.1744C28.0101 46.0167 28.0626 45.8064 28.0626 45.5699C28.0626 45.1231 27.9312 44.7026 27.6684 44.3346H25.3818V43.0205H33.687V44.3346H32.5306V50.2481H31.0851V47.4885H29.1139L28.8511 47.2257C28.6934 47.4622 28.4569 47.6462 28.1152 47.8302C28.4306 48.3821 29.0351 49.0391 29.9549 49.8013L29.1139 50.7212Z" fill="#00588A"/>
<path d="M33.1885 41.4967L32.216 40.6556L33.1885 39.7358L34.1609 40.6556L33.1885 41.4967ZM31.007 43.021C30.7705 42.7582 30.4814 42.5742 30.166 42.4165C29.8506 42.2851 29.509 42.2063 29.1936 42.2063H27.748V41.155H29.0622C29.4301 41.155 29.7455 41.2338 30.0346 41.3653C30.3237 41.4967 30.5602 41.6806 30.7705 41.9435H30.9808C30.8494 41.5755 30.6391 41.3127 30.3237 41.1024C30.0083 40.8922 29.6667 40.7608 29.325 40.7608H28.0109V39.7095H30.1134C30.5077 39.7095 30.9282 40.0249 31.4013 40.6294C31.8481 41.2076 32.2423 41.996 32.6103 42.9948H31.007V43.021Z" fill="#00588A"/>
<path d="M37.2358 50.3795C36.3422 50.3795 35.58 50.1167 34.9755 49.5911C34.3711 49.0654 34.0819 48.4084 34.0819 47.5936C34.0819 46.9891 34.3448 46.4372 34.8441 45.9641C35.3435 45.5173 35.9743 45.2808 36.6839 45.2808H37.2358V44.3346H33.4512V43.0205H40.1269V44.3346H38.7076V46.4372H36.7102C36.3948 46.4372 36.1057 46.5423 35.8954 46.7789C35.6589 46.9891 35.5538 47.2519 35.5275 47.5673C35.5275 47.9878 35.6852 48.3295 36.0268 48.6186C36.3422 48.8814 36.7627 49.0129 37.2358 49.0129C37.5775 49.0129 37.8929 48.9603 38.182 48.8289C38.5236 48.6712 38.7865 48.5135 38.9967 48.3032L39.7589 49.5385C39.4172 49.8276 39.023 50.0379 38.6288 50.1693C38.2083 50.3007 37.7352 50.3795 37.2358 50.3795Z" fill="#00588A"/>
<path d="M34.8438 51.8258L36.9463 49.9072L39.0489 51.8258L38.313 52.5355L36.9463 51.3528L35.5534 52.5355L34.8438 51.8258Z" fill="#00588A"/>
<path d="M45.8555 46.9628C45.8029 46.7526 45.6978 46.5949 45.5664 46.4898C45.4349 46.3584 45.3035 46.3058 45.1196 46.3058C44.9093 46.3058 44.7253 46.3584 44.5676 46.4898C44.4099 46.5949 44.3311 46.7263 44.3311 46.9103V47.3834H43.1484V46.9103C43.1484 46.7263 43.0958 46.5686 42.9644 46.4372C42.833 46.3058 42.7016 46.2532 42.5439 46.2532C42.3862 46.2532 42.2285 46.3321 42.1234 46.4635C42.0183 46.6212 41.9394 46.8052 41.9394 47.0154C41.9394 47.3571 42.0708 47.6987 42.3336 48.093C42.6227 48.4872 42.9907 48.8289 43.4375 49.1443L44.2785 49.6699L43.3586 50.5109C42.4913 50.0904 41.808 49.5648 41.2561 48.9077C40.7304 48.277 40.4676 47.6462 40.4676 47.0154C40.4676 46.4372 40.6516 45.9378 41.0195 45.5173C41.3875 45.1231 41.8343 44.9128 42.3599 44.9128C42.6227 44.9128 42.8856 44.9654 43.1221 45.0968C43.3324 45.2019 43.5426 45.3596 43.7529 45.5699C43.8843 45.3859 44.042 45.2545 44.2522 45.1231C44.4625 45.018 44.699 44.9654 44.9356 44.9654C45.1196 44.9654 45.2773 44.9917 45.4087 45.0442C45.5664 45.0968 45.6715 45.1757 45.7766 45.2808V44.3346H39.8105V43.0205H48.3786V44.3346H47.2221V50.2481H45.7766V46.9628H45.8555Z" fill="#00588A"/>
<path d="M51.2178 44.3346V43.0205H57.6832V44.3346H56.4479V46.1744H53.6883C53.6357 46.1744 53.5832 46.2007 53.5306 46.2532C53.478 46.3058 53.4518 46.3584 53.478 46.4372C53.478 46.5423 53.5043 46.6475 53.5832 46.7C53.662 46.7789 53.7672 46.8314 53.846 46.8314L55.5543 46.7789C55.9749 46.7789 56.3165 46.9366 56.6056 47.2257C56.8947 47.5148 57.0261 47.909 56.9999 48.3295C56.9999 48.6975 56.8159 49.0917 56.4742 49.4597C56.1063 49.8276 55.6332 50.1167 55.055 50.327C55.3704 50.6949 55.8435 51.0366 56.5005 51.2994L56.1588 52.4033C55.7646 52.3244 55.3704 52.1405 54.9761 51.8776C54.5819 51.5885 54.1614 51.1943 53.7409 50.6949H53.2152C52.8473 50.6949 52.5319 50.5898 52.2953 50.3533C52.0325 50.1167 51.9011 49.8539 51.9011 49.5122C51.9011 49.2231 51.98 49.0129 52.1639 48.8552C52.3216 48.6975 52.5582 48.6186 52.8736 48.6186C53.1101 48.6186 53.3204 48.6712 53.5306 48.8026C53.7409 48.934 53.9248 49.0917 54.0563 49.2757C54.4768 49.2494 54.8184 49.1443 55.1338 48.9603C55.4492 48.7763 55.5806 48.5661 55.5806 48.3295C55.5806 48.2244 55.5281 48.1193 55.4492 48.0667C55.3704 47.9879 55.2915 47.9616 55.1864 47.9616C55.0813 47.9616 54.7659 47.9879 54.2928 48.0404C53.8986 48.0667 53.6095 48.093 53.4255 48.093C53.0575 48.093 52.7421 47.8827 52.453 47.4885C52.1639 47.068 52.0325 46.6212 52.0325 46.1218C52.0325 45.8327 52.1377 45.5699 52.3742 45.3333C52.5582 45.1231 52.821 45.018 53.1627 45.018H55.0024V44.3346H51.2178Z" fill="#00588A"/>
<path d="M63.334 46.9628C63.2814 46.7526 63.1763 46.5949 63.0449 46.4898C62.9135 46.3584 62.7821 46.3058 62.5981 46.3058C62.3878 46.3058 62.2038 46.3584 62.0461 46.4898C61.8885 46.5949 61.8096 46.7263 61.8096 46.9103V47.3834H60.6269V46.9103C60.6269 46.7263 60.5743 46.5686 60.4429 46.4372C60.3115 46.3058 60.1801 46.2532 60.0224 46.2532C59.8647 46.2532 59.707 46.3321 59.6019 46.4635C59.4968 46.6212 59.4179 46.8052 59.4179 47.0154C59.4179 47.3571 59.5493 47.6987 59.8122 48.093C60.1013 48.4872 60.4692 48.8289 60.916 49.1443L61.757 49.6699L60.8372 50.5109C59.9699 50.0904 59.2865 49.5648 58.7346 48.9077C58.2089 48.277 57.9461 47.6462 57.9461 47.0154C57.9461 46.4372 58.1301 45.9378 58.498 45.5173C58.866 45.1231 59.3128 44.9128 59.8384 44.9128C60.1013 44.9128 60.3641 44.9654 60.6006 45.0968C60.8109 45.2019 61.0211 45.3596 61.2314 45.5699C61.3628 45.3859 61.5205 45.2545 61.7308 45.1231C61.941 45.018 62.1776 44.9654 62.4141 44.9654C62.5981 44.9654 62.7558 44.9917 62.8872 45.0442C63.0449 45.0968 63.15 45.1757 63.2551 45.2808V44.3346H57.2891V43.0205H65.8571V44.3346H64.7007V50.2481H63.2551V46.9628H63.334Z" fill="#00588A"/>
<path d="M63.2815 43.021C63.0449 42.7582 62.7558 42.5742 62.4404 42.4165C62.125 42.2851 61.7834 42.2063 61.468 42.2063H60.0225V41.155H61.3366C61.7045 41.155 62.0199 41.2338 62.309 41.3653C62.5981 41.4967 62.8347 41.6806 63.0449 41.9435H63.2552C63.1238 41.5755 62.9135 41.3127 62.5981 41.1024C62.2827 40.8922 61.9411 40.7608 61.5994 40.7608H60.2853V39.7095H62.3879C62.7821 39.7095 63.2026 40.0249 63.6757 40.6294C64.1225 41.2076 64.5167 41.996 64.8847 42.9948H63.2815V43.021Z" fill="#00588A"/>
<path d="M68.6158 47.8827C68.7735 47.8827 68.9312 47.8302 69.1152 47.6987C69.2992 47.5673 69.4831 47.4096 69.6146 47.2257V46.7C69.4569 46.516 69.2992 46.3583 69.1152 46.2532C68.9312 46.1481 68.7735 46.0955 68.6158 46.0955C68.3793 46.0955 68.169 46.1744 68.0113 46.3321C67.8274 46.516 67.7485 46.7 67.7748 46.9366C67.7748 47.1994 67.8536 47.4096 68.0376 47.5673C68.2216 47.7776 68.4056 47.8827 68.6158 47.8827ZM69.6146 50.2481V48.934C69.5094 49.0391 69.3517 49.0917 69.2203 49.1443C69.0363 49.1968 68.8261 49.2231 68.6421 49.1968C67.9851 49.1968 67.4331 48.9866 66.9863 48.5661C66.5395 48.1455 66.3293 47.6199 66.3293 46.9628C66.3293 46.4109 66.5395 45.9378 66.9863 45.5436C67.4331 45.1494 67.9588 44.9391 68.5633 44.9391C68.7998 44.9391 69.0101 44.9654 69.194 45.018C69.3517 45.0442 69.4831 45.1231 69.6408 45.2282V44.3346H65.7773V43.0205H73.5306V44.3346H71.1126V45.5173C71.2966 45.3333 71.5069 45.2019 71.7434 45.1231C71.9537 45.018 72.2165 44.9654 72.5056 44.9654C72.7159 44.9654 72.9261 45.018 73.1364 45.1231C73.3466 45.2282 73.5306 45.3596 73.6883 45.5436L72.8473 46.516C72.7947 46.4635 72.7421 46.4109 72.6633 46.3846C72.5844 46.3583 72.5056 46.3321 72.4267 46.3321C72.1902 46.3321 71.9799 46.3846 71.7434 46.516C71.5069 46.6475 71.2966 46.8314 71.1126 47.0417V50.1956H69.6146V50.2481Z" fill="#00588A"/>
<path d="M76.9741 50.3795C76.0805 50.3795 75.3183 50.1167 74.7138 49.5911C74.1093 49.0654 73.8202 48.4084 73.8202 47.5936C73.8202 46.9891 74.0831 46.4372 74.5824 45.9641C75.0818 45.5173 75.7126 45.2808 76.4222 45.2808H76.9741V44.3346H73.1895V43.0205H79.8389V44.3346H78.4196V46.4372H76.4485C76.1331 46.4372 75.844 46.5423 75.6337 46.7789C75.3972 46.9891 75.292 47.2519 75.2658 47.5673C75.2658 47.9878 75.4234 48.3295 75.7651 48.6186C76.0805 48.8814 76.501 49.0129 76.9741 49.0129C77.3158 49.0129 77.6312 48.9603 77.9203 48.8289C78.2619 48.6712 78.5247 48.5135 78.735 48.3032L79.4972 49.5385C79.1555 49.8276 78.7613 50.0379 78.3671 50.1693C77.9465 50.3007 77.4735 50.3795 76.9741 50.3795Z" fill="#00588A"/>
<path d="M74.5557 51.8258L76.6845 49.9072L78.7608 51.8258L78.0512 52.5355L76.6845 51.3528L75.2916 52.5355L74.5557 51.8258Z" fill="#00588A"/>
<path d="M80.7853 50.2481V44.3346H79.6289V43.0205H83.3873V44.3346H82.2309V50.2481H80.7853Z" fill="#00588A"/>
<path d="M81.4681 42.127C80.9161 42.127 80.4168 41.9167 79.9174 41.4962C79.4181 41.0757 79.0764 40.5501 78.8398 39.893L79.8123 39.4199C79.9963 39.8667 80.2328 40.2084 80.5219 40.4975C80.8373 40.7866 81.1527 40.918 81.4681 40.918C81.7309 40.918 81.9674 40.7866 82.2303 40.5238C82.4931 40.261 82.6771 39.9193 82.861 39.4725L83.9123 39.8142C83.7283 40.4712 83.4392 41.0231 82.9924 41.4699C82.5194 41.8905 82.02 42.127 81.4681 42.127Z" fill="#00588A"/>
<path d="M84.3332 50.2484V44.3349H83.1768V43.0208H84.412C84.2281 42.6266 84.1492 42.2323 84.1492 41.7855C84.1492 41.181 84.3857 40.6817 84.8325 40.3137C85.2793 39.9458 85.8838 39.7881 86.646 39.7881C87.671 39.7881 88.6697 40.0772 89.6422 40.6291C90.6146 41.181 91.482 41.9432 92.1916 42.9682H90.6146C90.1678 42.3375 89.6422 41.8381 88.9589 41.4701C88.2755 41.1022 87.5396 40.9182 86.7774 40.9445C86.4358 40.9445 86.1729 41.0496 85.9627 41.2862C85.7524 41.4964 85.621 41.7855 85.5947 42.1009V42.3375C85.5947 42.7317 85.621 42.942 85.6473 43.0208H86.9351V44.3349H85.7787V50.2484H84.3332Z" fill="#00588A"/>
<path d="M91.2459 50.2481V46.9628H89.1433V47.6199C89.1433 47.7776 89.117 47.8827 89.0382 47.9878C88.9856 48.0667 88.8805 48.1193 88.7753 48.1455C88.4074 48.1455 88.0132 47.9353 87.6189 47.4885C87.2247 47.0417 87.0407 46.6212 87.0407 46.2269C87.0407 46.0955 87.0933 45.9904 87.1984 45.9116C87.2773 45.8327 87.3824 45.7801 87.5138 45.8064H91.2722V44.3346H86.6465V43.0205H93.8741V44.3346H92.6914V50.2481H91.2459Z" fill="#00588A"/>
<path d="M96.4498 47.8827C96.6075 47.8827 96.7652 47.8302 96.9492 47.6987C97.1332 47.5673 97.3171 47.4096 97.4485 47.2257V46.7C97.2908 46.516 97.1332 46.3583 96.9492 46.2532C96.7652 46.1481 96.6075 46.0955 96.4498 46.0955C96.2133 46.0955 96.003 46.1744 95.8453 46.3321C95.6613 46.516 95.5825 46.7 95.6088 46.9366C95.6088 47.1994 95.6876 47.4096 95.8716 47.5673C96.0556 47.7776 96.2395 47.8827 96.4498 47.8827ZM97.4485 50.2481V48.934C97.3434 49.0391 97.1857 49.0917 97.0543 49.1443C96.8703 49.1968 96.6601 49.2231 96.4761 49.1968C95.819 49.1968 95.2671 48.9866 94.8203 48.5661C94.3735 48.1455 94.1633 47.6199 94.1633 46.9628C94.1633 46.4109 94.3735 45.9378 94.8203 45.5436C95.2671 45.1494 95.7928 44.9391 96.3972 44.9391C96.6338 44.9391 96.844 44.9654 97.028 45.018C97.1857 45.0442 97.3171 45.1231 97.4748 45.2282V44.3346H93.6113V43.0205H101.365V44.3346H98.9466V45.5173C99.1306 45.3333 99.3409 45.2019 99.5774 45.1231C99.7877 45.018 100.05 44.9654 100.34 44.9654C100.55 44.9654 100.76 45.018 100.97 45.1231C101.181 45.2282 101.365 45.3596 101.522 45.5436L100.681 46.516C100.629 46.4635 100.576 46.4109 100.497 46.3846C100.418 46.3583 100.34 46.3321 100.261 46.3321C100.024 46.3321 99.8139 46.3846 99.5774 46.516C99.3409 46.6475 99.1306 46.8314 98.9466 47.0417V50.1956H97.4485V50.2481Z" fill="#00588A"/>
<path d="M105.017 46.1744H106.726V44.3346H104.755C105.017 44.7026 105.149 45.1231 105.149 45.5699C105.149 45.8327 105.096 46.0167 105.017 46.1744ZM104.755 50.7212C103.335 49.6699 102.205 48.2507 101.39 46.4372L102.442 45.7013C102.521 45.9116 102.652 46.0955 102.81 46.2269C102.915 46.3584 103.046 46.4109 103.178 46.4109C103.335 46.4109 103.44 46.3321 103.546 46.1744C103.651 46.0167 103.703 45.8064 103.703 45.5699C103.703 45.1231 103.572 44.7026 103.309 44.3346H101.022V43.0205H109.328V44.3346H108.171V50.2481H106.726V47.4885H104.755L104.492 47.2257C104.334 47.4622 104.097 47.6462 103.756 47.8302C104.071 48.3821 104.676 49.0391 105.596 49.8013L104.755 50.7212Z" fill="#00588A"/>
<path d="M113.243 50.2484V44.3349H112.087V43.0208H113.322C113.138 42.6266 113.059 42.2323 113.059 41.7855C113.059 41.181 113.296 40.6817 113.743 40.3137C114.189 39.9458 114.794 39.7881 115.556 39.7881C116.581 39.7881 117.58 40.0772 118.552 40.6291C119.525 41.181 120.392 41.9432 121.102 42.9682H119.525C119.078 42.3375 118.552 41.8381 117.869 41.4701C117.186 41.1022 116.45 40.9182 115.688 40.9445C115.346 40.9445 115.083 41.0496 114.873 41.2862C114.663 41.4964 114.531 41.7855 114.505 42.1009V42.3375C114.505 42.7317 114.531 42.942 114.557 43.0208H115.845V44.3349H114.689V50.2484H113.243Z" fill="#00588A"/>
<path d="M121.496 46.9628C121.444 46.7526 121.339 46.5949 121.207 46.4898C121.076 46.3584 120.944 46.3058 120.761 46.3058C120.55 46.3058 120.366 46.3584 120.209 46.4898C120.051 46.5949 119.972 46.7263 119.972 46.9103V47.3834H118.789V46.9103C118.789 46.7263 118.737 46.5686 118.605 46.4372C118.474 46.3058 118.343 46.2532 118.185 46.2532C118.027 46.2532 117.869 46.3321 117.764 46.4635C117.659 46.6212 117.58 46.8052 117.58 47.0154C117.58 47.3571 117.712 47.6987 117.975 48.093C118.264 48.4872 118.632 48.8289 119.078 49.1443L119.919 49.6699L119 50.5109C118.132 50.0904 117.449 49.5648 116.897 48.9077C116.371 48.277 116.109 47.6462 116.109 47.0154C116.109 46.4372 116.293 45.9378 116.66 45.5173C117.028 45.1231 117.475 44.9128 118.001 44.9128C118.264 44.9128 118.527 44.9654 118.763 45.0968C118.973 45.2019 119.184 45.3596 119.394 45.5699C119.525 45.3859 119.683 45.2545 119.893 45.1231C120.103 45.018 120.34 44.9654 120.577 44.9654C120.761 44.9654 120.918 44.9917 121.05 45.0442C121.207 45.0968 121.312 45.1757 121.418 45.2808V44.3346H115.557V43.0205H124.125V44.3346H122.968V50.2481H121.523V46.9628H121.496Z" fill="#00588A"/>
<path d="M124.966 50.2484V44.3349H123.81V43.0208H125.045C124.861 42.6266 124.782 42.2323 124.782 41.7855C124.782 41.181 125.019 40.6817 125.465 40.3137C125.912 39.9458 126.517 39.7881 127.279 39.7881C128.304 39.7881 129.303 40.0772 130.275 40.6291C131.247 41.181 132.115 41.9432 132.824 42.9682H131.247C130.801 42.3375 130.275 41.8381 129.592 41.4701C128.908 41.1022 128.172 40.9182 127.41 40.9445C127.069 40.9445 126.806 41.0496 126.595 41.2862C126.385 41.4964 126.254 41.7855 126.228 42.1009V42.3375C126.228 42.7317 126.254 42.942 126.28 43.0208H127.568V44.3349H126.412V50.2484H124.966Z" fill="#00588A"/>
<path d="M130.117 46.4373H132.219V44.3347H130.117V46.4373ZM132.219 50.2482V47.7514H130.117V48.3559C130.117 48.5136 130.064 48.6187 129.959 48.7238C129.854 48.829 129.723 48.8815 129.591 48.8815C129.223 48.8815 128.829 48.645 128.382 48.1719C127.935 47.6988 127.699 47.2783 127.699 46.9104C127.699 46.7527 127.751 46.6475 127.883 46.5687C128.014 46.4898 128.146 46.4636 128.303 46.4636H128.698V44.361H127.305V43.0469H134.848V44.361H133.691V50.2745H132.219V50.2482Z" fill="#00588A"/>
<path d="M138.317 50.3795C137.423 50.3795 136.661 50.1167 136.057 49.5911C135.452 49.0654 135.163 48.4084 135.163 47.5936C135.163 46.9891 135.426 46.4372 135.925 45.9641C136.425 45.5173 137.055 45.2808 137.765 45.2808H138.317V44.3346H134.532V43.0205H141.182V44.3346H139.762V46.4372H137.791C137.476 46.4372 137.187 46.5423 136.976 46.7789C136.74 46.9891 136.635 47.2519 136.609 47.5673C136.609 47.9878 136.766 48.3295 137.108 48.6186C137.423 48.8814 137.844 49.0129 138.317 49.0129C138.659 49.0129 138.974 48.9603 139.263 48.8289C139.605 48.6712 139.868 48.5135 140.078 48.3032L140.84 49.5385C140.498 49.8276 140.104 50.0379 139.71 50.1693C139.289 50.3007 138.816 50.3795 138.317 50.3795Z" fill="#00588A"/>
<path d="M138.579 43.0202L137.659 41.6535C137.528 41.417 137.37 41.233 137.186 41.1279C137.002 40.9965 136.818 40.9439 136.66 40.9439H136.135V39.7612H137.37C137.58 39.7612 137.817 39.8926 138.106 40.1555C138.395 40.4183 138.684 40.7862 138.947 41.2593L139.998 43.0465H138.579V43.0202Z" fill="#00588A"/>
<path d="M144.546 50.3533C143.784 50.3533 143.127 50.1693 142.549 49.8276C141.97 49.4597 141.55 48.9603 141.34 48.3558L142.391 47.6987C142.549 48.1455 142.838 48.4872 143.232 48.7763C143.626 49.0654 144.073 49.1968 144.546 49.1968C144.888 49.1968 145.151 49.118 145.387 48.9866C145.597 48.8289 145.729 48.6449 145.729 48.4347C145.729 48.3032 145.676 48.1981 145.571 48.093C145.466 47.9878 145.335 47.9616 145.203 47.9616H143.994C143.574 47.9616 143.153 47.7513 142.759 47.3045C142.338 46.8577 142.128 46.4109 142.128 45.9904C142.128 45.675 142.233 45.4122 142.47 45.2019C142.68 44.9917 142.969 44.8603 143.258 44.8603H145.098V44.3346H140.972V43.0205H147.805V44.3346H146.544V45.5699C146.544 45.7276 146.465 45.8853 146.333 46.0167C146.176 46.1218 145.992 46.2007 145.781 46.2007H143.994C143.915 46.2007 143.81 46.2269 143.731 46.2532C143.626 46.2795 143.6 46.3321 143.6 46.3846C143.6 46.4898 143.652 46.5949 143.784 46.6737C143.889 46.7526 144.047 46.8051 144.204 46.8051H145.229C145.781 46.8051 146.254 46.9628 146.649 47.2782C147.043 47.5936 147.253 47.9879 147.253 48.4347C147.253 49.0391 147.043 49.5122 146.57 49.8539C146.018 50.1693 145.387 50.3533 144.546 50.3533Z" fill="#00588A"/>
<g style="mix-blend-mode:color">
<rect x="0.821289" width="169.179" height="67.9804" />
</g>
</svg>
