<svg width="73" height="74" viewBox="0 0 73 74" fill="none" xmlns="http://www.w3.org/2000/svg">
<g clip-path="url(#clip0_97_1155)">
<path d="M61.5694 28.0939H66.507L63.939 41.5758H59.0014L61.5694 28.0939ZM40.3051 28.0939H46.7877L47.7272 36.2872L51.7776 28.0939H58.2393L55.6713 41.5758H51.6523L53.6044 31.3004L48.531 41.5758H44.8878L43.7291 31.3004L41.777 41.5758H37.7371L40.3051 28.0939ZM19.2914 28.0939H25.774L26.7135 36.2872L30.7638 28.0939H37.2256L34.6576 41.5758H30.6386L32.5907 31.3004L27.5173 41.5758H23.8741L22.7154 31.3004L20.7633 41.5758H16.7338L19.3018 28.0939H19.2914ZM11.1176 36.0581L15.2201 37.1617C14.74 38.1819 14.1136 39.0356 13.362 39.7227C12.6104 40.4098 11.7335 40.9304 10.7418 41.2739C9.7501 41.6279 8.53918 41.7945 7.11947 41.7945C5.3866 41.7945 4.00865 41.5758 2.99606 41.1594C1.98348 40.7326 1.16924 39.983 0.574213 38.9107C-0.0208103 37.8384 -0.156517 36.4642 0.167092 34.7984C0.595091 32.5706 1.61811 30.8528 3.2466 29.6555C4.87509 28.4583 6.97333 27.8545 9.54132 27.8545C11.5456 27.8545 13.0593 28.198 14.0823 28.8852C15.1053 29.5723 15.763 30.6237 16.0448 32.05L11.5352 32.8725C11.4621 32.4664 11.3577 32.1645 11.2324 31.9667C11.0132 31.6544 10.7314 31.4045 10.3556 31.2276C9.9902 31.0506 9.5622 30.9673 9.07157 30.9673C7.95459 30.9673 7.02552 31.3421 6.29479 32.1021C5.74152 32.6642 5.34484 33.5492 5.11518 34.7568C4.83333 36.2559 4.9064 37.2762 5.3344 37.8384C5.7624 38.3901 6.47225 38.6712 7.43264 38.6712C8.39303 38.6712 9.1342 38.4422 9.69791 37.9945C10.2616 37.5469 10.7314 36.9014 11.1176 36.0477V36.0581Z" fill="#A0A0A0"/>
<path d="M12.6836 26.439C33.8539 10.2087 53.1974 4.54527 63.2606 20.4945C63.5216 1.5678 36.3697 0.620428 12.6836 26.439Z" fill="#A0A0A0"/>
<mask id="mask0_97_1155" style="mask-type:luminance" maskUnits="userSpaceOnUse" x="12" y="6" width="52" height="21">
<path d="M12.6836 26.439C33.8539 10.2087 53.1974 4.54527 63.2606 20.4945C63.5216 1.5678 36.3697 0.620428 12.6836 26.439Z" fill="white"/>
</mask>
<g mask="url(#mask0_97_1155)">
<path d="M63.5216 0.620117H12.6836V26.4387H63.5216V0.620117Z" fill="#A0A0A0"/>
</g>
<path d="M56.8405 46C35.0334 58.9718 16.1179 62.1783 8.4139 46C6.04425 63.8336 31.5781 67.7376 56.8405 46Z" fill="#A0A0A0"/>
<mask id="mask1_97_1155" style="mask-type:luminance" maskUnits="userSpaceOnUse" x="8" y="46" width="49" height="15">
<path d="M56.8405 46C35.0334 58.9718 16.1179 62.1783 8.4139 46C6.04425 63.8336 31.5781 67.7376 56.8405 46Z" fill="white"/>
</mask>
<g mask="url(#mask1_97_1155)">
<path d="M6.74134 40.1222L3.51758 67.4492L56.1534 73.625L59.3772 46.298L6.74134 40.1222Z" fill="#A0A0A0"/>
</g>
<path d="M64.1684 20.3691C66.0579 20.3691 67.5924 21.8891 67.5924 23.7526C67.5924 25.6161 66.0579 27.1465 64.1684 27.1465C62.279 27.1465 60.7549 25.6266 60.7549 23.7526C60.7549 21.8787 62.2894 20.3691 64.1684 20.3691Z" fill="#A0A0A0"/>
<path d="M61.2978 47.718L62.3103 42.9082H63.2603L62.2477 47.718H61.2978ZM60.1599 45.6879C60.1599 45.6879 60.1599 45.615 60.1599 45.5942C60.1599 45.3339 60.1077 45.1361 59.9824 45.0112C59.8676 44.8862 59.711 44.8134 59.5127 44.8134C59.3143 44.8134 59.1369 44.8862 58.9803 45.032C58.8237 45.1777 58.7193 45.3964 58.6671 45.6775H60.1495L60.1599 45.6879ZM60.9533 46.2605H58.5732C58.5732 46.2605 58.5732 46.3333 58.5732 46.3437C58.5732 46.5728 58.6358 46.7602 58.7715 46.9059C58.9072 47.0517 59.0638 47.1245 59.2621 47.1245C59.5753 47.1245 59.8259 46.958 60.0033 46.6352L60.8489 46.7706C60.6819 47.1141 60.4626 47.364 60.1808 47.5306C59.9094 47.6971 59.5962 47.7804 59.2517 47.7804C58.7819 47.7804 58.3957 47.6347 58.1034 47.3328C57.8111 47.0308 57.665 46.6457 57.665 46.1564C57.665 45.667 57.8007 45.2506 58.0617 44.8862C58.427 44.3865 58.949 44.1367 59.6171 44.1367C60.0451 44.1367 60.3896 44.272 60.6401 44.5323C60.8906 44.7925 61.0263 45.1673 61.0263 45.6358C61.0263 45.8649 61.0055 46.0731 60.9637 46.25L60.9533 46.2605ZM55.525 47.718H54.7107L54.0009 44.2304H54.93L55.1805 45.7503C55.2431 46.1668 55.2953 46.4374 55.3058 46.5728C55.3266 46.5311 55.3997 46.3958 55.5354 46.1459C55.6711 45.8961 55.7546 45.7503 55.786 45.6983L56.6628 44.2304H57.6859L55.525 47.718ZM52.6125 45.6879C52.6125 45.6879 52.6125 45.615 52.6125 45.5942C52.6125 45.3339 52.5603 45.1361 52.435 45.0112C52.3202 44.8862 52.1636 44.8134 51.9653 44.8134C51.7669 44.8134 51.5895 44.8862 51.4433 45.032C51.2867 45.1777 51.1823 45.3964 51.1302 45.6775H52.6125V45.6879ZM53.4163 46.2605H51.0362C51.0362 46.2605 51.0362 46.3333 51.0362 46.3437C51.0362 46.5728 51.0988 46.7602 51.2345 46.9059C51.3703 47.0517 51.5373 47.1245 51.7252 47.1245C52.0383 47.1245 52.2889 46.958 52.4559 46.6352L53.3015 46.7706C53.1344 47.1141 52.9152 47.364 52.6334 47.5306C52.362 47.6971 52.0488 47.7804 51.7043 47.7804C51.2345 47.7804 50.8483 47.6347 50.556 47.3328C50.2637 47.0308 50.1071 46.6457 50.1071 46.1564C50.1071 45.667 50.2428 45.2506 50.5038 44.8862C50.8692 44.3865 51.3911 44.1367 52.0592 44.1367C52.4872 44.1367 52.8317 44.272 53.0822 44.5323C53.3328 44.7925 53.4581 45.1673 53.4581 45.6358C53.4581 45.8649 53.4372 46.0731 53.3954 46.25L53.4163 46.2605ZM48.1133 47.718L49.1259 42.9082H50.0758L49.0632 47.718H48.1133Z" fill="#A0A0A0"/>
<path d="M72.4986 37.4739V39.6394H68.7405V41.024C69.0537 40.7013 69.6279 40.4722 70.3064 40.4722C72.1959 40.4722 72.9997 41.9193 72.9997 43.4393C72.9997 45.3965 71.8305 46.5937 69.8366 46.5937C67.7071 46.5937 66.4857 45.4173 66.4648 43.7828H68.8554C68.8971 44.116 69.1268 44.4908 69.7323 44.4908C70.3377 44.4908 70.6196 44.0327 70.6196 43.3872C70.6196 42.7418 70.2855 42.3878 69.6905 42.3878C69.2103 42.3878 68.9493 42.6585 68.8971 42.9708H66.5066V37.4531H72.4882L72.4986 37.4739Z" fill="#A0A0A0"/>
</g>
<defs>
<clipPath id="clip0_97_1155">
<rect width="73" height="73" fill="white" transform="translate(0 0.620117)"/>
</clipPath>
</defs>
</svg>
