<svg width="79" height="58" viewBox="0 0 79 58" fill="none" xmlns="http://www.w3.org/2000/svg">
<path d="M66.2783 22.9183H71.5516L68.809 37.3166H63.5357L66.2783 22.9183ZM43.5686 22.9183H50.4918L51.4952 31.6685L55.8209 22.9183H62.7219L59.9793 37.3166H55.6871L57.7719 26.3428L52.3537 37.3166H48.4628L47.2253 26.3428L45.1405 37.3166H40.826L43.5686 22.9183ZM21.1264 22.9183H28.0497L29.0531 31.6685L33.3787 22.9183H40.2797L37.5372 37.3166H33.2449L35.3297 26.3428L29.9115 37.3166H26.0206L24.7832 26.3428L22.6984 37.3166H18.395L21.1376 22.9183H21.1264ZM12.397 31.4239L16.7785 32.6024C16.2656 33.692 15.5967 34.6038 14.794 35.3376C13.9913 36.0714 13.0548 36.6273 11.9957 36.9942C10.9366 37.3722 9.64334 37.5501 8.12713 37.5501C6.27646 37.5501 4.80484 37.3166 3.72343 36.8719C2.64201 36.4161 1.77242 35.6155 1.13695 34.4703C0.501478 33.3251 0.356546 31.8575 0.702153 30.0786C1.15925 27.6992 2.25181 25.8647 3.99099 24.5861C5.73018 23.3075 7.97105 22.6626 10.7136 22.6626C12.8541 22.6626 14.4707 23.0295 15.5633 23.7633C16.6558 24.4971 17.3582 25.6201 17.6592 27.1433L12.843 28.0217C12.7649 27.588 12.6535 27.2656 12.5197 27.0544C12.2856 26.7208 11.9845 26.454 11.5832 26.265C11.193 26.0759 10.7359 25.987 10.2119 25.987C9.01902 25.987 8.02679 26.3873 7.24639 27.1989C6.65551 27.7993 6.23186 28.7444 5.98659 30.0341C5.68558 31.6351 5.76362 32.7247 6.22072 33.3251C6.67781 33.9144 7.43591 34.2146 8.46159 34.2146C9.48726 34.2146 10.2788 33.97 10.8808 33.4919C11.4829 33.0138 11.9845 32.3245 12.397 31.4128V31.4239Z" fill="white"/>
<path d="M14.0693 21.151C36.6787 3.81737 57.3371 -2.23104 68.0843 14.8023C68.3631 -5.4109 39.3655 -6.42268 14.0693 21.151Z" fill="#A0A0A0"/>
<mask id="mask0_427_1031" style="mask-type:luminance" maskUnits="userSpaceOnUse" x="14" y="0" width="55" height="22">
<path d="M14.0693 21.151C36.6787 3.81737 57.3371 -2.23104 68.0843 14.8023C68.3631 -5.4109 39.3655 -6.42268 14.0693 21.151Z" fill="white"/>
</mask>
<g mask="url(#mask0_427_1031)">
<path d="M68.3631 -6.42334H14.0693V21.1503H68.3631V-6.42334Z" fill="url(#paint0_linear_427_1031)"/>
</g>
<path d="M61.2277 42.0415C37.9382 55.895 17.7369 59.3195 9.50927 42.0415C6.97854 61.0873 34.248 65.2567 61.2277 42.0415Z" fill="#A0A0A0"/>
<mask id="mask1_427_1031" style="mask-type:luminance" maskUnits="userSpaceOnUse" x="9" y="42" width="53" height="16">
<path d="M61.2277 42.0415C37.9382 55.895 17.7369 59.3195 9.50927 42.0415C6.97854 61.0873 34.248 65.2567 61.2277 42.0415Z" fill="white"/>
</mask>
<g mask="url(#mask1_427_1031)">
<path d="M7.7222 35.7641L4.2793 64.9487L60.4931 71.5444L63.936 42.3597L7.7222 35.7641Z" fill="url(#paint1_linear_427_1031)"/>
</g>
<path d="M69.0538 14.6685C71.0717 14.6685 72.7105 16.2917 72.7105 18.2819C72.7105 20.2721 71.0717 21.9065 69.0538 21.9065C67.0359 21.9065 65.4082 20.2832 65.4082 18.2819C65.4082 16.2806 67.047 14.6685 69.0538 14.6685Z" fill="url(#paint2_radial_427_1031)"/>
<path d="M65.9879 43.876L67.0693 38.7393H68.0839L67.0024 43.876H65.9879ZM64.7727 41.7079C64.7727 41.7079 64.7727 41.63 64.7727 41.6078C64.7727 41.3298 64.717 41.1186 64.5832 40.9852C64.4606 40.8518 64.2933 40.7739 64.0815 40.7739C63.8697 40.7739 63.6802 40.8518 63.5129 41.0074C63.3457 41.1631 63.2342 41.3966 63.1785 41.6968H64.7616L64.7727 41.7079ZM65.62 42.3194H63.0781C63.0781 42.3194 63.0781 42.3972 63.0781 42.4083C63.0781 42.6529 63.145 42.8531 63.29 43.0087C63.4349 43.1644 63.6021 43.2422 63.8139 43.2422C64.1484 43.2422 64.416 43.0643 64.6055 42.7196L65.5085 42.8642C65.3302 43.2311 65.096 43.4979 64.795 43.6758C64.5052 43.8537 64.1707 43.9427 63.8028 43.9427C63.3011 43.9427 62.8886 43.787 62.5764 43.4646C62.2643 43.1421 62.1082 42.7308 62.1082 42.2082C62.1082 41.6856 62.2531 41.2409 62.5318 40.8518C62.9221 40.3181 63.4795 40.0512 64.193 40.0512C64.6501 40.0512 65.018 40.1958 65.2856 40.4737C65.5531 40.7517 65.6981 41.152 65.6981 41.6523C65.6981 41.8969 65.6758 42.1193 65.6312 42.3083L65.62 42.3194ZM59.8227 43.876H58.9531L58.195 40.1513H59.1873L59.4548 41.7746C59.5217 42.2193 59.5775 42.5084 59.5886 42.6529C59.6109 42.6085 59.689 42.4639 59.8339 42.1971C59.9788 41.9302 60.068 41.7746 60.1015 41.719L61.0379 40.1513H62.1305L59.8227 43.876ZM56.7123 41.7079C56.7123 41.7079 56.7123 41.63 56.7123 41.6078C56.7123 41.3298 56.6565 41.1186 56.5227 40.9852C56.4001 40.8518 56.2329 40.7739 56.0211 40.7739C55.8092 40.7739 55.6197 40.8518 55.4636 41.0074C55.2964 41.1631 55.1849 41.3966 55.1292 41.6968H56.7123V41.7079ZM57.5707 42.3194H55.0288C55.0288 42.3194 55.0288 42.3972 55.0288 42.4083C55.0288 42.6529 55.0957 42.8531 55.2407 43.0087C55.3856 43.1644 55.564 43.2422 55.7646 43.2422C56.0991 43.2422 56.3667 43.0643 56.545 42.7196L57.4481 42.8642C57.2697 43.2311 57.0356 43.4979 56.7346 43.6758C56.4447 43.8537 56.1103 43.9427 55.7423 43.9427C55.2407 43.9427 54.8282 43.787 54.516 43.4646C54.2038 43.1421 54.0366 42.7308 54.0366 42.2082C54.0366 41.6856 54.1815 41.2409 54.4603 40.8518C54.8505 40.3181 55.4079 40.0512 56.1214 40.0512C56.5785 40.0512 56.9464 40.1958 57.214 40.4737C57.4815 40.7517 57.6153 41.152 57.6153 41.6523C57.6153 41.8969 57.593 42.1193 57.5484 42.3083L57.5707 42.3194ZM51.9072 43.876L52.9886 38.7393H54.0032L52.9217 43.876H51.9072Z" fill="#020202"/>
<path d="M77.9507 32.9363V35.2489H73.9372V36.7277C74.2717 36.383 74.8849 36.1384 75.6095 36.1384C77.6274 36.1384 78.4859 37.6839 78.4859 39.3071C78.4859 41.3974 77.2372 42.676 75.1078 42.676C72.8335 42.676 71.5291 41.4196 71.5068 39.674H74.0599C74.1045 40.0298 74.3497 40.4301 74.9964 40.4301C75.643 40.4301 75.944 39.9409 75.944 39.2516C75.944 38.5622 75.5872 38.1842 74.9518 38.1842C74.4389 38.1842 74.1602 38.4733 74.1045 38.8068H71.5514V32.9141H77.9396L77.9507 32.9363Z" fill="white"/>
<defs>
<linearGradient id="paint0_linear_427_1031" x1="41.2162" y1="-6.42334" x2="83.3082" y2="15.2775" gradientUnits="userSpaceOnUse">
<stop stop-color="#2B9DDF"/>
<stop offset="1" stop-color="white" stop-opacity="0"/>
</linearGradient>
<linearGradient id="paint1_linear_427_1031" x1="-3.09402" y1="44.2122" x2="62.2065" y2="56.9932" gradientUnits="userSpaceOnUse">
<stop stop-color="white" stop-opacity="0"/>
<stop offset="0.456731" stop-color="#2B9DDF"/>
</linearGradient>
<radialGradient id="paint2_radial_427_1031" cx="0" cy="0" r="1" gradientUnits="userSpaceOnUse" gradientTransform="translate(69.0594 18.2875) rotate(90) scale(4.22365 4.26115)">
<stop offset="0.355769" stop-color="#2B9DDF"/>
<stop offset="1" stop-color="white" stop-opacity="0"/>
</radialGradient>
</defs>
</svg>
