<?xml version="1.0" encoding="UTF-8" standalone="no"?>
<svg
   id="Layer_1"
   version="1.1"
   width="73"
   height="74"
   viewBox="0 0 73 74"
   xmlns="http://www.w3.org/2000/svg"
   xmlns:svg="http://www.w3.org/2000/svg">
  <defs
     id="defs11">
    <style
       id="style9">
      .st3{fill:#a0a0a0}.st5{fill:#fff}
    </style>
    <clipPath
       clipPathUnits="userSpaceOnUse"
       id="clipPath328">
      <g
         id="g332">
        <path
           fill="none"
           d="m 0,4.62 h 73 v 73 H 0 Z"
           id="path330" />
      </g>
    </clipPath>
    <clipPath
       clipPathUnits="userSpaceOnUse"
       id="clipPath340">
      <g
         id="g344">
        <path
           fill="none"
           d="m 0,4.62 h 73 v 73 H 0 Z"
           id="path342" />
      </g>
    </clipPath>
    <clipPath
       clipPathUnits="userSpaceOnUse"
       id="clipPath352">
      <g
         id="g356">
        <path
           fill="none"
           d="m 0,4.62 h 73 v 73 H 0 Z"
           id="path354" />
      </g>
    </clipPath>
    <mask
       maskUnits="userSpaceOnUse"
       id="mask1050">
      <g
         id="g1054"
         transform="translate(0,-4)">
        <path
           class="st5"
           d="M 56.84,50 C 35.03,62.97 16.12,66.18 8.41,50 6.04,67.83 31.57,71.74 56.84,50 Z"
           id="path1052" />
      </g>
    </mask>
    <clipPath
       clipPathUnits="userSpaceOnUse"
       id="clipPath1056">
      <g
         id="g1062"
         transform="translate(0,-4)">
        <g
           id="g1060">
          <path
             fill="none"
             d="m 0,4.62 h 73 v 73 H 0 Z"
             id="path1058" />
        </g>
      </g>
    </clipPath>
    <mask
       maskUnits="userSpaceOnUse"
       id="mask1075">
      <g
         id="g1079"
         transform="translate(0,-4)">
        <path
           class="st5"
           d="M 12.68,30.44 C 33.85,14.21 53.19,8.55 63.26,24.5 63.52,5.57 36.37,4.62 12.68,30.44 Z"
           id="path1077" />
      </g>
    </mask>
    <clipPath
       clipPathUnits="userSpaceOnUse"
       id="clipPath1081">
      <g
         id="g1087"
         transform="translate(0,-4)">
        <g
           id="g1085">
          <path
             fill="none"
             d="m 0,4.62 h 73 v 73 H 0 Z"
             id="path1083" />
        </g>
      </g>
    </clipPath>
  </defs>
  <g
     id="g322">
    <path
       d="M 67.810105,44.20223 65.55146,43.789172 q 0.281598,-1.101485 1.079457,-1.688146 0.803725,-0.586661 2.270378,-0.586661 1.683718,0 2.434644,0.640538 0.750927,0.640538 0.750927,1.610325 0,0.568702 -0.305064,1.029649 -0.305064,0.460948 -0.921058,0.808156 0.498661,0.125713 0.762659,0.293331 0.428263,0.269385 0.662926,0.712373 0.240532,0.437003 0.240532,1.047609 0,0.766252 -0.393063,1.47264 -0.393063,0.700401 -1.132256,1.083527 -0.739193,0.377139 -1.941848,0.377139 -1.173322,0 -1.853849,-0.281358 -0.67466,-0.281358 -1.114656,-0.820128 -0.43413,-0.544757 -0.668794,-1.364885 l 2.38771,-0.323263 q 0.1408,0.736321 0.43413,1.023665 0.299197,0.281357 0.756793,0.281357 0.481062,0 0.797859,-0.35918 0.322663,-0.35918 0.322663,-0.957814 0,-0.610606 -0.31093,-0.945841 -0.305064,-0.335235 -0.833058,-0.335235 -0.281598,0 -0.774393,0.143673 l 0.123199,-1.742025 q 0.199464,0.02993 0.31093,0.02993 0.469328,0 0.780259,-0.305302 0.316797,-0.305304 0.316797,-0.724347 0,-0.401085 -0.234664,-0.640539 -0.234665,-0.239453 -0.645327,-0.239453 -0.422396,0 -0.686394,0.263399 -0.263998,0.257413 -0.357864,0.909924 z"
       id="path1089"
       style="font-weight:800;font-size:12.1368px;font-family:Arial-Black, 'Arial Black';fill:#a0a0a0;stroke-width:0.989949" />
    <path
       class="st3"
       d="m 61.57,32.09 h 4.94 L 63.94,45.57 H 59 Z m -21.26,0 h 6.48 l 0.94,8.19 4.05,-8.19 h 6.46 L 55.67,45.57 H 51.65 L 53.6,35.29 48.53,45.57 H 44.89 L 43.73,35.29 41.78,45.57 h -4.04 z m -21.02,0 h 6.48 l 0.94,8.19 4.05,-8.19 h 6.46 L 34.65,45.57 H 30.63 L 32.58,35.29 27.51,45.57 H 23.87 L 22.71,35.29 20.76,45.57 H 16.73 L 19.3,32.09 Z m -8.17,7.97 4.1,1.1 a 8.165,8.165 0 0 1 -1.86,2.56 c -0.75,0.69 -1.63,1.21 -2.62,1.55 -0.99,0.35 -2.2,0.52 -3.62,0.52 C 5.39,45.79 4.01,45.57 3,45.15 1.99,44.72 1.17,43.97 0.58,42.9 -0.02,41.83 -0.15,40.45 0.17,38.79 0.6,36.56 1.62,34.84 3.25,33.65 c 1.63,-1.2 3.73,-1.8 6.29,-1.8 2,0 3.52,0.34 4.54,1.03 1.02,0.69 1.68,1.74 1.96,3.16 l -4.51,0.82 c -0.07,-0.41 -0.18,-0.71 -0.3,-0.91 -0.22,-0.31 -0.5,-0.56 -0.88,-0.74 -0.37,-0.18 -0.79,-0.26 -1.28,-0.26 -1.12,0 -2.05,0.37 -2.78,1.13 -0.55,0.56 -0.95,1.45 -1.18,2.65 -0.28,1.5 -0.21,2.52 0.22,3.08 0.43,0.55 1.14,0.83 2.1,0.83 0.96,0 1.7,-0.23 2.27,-0.68 0.56,-0.45 1.03,-1.09 1.42,-1.95 z m 1.56,-9.62 C 33.85,14.21 53.19,8.55 63.26,24.5 63.52,5.57 36.37,4.62 12.68,30.44 Z"
       id="path13"
       clip-path="url(#clipPath352)" />
    <path
       class="st3"
       d="M 63.52,0.62 H 12.68 v 25.82 h 50.84 z"
       id="path15"
       transform="translate(0,4)"
       mask="url(#mask1075)"
       clip-path="url(#clipPath1081)" />
    <path
       class="st3"
       d="M 56.84,50 C 35.03,62.97 16.12,66.18 8.41,50 6.04,67.83 31.57,71.74 56.84,50 Z"
       id="path19"
       clip-path="url(#clipPath340)" />
    <path
       class="st3"
       d="M 6.74,40.12 3.52,67.45 56.16,73.63 59.38,46.3 Z"
       id="path21"
       transform="translate(0,4)"
       mask="url(#mask1050)"
       clip-path="url(#clipPath1056)" />
    <path
       class="st3"
       d="m 64.17,24.37 c 1.89,0 3.42,1.52 3.42,3.38 0,1.86 -1.53,3.39 -3.42,3.39 -1.89,0 -3.41,-1.52 -3.41,-3.39 0,-1.87 1.53,-3.38 3.41,-3.38 z m -2.87,27.35 1.01,-4.81 h 0.95 l -1.01,4.81 z M 60.16,49.69 V 49.6 c 0,-0.26 -0.05,-0.46 -0.18,-0.58 -0.11,-0.12 -0.27,-0.2 -0.47,-0.2 -0.2,0 -0.38,0.07 -0.53,0.22 -0.16,0.15 -0.26,0.36 -0.31,0.65 z m 0.79,0.57 h -2.38 v 0.08 c 0,0.23 0.06,0.42 0.2,0.56 0.14,0.15 0.29,0.22 0.49,0.22 0.31,0 0.56,-0.17 0.74,-0.49 l 0.85,0.14 c -0.17,0.34 -0.39,0.59 -0.67,0.76 -0.27,0.17 -0.58,0.25 -0.93,0.25 -0.47,0 -0.86,-0.15 -1.15,-0.45 -0.29,-0.3 -0.44,-0.69 -0.44,-1.18 0,-0.49 0.14,-0.91 0.4,-1.27 0.37,-0.5 0.89,-0.75 1.56,-0.75 0.43,0 0.77,0.14 1.02,0.4 0.25,0.26 0.39,0.64 0.39,1.1 0,0.23 -0.02,0.44 -0.06,0.61 h -0.01 z m -5.42,1.46 h -0.81 l -0.71,-3.49 h 0.93 l 0.25,1.52 c 0.06,0.42 0.11,0.69 0.13,0.82 0.02,-0.04 0.09,-0.18 0.23,-0.43 0.14,-0.25 0.22,-0.4 0.25,-0.45 l 0.88,-1.47 h 1.02 l -2.16,3.49 z M 52.61,49.69 V 49.6 c 0,-0.26 -0.05,-0.46 -0.18,-0.58 -0.11,-0.12 -0.27,-0.2 -0.47,-0.2 -0.2,0 -0.38,0.07 -0.52,0.22 -0.16,0.15 -0.26,0.36 -0.31,0.65 z m 0.81,0.57 h -2.38 v 0.08 c 0,0.23 0.06,0.42 0.2,0.56 0.14,0.15 0.3,0.22 0.49,0.22 0.31,0 0.56,-0.17 0.73,-0.49 l 0.85,0.14 c -0.17,0.34 -0.39,0.59 -0.67,0.76 -0.27,0.17 -0.58,0.25 -0.93,0.25 -0.47,0 -0.86,-0.15 -1.15,-0.45 -0.29,-0.3 -0.45,-0.69 -0.45,-1.18 0,-0.49 0.14,-0.91 0.4,-1.27 0.37,-0.5 0.89,-0.75 1.56,-0.75 0.43,0 0.77,0.14 1.02,0.4 0.25,0.26 0.38,0.64 0.38,1.1 0,0.23 -0.02,0.44 -0.06,0.61 h 0.02 z m -5.31,1.46 1.01,-4.81 h 0.95 l -1.01,4.81 z"
       id="path25"
       clip-path="url(#clipPath328)" />
  </g>
</svg>
