<svg width="78" height="58" viewBox="0 0 78 58" fill="none" xmlns="http://www.w3.org/2000/svg">
<path d="M65.7587 22.9178H71.032L68.2895 37.3162H63.0162L65.7587 22.9178ZM43.049 22.9178H49.9723L50.9757 31.668L55.3013 22.9178H62.2023L59.4598 37.3162H55.1676L57.2524 26.3423L51.8341 37.3162H47.9433L46.7058 26.3423L44.621 37.3162H40.3065L43.049 22.9178ZM20.6069 22.9178H27.5302L28.5335 31.668L32.8592 22.9178H39.7602L37.0176 37.3162H32.7254L34.8102 26.3423L29.392 37.3162H25.5011L24.2636 26.3423L22.1788 37.3162H17.8755L20.618 22.9178H20.6069ZM11.8775 31.4234L16.2589 32.602C15.7461 33.6916 15.0772 34.6033 14.2745 35.3371C13.4718 36.0709 12.5353 36.6268 11.4762 36.9937C10.417 37.3718 9.12381 37.5496 7.6076 37.5496C5.75693 37.5496 4.28531 37.3162 3.2039 36.8714C2.12248 36.4156 1.25289 35.615 0.617418 34.4698C-0.0180531 33.3247 -0.162985 31.857 0.182622 30.0781C0.639715 27.6987 1.73228 25.8642 3.47146 24.5856C5.21064 23.307 7.45152 22.6621 10.1941 22.6621C12.3346 22.6621 13.9512 23.029 15.0437 23.7628C16.1363 24.4966 16.8386 25.6196 17.1397 27.1428L12.3235 28.0212C12.2454 27.5876 12.1339 27.2651 12.0001 27.0539C11.766 26.7203 11.465 26.4535 11.0637 26.2645C10.6735 26.0755 10.2164 25.9865 9.69239 25.9865C8.49949 25.9865 7.50726 26.3868 6.72686 27.1984C6.13598 27.7988 5.71233 28.7439 5.46706 30.0336C5.16605 31.6347 5.24409 32.7243 5.70118 33.3247C6.15828 33.9139 6.91638 34.2141 7.94205 34.2141C8.96773 34.2141 9.75928 33.9695 10.3613 33.4914C10.9633 33.0133 11.465 32.324 11.8775 31.4123V31.4234Z" fill="white"/>
<path d="M13.5498 21.1505C36.1592 3.81688 56.8175 -2.23153 67.5648 14.8019C67.8435 -5.41139 38.846 -6.42317 13.5498 21.1505Z" fill="#A0A0A0"/>
<mask id="mask0_1585_14" style="mask-type:luminance" maskUnits="userSpaceOnUse" x="13" y="0" width="55" height="22">
<path d="M13.5498 21.1505C36.1592 3.81688 56.8175 -2.23153 67.5648 14.8019C67.8435 -5.41139 38.846 -6.42317 13.5498 21.1505Z" fill="white"/>
</mask>
<g mask="url(#mask0_1585_14)">
<path d="M67.8435 -6.42383H13.5498V21.1498H67.8435V-6.42383Z" fill="url(#paint0_linear_1585_14)"/>
</g>
<path d="M60.7081 42.041C37.4187 55.8945 17.2174 59.319 8.98974 42.041C6.45901 61.0868 33.7285 65.2562 60.7081 42.041Z" fill="#A0A0A0"/>
<mask id="mask1_1585_14" style="mask-type:luminance" maskUnits="userSpaceOnUse" x="8" y="42" width="53" height="16">
<path d="M60.7081 42.041C37.4187 55.8945 17.2174 59.319 8.98974 42.041C6.45901 61.0868 33.7285 65.2562 60.7081 42.041Z" fill="white"/>
</mask>
<g mask="url(#mask1_1585_14)">
<path d="M7.20267 35.7636L3.75977 64.9482L59.9736 71.5439L63.4165 42.3592L7.20267 35.7636Z" fill="url(#paint1_linear_1585_14)"/>
</g>
<path d="M68.5343 14.668C70.5522 14.668 72.191 16.2913 72.191 18.2814C72.191 20.2716 70.5522 21.906 68.5343 21.906C66.5164 21.906 64.8887 20.2828 64.8887 18.2814C64.8887 16.2801 66.5275 14.668 68.5343 14.668Z" fill="url(#paint2_radial_1585_14)"/>
<path d="M65.4684 43.8755L66.5498 38.7388H67.5643L66.4829 43.8755H65.4684ZM64.2532 41.7074C64.2532 41.7074 64.2532 41.6296 64.2532 41.6073C64.2532 41.3294 64.1974 41.1181 64.0637 40.9847C63.941 40.8513 63.7738 40.7734 63.562 40.7734C63.3502 40.7734 63.1606 40.8513 62.9934 41.0069C62.8262 41.1626 62.7147 41.3961 62.6589 41.6963H64.242L64.2532 41.7074ZM65.1005 42.3189H62.5586C62.5586 42.3189 62.5586 42.3967 62.5586 42.4078C62.5586 42.6524 62.6255 42.8526 62.7704 43.0082C62.9154 43.1639 63.0826 43.2417 63.2944 43.2417C63.6289 43.2417 63.8964 43.0638 64.086 42.7192L64.989 42.8637C64.8106 43.2306 64.5765 43.4974 64.2755 43.6753C63.9856 43.8532 63.6512 43.9422 63.2833 43.9422C62.7816 43.9422 62.3691 43.7865 62.0569 43.4641C61.7448 43.1417 61.5887 42.7303 61.5887 42.2077C61.5887 41.6851 61.7336 41.2404 62.0123 40.8513C62.4025 40.3176 62.96 40.0507 63.6735 40.0507C64.1306 40.0507 64.4985 40.1953 64.766 40.4732C65.0336 40.7512 65.1785 41.1515 65.1785 41.6518C65.1785 41.8964 65.1562 42.1188 65.1116 42.3078L65.1005 42.3189ZM59.3032 43.8755H58.4336L57.6755 40.1508H58.6677L58.9353 41.7741C59.0022 42.2188 59.0579 42.5079 59.0691 42.6524C59.0914 42.608 59.1694 42.4634 59.3144 42.1966C59.4593 41.9298 59.5485 41.7741 59.5819 41.7185L60.5184 40.1508H61.611L59.3032 43.8755ZM56.1927 41.7074C56.1927 41.7074 56.1927 41.6296 56.1927 41.6073C56.1927 41.3294 56.137 41.1181 56.0032 40.9847C55.8806 40.8513 55.7134 40.7734 55.5015 40.7734C55.2897 40.7734 55.1002 40.8513 54.9441 41.0069C54.7769 41.1626 54.6654 41.3961 54.6096 41.6963H56.1927V41.7074ZM57.0512 42.3189H54.5093C54.5093 42.3189 54.5093 42.3967 54.5093 42.4078C54.5093 42.6524 54.5762 42.8526 54.7211 43.0082C54.8661 43.1639 55.0444 43.2417 55.2451 43.2417C55.5796 43.2417 55.8471 43.0638 56.0255 42.7192L56.9286 42.8637C56.7502 43.2306 56.5161 43.4974 56.215 43.6753C55.9252 43.8532 55.5907 43.9422 55.2228 43.9422C54.7211 43.9422 54.3086 43.7865 53.9965 43.4641C53.6843 43.1417 53.5171 42.7303 53.5171 42.2077C53.5171 41.6851 53.662 41.2404 53.9407 40.8513C54.3309 40.3176 54.8884 40.0507 55.6019 40.0507C56.059 40.0507 56.4269 40.1953 56.6944 40.4732C56.962 40.7512 57.0958 41.1515 57.0958 41.6518C57.0958 41.8964 57.0735 42.1188 57.0289 42.3078L57.0512 42.3189ZM51.3877 43.8755L52.4691 38.7388H53.4836L52.4022 43.8755H51.3877Z" fill="white"/>
<path d="M72.4435 45.1188C71.7788 45.1188 71.1893 45.0052 70.6751 44.7779C70.1637 44.5478 69.7603 44.231 69.4648 43.8276C69.1694 43.4242 69.0188 42.9597 69.0131 42.4342H71.1353C71.1438 42.6245 71.2049 42.7935 71.3185 42.9413C71.4322 43.0862 71.587 43.1998 71.783 43.2822C71.979 43.3646 72.2021 43.4058 72.4521 43.4058C72.7021 43.4058 72.9222 43.3617 73.1126 43.2737C73.3058 43.1828 73.4563 43.0592 73.5643 42.9029C73.6722 42.7438 73.7248 42.562 73.7219 42.3575C73.7248 42.1529 73.6665 41.9711 73.5472 41.812C73.4279 41.6529 73.2589 41.5293 73.0401 41.4413C72.8242 41.3532 72.5685 41.3092 72.2731 41.3092H71.4251V39.8092H72.2731C72.5316 39.8092 72.7589 39.7666 72.9549 39.6813C73.1538 39.5961 73.3086 39.4768 73.4194 39.3234C73.5302 39.1671 73.5842 38.9881 73.5813 38.7864C73.5842 38.5904 73.5373 38.4185 73.4407 38.2708C73.3469 38.1202 73.2148 38.0038 73.0444 37.9214C72.8768 37.839 72.6822 37.7978 72.4606 37.7978C72.2276 37.7978 72.016 37.839 71.8256 37.9214C71.6381 38.0038 71.489 38.1202 71.3782 38.2708C71.2674 38.4214 71.2092 38.5961 71.2035 38.795H69.1879C69.1935 38.2751 69.3384 37.8177 69.6225 37.4228C69.9066 37.0251 70.293 36.714 70.7816 36.4896C71.2731 36.2651 71.8327 36.1529 72.4606 36.1529C73.0856 36.1529 73.6353 36.2623 74.1097 36.481C74.5842 36.6998 74.9535 36.9981 75.2177 37.3759C75.4819 37.7509 75.614 38.1756 75.614 38.6501C75.6168 39.1416 75.4563 39.5464 75.1325 39.8646C74.8114 40.1828 74.3981 40.3788 73.8924 40.4526V40.5208C74.5685 40.6004 75.0785 40.8191 75.4222 41.1771C75.7688 41.535 75.9407 41.9825 75.9379 42.5194C75.9379 43.0251 75.7887 43.4739 75.4904 43.866C75.195 44.2552 74.783 44.562 74.2546 44.7864C73.729 45.008 73.1254 45.1188 72.4435 45.1188Z" fill="white"/>
<defs>
<linearGradient id="paint0_linear_1585_14" x1="40.6967" y1="-6.42383" x2="82.7887" y2="15.277" gradientUnits="userSpaceOnUse">
<stop stop-color="#2B9DDF"/>
<stop offset="1" stop-color="white" stop-opacity="0"/>
</linearGradient>
<linearGradient id="paint1_linear_1585_14" x1="-3.61355" y1="44.2117" x2="61.687" y2="56.9927" gradientUnits="userSpaceOnUse">
<stop stop-color="white" stop-opacity="0"/>
<stop offset="0.456731" stop-color="#2B9DDF"/>
</linearGradient>
<radialGradient id="paint2_radial_1585_14" cx="0" cy="0" r="1" gradientUnits="userSpaceOnUse" gradientTransform="translate(68.5398 18.287) rotate(90) scale(4.22365 4.26115)">
<stop offset="0.355769" stop-color="#2B9DDF"/>
<stop offset="1" stop-color="white" stop-opacity="0"/>
</radialGradient>
</defs>
</svg>
