<?xml version="1.0" encoding="UTF-8"?>
<svg id="Layer_1" xmlns="http://www.w3.org/2000/svg" xmlns:xlink="http://www.w3.org/1999/xlink" version="1.1" viewBox="0 0 73 74">
  <defs>
    <style>
      .st0 {
        fill: none;
      }

      .st1 {
        mask: url(#mask);
      }

      .st2 {
        mask: url(#mask-1);
      }

      .st3, .st4 {
        fill: #a0a0a0;
      }

      .st5 {
        fill: #fff;
      }

      .st4 {
        font-family: Arial-Black, 'Arial Black';
        font-size: 12.26px;
        font-weight: 800;
      }

      .st6 {
        clip-path: url(#clippath);
      }
    </style>
    <clipPath id="clippath">
      <rect class="st0" y=".62" width="73" height="73"/>
    </clipPath>
    <mask id="mask" x="12.68" y=".62" width="50.84" height="25.82" maskUnits="userSpaceOnUse">
      <g id="mask0_97_1155">
        <path class="st5" d="M12.68,26.44c21.17-16.23,40.51-21.89,50.58-5.94C63.52,1.57,36.37.62,12.68,26.44Z"/>
      </g>
    </mask>
    <mask id="mask-1" x="3.52" y="40.12" width="55.86" height="33.5" maskUnits="userSpaceOnUse">
      <g id="mask1_97_1155">
        <path class="st5" d="M56.84,46c-21.81,12.97-40.72,16.18-48.43,0-2.37,17.83,23.16,21.74,48.43,0Z"/>
      </g>
    </mask>
  </defs>
  <g class="st6">
    <g>
      <path class="st3" d="M61.57,28.09h4.94l-2.57,13.48h-4.94l2.57-13.48ZM40.31,28.09h6.48l.94,8.19,4.05-8.19h6.46l-2.57,13.48h-4.02l1.95-10.28-5.07,10.28h-3.64l-1.16-10.28-1.95,10.28h-4.04l2.57-13.48ZM19.29,28.09h6.48l.94,8.19,4.05-8.19h6.46l-2.57,13.48h-4.02l1.95-10.28-5.07,10.28h-3.64l-1.16-10.28-1.95,10.28h-4.03l2.57-13.48h-.01ZM11.12,36.06l4.1,1.1c-.48,1.02-1.11,1.87-1.86,2.56-.75.69-1.63,1.21-2.62,1.55-.99.35-2.2.52-3.62.52-1.73,0-3.11-.22-4.12-.64-1.01-.43-1.83-1.18-2.42-2.25-.6-1.07-.73-2.45-.41-4.11.43-2.23,1.45-3.95,3.08-5.14,1.63-1.2,3.73-1.8,6.29-1.8,2,0,3.52.34,4.54,1.03,1.02.69,1.68,1.74,1.96,3.16l-4.51.82c-.07-.41-.18-.71-.3-.91-.22-.31-.5-.56-.88-.74-.37-.18-.79-.26-1.28-.26-1.12,0-2.05.37-2.78,1.13-.55.56-.95,1.45-1.18,2.65-.28,1.5-.21,2.52.22,3.08.43.55,1.14.83,2.1.83s1.7-.23,2.27-.68c.56-.45,1.03-1.09,1.42-1.95h0Z"/>
      <path class="st3" d="M12.68,26.44c21.17-16.23,40.51-21.89,50.58-5.94C63.52,1.57,36.37.62,12.68,26.44Z"/>
      <g class="st1">
        <path class="st3" d="M63.52.62H12.68v25.82h50.84V.62Z"/>
      </g>
      <path class="st3" d="M56.84,46c-21.81,12.97-40.72,16.18-48.43,0-2.37,17.83,23.16,21.74,48.43,0Z"/>
      <g class="st2">
        <path class="st3" d="M6.74,40.12l-3.22,27.33,52.64,6.18,3.22-27.33-52.64-6.18Z"/>
      </g>
      <path class="st3" d="M64.17,20.37c1.89,0,3.42,1.52,3.42,3.38s-1.53,3.39-3.42,3.39-3.41-1.52-3.41-3.39,1.53-3.38,3.41-3.38Z"/>
      <path class="st3" d="M61.3,47.72l1.01-4.81h.95l-1.01,4.81h-.95ZM60.16,45.69v-.09c0-.26-.05-.46-.18-.58-.11-.12-.27-.2-.47-.2s-.38.07-.53.22c-.16.15-.26.36-.31.65h1.49ZM60.95,46.26h-2.38v.08c0,.23.06.42.2.56.14.15.29.22.49.22.31,0,.56-.17.74-.49l.85.14c-.17.34-.39.59-.67.76-.27.17-.58.25-.93.25-.47,0-.86-.15-1.15-.45-.29-.3-.44-.69-.44-1.18s.14-.91.4-1.27c.37-.5.89-.75,1.56-.75.43,0,.77.14,1.02.4.25.26.39.64.39,1.1,0,.23-.02.44-.06.61h-.01ZM55.53,47.72h-.81l-.71-3.49h.93l.25,1.52c.06.42.11.69.13.82.02-.04.09-.18.23-.43.14-.25.22-.4.25-.45l.88-1.47h1.02l-2.16,3.49ZM52.61,45.69v-.09c0-.26-.05-.46-.18-.58-.11-.12-.27-.2-.47-.2s-.38.07-.52.22c-.16.15-.26.36-.31.65h1.48ZM53.42,46.26h-2.38v.08c0,.23.06.42.2.56.14.15.3.22.49.22.31,0,.56-.17.73-.49l.85.14c-.17.34-.39.59-.67.76-.27.17-.58.25-.93.25-.47,0-.86-.15-1.15-.45-.29-.3-.45-.69-.45-1.18s.14-.91.4-1.27c.37-.5.89-.75,1.56-.75.43,0,.77.14,1.02.4.25.26.38.64.38,1.1,0,.23-.02.44-.06.61h.02ZM48.11,47.72l1.01-4.81h.95l-1.01,4.81h-.95Z"/>
    </g>
  </g>
  <text class="st4" transform="translate(65 46.44) scale(.98 1)"><tspan x="0" y="0">3</tspan></text>
</svg>