<svg width="111" height="52" viewBox="0 0 111 52" fill="none" xmlns="http://www.w3.org/2000/svg">
<g clip-path="url(#clip0_110_1146)">
<path d="M40.56 23.463H41.2666C42.8739 23.463 43.5806 22.6317 43.5806 19.902C43.5806 17.1723 42.8047 16.4518 41.2805 16.4518H40.553V23.463H40.56ZM40.8579 13.9438C44.1556 13.9438 47.2525 14.9623 47.2525 19.902C47.2525 24.8417 44.4189 25.9641 41.0657 25.9641H37.0059V13.9438H40.8579Z" fill="#50388C"/>
<path d="M51.5482 23.463H52.2549C53.8622 23.463 54.5689 22.6317 54.5689 19.902C54.5689 17.1723 53.7929 16.4518 52.2688 16.4518H51.5413V23.463H51.5482ZM51.8392 13.9438C55.137 13.9438 58.2339 14.9623 58.2339 19.902C58.2339 24.8417 55.4003 25.9641 52.054 25.9641H47.9941V13.9438H51.8462H51.8392Z" fill="#50388C"/>
<path d="M68.7851 21.8904C68.7851 24.3429 67.1778 26.3105 63.79 26.3105C60.4021 26.3105 58.8018 24.5161 58.8018 21.8904V13.9438H62.3559V21.7864C62.3559 23.1166 62.7508 23.754 63.79 23.754C64.8292 23.754 65.2241 23.1166 65.2241 21.7864V13.9438H68.7851V21.8904Z" fill="#50388C"/>
<path d="M75.4922 19.2644H69.6172V21.8555H75.4922V19.2644Z" fill="#50388C"/>
<path d="M86.4178 15.1699L84.6234 17.0197C83.8959 16.3962 83.2793 16.0844 82.3579 16.0844C80.7021 16.0844 79.746 17.3107 79.746 19.9503C79.746 22.9225 80.3695 23.7815 81.769 23.7815C82.2332 23.7815 82.6142 23.6776 82.9953 23.4906V21.2944H81.7829L81.4572 18.8972H86.4108V24.9247C85.1153 25.8045 83.3694 26.3034 81.866 26.3034C77.8408 26.3034 76.0811 24.024 76.0811 19.9295C76.0811 15.835 78.6722 13.5903 82.1431 13.5903C83.9583 13.5903 85.4409 14.2831 86.4108 15.163" fill="#50388C"/>
<path d="M98.4029 25.9641H94.3638L91.0799 19.5556L94.4331 13.9438H98.0981L94.6964 19.2785L98.4098 25.9641H98.4029ZM87.4219 13.9438H90.9829V25.9641H87.4219V13.9438Z" fill="#50388C"/>
<path d="M106.232 25.9641H102.671V21.544L98.8398 13.9438H102.727L104.507 18.8489L106.301 13.9438H110.063L106.232 21.5232V25.9641Z" fill="#50388C"/>
<path d="M37.3384 32.3101H38.0104C38.8626 32.3101 39.7632 31.9221 39.7632 30.1554C39.7632 28.3888 38.8279 28.0839 37.955 28.0839H37.3315V32.3101H37.3384ZM37.9411 27.7999C39.015 27.7999 40.1166 28.1879 40.1166 30.1554C40.1166 32.123 38.9596 32.5941 37.9896 32.5941H37.0059V27.793H37.9411V27.7999Z" fill="#9B9DA0"/>
<path d="M43.179 30.5157C43.179 29.6982 42.8396 29.137 42.1121 29.137C41.5094 29.137 41.0313 29.5873 40.9967 30.6473H43.179V30.5157ZM43.477 30.9036H40.9967C41.0452 31.9429 41.5371 32.3863 42.1953 32.3863C42.6109 32.3863 42.8742 32.2616 43.1929 32.0121L43.3523 32.22C43.0128 32.504 42.6664 32.6703 42.1814 32.6703C41.2392 32.6703 40.6572 31.9706 40.6572 30.7928C40.6572 29.615 41.2184 28.8599 42.0983 28.8599C43.0336 28.8599 43.4908 29.5527 43.4908 30.6127C43.4908 30.7235 43.4908 30.8274 43.477 30.9036Z" fill="#9B9DA0"/>
<path d="M46.5051 30.5157C46.5051 29.6982 46.1726 29.137 45.4382 29.137C44.8355 29.137 44.3574 29.5873 44.3228 30.6473H46.5051V30.5157ZM46.81 30.9036H44.3297C44.3782 31.9429 44.8701 32.3863 45.5283 32.3863C45.944 32.3863 46.2072 32.2616 46.5259 32.0121L46.6853 32.22C46.3458 32.504 45.9994 32.6703 45.5144 32.6703C44.5722 32.6703 43.9902 31.9706 43.9902 30.7928C43.9902 29.615 44.5514 28.8599 45.4313 28.8599C46.3666 28.8599 46.8308 29.5527 46.8308 30.6127C46.8308 30.7235 46.8238 30.8274 46.8169 30.9036H46.81Z" fill="#9B9DA0"/>
<path d="M50.1974 29.9891V32.601H49.8717V30.0307C49.8717 29.4072 49.6154 29.1301 49.1443 29.1301C48.6108 29.1301 48.2506 29.4626 47.9388 29.9199V32.5941H47.6201V28.9291H47.9042L47.9319 29.5804C48.2367 29.1508 48.6524 28.8599 49.1997 28.8599C49.8648 28.8599 50.2043 29.2686 50.2043 29.9822" fill="#9B9DA0"/>
<path d="M53.2183 32.3101H53.8903C54.7425 32.3101 55.6431 31.9221 55.6431 30.1554C55.6431 28.3888 54.7078 28.0839 53.8418 28.0839H53.2183V32.3101ZM53.821 27.7999C54.8949 27.7999 55.9965 28.1879 55.9965 30.1554C55.9965 32.123 54.8395 32.5941 53.8695 32.5941H52.8857V27.793H53.821V27.7999Z" fill="#9B9DA0"/>
<path d="M58.6567 31.7073V30.6612H57.957C57.2087 30.6612 56.7653 30.9521 56.7653 31.5757C56.7653 32.1022 57.0702 32.4001 57.5829 32.4001C58.0955 32.4001 58.4281 32.1438 58.6567 31.7073ZM58.9823 31.8043C58.9823 32.2408 59.0863 32.3655 59.2872 32.4417L59.211 32.6772C58.9061 32.601 58.7329 32.4278 58.6983 32.0329C58.435 32.4625 58.047 32.6772 57.5413 32.6772C56.8416 32.6772 56.4189 32.2338 56.4189 31.5826C56.4189 30.8205 57.0009 30.4048 57.9085 30.4048H58.6567V30.0238C58.6567 29.428 58.4212 29.1439 57.7769 29.1439C57.4651 29.1439 57.1395 29.2201 56.7792 29.3587L56.6891 29.1023C57.084 28.9499 57.4304 28.8599 57.8046 28.8599C58.6221 28.8599 58.9754 29.2617 58.9754 29.9961V31.7974L58.9823 31.8043Z" fill="#9B9DA0"/>
<path d="M61.0881 32.608C60.811 33.4047 60.52 33.8066 59.6748 34.0075L59.6332 33.7511C60.3676 33.5572 60.5408 33.2593 60.7833 32.5942H60.6655L59.3838 28.9292H59.7302L60.8872 32.3517L62.0095 28.9292H62.3629L61.095 32.608H61.0881Z" fill="#9B9DA0"/>
<path d="M64.7113 31.7073V30.6612H64.0116C63.2633 30.6612 62.8199 30.9521 62.8199 31.5757C62.8199 32.1022 63.1317 32.4001 63.6375 32.4001C64.1432 32.4001 64.4827 32.1438 64.7113 31.7073ZM65.0369 31.8043C65.0369 32.2408 65.1409 32.3655 65.3487 32.4417L65.2725 32.6772C64.9746 32.601 64.7945 32.4278 64.7598 32.0329C64.4965 32.4625 64.1086 32.6772 63.6028 32.6772C62.9031 32.6772 62.4805 32.2338 62.4805 31.5826C62.4805 30.8205 63.0624 30.4048 63.97 30.4048H64.7182V30.0238C64.7182 29.428 64.4827 29.1439 63.8384 29.1439C63.5266 29.1439 63.201 29.2201 62.8407 29.3587L62.7507 29.1023C63.1456 28.9499 63.492 28.8599 63.8661 28.8599C64.6836 28.8599 65.0369 29.2617 65.0369 29.9961V31.7974V31.8043Z" fill="#9B9DA0"/>
<path d="M66.4369 32.0053C66.4369 32.2616 66.5269 32.3863 66.7625 32.3863C66.8456 32.3863 66.9357 32.3655 67.0188 32.3378L67.1089 32.5872C66.998 32.6357 66.8525 32.6773 66.714 32.6773C66.3399 32.6773 66.1182 32.4695 66.1182 32.0053V27.4466L66.4369 27.405V32.0122V32.0053Z" fill="#9B9DA0"/>
<path d="M72.3114 31.1184C72.3114 32.0259 71.8195 32.6772 70.7734 32.6772C69.7272 32.6772 69.2354 32.0259 69.2354 31.1184V27.7998H69.5679V31.0906C69.5679 31.8735 69.9351 32.3723 70.7734 32.3723C71.6117 32.3723 71.9719 31.8597 71.9719 31.0906V27.7998H72.3114V31.1184Z" fill="#9B9DA0"/>
<path d="M75.8242 30.7443C75.8242 29.6704 75.4709 29.137 74.7989 29.137C74.307 29.137 73.9883 29.4072 73.7181 29.7813V31.7974C73.9537 32.1507 74.3001 32.3863 74.7435 32.3863C75.4432 32.3863 75.8242 31.8251 75.8242 30.7443ZM76.1706 30.7443C76.1706 31.9151 75.6926 32.6703 74.7989 32.6703C74.3209 32.6703 73.9467 32.4348 73.725 32.1368V33.9589L73.3994 34.0144V28.9291H73.6835L73.7043 29.4834C73.9744 29.1093 74.3555 28.8599 74.8474 28.8599C75.7273 28.8599 76.1706 29.5457 76.1706 30.7374V30.7443Z" fill="#9B9DA0"/>
<path d="M78.9076 31.7073V30.6612H78.2079C77.4596 30.6612 77.0162 30.9521 77.0162 31.5757C77.0162 32.1022 77.3211 32.4001 77.8337 32.4001C78.3464 32.4001 78.679 32.1438 78.9076 31.7073ZM79.2332 31.8043C79.2332 32.2408 79.3371 32.3655 79.545 32.4417L79.4688 32.6772C79.1639 32.601 78.9907 32.4278 78.9561 32.0329C78.6928 32.4625 78.3049 32.6772 77.7991 32.6772C77.0994 32.6772 76.6768 32.2338 76.6768 31.5826C76.6768 30.8205 77.2587 30.4048 78.1663 30.4048H78.9145V30.0238C78.9145 29.428 78.679 29.1439 78.0347 29.1439C77.7229 29.1439 77.3973 29.2201 77.037 29.3587L76.947 29.1023C77.3419 28.9499 77.6883 28.8599 78.0624 28.8599C78.8799 28.8599 79.2332 29.2617 79.2332 29.9961V31.7974V31.8043Z" fill="#9B9DA0"/>
<path d="M82.5584 31.6658V29.719C82.3436 29.3934 82.0318 29.1371 81.5538 29.1371C80.8818 29.1371 80.4107 29.7259 80.4176 30.779C80.4176 31.8182 80.8333 32.3933 81.4845 32.3933C82.0041 32.3933 82.302 32.13 82.5584 31.6658ZM82.8771 32.5942H82.593L82.5584 32.0191C82.3575 32.3725 82.0041 32.6704 81.436 32.6704C80.5977 32.6704 80.0781 31.9499 80.0781 30.779C80.0781 29.6082 80.6116 28.8669 81.5053 28.8669C82.0388 28.8669 82.3505 29.1163 82.5515 29.3795V27.405L82.8701 27.4466V32.6011L82.8771 32.5942Z" fill="#9B9DA0"/>
<path d="M86.5842 29.9893V32.6012H86.2586V30.0309C86.2586 29.4143 86.0022 29.1302 85.5311 29.1302C85.0046 29.1302 84.6374 29.4628 84.3256 29.92V32.5943H84V27.4398L84.3256 27.3982V29.5805C84.6305 29.151 85.0392 28.8669 85.5796 28.8669C86.2378 28.8669 86.5842 29.2896 86.5842 29.9893Z" fill="#9B9DA0"/>
<path d="M88.6624 32.608C88.3853 33.4047 88.0943 33.8066 87.2422 34.0075L87.2006 33.7511C87.935 33.5572 88.1082 33.2593 88.3506 32.5942H88.2329L86.9512 28.9292H87.3045L88.4615 32.3517L89.5839 28.9292H89.9372L88.6693 32.608H88.6624Z" fill="#9B9DA0"/>
<path d="M92.2925 31.7073V30.6612H91.5927C90.8445 30.6612 90.4011 30.9521 90.4011 31.5757C90.4011 32.1022 90.7129 32.4001 91.2186 32.4001C91.7244 32.4001 92.0638 32.1438 92.2925 31.7073ZM92.6112 31.8043C92.6112 32.2408 92.7151 32.3655 92.9229 32.4417L92.8467 32.6772C92.5419 32.601 92.3687 32.4278 92.334 32.0329C92.0708 32.4625 91.6828 32.6772 91.177 32.6772C90.4704 32.6772 90.0547 32.2338 90.0547 31.5826C90.0547 30.8205 90.6366 30.4048 91.5442 30.4048H92.2925V30.0238C92.2925 29.428 92.0569 29.1439 91.4195 29.1439C91.1078 29.1439 90.7821 29.2201 90.4219 29.3587L90.3318 29.1023C90.7267 28.9499 91.0731 28.8599 91.4472 28.8599C92.2647 28.8599 92.6181 29.2617 92.6181 29.9961V31.7974L92.6112 31.8043Z" fill="#9B9DA0"/>
<path d="M94.7171 32.608C94.44 33.4047 94.149 33.8066 93.2968 34.0075L93.2553 33.7511C93.9896 33.5572 94.1559 33.2593 94.4053 32.5942H94.2876L93.0059 28.9292H93.3592L94.5162 32.3517L95.6385 28.9292H95.9919L94.724 32.608H94.7171Z" fill="#9B9DA0"/>
<path d="M98.3471 31.7073V30.6612H97.6474C96.8992 30.6612 96.4558 30.9521 96.4558 31.5757C96.4558 32.1022 96.7675 32.4001 97.2733 32.4001C97.779 32.4001 98.1185 32.1438 98.3471 31.7073ZM98.6658 31.8043C98.6658 32.2408 98.7698 32.3655 98.9776 32.4417L98.9014 32.6772C98.5966 32.601 98.4234 32.4278 98.3887 32.0329C98.1254 32.4625 97.7375 32.6772 97.2317 32.6772C96.532 32.6772 96.1094 32.2338 96.1094 31.5826C96.1094 30.8205 96.6913 30.4048 97.5989 30.4048H98.3471V30.0238C98.3471 29.428 98.1116 29.1439 97.4673 29.1439C97.1624 29.1439 96.8299 29.2201 96.4696 29.3587L96.3796 29.1023C96.7745 28.9499 97.1209 28.8599 97.495 28.8599C98.3125 28.8599 98.6658 29.2617 98.6658 29.9961V31.7974V31.8043Z" fill="#9B9DA0"/>
<path d="M39.9434 35.1022L39.7425 35.3101C39.403 35.0468 39.0982 34.929 38.6617 34.929C37.8858 34.929 37.0475 35.5318 37.0475 37.0906C37.0475 38.6494 37.6849 39.2937 38.6687 39.2937C39.0913 39.2937 39.3961 39.2036 39.7079 39.0304V37.2361H38.7449L38.7033 36.9451H40.0473V39.1967C39.6317 39.4392 39.1675 39.5847 38.6687 39.5847C37.5047 39.5847 36.708 38.7464 36.708 37.0836C36.708 35.4209 37.6918 34.6311 38.6687 34.6311C39.2229 34.6311 39.5762 34.7766 39.9573 35.0884" fill="#9B9DA0"/>
<path d="M42.5835 35.8226L42.5211 36.1274C42.4311 36.0997 42.3272 36.0858 42.1955 36.0858C41.669 36.0858 41.3919 36.4669 41.184 37.229V39.5152H40.8584V35.8503H41.1355L41.1563 36.7024C41.3503 36.0858 41.6828 35.781 42.2094 35.781C42.3618 35.781 42.4934 35.7949 42.5766 35.8226" fill="#9B9DA0"/>
<path d="M44.7798 38.6216V37.5755H44.08C43.3318 37.5755 42.8884 37.8734 42.8884 38.49C42.8884 39.0165 43.2002 39.3144 43.7059 39.3144C44.2117 39.3144 44.5511 39.0581 44.7798 38.6216ZM45.0985 38.7186C45.0985 39.1551 45.2024 39.2798 45.4102 39.356L45.334 39.5915C45.0292 39.5153 44.856 39.3421 44.8213 38.9472C44.5581 39.3768 44.1701 39.5915 43.6643 39.5915C42.9646 39.5915 42.542 39.1481 42.542 38.4969C42.542 37.7417 43.124 37.3191 44.0315 37.3191H44.7867V36.9381C44.7867 36.3423 44.5511 36.0582 43.9068 36.0582C43.5951 36.0582 43.2694 36.1344 42.9092 36.273L42.8191 36.0167C43.214 35.8642 43.5604 35.7742 43.9345 35.7742C44.7521 35.7742 45.1054 36.176 45.1054 36.9104V38.7117L45.0985 38.7186Z" fill="#9B9DA0"/>
<path d="M50.6823 36.9034V39.5152H50.3636V36.9519C50.3636 36.3353 50.1142 36.0512 49.7054 36.0512C49.2482 36.0512 48.9087 36.3838 48.6177 36.841V39.5152H48.299V36.9519C48.299 36.3353 48.0496 36.0512 47.6409 36.0512C47.1836 36.0512 46.8441 36.3838 46.5532 36.841V39.5152H46.2275V35.8503H46.5116L46.5393 36.4946C46.8234 36.0651 47.2113 35.781 47.6894 35.781C48.1674 35.781 48.4792 36.0581 48.59 36.5292C48.8741 36.0858 49.2759 35.781 49.7609 35.781C50.3497 35.781 50.6962 36.2036 50.6962 36.9034" fill="#9B9DA0"/>
<path d="M53.9867 37.4299C53.9867 36.6124 53.6541 36.0581 52.9197 36.0581C52.317 36.0581 51.839 36.5085 51.8043 37.5685H53.9867V37.4368V37.4299ZM54.2846 37.8248H51.8043C51.8528 38.864 52.3447 39.3074 53.0029 39.3074C53.4186 39.3074 53.6818 39.1827 54.0005 38.9333L54.1599 39.1411C53.8204 39.4252 53.474 39.5915 52.989 39.5915C52.0468 39.5915 51.4648 38.8917 51.4648 37.7139C51.4648 36.5362 52.026 35.781 52.9059 35.781C53.8412 35.781 54.2984 36.4738 54.2984 37.5338C54.2984 37.6447 54.2984 37.7486 54.2846 37.8248Z" fill="#9B9DA0"/>
<path d="M57.3128 37.4299C57.3128 36.6124 56.9803 36.0581 56.2459 36.0581C55.6432 36.0581 55.1651 36.5085 55.1305 37.5685H57.3128V37.4368V37.4299ZM57.6107 37.8248H55.1305C55.179 38.864 55.6709 39.3074 56.3291 39.3074C56.7447 39.3074 57.008 39.1827 57.3267 38.9333L57.486 39.1411C57.1466 39.4252 56.8002 39.5915 56.3152 39.5915C55.373 39.5915 54.791 38.8917 54.791 37.7139C54.791 36.5362 55.3522 35.781 56.2321 35.781C57.1674 35.781 57.6315 36.4738 57.6315 37.5338C57.6315 37.6447 57.6246 37.7486 57.6177 37.8248H57.6107Z" fill="#9B9DA0"/>
<path d="M60.9981 36.9034V39.5152H60.6725V36.9519C60.6725 36.3283 60.4162 36.0512 59.9451 36.0512C59.4116 36.0512 59.0514 36.3838 58.7396 36.841V39.5152H58.4209V35.8503H58.705L58.7327 36.5015C59.0444 36.072 59.4532 35.781 60.0005 35.781C60.6656 35.781 61.0051 36.1898 61.0051 36.9034" fill="#9B9DA0"/>
<path d="M66.6309 39.5153H66.2152L64.0536 36.938L66.1251 34.7141H66.5131L64.4624 36.9242L66.6309 39.5153ZM63.6934 34.7141H64.0259V39.5153H63.6934V34.7141Z" fill="#9B9DA0"/>
<path d="M68.8336 38.6216V37.5755H68.1338C67.3856 37.5755 66.9422 37.8734 66.9422 38.49C66.9422 39.0165 67.254 39.3144 67.7597 39.3144C68.2655 39.3144 68.6049 39.0581 68.8336 38.6216ZM69.1523 38.7186C69.1523 39.1551 69.2562 39.2798 69.4571 39.356L69.3809 39.5915C69.083 39.5153 68.9028 39.3421 68.8682 38.9472C68.6049 39.3768 68.217 39.5915 67.7112 39.5915C67.0115 39.5915 66.5889 39.1481 66.5889 38.4969C66.5889 37.7417 67.1708 37.3191 68.0784 37.3191H68.8266V36.9381C68.8266 36.3423 68.5911 36.0582 67.9537 36.0582C67.6419 36.0582 67.3163 36.1344 66.9561 36.273L66.866 36.0167C67.2609 35.8642 67.6073 35.7742 67.9814 35.7742C68.7989 35.7742 69.1523 36.176 69.1523 36.9104V38.7117V38.7186Z" fill="#9B9DA0"/>
<path d="M72.5058 39.5153L72.485 38.8363C72.2356 39.2728 71.8546 39.5915 71.2726 39.5915C70.6144 39.5915 70.2334 39.1897 70.2334 38.4692V35.8503H70.5521V38.4414C70.5521 39.0511 70.8292 39.3144 71.335 39.3144C71.8407 39.3144 72.201 38.9888 72.4573 38.5246V35.8503H72.776V39.5153H72.4989H72.5058Z" fill="#9B9DA0"/>
<path d="M75.9077 36.1828L75.7484 36.4045C75.4366 36.169 75.1664 36.0581 74.7784 36.0581C74.2727 36.0581 73.9124 36.3075 73.9124 36.7232C73.9124 37.1043 74.1618 37.2705 74.8408 37.4507C75.6514 37.6654 76.0047 37.9218 76.0047 38.5453C76.0047 39.1688 75.4505 39.5915 74.7299 39.5915C74.141 39.5915 73.76 39.3836 73.4482 39.1203L73.6284 38.9125C73.9401 39.1619 74.2519 39.3143 74.723 39.3143C75.2703 39.3143 75.6722 39.0372 75.6722 38.5661C75.6722 38.095 75.4643 37.9218 74.6814 37.707C73.9055 37.5061 73.5868 37.229 73.5868 36.7163C73.5868 36.169 74.0995 35.781 74.7715 35.781C75.2218 35.781 75.5613 35.9126 75.9077 36.1828Z" fill="#9B9DA0"/>
<path d="M79.3166 36.9035V39.5154H78.991V36.952C78.991 36.3354 78.7346 36.0514 78.2635 36.0514C77.737 36.0514 77.3698 36.3839 77.058 36.8412V39.5154H76.7324V34.3609L77.058 34.3193V36.5017C77.3629 36.0721 77.7716 35.7881 78.312 35.7881C78.9702 35.7881 79.3166 36.2107 79.3166 36.9104" fill="#9B9DA0"/>
<path d="M82.2885 38.6216V37.5755H81.5887C80.8405 37.5755 80.3971 37.8734 80.3971 38.49C80.3971 39.0165 80.7019 39.3144 81.2146 39.3144C81.7273 39.3144 82.0598 39.0581 82.2885 38.6216ZM82.6141 38.7186C82.6141 39.1551 82.718 39.2798 82.9258 39.356L82.8496 39.5915C82.5448 39.5153 82.3716 39.3421 82.337 38.9472C82.0737 39.3768 81.6857 39.5915 81.18 39.5915C80.4802 39.5915 80.0576 39.1481 80.0576 38.4969C80.0576 37.7417 80.6396 37.3191 81.5472 37.3191H82.2954V36.9381C82.2954 36.3423 82.0598 36.0582 81.4155 36.0582C81.1107 36.0582 80.7781 36.1344 80.4179 36.273L80.3278 36.0167C80.7227 35.8642 81.0691 35.7742 81.4432 35.7742C82.2607 35.7742 82.6141 36.176 82.6141 36.9104V38.7117V38.7186Z" fill="#9B9DA0"/>
<path d="M84.02 38.9264C84.02 39.1758 84.11 39.3075 84.3386 39.3075C84.4218 39.3075 84.5119 39.2867 84.595 39.259L84.6851 39.5084C84.5742 39.5569 84.4287 39.5984 84.2902 39.5984C83.916 39.5984 83.6943 39.3906 83.6943 38.9264V34.3677L84.02 34.3262V38.9334V38.9264Z" fill="#9B9DA0"/>
<path d="M86.3411 39.5292C86.064 40.3259 85.773 40.7277 84.9209 40.9217L84.8793 40.6723C85.6137 40.4714 85.7869 40.1804 86.0294 39.5153H85.9116L84.6299 35.8503H84.9832L86.1402 39.2728L87.2626 35.8503H87.6159L86.3481 39.5292H86.3411Z" fill="#9B9DA0"/>
<path d="M89.9642 38.6216V37.5755H89.2645C88.5163 37.5755 88.0729 37.8734 88.0729 38.49C88.0729 39.0165 88.3846 39.3144 88.8904 39.3144C89.3961 39.3144 89.7356 39.0581 89.9642 38.6216ZM90.2899 38.7186C90.2899 39.1551 90.3938 39.2798 90.6016 39.356L90.5254 39.5915C90.2206 39.5153 90.0474 39.3421 90.0127 38.9472C89.7425 39.3768 89.3615 39.5915 88.8557 39.5915C88.156 39.5915 87.7334 39.1481 87.7334 38.4969C87.7334 37.7417 88.3154 37.3191 89.2229 37.3191H89.9712V36.9381C89.9712 36.3423 89.7356 36.0582 89.0913 36.0582C88.7795 36.0582 88.4539 36.1344 88.0937 36.273L88.0036 36.0167C88.3985 35.8642 88.7449 35.7742 89.119 35.7742C89.9365 35.7742 90.2899 36.176 90.2899 36.9104V38.7117V38.7186Z" fill="#9B9DA0"/>
<path d="M94.177 39.5153H93.8514V37.6308L92.3203 34.7141H92.6875L94.0246 37.3399L95.3271 34.7141H95.6943L94.177 37.6239V39.5153Z" fill="#9B9DA0"/>
<path d="M95.6316 37.6932C95.6316 38.7462 96.075 39.3143 96.8093 39.3143C97.5437 39.3143 97.994 38.7532 97.994 37.6724C97.994 36.5916 97.5576 36.0651 96.8163 36.0651C96.075 36.0651 95.6316 36.6124 95.6316 37.6932ZM98.3266 37.6724C98.3266 38.8709 97.7446 39.5915 96.8024 39.5915C95.8602 39.5915 95.2852 38.8709 95.2852 37.6932C95.2852 36.5154 95.874 35.781 96.8093 35.781C97.7446 35.781 98.3266 36.46 98.3266 37.6724Z" fill="#9B9DA0"/>
<path d="M99.5674 34.5409C99.5674 34.6725 99.4704 34.7834 99.318 34.7834C99.1656 34.7834 99.0686 34.6725 99.0686 34.5409C99.0686 34.4093 99.1656 34.2915 99.318 34.2915C99.4704 34.2915 99.5674 34.4024 99.5674 34.5409ZM99.4773 39.4183C99.4773 40.3744 99.1794 40.6238 98.5559 40.9217L98.4658 40.6861C98.9508 40.4436 99.1517 40.2358 99.1517 39.4252V35.8573H99.4704V39.4183H99.4773Z" fill="#9B9DA0"/>
<path d="M102.484 38.6216V37.5755H101.784C101.036 37.5755 100.592 37.8734 100.592 38.49C100.592 39.0165 100.904 39.3144 101.41 39.3144C101.916 39.3144 102.255 39.0581 102.484 38.6216ZM102.809 38.7186C102.809 39.1551 102.913 39.2798 103.121 39.356L103.045 39.5915C102.747 39.5153 102.567 39.3421 102.532 38.9472C102.269 39.3768 101.881 39.5915 101.375 39.5915C100.676 39.5915 100.253 39.1481 100.253 38.4969C100.253 37.7417 100.835 37.3191 101.742 37.3191H102.491V36.9381C102.491 36.3423 102.255 36.0582 101.618 36.0582C101.306 36.0582 100.98 36.1344 100.62 36.273L100.53 36.0167C100.925 35.8642 101.271 35.7742 101.645 35.7742C102.463 35.7742 102.816 36.176 102.816 36.9104V38.7117L102.809 38.7186Z" fill="#9B9DA0"/>
<path d="M106.502 36.9034V39.5152H106.183V36.9519C106.183 36.3283 105.927 36.0512 105.456 36.0512C104.922 36.0512 104.562 36.3838 104.25 36.841V39.5152H103.925V35.8503H104.209L104.237 36.5015C104.541 36.072 104.957 35.781 105.504 35.781C106.17 35.781 106.509 36.1898 106.509 36.9034" fill="#9B9DA0"/>
<path d="M109.481 38.6216V37.5755H108.781C108.033 37.5755 107.589 37.8734 107.589 38.49C107.589 39.0165 107.901 39.3144 108.407 39.3144C108.913 39.3144 109.252 39.0581 109.481 38.6216ZM109.806 38.7186C109.806 39.1551 109.91 39.2798 110.118 39.356L110.042 39.5915C109.744 39.5153 109.564 39.3421 109.529 38.9472C109.266 39.3768 108.878 39.5915 108.372 39.5915C107.673 39.5915 107.25 39.1481 107.25 38.4969C107.25 37.7417 107.832 37.3191 108.74 37.3191H109.488V36.9381C109.488 36.3423 109.252 36.0582 108.608 36.0582C108.296 36.0582 107.971 36.1344 107.61 36.273L107.52 36.0167C107.915 35.8642 108.262 35.7742 108.636 35.7742C109.453 35.7742 109.806 36.176 109.806 36.9104V38.7117V38.7186Z" fill="#9B9DA0"/>
<path d="M19.444 45.1339L19.2846 46.2355H20.5386L20.4624 46.7967H19.2153L19.0491 47.9606H20.5871L20.5109 48.5218H18.2246L18.7789 44.5728H21.0443L20.885 45.1339H19.444Z" fill="#50388C"/>
<path d="M25.1944 46.3464L24.8895 48.5218H24.169L24.4669 46.4711C24.5223 46.097 24.3907 46.0139 24.2244 46.0139C23.975 46.0139 23.7187 46.3464 23.5178 46.7621L23.2684 48.5218H22.5478L22.8457 46.4711C22.9012 46.097 22.7695 46.0139 22.6033 46.0139C22.3539 46.0139 22.0975 46.3603 21.8966 46.7829L21.6541 48.5218H20.9336L21.3562 45.4943H21.9797L21.952 46.0277C22.2084 45.6536 22.534 45.4111 22.915 45.4111C23.2614 45.4111 23.5247 45.619 23.5801 46.0069C23.8365 45.6259 24.1759 45.4111 24.5293 45.4111C25.0004 45.4111 25.2775 45.7645 25.1944 46.3464Z" fill="#50388C"/>
<path d="M26.4896 46.3534L26.2679 47.9815C26.4134 48.0369 26.5381 48.0646 26.7182 48.0646C27.3625 48.0646 27.605 47.2055 27.605 46.5889C27.605 46.1178 27.4179 45.9654 27.1616 45.9654C26.9053 45.9654 26.6905 46.1317 26.4896 46.3534ZM28.3532 46.5958C28.3532 47.4549 27.9445 48.605 26.7459 48.605C26.5104 48.605 26.3372 48.5634 26.1847 48.5149L26.0254 49.6927L25.291 49.7758L25.8938 45.4943H26.5242V45.8476C26.836 45.5081 27.1339 45.4111 27.4249 45.4111C28.0207 45.4111 28.3532 45.8407 28.3532 46.5958Z" fill="#50388C"/>
<path d="M29.3165 47.3925C29.3165 47.8497 29.4966 48.0576 29.8292 48.0576C30.5081 48.0576 30.6675 47.1431 30.6675 46.6304C30.6675 46.1731 30.4943 45.9722 30.1617 45.9722C29.4828 45.9722 29.3165 46.8798 29.3165 47.3925ZM31.4226 46.6858C31.4226 47.4756 31.0277 48.6118 29.7945 48.6118C29.0117 48.6118 28.5752 48.1269 28.5752 47.3371C28.5752 46.5472 28.977 45.418 30.2033 45.418C30.9862 45.418 31.4226 45.9099 31.4226 46.6858Z" fill="#50388C"/>
<path d="M33.66 48.5219L33.5353 46.1525L32.7455 48.5219H31.8518L31.6162 45.5012H32.3367L32.3991 47.9884L33.2651 45.5012H34.0064L34.1311 47.9884L34.9278 45.5012H35.6206L34.5606 48.5219H33.66Z" fill="#50388C"/>
<path d="M37.3246 46.2495C37.3246 46.111 37.2484 45.9378 36.9713 45.9378C36.4586 45.9378 36.23 46.4435 36.1469 46.9354C36.9574 46.8592 37.3246 46.6236 37.3246 46.2564M36.1191 47.4134C36.133 47.8846 36.3755 48.0439 36.708 48.0439C36.9852 48.0439 37.2207 47.9538 37.4978 47.7598L37.7819 48.2171C37.4493 48.4527 37.0683 48.6051 36.6318 48.6051C35.8074 48.6051 35.3848 48.1132 35.3848 47.3442C35.3848 46.5197 35.8143 45.4043 37.0337 45.4043C37.7265 45.4043 38.0798 45.7715 38.0798 46.201C38.0798 47.0532 37.1168 47.2957 36.1261 47.3996L36.1191 47.4134Z" fill="#50388C"/>
<path d="M40.3456 45.4666L40.1308 46.1733C40.0408 46.1525 39.9784 46.1386 39.8814 46.1386C39.5004 46.1386 39.2718 46.4989 39.0847 47.0393L38.8699 48.5288H38.1494L38.572 45.5013H39.1956L39.1748 46.0901C39.3895 45.6537 39.7152 45.425 40.0408 45.425C40.1516 45.425 40.2486 45.4389 40.3456 45.4666Z" fill="#50388C"/>
<path d="M41.4961 44.4342C41.4614 44.6767 41.2605 44.8499 40.9972 44.8499C40.734 44.8499 40.5608 44.6421 40.5954 44.3857C40.63 44.1433 40.831 43.9631 41.0942 43.9631C41.3783 43.9631 41.5376 44.171 41.503 44.4342M40.1035 48.5218L40.5261 45.4942H41.2536L40.831 48.5218H40.1035Z" fill="#50388C"/>
<path d="M44.184 46.3464L43.8723 48.5218H43.1518L43.4497 46.4711C43.5051 46.097 43.3735 46.0139 43.1725 46.0139C42.9023 46.0139 42.6252 46.3603 42.3966 46.7898L42.1541 48.5218H41.4336L41.8562 45.4943H42.4797L42.452 46.0554C42.7222 45.6675 43.1033 45.4111 43.4843 45.4111C43.997 45.4111 44.2603 45.7645 44.184 46.3464Z" fill="#50388C"/>
<path d="M45.1952 47.3579C45.1952 47.8083 45.3753 47.9676 45.6247 47.9676C45.9019 47.9676 46.1236 47.7598 46.3245 47.4826L46.5462 46.0277C46.4007 45.9723 46.2968 45.9515 46.1374 45.9515C45.4585 45.9515 45.2021 46.7275 45.2021 47.3579M47.3083 45.7021L46.9134 48.3625C46.7679 49.3879 46.2621 49.7758 45.4169 49.7758C45.0497 49.7758 44.634 49.6511 44.3223 49.4641L44.5786 48.9583C44.8211 49.0969 45.1121 49.2008 45.3961 49.2008C45.7633 49.2008 46.1097 49.0899 46.2067 48.4318L46.2552 48.0992C46.0474 48.3417 45.7564 48.5218 45.4308 48.5218C44.7934 48.5218 44.44 48.0577 44.44 47.3649C44.44 46.4919 44.8973 45.4111 46.1444 45.4111C46.5254 45.4111 46.9064 45.4943 47.3083 45.7021Z" fill="#50388C"/>
<path d="M48.6455 48.5218L49.1998 44.5728H49.9549L49.4007 48.5218H48.6455Z" fill="#50388C"/>
<path d="M52.7749 46.3464L52.4631 48.5218H51.7426L52.0405 46.4711C52.0959 46.097 51.9643 46.0139 51.7634 46.0139C51.4932 46.0139 51.216 46.3603 50.9874 46.7898L50.7449 48.5218H50.0244L50.447 45.4943H51.0706L51.0428 46.0554C51.313 45.6675 51.6941 45.4111 52.0682 45.4111C52.5809 45.4111 52.8441 45.7645 52.7679 46.3464" fill="#50388C"/>
<path d="M53.8274 47.4202C53.8274 47.8844 53.9868 48.0576 54.2362 48.0576C54.541 48.0576 54.7696 47.7943 54.9913 47.441L55.1576 46.2494C55.0329 46.0692 54.8736 45.9653 54.6519 45.9653C54.0076 45.9653 53.8274 46.8729 53.8274 47.4202ZM55.5664 48.5218H54.929V48.0576C54.735 48.3694 54.4302 48.6049 54.0283 48.6049C53.391 48.6049 53.0723 48.1338 53.0723 47.3925C53.0723 46.5819 53.4533 45.4111 54.5202 45.4111C54.832 45.4111 55.0676 45.5496 55.2269 45.7436L55.4417 44.2056L56.1553 44.2818L55.5594 48.5148L55.5664 48.5218Z" fill="#50388C"/>
<path d="M57.5624 44.4342C57.5277 44.6767 57.3268 44.8499 57.0636 44.8499C56.8003 44.8499 56.6271 44.6421 56.6617 44.3857C56.6964 44.1433 56.8973 43.9631 57.1605 43.9631C57.4377 43.9631 57.6039 44.171 57.5693 44.4342M56.1768 48.5218L56.5994 45.4942H57.3268L56.9042 48.5218H56.1768Z" fill="#50388C"/>
<path d="M58.2544 47.4273C58.2544 47.8846 58.4206 48.0578 58.6839 48.0578C58.9472 48.0578 59.155 47.8638 59.3559 47.5797L59.5915 46.0347C59.446 45.9793 59.3421 45.9516 59.1758 45.9516C58.5107 45.9516 58.2613 46.7968 58.2613 47.4273M60.3467 45.7091L60.0349 47.7391C60.0349 47.7876 60.021 47.8291 60.021 47.8638C60.021 48.0162 60.0834 48.0785 60.2012 48.1201L59.9933 48.5981C59.6746 48.5635 59.4321 48.418 59.3629 48.0924C59.1481 48.3972 58.8502 48.6051 58.4622 48.6051C57.8248 48.6051 57.4854 48.134 57.4854 47.4204C57.4854 46.5682 57.9357 45.4043 59.1689 45.4043C59.5499 45.4043 59.931 45.4874 60.3397 45.6953L60.3467 45.7091Z" fill="#50388C"/>
<path d="M63.1391 46.4849C63.1391 46.9422 62.7719 47.2955 62.3424 47.2955C61.9683 47.2955 61.7119 47.0253 61.7119 46.6651C61.7119 46.2078 62.0791 45.8545 62.5086 45.8545C62.8828 45.8545 63.146 46.1247 63.146 46.4849" fill="#50388C"/>
<path d="M65.8205 46.5819C66.5756 46.5819 66.7558 46.0969 66.7558 45.6743C66.7558 45.2794 66.4925 45.127 66.0491 45.127H65.6403L65.4394 46.5819H65.8205ZM66.1114 44.5728C67.0052 44.5728 67.5386 44.9192 67.5386 45.6466C67.5386 46.3741 67.0952 47.1431 65.8205 47.1431H65.3563L65.1623 48.5218H64.4141L64.9683 44.5728H66.1114Z" fill="#50388C"/>
<path d="M68.0928 47.3925C68.0928 47.8497 68.2729 48.0576 68.6055 48.0576C69.2844 48.0576 69.4438 47.1431 69.4438 46.6304C69.4438 46.1731 69.2705 45.9722 68.938 45.9722C68.259 45.9722 68.0928 46.8798 68.0928 47.3925ZM70.1989 46.6858C70.1989 47.4756 69.804 48.6118 68.5708 48.6118C67.7879 48.6118 67.3584 48.1269 67.3584 47.3371C67.3584 46.5472 67.7602 45.418 68.9865 45.418C69.7694 45.418 70.2058 45.9099 70.2058 46.6858H70.1989Z" fill="#50388C"/>
<path d="M72.4365 48.5219L72.3117 46.1525L71.5219 48.5219H70.6282L70.3857 45.5012H71.1063L71.1755 47.9884L72.0416 45.5012H72.7829L72.9076 47.9884L73.7043 45.5012H74.3971L73.3302 48.5219H72.4365Z" fill="#50388C"/>
<path d="M76.1011 46.2495C76.1011 46.111 76.0249 45.9378 75.7478 45.9378C75.2351 45.9378 75.0065 46.4435 74.9233 46.9354C75.7339 46.8592 76.1011 46.6236 76.1011 46.2564M74.8887 47.4134C74.9025 47.8846 75.145 48.0439 75.4776 48.0439C75.7547 48.0439 75.9902 47.9538 76.2674 47.7598L76.5514 48.2171C76.2189 48.4527 75.8378 48.6051 75.4013 48.6051C74.5769 48.6051 74.1543 48.1132 74.1543 47.3442C74.1543 46.5197 74.5838 45.4043 75.7962 45.4043C76.4891 45.4043 76.8424 45.7715 76.8424 46.201C76.8424 47.0532 75.8794 47.2957 74.8887 47.3996V47.4134Z" fill="#50388C"/>
<path d="M79.122 45.4666L78.9072 46.1733C78.8171 46.1525 78.7548 46.1386 78.6578 46.1386C78.2768 46.1386 78.0481 46.4989 77.8611 47.0393L77.6463 48.5288H76.9258L77.3484 45.5013H77.9719L77.9511 46.0901C78.1659 45.6537 78.4915 45.425 78.8171 45.425C78.928 45.425 79.025 45.4389 79.122 45.4666Z" fill="#50388C"/>
<path d="M80.2724 44.4342C80.2378 44.6767 80.0369 44.8499 79.7736 44.8499C79.4965 44.8499 79.3302 44.6421 79.3648 44.3857C79.3995 44.1433 79.6004 43.9631 79.8637 43.9631C80.1477 43.9631 80.3071 44.171 80.2724 44.4342ZM78.8799 48.5218L79.3025 45.4942H80.0299L79.6073 48.5218H78.8799Z" fill="#50388C"/>
<path d="M82.9603 46.3464L82.6486 48.5218H81.928L82.2259 46.4711C82.2814 46.097 82.1497 46.0139 81.9557 46.0139C81.6855 46.0139 81.4084 46.3603 81.1798 46.7898L80.9373 48.5218H80.2168L80.6394 45.4943H81.2629L81.2352 46.0554C81.5054 45.6675 81.8865 45.4111 82.2675 45.4111C82.7733 45.4111 83.0435 45.7645 82.9672 46.3464" fill="#50388C"/>
<path d="M83.9716 47.3579C83.9716 47.8083 84.1517 47.9676 84.4011 47.9676C84.6782 47.9676 84.8999 47.7598 85.1008 47.4826L85.3225 46.0277C85.1771 45.9723 85.0731 45.9515 84.9138 45.9515C84.2348 45.9515 83.9785 46.7275 83.9785 47.3579M86.0846 45.7021L85.6897 48.3625C85.5442 49.3879 85.0385 49.7758 84.1933 49.7758C83.8261 49.7758 83.4104 49.6511 83.0986 49.4641L83.355 48.9583C83.5975 49.0969 83.8884 49.2008 84.1725 49.2008C84.5397 49.2008 84.8861 49.0899 84.9831 48.4318L85.0316 48.0992C84.8237 48.3417 84.5327 48.5218 84.2071 48.5218C83.5697 48.5218 83.2164 48.0577 83.2164 47.3649C83.2164 46.4919 83.6737 45.4111 84.9207 45.4111C85.3018 45.4111 85.6828 45.4943 86.0846 45.7021Z" fill="#50388C"/>
<path d="M88.2951 47.6143C88.2466 47.9122 88.3228 48.0161 88.5307 48.0161C88.6485 48.0161 88.7732 47.9815 88.9117 47.9053L89.1196 48.3972C88.8771 48.5427 88.6069 48.612 88.3506 48.612C87.7478 48.612 87.4845 48.2517 87.5746 47.6143L87.7963 46.0278H87.3252L87.4014 45.5013H87.9002L88.0873 44.8154L88.69 44.7461L88.5861 45.5013H89.2789L89.1334 46.0278H88.5168L88.2951 47.6143Z" fill="#50388C"/>
<path d="M91.9809 46.3465L91.6692 48.5219H90.9486L91.2465 46.4712C91.302 46.0971 91.1703 46.0139 90.9694 46.0139C90.6992 46.0139 90.4221 46.3604 90.1935 46.7899L89.951 48.5219H89.2305L89.8263 44.2889L90.5537 44.2126L90.2974 46.0278C90.533 45.6537 90.9001 45.4043 91.2812 45.4043C91.7869 45.4043 92.0571 45.7576 91.9809 46.3396" fill="#50388C"/>
<path d="M94.1978 46.2495C94.1978 46.111 94.1216 45.9378 93.8444 45.9378C93.3318 45.9378 93.1031 46.4435 93.02 46.9354C93.8306 46.8592 94.1978 46.6236 94.1978 46.2564M92.9854 47.4134C92.9992 47.8846 93.2417 48.0439 93.5742 48.0439C93.8514 48.0439 94.0869 47.9538 94.364 47.7598L94.6481 48.2171C94.3156 48.4527 93.9345 48.6051 93.498 48.6051C92.6736 48.6051 92.251 48.1132 92.251 47.3442C92.251 46.5197 92.6805 45.4043 93.8999 45.4043C94.5927 45.4043 94.946 45.7715 94.946 46.201C94.946 47.0532 93.983 47.2957 92.9923 47.3996L92.9854 47.4134Z" fill="#50388C"/>
<path d="M98.6663 48.5218L98.5139 45.3764L97.4608 48.5218H96.5186L96.3662 44.5728H97.0937L97.1214 47.9259L98.2299 44.5728H99.0266L99.179 47.9259L100.197 44.5728H100.904L99.6363 48.5218H98.6663Z" fill="#50388C"/>
<path d="M101.195 47.3925C101.195 47.8497 101.375 48.0576 101.708 48.0576C102.387 48.0576 102.546 47.1431 102.546 46.6304C102.546 46.1731 102.373 45.9722 102.041 45.9722C101.362 45.9722 101.195 46.8798 101.195 47.3925ZM103.301 46.6858C103.301 47.4756 102.907 48.6118 101.673 48.6118C100.89 48.6118 100.461 48.1269 100.461 47.3371C100.461 46.5472 100.863 45.418 102.089 45.418C102.872 45.418 103.308 45.9099 103.308 46.6858H103.301Z" fill="#50388C"/>
<path d="M105.684 45.4666L105.47 46.1733C105.38 46.1525 105.317 46.1386 105.22 46.1386C104.839 46.1386 104.611 46.4989 104.424 47.0393L104.209 48.5288H103.488L103.911 45.5013H104.534L104.514 46.0901C104.728 45.6537 105.054 45.425 105.38 45.425C105.497 45.425 105.587 45.4389 105.684 45.4666Z" fill="#50388C"/>
<path d="M106.232 47.8013C106.218 47.9607 106.245 48.0161 106.356 48.0161C106.412 48.0161 106.474 47.9953 106.536 47.9745L106.647 48.4941C106.488 48.5704 106.308 48.605 106.142 48.605C105.677 48.605 105.442 48.3279 105.518 47.7736L106.01 44.2819L106.737 44.1987L106.232 47.7944V47.8013Z" fill="#50388C"/>
<path d="M107.569 47.4202C107.569 47.8844 107.728 48.0576 107.977 48.0576C108.282 48.0576 108.511 47.7943 108.733 47.441L108.899 46.2494C108.774 46.0692 108.615 45.9653 108.393 45.9653C107.749 45.9653 107.569 46.8729 107.569 47.4202ZM109.308 48.5218H108.67V48.0576C108.476 48.3694 108.171 48.6049 107.77 48.6049C107.132 48.6049 106.813 48.1338 106.813 47.3925C106.813 46.5819 107.195 45.4111 108.261 45.4111C108.573 45.4111 108.809 45.5496 108.975 45.7436L109.19 44.2056L109.903 44.2818L109.308 48.5148V48.5218Z" fill="#50388C"/>
<path d="M3.6748 51.9095C6.9795 46.0484 13.0416 41.9885 13.0416 41.9885C17.3508 40.5059 21.7363 38.9609 25.2489 36.8687H25.2835C17.9397 41.5035 9.93087 45.9444 3.6748 51.9095Z" fill="#50388C"/>
<path d="M25.3809 21.8903C38.468 18.5925 37.3803 9.04558 44.5855 0.662598C40.9829 3.4269 37.2279 7.9648 33.7084 11.7198L32.8147 12.863C32.8147 12.863 32.6484 14.0477 30.7848 16.9505C29.413 19.0774 28.0551 20.9757 25.3878 21.8903" fill="#462E87"/>
<path d="M32.8767 17.373C24.4244 30.2385 8.17112 31.541 1.69336 45.5911C7.22197 40.3604 13.672 37.035 19.9974 33.4808C25.5052 30.3701 34.0822 25.5343 32.8697 17.373" fill="#BEC0C2"/>
<path d="M3.0791 45.9792C8.34445 41.3581 15.1201 38.0465 20.9882 34.7349C24.8749 32.5525 30.2857 29.4834 32.7105 24.9871C34.0684 38.3513 13.9423 40.5198 3.0791 45.9722" fill="#DCDDDE"/>
<path d="M4.00781 32.3518C9.6542 17.9621 20.3512 20.5948 30.9234 13.6321C27.2585 17.3247 22.5266 20.7057 17.7462 24.1489C17.7462 24.1489 7.38179 25.493 4.00781 32.3518Z" fill="#50388C"/>
<path d="M19.79 6.99493C17.5384 8.58146 17.0049 11.6714 18.5914 13.9161C20.178 16.1608 23.2679 16.6943 25.5126 15.1077C27.7642 13.5212 28.2908 10.4313 26.7112 8.18656C25.1246 5.94186 22.0347 5.4084 19.79 6.99493Z" fill="#50388C"/>
<path d="M0.335938 45.9724C3.54364 27.7376 34.623 17.8582 36.8954 1.07837C33.1404 31.1186 7.87369 25.4029 0.335938 45.9724Z" fill="#9B9DA0"/>
<path d="M109.987 42.6675H14.2959V42.9585H109.987V42.6675Z" fill="#50388C"/>
</g>
<defs>
<clipPath id="clip0_110_1146">
<rect width="109.776" height="51.2471" fill="white" transform="translate(0.335938 0.662598)"/>
</clipPath>
</defs>
</svg>
