<svg width="209" height="21" viewBox="0 0 209 21" fill="none" xmlns="http://www.w3.org/2000/svg">
<path d="M23.8141 20.6076C23.8141 20.6076 23.2269 16.4732 21.0348 14.0667C18.8428 11.6604 14.7646 10.6392 14.7646 10.6392L23.8141 20.6076ZM21.0377 6.54379C23.2314 4.13367 23.8209 3.62396e-05 23.8209 3.62396e-05L14.7646 9.96472C14.7646 9.96472 18.8487 8.95696 21.0377 6.54379ZM33.5411 10.6445C33.5411 10.6445 29.454 11.6529 27.2658 14.0691C25.0774 16.4852 24.4932 20.6084 24.4932 20.6084L33.5411 10.6445ZM27.2689 6.54538C29.4556 8.95551 33.5411 9.96987 33.5411 9.96987L24.4999 0.00149345C24.4999 0.00149345 25.0842 4.13367 27.2689 6.54538Z" fill="#2F2F2F"/>
<path d="M0 2.26802V18.3848H2.32523V10.8739H8.66373V8.82092H2.32523V4.32174H8.66373V2.26802H0Z" fill="#2F2F2F"/>
<path d="M39.9512 18.3848V2.26803H44.0203C45.6627 2.26803 46.9675 2.67258 47.9321 3.47944C48.8977 4.28711 49.3798 5.37975 49.3798 6.75597C49.3798 7.6944 49.1428 8.50512 48.6708 9.19003C48.1975 9.87521 47.5194 10.3865 46.6357 10.7242C47.1548 11.0634 47.6623 11.5242 48.1593 12.1085C48.6549 12.6936 49.352 13.7118 50.2523 15.1662C50.8177 16.0814 51.2703 16.7694 51.6116 17.2311L52.4719 18.3848H49.7048L48.9962 17.3221C48.9728 17.2838 48.9271 17.2184 48.8581 17.1259L48.4044 16.4912L47.6849 15.3143L46.9073 14.0555C46.4268 13.3946 45.9877 12.8674 45.5875 12.477C45.188 12.0845 44.8271 11.8025 44.5055 11.6295C44.1829 11.4565 43.6415 11.3702 42.8811 11.3702H42.2764V18.3848H39.9512ZM42.9735 4.22918H42.2764V9.31713H43.1594C44.3376 9.31713 45.1461 9.21715 45.5838 9.01719C46.0212 8.8171 46.3629 8.51555 46.6066 8.11181C46.8507 7.70709 46.9726 7.24848 46.9726 6.73336C46.9726 6.22575 46.8372 5.76632 46.566 5.35422C46.2951 4.94358 45.9132 4.6533 45.4213 4.48338C44.9287 4.31423 44.1135 4.22918 42.9735 4.22918Z" fill="#2F2F2F"/>
<path d="M59.5615 2.26856H68.7697V4.32214H61.8864V9.23644H68.5371V11.303H61.8864V16.3105H68.9898V18.3643H59.5615V2.26856Z" fill="#2F2F2F"/>
<path d="M87.8539 2.26772H90.17L83.3013 18.4551H82.7755L75.7754 2.26772H78.1162L83.0013 13.586L87.8539 2.26772Z" fill="#2F2F2F"/>
<path d="M97.0303 2.26868H106.238V4.32226H99.3555V9.23736H106.006V11.3031H99.3555V16.3107H106.46V18.3643H97.0303V2.26868Z" fill="#2F2F2F"/>
<path d="M114.871 18.3848V2.26803H118.94C120.582 2.26803 121.886 2.67258 122.852 3.47944C123.818 4.28711 124.299 5.37975 124.299 6.75597C124.299 7.6944 124.063 8.50512 123.59 9.19003C123.117 9.87521 122.439 10.3865 121.555 10.7242C122.074 11.0634 122.582 11.5242 123.078 12.1085C123.575 12.6936 124.272 13.7118 125.172 15.1662C125.737 16.0814 126.19 16.7694 126.532 17.2311L127.392 18.3848H124.624L123.916 17.3221C123.893 17.2838 123.847 17.2184 123.778 17.1259L123.324 16.4912L122.605 15.3143L121.826 14.0555C121.346 13.3946 120.907 12.8674 120.507 12.477C120.107 12.0845 119.747 11.8025 119.425 11.6295C119.102 11.4565 118.561 11.3702 117.801 11.3702H117.196V18.3848H114.871ZM117.893 4.22918H117.196V9.31713H118.079C119.258 9.31713 120.066 9.21715 120.503 9.01719C120.941 8.8171 121.282 8.51555 121.526 8.11181C121.771 7.70709 121.893 7.24848 121.893 6.73336C121.893 6.22575 121.756 5.76632 121.486 5.35422C121.214 4.94358 120.833 4.6533 120.34 4.48338C119.848 4.31423 119.033 4.22918 117.893 4.22918Z" fill="#2F2F2F"/>
<path d="M146.639 2.26902H148.813V18.3857H146.477V5.84481L141.482 12.075H141.052L136 5.84481V18.3857H133.675V2.26902H135.875L141.273 8.88736L146.639 2.26902Z" fill="#2F2F2F"/>
<path d="M161.811 2.17724H163.445L170.728 18.3857H168.348L166.183 13.6091H159.254L157.225 18.3857H154.835L161.811 2.17724ZM165.228 11.5562L162.607 5.71836L160.176 11.5562H165.228Z" fill="#2F2F2F"/>
<path d="M176.709 18.3857V2.26902H180.779C182.423 2.26902 183.727 2.67357 184.692 3.47975C185.658 4.28742 186.141 5.38006 186.141 6.75615C186.141 7.69471 185.904 8.50607 185.431 9.19115C184.958 9.8762 184.28 10.3876 183.397 10.7245C183.915 11.0635 184.423 11.5254 184.919 12.1097C185.415 12.6947 186.112 13.7129 187.013 15.1665C187.577 16.0825 188.032 16.7706 188.372 17.2315L189.233 18.3857H186.465L185.756 17.3232C185.735 17.2849 185.688 17.2194 185.618 17.127L185.165 16.4923L184.445 15.3154L183.666 14.0565C183.187 13.3955 182.747 12.8684 182.347 12.4773C181.947 12.0856 181.587 11.8036 181.265 11.6306C180.943 11.4577 180.401 11.3712 179.64 11.3712H179.035V18.3857H176.709ZM179.732 4.23028H179.035V9.31825H179.918C181.097 9.31825 181.905 9.21824 182.343 9.01815C182.781 8.81819 183.123 8.51586 183.366 8.11277C183.611 7.70822 183.733 7.24879 183.733 6.73367C183.733 6.22674 183.597 5.7665 183.327 5.3544C183.054 4.94471 182.672 4.65361 182.18 4.48369C181.687 4.31454 180.872 4.23028 179.732 4.23028Z" fill="#2F2F2F"/>
<path d="M204.361 2.26902L197.522 9.6408V2.26902H195.196V18.3857H197.522V10.4252L205.826 18.3857H209L200.22 9.91761L207.267 2.26902H204.361Z" fill="#2F2F2F"/>
</svg>
