<svg width="82" height="66" viewBox="0 0 82 66" fill="none" xmlns="http://www.w3.org/2000/svg">
<path d="M19.3375 25.3948V18.3232H0.665039V25.3948H4.94567V40.5099H0.665039V47.5814H19.3375V40.5099H15.0568V25.3948H19.3375Z" fill="#105BAB"/>
<path d="M39.9534 29.5498C38.7971 29.2096 32.8682 27.5329 31.835 27.2169C30.8017 26.901 29.9653 26.415 29.9653 25.8075C29.9653 25.2 30.9001 24.5682 32.819 24.5682C38.8463 24.5682 41.7247 28.2376 41.7247 28.2376C41.7247 28.2376 42.0445 28.675 42.1675 28.8208H47.9734V18.8089H41.7247V20.6314C41.2573 20.3155 37.7393 18.0312 32.2778 18.0312C25.0696 18.0312 21.0596 21.725 21.0596 27.2412C21.0596 32.7575 26.1274 35.0418 27.5297 35.625C28.932 36.2082 34.4427 37.7392 36.7798 38.4682C39.117 39.1972 40.0026 39.7075 40.0026 40.0964C40.0026 40.4852 38.9693 41.4329 36.0418 41.4329C30.9247 41.4329 28.2924 38.4439 27.8249 37.885C27.6773 37.6906 27.5051 37.4476 27.4559 37.3747C27.3821 37.2775 27.2345 37.0588 27.1115 36.8887H21.3056V47.581H27.8249V45.3453C28.5876 45.8556 32.4746 48.2371 37.1242 48.2371C42.3397 48.2371 48.9575 46.0014 48.9575 39.0028C48.9575 32.0042 41.0851 29.89 39.9288 29.5741L39.9534 29.5498Z" fill="#105BAB"/>
<path d="M65.5382 17.9346C56.8539 17.9346 49.7441 22.2115 49.7441 33.1469C49.7441 44.0822 57.469 48.189 65.5628 48.189C73.6566 48.189 81.3077 44.1308 81.3077 33.2684C81.3077 22.4059 73.6566 17.9346 65.5136 17.9346H65.5382ZM65.612 40.8988C62.6352 40.8988 60.7409 40.2184 60.7409 33.1226C60.7409 26.0267 62.1432 25.2734 65.735 25.2734C67.8999 25.2734 70.5323 25.4192 70.5323 32.9039C70.5323 40.3885 68.5888 40.8988 65.612 40.8988Z" fill="#105BAB"/>
<path d="M13.1127 15.1151C15.0562 12.2719 17.4671 9.74461 20.2225 7.65475C21.3295 8.45667 22.5104 9.20999 23.7651 9.86612C21.674 12.1504 19.8289 14.702 19.509 15.1151H20.7637C21.5017 14.1188 23.0762 12.1018 24.6999 10.3278C26.4958 11.2027 28.3901 11.9074 30.3582 12.442C29.8416 13.5355 29.4234 14.5076 29.202 15.1151H30.2844C30.5304 14.5076 30.8995 13.657 31.3669 12.7093C33.9008 13.3168 36.5332 13.657 39.2639 13.7056V15.1151H40.2726V13.7056C42.9541 13.7056 45.5865 13.3897 48.1204 12.8065C48.5386 13.7056 48.9076 14.5076 49.1291 15.0908H50.2115C49.9901 14.5076 49.6211 13.6084 49.1045 12.5635C51.1218 12.0532 53.0653 11.3485 54.8858 10.4979C56.4603 12.2233 57.9363 14.1431 58.6498 15.0908H59.9044C59.6092 14.6777 57.8379 12.2719 55.8206 10.0362C57.1983 9.3315 58.5022 8.52957 59.7322 7.63044C62.4876 9.72031 64.8739 12.2476 66.842 15.0908H68.0475C62.0448 6.02659 51.7122 0 39.9528 0C28.1933 0 17.8608 6.02659 11.9072 15.1151H13.1127ZM30.8011 11.5186C28.9068 11.0083 27.1109 10.3521 25.4134 9.55021C25.6348 9.3072 25.8808 9.08849 26.1022 8.86978C28.4393 6.63411 32.2771 4.20403 33.1136 3.66942C33.8024 4.03393 34.5405 4.34984 35.3277 4.59285C34.7127 5.39477 33.5072 6.99862 32.1787 9.06419C31.6621 9.86612 31.1947 10.6923 30.7765 11.5186H30.8011ZM39.2147 12.7093C36.6562 12.6607 34.1714 12.3448 31.7851 11.7859C32.1541 11.0569 32.5724 10.3278 33.0152 9.62311C34.5405 7.26593 35.8935 5.49198 36.361 4.90876C37.2712 5.12746 38.2307 5.24897 39.2147 5.29757V12.7093ZM40.2234 12.7093V5.29757C41.1828 5.29757 42.1423 5.17607 43.0525 5.00596C43.5692 5.66208 44.873 7.38744 46.3245 9.62311C46.7919 10.3521 47.2348 11.1541 47.6284 11.9074C45.242 12.4177 42.7819 12.7093 40.248 12.7336L40.2234 12.7093ZM48.637 11.6644C48.2188 10.8138 47.7268 9.93902 47.1856 9.08849C45.9309 7.14443 44.7746 5.58918 44.135 4.73865C44.9714 4.49564 45.7833 4.20403 46.4967 3.83952C47.6776 4.59285 51.1218 6.82852 53.2621 8.86978C53.5573 9.13709 53.8279 9.4287 54.1231 9.74461C52.3764 10.5465 50.5313 11.1784 48.6124 11.6644H48.637ZM58.8712 7.02292C57.6903 7.87345 56.4356 8.62678 55.1072 9.2829C54.7382 8.89408 54.3691 8.50527 54.0001 8.16506C51.9828 6.2453 48.9814 4.22834 47.5054 3.28061C47.9974 2.96469 48.4648 2.60018 48.8584 2.21137C52.4994 3.232 55.8698 4.88446 58.8712 7.02292ZM39.9528 0.996332C42.6097 0.996332 45.1928 1.31224 47.6776 1.91976C45.8079 3.42641 42.9787 4.30124 39.9528 4.30124C36.9268 4.30124 34.0976 3.42641 32.2279 1.91976C34.7127 1.31224 37.2958 0.996332 39.9528 0.996332ZM31.0717 2.21137C31.3915 2.52728 31.7605 2.81889 32.1541 3.0862C30.8257 3.93673 27.5537 6.09949 25.3888 8.14076C25.0689 8.43237 24.7737 8.74828 24.4539 9.08849C23.273 8.48097 22.1168 7.77625 21.0589 7.02292C24.0603 4.88446 27.4307 3.2563 31.0717 2.21137Z" fill="#105BAB"/>
<path d="M66.7928 50.9096C64.8739 53.7041 62.5368 56.1585 59.8798 58.2484C58.6006 57.3007 57.2475 56.4501 55.796 55.7211C57.5427 53.777 59.0926 51.7115 59.683 50.9339H58.4284C57.6657 51.9545 56.3126 53.6798 54.8612 55.2594C53.0407 54.4089 51.0972 53.7041 49.0799 53.1938C49.4981 52.2947 49.8425 51.4928 50.0639 50.9096H48.9814C48.76 51.4685 48.4402 52.1732 48.0712 52.9508C45.5619 52.3919 42.9295 52.076 40.2234 52.0517V50.9096H39.2147V52.0517C36.5086 52.1003 33.8516 52.4405 31.3177 53.048C30.9241 52.2218 30.6042 51.4928 30.3582 50.9096H29.2758C29.5218 51.5171 29.8662 52.3676 30.3336 53.3153C28.3409 53.8499 26.4466 54.5547 24.6753 55.4295C23.1746 53.8013 21.7478 51.9788 20.9359 50.9096H19.6812C20.2717 51.7115 21.92 53.8985 23.7405 55.8912C22.4366 56.5716 21.1819 57.3736 20.0257 58.2241C17.3441 56.1585 15.007 53.6798 13.1127 50.8853H11.9072C17.8608 59.9737 28.2179 66.0003 39.9774 66.0003C51.7368 66.0003 62.0694 59.9737 68.0475 50.8853H66.842L66.7928 50.9096ZM48.637 54.093C50.5559 54.579 52.401 55.2108 54.1477 56.0127C53.8525 56.3043 53.5573 56.5959 53.2867 56.8875C51.1464 58.9288 47.7268 61.1645 46.5213 61.9178C45.7833 61.5533 44.996 61.2374 44.135 61.0187C44.7746 60.1925 45.9309 58.6372 47.1609 56.6931C47.7022 55.8426 48.1942 54.9678 48.6124 54.1173L48.637 54.093ZM40.2234 53.048C42.7573 53.048 45.242 53.3396 47.6038 53.8499C47.2102 54.6033 46.7919 55.3809 46.2999 56.1342C44.873 58.3699 43.5692 60.0709 43.0279 60.7514C42.1177 60.5813 41.1828 60.4841 40.1988 60.4598V53.048H40.2234ZM39.2147 53.048V60.4598C38.2307 60.5084 37.2712 60.6299 36.361 60.8486C35.8935 60.2654 34.5405 58.4914 33.0152 56.1342C32.5724 55.4295 32.1541 54.7005 31.7851 53.9714C34.1714 53.4125 36.6562 53.0966 39.2147 53.048ZM30.8011 54.2145C31.2193 55.0164 31.6867 55.8669 32.2033 56.6688C33.5072 58.7101 34.7373 60.3383 35.3523 61.1402C34.5651 61.3832 33.8024 61.6991 33.1382 62.0636C32.3017 61.529 28.4639 59.0989 26.1268 56.8632C25.9054 56.6445 25.6594 56.4258 25.438 56.1828C27.1355 55.3809 28.956 54.7248 30.8257 54.2145H30.8011ZM20.8621 58.8559C21.9938 58.0297 23.1746 57.3007 24.4293 56.6445C24.7491 56.9604 25.0443 57.2764 25.3642 57.5923C27.5291 59.6335 30.8011 61.7963 32.1295 62.6468C31.6621 62.987 31.2193 63.3273 30.8257 63.7161C27.1847 62.6711 23.8143 60.9944 20.8375 58.8316L20.8621 58.8559ZM39.9528 65.004C37.1974 65.004 34.5405 64.6638 31.9819 64.032C33.8516 62.4281 36.8038 61.4318 39.9528 61.4318C43.1017 61.4318 46.0539 62.4038 47.9236 64.032C45.365 64.6638 42.7081 65.004 39.9528 65.004ZM49.0553 63.7161C48.5878 63.2543 48.0712 62.8169 47.5054 62.4524C48.9814 61.5047 51.9828 59.4877 53.9755 57.568C54.3445 57.2035 54.7136 56.8389 55.0826 56.4501C56.4849 57.1549 57.8133 57.9568 59.0434 58.8316C56.0666 60.9944 52.6963 62.6468 49.0553 63.7161Z" fill="#105BAB"/>
</svg>
