<svg width="73" height="61" viewBox="0 0 73 61" fill="none" xmlns="http://www.w3.org/2000/svg">
<g clip-path="url(#clip0_102_1176)">
<path d="M16.8975 23.7059V17.2773H0V23.7059H3.87374V37.4467H0V43.8753H16.8975V37.4467H13.0238V23.7059H16.8975Z" fill="#A0A0A0"/>
<path d="M35.5539 27.483C34.5076 27.1737 29.1422 25.6494 28.2072 25.3622C27.2722 25.075 26.5152 24.6332 26.5152 24.0809C26.5152 23.5287 27.3612 22.9543 29.0977 22.9543C34.5521 22.9543 37.1569 26.2901 37.1569 26.2901C37.1569 26.2901 37.4463 26.6877 37.5576 26.8203H42.8116V17.7186H37.1569V19.3755C36.7339 19.0883 33.5503 17.0117 28.6079 17.0117C22.0849 17.0117 18.4561 20.3696 18.4561 25.3843C18.4561 30.3991 23.0422 32.4756 24.3112 33.0058C25.5802 33.536 30.5671 34.9278 32.682 35.5905C34.797 36.2533 35.5985 36.7172 35.5985 37.0706C35.5985 37.4241 34.6634 38.2857 32.0142 38.2857C27.3835 38.2857 25.0013 35.5684 24.5783 35.0603C24.4448 34.8836 24.2889 34.6627 24.2444 34.5964C24.1776 34.508 24.044 34.3092 23.9327 34.1546H18.6787V43.8748H24.5783V41.8424C25.2685 42.3063 28.786 44.4712 32.9937 44.4712C37.7134 44.4712 43.7022 42.4388 43.7022 36.0765C43.7022 29.7142 36.578 27.7923 35.5317 27.5051L35.5539 27.483Z" fill="#A0A0A0"/>
<path d="M58.7068 16.9238C50.848 16.9238 44.4141 20.8119 44.4141 30.753C44.4141 40.6941 51.4046 44.4275 58.7291 44.4275C66.0536 44.4275 72.9773 40.7383 72.9773 30.8634C72.9773 20.9886 66.0536 16.9238 58.6846 16.9238H58.7068ZM58.7736 37.8001C56.0798 37.8001 54.3656 37.1816 54.3656 30.7309C54.3656 24.2802 55.6346 23.5954 58.8849 23.5954C60.8441 23.5954 63.2262 23.728 63.2262 30.5321C63.2262 37.3362 61.4674 37.8001 58.7736 37.8001Z" fill="#A0A0A0"/>
<path d="M11.2647 14.3609C13.0235 11.7762 15.2052 9.47873 17.6987 7.57888C18.7005 8.30789 19.7691 8.99272 20.9045 9.58919C19.0122 11.6658 17.3425 13.9854 17.0531 14.3609H18.1885C18.8564 13.4552 20.2812 11.6216 21.7505 10.0089C23.3757 10.8042 25.09 11.4449 26.871 11.9309C26.4035 12.925 26.025 13.8086 25.8246 14.3609H26.8042C27.0268 13.8086 27.3608 13.0354 27.7838 12.1739C30.0768 12.7262 32.459 13.0354 34.9302 13.0796V14.3609H35.8429V13.0796C38.2696 13.0796 40.6517 12.7924 42.9448 12.2622C43.3233 13.0796 43.6572 13.8086 43.8576 14.3388H44.8371C44.6368 13.8086 44.3028 12.9913 43.8353 12.0413C45.6609 11.5774 47.4196 10.9368 49.0671 10.1636C50.4919 11.732 51.8277 13.4773 52.4733 14.3388H53.6087C53.3416 13.9633 51.7386 11.7762 49.9131 9.74383C51.1598 9.10318 52.3397 8.37417 53.4529 7.55679C55.9463 9.45664 58.1058 11.7541 59.8869 14.3388H60.9777C55.5456 6.09876 46.1952 0.620117 35.5535 0.620117C24.9119 0.620117 15.5614 6.09876 10.1738 14.3609H11.2647ZM27.2717 11.0914C25.5575 10.6275 23.9323 10.031 22.3962 9.302C22.5965 9.08109 22.8191 8.88227 23.0195 8.68345C25.1345 6.65104 28.6075 4.44191 29.3644 3.9559C29.9878 4.28727 30.6557 4.57446 31.3681 4.79537C30.8115 5.52439 29.7206 6.98241 28.5184 8.86018C28.0509 9.58919 27.6279 10.3403 27.2495 11.0914H27.2717ZM34.8856 12.1739C32.5703 12.1297 30.3217 11.8425 28.1622 11.3344C28.4962 10.6717 28.8747 10.0089 29.2754 9.36828C30.6557 7.22542 31.8801 5.61275 32.3031 5.08256C33.1269 5.28138 33.9951 5.39184 34.8856 5.43602V12.1739ZM35.7984 12.1739V5.43602C36.6667 5.43602 37.5349 5.32557 38.3586 5.17093C38.8262 5.76739 40.0061 7.33588 41.3196 9.36828C41.7426 10.031 42.1433 10.76 42.4995 11.4449C40.34 11.9088 38.1138 12.1739 35.8207 12.196L35.7984 12.1739ZM43.4123 11.2239C43.0338 10.4508 42.5886 9.65546 42.0988 8.88227C40.9634 7.11496 39.917 5.70112 39.3382 4.92792C40.0951 4.70701 40.8298 4.44191 41.4754 4.11054C42.5441 4.79537 45.6609 6.82778 47.5977 8.68345C47.8649 8.92645 48.1098 9.19155 48.3769 9.47873C46.7963 10.2077 45.1266 10.7821 43.3901 11.2239H43.4123ZM52.6737 7.00451C51.6051 7.7777 50.4697 8.46253 49.2675 9.059C48.9335 8.70554 48.5996 8.35208 48.2656 8.0428C46.4401 6.29758 43.724 4.46401 42.3882 3.60244C42.8335 3.31526 43.2565 2.98389 43.6127 2.63043C46.9076 3.55826 49.9576 5.06047 52.6737 7.00451ZM35.5535 1.52586C37.9579 1.52586 40.2955 1.81305 42.5441 2.36533C40.8521 3.73499 38.2919 4.53028 35.5535 4.53028C32.8152 4.53028 30.255 3.73499 28.563 2.36533C30.8115 1.81305 33.1491 1.52586 35.5535 1.52586ZM27.5166 2.63043C27.806 2.91761 28.14 3.18271 28.4962 3.42571C27.294 4.19891 24.333 6.16504 22.3739 8.02071C22.0845 8.2858 21.8173 8.57299 21.5279 8.88227C20.4593 8.32998 19.4129 7.68934 18.4556 7.00451C21.1717 5.06047 24.2217 3.58035 27.5166 2.63043Z" fill="#A0A0A0"/>
<path d="M59.8423 46.901C58.1058 49.4415 55.9908 51.6727 53.5865 53.5726C52.4288 52.711 51.2043 51.9378 49.8908 51.2751C51.4715 49.5078 52.874 47.63 53.4084 46.9231H52.2729C51.5828 47.8509 50.3583 49.4194 49.0448 50.8553C47.3974 50.0821 45.6386 49.4415 43.813 48.9776C44.1915 48.1602 44.5032 47.4312 44.7036 46.901H43.724C43.5236 47.4091 43.2342 48.0497 42.9003 48.7567C40.6295 48.2486 38.2473 47.9614 35.7984 47.9393V46.901H34.8856V47.9393C32.4367 47.9835 30.0323 48.2927 27.7392 48.845C27.383 48.0939 27.0936 47.4312 26.871 46.901H25.8914C26.1141 47.4533 26.4257 48.2265 26.8487 49.088C25.0454 49.574 23.3312 50.2147 21.7283 51.01C20.3702 49.5299 19.079 47.873 18.3443 46.901H17.2089C17.7432 47.63 19.2348 49.6182 20.8823 51.4297C19.7023 52.0483 18.5669 52.7773 17.5206 53.5505C15.0939 51.6727 12.979 49.4194 11.2647 46.8789H10.1738C15.5614 55.1411 24.9341 60.6197 35.5758 60.6197C46.2174 60.6197 55.5679 55.1411 60.9777 46.8789H59.8869L59.8423 46.901ZM43.4123 49.795C45.1488 50.2368 46.8185 50.8112 48.3992 51.5402C48.132 51.8053 47.8649 52.0704 47.62 52.3355C45.6831 54.1911 42.5886 56.2235 41.4977 56.9084C40.8298 56.577 40.1174 56.2898 39.3382 56.091C39.917 55.3399 40.9634 53.926 42.0765 52.1587C42.5663 51.3855 43.0116 50.5902 43.3901 49.8171L43.4123 49.795ZM35.7984 48.845C38.0915 48.845 40.34 49.1101 42.4773 49.574C42.1211 50.2589 41.7426 50.9658 41.2973 51.6506C40.0061 53.683 38.8262 55.2294 38.3364 55.848C37.5127 55.6933 36.6667 55.605 35.7761 55.5829V48.845H35.7984ZM34.8856 48.845V55.5829C33.9951 55.6271 33.1269 55.7375 32.3031 55.9363C31.8801 55.4062 30.6557 53.7935 29.2754 51.6506C28.8747 51.01 28.4962 50.3472 28.1622 49.6845C30.3217 49.1764 32.5703 48.8892 34.8856 48.845ZM27.2717 49.9054C27.6502 50.6344 28.0732 51.4076 28.5407 52.1366C29.7206 53.9923 30.8338 55.4724 31.3904 56.2014C30.6779 56.4224 29.9878 56.7095 29.3867 57.0409C28.6298 56.5549 25.1568 54.3458 23.0418 52.3134C22.8414 52.1145 22.6188 51.9157 22.4184 51.6948C23.9546 50.9658 25.602 50.3693 27.294 49.9054H27.2717ZM18.2775 54.1249C19.3016 53.3737 20.3702 52.711 21.5056 52.1145C21.7951 52.4017 22.0622 52.6889 22.3516 52.9761C24.3108 54.8318 27.2717 56.7979 28.4739 57.5711C28.0509 57.8804 27.6502 58.1897 27.294 58.5431C23.9991 57.5932 20.9491 56.0689 18.2553 54.1028L18.2775 54.1249ZM35.5535 59.714C33.0601 59.714 30.6557 59.4047 28.3403 58.8303C30.0323 57.3723 32.7039 56.4665 35.5535 56.4665C38.4032 56.4665 41.0747 57.3502 42.7667 58.8303C40.4514 59.4047 38.047 59.714 35.5535 59.714ZM43.7908 58.5431C43.3678 58.1234 42.9003 57.7257 42.3882 57.3944C43.724 56.5328 46.4401 54.6992 48.2434 52.954C48.5773 52.6226 48.9113 52.2913 49.2452 51.9378C50.5142 52.5785 51.7164 53.3075 52.8295 54.1028C50.1357 56.0689 47.0857 57.5711 43.7908 58.5431Z" fill="#A0A0A0"/>
</g>
<defs>
<clipPath id="clip0_102_1176">
<rect width="73" height="60" fill="white" transform="translate(0 0.620117)"/>
</clipPath>
</defs>
</svg>
