<svg width="148" height="42" viewBox="0 0 148 42" fill="none" xmlns="http://www.w3.org/2000/svg">
<path d="M148 32.3691H0V41.2329H148V32.3691Z" fill="#2F2F2F"/>
<path d="M10.9406 38.9341C10.5201 39.2473 10.0024 39.4017 9.47899 39.37C8.9398 39.4008 8.40619 39.2471 7.96608 38.9341C7.78471 38.7954 7.63949 38.6149 7.54277 38.4081C7.44604 38.2012 7.40067 37.9741 7.41049 37.746H8.38491C8.39726 37.9262 8.4627 38.0987 8.57295 38.2417C8.68516 38.3507 8.81975 38.4338 8.96736 38.4855C9.11497 38.5372 9.27205 38.5561 9.4277 38.5409C9.62995 38.5469 9.83188 38.5209 10.026 38.464C10.1518 38.4331 10.2633 38.3604 10.3425 38.258C10.4216 38.1555 10.4638 38.0293 10.462 37.8998C10.4657 37.8243 10.4486 37.7492 10.4124 37.6829C10.3762 37.6165 10.3223 37.5614 10.2568 37.5237C10.0443 37.414 9.81678 37.3362 9.58156 37.293L9.05161 37.1818C8.67666 37.1182 8.31533 36.991 7.98318 36.8057C7.81733 36.6857 7.68478 36.5254 7.59804 36.34C7.5113 36.1546 7.47323 35.9501 7.48742 35.7459C7.48345 35.5402 7.52508 35.3362 7.60932 35.1485C7.69355 34.9608 7.81831 34.7941 7.97463 34.6603C8.37299 34.3272 8.88369 34.159 9.40206 34.1902C9.87957 34.1766 10.3482 34.3208 10.7355 34.6005C10.9194 34.7384 11.0681 34.918 11.1691 35.1246C11.2701 35.3311 11.3207 35.5587 11.3167 35.7886H10.3166C10.3176 35.6579 10.2811 35.5296 10.2114 35.4191C10.1417 35.3085 10.0418 35.2202 9.92346 35.1646C9.73365 35.0768 9.52554 35.0357 9.31659 35.045C9.09266 35.0347 8.87042 35.0881 8.67552 35.1988C8.6001 35.2453 8.53826 35.3109 8.49624 35.3889C8.45423 35.467 8.43351 35.5547 8.43619 35.6433C8.43363 35.7239 8.45394 35.8036 8.49478 35.8732C8.53562 35.9428 8.59532 35.9994 8.66698 36.0365C8.8769 36.1221 9.09439 36.1879 9.31659 36.2331L10.1713 36.4382C10.4779 36.4929 10.7694 36.6123 11.0261 36.7887C11.1723 36.9093 11.2879 37.0628 11.3637 37.2365C11.4394 37.4103 11.4731 37.5995 11.462 37.7887C11.4697 38.007 11.4266 38.224 11.3361 38.4228C11.2457 38.6215 11.1103 38.7966 10.9406 38.9341Z" fill="white"/>
<path d="M17.924 39.2498H14.2314V34.3691H17.8043V35.2324H15.223V36.2667H17.5906V37.1129H15.223V38.3694H17.924V39.2498Z" fill="white"/>
<path d="M24.7878 39.25H23.6254C23.5955 39.1637 23.5727 39.0751 23.557 38.9851C23.544 38.8458 23.544 38.7056 23.557 38.5662V38.1132C23.5804 37.8924 23.5227 37.6706 23.3946 37.4893C23.2259 37.3693 23.0193 37.3146 22.8134 37.3354H21.7706V39.25H20.7705V34.3694H23.0783C23.3404 34.3652 23.6011 34.4086 23.8476 34.4976C24.0268 34.5727 24.1851 34.69 24.3092 34.8395C24.4117 34.9617 24.4926 35.1004 24.5485 35.2498C24.6131 35.413 24.645 35.5872 24.6425 35.7627C24.6386 36.0007 24.5801 36.2346 24.4716 36.4465C24.3452 36.6718 24.1372 36.8401 23.8903 36.9166C24.0878 36.9888 24.256 37.1239 24.369 37.3012C24.4758 37.5399 24.5228 37.801 24.5058 38.0619V38.3953C24.4924 38.546 24.4924 38.6976 24.5058 38.8483C24.5173 38.9041 24.5399 38.9571 24.5722 39.0041C24.6044 39.051 24.6458 39.0911 24.6938 39.1218L24.7878 39.25Z" fill="white"/>
<path d="M29.8052 39.2498H28.8479L27.1982 34.3691H28.2838L29.3437 38.0702L30.4121 34.3691H31.472L29.8052 39.2498Z" fill="white"/>
<path d="M35.0359 34.3691H34.0273V39.2412H35.0359V34.3691Z" fill="white"/>
<path d="M39.1817 38.0953C39.2816 38.2263 39.4111 38.3318 39.5597 38.4032C39.7083 38.4745 39.8717 38.5096 40.0364 38.5055C40.1893 38.5143 40.342 38.4863 40.4818 38.4238C40.6217 38.3614 40.7444 38.2663 40.8399 38.1466C40.9583 37.9764 41.0425 37.7848 41.0878 37.5824H42.0964C42.0308 38.0795 41.7952 38.5385 41.4297 38.8816C41.0532 39.2201 40.5593 39.398 40.0535 39.3774C39.7479 39.3923 39.4428 39.3404 39.1593 39.2253C38.8759 39.1101 38.621 38.9345 38.4124 38.7107C37.9945 38.1826 37.7846 37.5197 37.8226 36.8473C37.7983 36.4912 37.8455 36.1337 37.9615 35.7961C38.0775 35.4585 38.2598 35.1475 38.4979 34.8814C38.6913 34.6819 38.9243 34.5249 39.1818 34.4204C39.4394 34.3159 39.7159 34.2662 39.9937 34.2745C40.3358 34.2483 40.6789 34.3089 40.9913 34.4509C41.3036 34.5929 41.575 34.8115 41.7801 35.0865C41.9723 35.3522 42.0876 35.6657 42.1135 35.9926H41.0878C41.0454 35.7998 40.9607 35.6188 40.8399 35.4626C40.7265 35.3444 40.5883 35.2527 40.4353 35.1942C40.2823 35.1356 40.1183 35.1116 39.9549 35.1238C39.7915 35.1361 39.6329 35.1843 39.4904 35.265C39.3478 35.3458 39.2249 35.457 39.1304 35.5908C38.9031 35.9752 38.796 36.4187 38.8227 36.8644C38.798 37.3037 38.9247 37.7381 39.1817 38.0953Z" fill="white"/>
<path d="M48.6691 39.2498H44.9766V34.3691H48.5494V35.2324H45.9766V36.2667H48.3443V37.1129H45.9766V38.3694H48.6691V39.2498Z" fill="white"/>
<path d="M54.79 38.9335C54.3694 39.2467 53.8517 39.4011 53.3283 39.3694C52.7891 39.4002 52.2555 39.2465 51.8154 38.9335C51.6387 38.792 51.4985 38.6104 51.4063 38.4037C51.3141 38.1971 51.2727 37.9713 51.2855 37.7454H52.2599C52.2764 37.9246 52.3414 38.096 52.4479 38.2411C52.5602 38.3501 52.6947 38.4332 52.8423 38.4849C52.99 38.5366 53.147 38.5555 53.3027 38.5403C53.4878 38.5411 53.672 38.5152 53.8497 38.4634C53.9755 38.4324 54.087 38.3598 54.1662 38.2574C54.2454 38.1549 54.2875 38.0287 54.2857 37.8992C54.2886 37.8229 54.2702 37.7472 54.2324 37.6807C54.1946 37.6143 54.1391 37.5597 54.072 37.5231C53.8601 37.4119 53.6323 37.3341 53.3967 37.2923L52.8668 37.1812C52.4922 37.1161 52.1311 36.989 51.7983 36.8051C51.6325 36.6851 51.4999 36.5248 51.4132 36.3394C51.3265 36.154 51.2884 35.9495 51.3026 35.7453C51.2986 35.5396 51.3402 35.3355 51.4245 35.1479C51.5087 34.9602 51.6335 34.7935 51.7898 34.6597C52.1951 34.321 52.7159 34.1526 53.2429 34.1896C53.7175 34.1772 54.1831 34.3214 54.5677 34.5999C54.7517 34.7378 54.9003 34.9174 55.0014 35.124C55.1024 35.3305 55.153 35.5581 55.1489 35.788H54.166C54.1669 35.6573 54.1304 35.529 54.0607 35.4185C53.991 35.3079 53.8911 35.2196 53.7728 35.164C53.5833 35.0752 53.375 35.0341 53.1659 35.0444C52.942 35.0341 52.7198 35.0875 52.5249 35.1982C52.4494 35.2447 52.3876 35.3103 52.3456 35.3883C52.3036 35.4664 52.2829 35.5541 52.2855 35.6427C52.2827 35.7244 52.3038 35.8052 52.3463 35.8751C52.3889 35.945 52.4509 36.0009 52.5249 36.0359C52.7312 36.1233 52.9461 36.1892 53.1659 36.2325L54.0207 36.4376C54.3273 36.4923 54.6187 36.6117 54.8754 36.788C55.0216 36.9087 55.1373 37.0622 55.213 37.2359C55.2888 37.4097 55.3225 37.5989 55.3114 37.7881C55.3191 38.0064 55.276 38.2234 55.1855 38.4222C55.095 38.6209 54.9596 38.796 54.79 38.9335Z" fill="white"/>
<path d="M65.4481 34.3691H64.4395V39.2412H65.4481V34.3691Z" fill="white"/>
<path d="M72.3718 39.2498H71.3546L69.3716 35.788V39.2498H68.4229V34.3691H69.4913L71.423 37.771V34.3691H72.3718V39.2498Z" fill="white"/>
<path d="M76.5253 38.0954C76.6253 38.2264 76.7548 38.332 76.9034 38.4033C77.052 38.4746 77.2153 38.5097 77.3801 38.5057C77.5318 38.5152 77.6836 38.4875 77.8222 38.4249C77.9607 38.3624 78.0819 38.2668 78.175 38.1467C78.3001 37.9792 78.3875 37.7868 78.4314 37.5825H79.44C79.3745 38.0796 79.1389 38.5387 78.7733 38.8818C78.3942 39.2215 77.8972 39.3995 77.3886 39.3775C77.0842 39.3935 76.78 39.3421 76.4977 39.2268C76.2155 39.1116 75.9622 38.9354 75.7561 38.7108C75.3351 38.184 75.1222 37.5209 75.1577 36.8474C75.1351 36.4907 75.1839 36.1331 75.3013 35.7955C75.4187 35.4579 75.6024 35.1472 75.8416 34.8815C76.066 34.672 76.3309 34.5104 76.6199 34.4068C76.909 34.3032 77.2161 34.2596 77.5226 34.2788C77.8291 34.298 78.1284 34.3796 78.4022 34.5185C78.6761 34.6574 78.9187 34.8507 79.1152 35.0867C79.3111 35.3504 79.4268 35.6649 79.4486 35.9927H78.4229C78.3805 35.7999 78.2959 35.6189 78.175 35.4628C78.0708 35.3541 77.9442 35.2695 77.8039 35.2149C77.6637 35.1603 77.5132 35.1369 77.363 35.1465C77.1949 35.1442 77.0288 35.1835 76.8797 35.2611C76.7305 35.3387 76.6029 35.452 76.5083 35.591C76.278 35.9744 76.1679 36.418 76.192 36.8645C76.1599 37.3008 76.2775 37.7349 76.5253 38.0954Z" fill="white"/>
<path d="M86.0395 38.814C85.5861 39.1739 85.0243 39.3697 84.4454 39.3697C83.8666 39.3697 83.3047 39.1739 82.8513 38.814C82.5935 38.55 82.3941 38.2348 82.266 37.8887C82.1379 37.5427 82.0839 37.1736 82.1077 36.8054C82.0782 36.4353 82.1295 36.0633 82.2579 35.715C82.3863 35.3668 82.5888 35.0505 82.8513 34.7881C83.3047 34.4283 83.8666 34.2324 84.4454 34.2324C85.0243 34.2324 85.5861 34.4283 86.0395 34.7881C86.3021 35.0505 86.5046 35.3668 86.633 35.715C86.7614 36.0633 86.8126 36.4353 86.7832 36.8054C86.8069 37.1736 86.753 37.5427 86.6249 37.8887C86.4968 38.2348 86.2973 38.55 86.0395 38.814Z" fill="white"/>
<path d="M93.5866 39.25H92.4669C92.4371 39.1637 92.4142 39.0751 92.3985 38.9851C92.3855 38.8458 92.3855 38.7056 92.3985 38.5662V38.1132C92.422 37.8924 92.3642 37.6706 92.2361 37.4893C92.0674 37.3693 91.8609 37.3146 91.6549 37.3354H90.6036V39.25H89.6035V34.3694H91.937C92.1991 34.3652 92.4597 34.4086 92.7063 34.4976C92.8841 34.5708 93.0401 34.6886 93.1593 34.8395C93.2675 34.9591 93.3516 35.0984 93.4072 35.2498C93.4717 35.413 93.5037 35.5872 93.5012 35.7627C93.4982 36.0019 93.4366 36.2367 93.3217 36.4465C93.2619 36.5587 93.1805 36.6579 93.0822 36.7386C92.9839 36.8193 92.8707 36.8798 92.749 36.9166C92.9439 36.9892 93.1093 37.1245 93.2191 37.3012C93.3292 37.539 93.3791 37.8003 93.3644 38.0619V38.3953C93.3511 38.546 93.3511 38.6976 93.3644 38.8483C93.3739 38.9049 93.3957 38.9586 93.4282 39.0059C93.4606 39.0531 93.5031 39.0927 93.5525 39.1218L93.5866 39.25Z" fill="white"/>
<path d="M99.7918 37.1385C99.438 37.3951 99.0054 37.5191 98.5695 37.489H97.5523V39.2498H96.5352V34.3691H98.6293C99.047 34.3492 99.4575 34.483 99.7832 34.7452C99.9374 34.8964 100.056 35.0797 100.132 35.2821C100.207 35.4845 100.237 35.701 100.219 35.9162C100.242 36.1388 100.215 36.3636 100.141 36.5748C100.067 36.786 99.948 36.9784 99.7918 37.1385Z" fill="white"/>
<path d="M106.844 38.814C106.391 39.1739 105.829 39.3697 105.25 39.3697C104.671 39.3697 104.109 39.1739 103.656 38.814C103.398 38.55 103.199 38.2348 103.071 37.8887C102.943 37.5427 102.889 37.1736 102.912 36.8054C102.883 36.4353 102.934 36.0633 103.063 35.715C103.191 35.3668 103.393 35.0505 103.656 34.7881C104.109 34.4283 104.671 34.2324 105.25 34.2324C105.829 34.2324 106.391 34.4283 106.844 34.7881C107.107 35.0505 107.309 35.3668 107.438 35.715C107.566 36.0633 107.617 36.4353 107.588 36.8054C107.612 37.1736 107.558 37.5427 107.43 37.8887C107.301 38.2348 107.102 38.55 106.844 38.814Z" fill="white"/>
<path d="M114.366 39.25H113.237C113.237 39.1389 113.186 39.0535 113.178 38.9851C113.165 38.8458 113.165 38.7056 113.178 38.5662V38.1132C113.197 37.8927 113.14 37.6722 113.015 37.4893C112.846 37.3693 112.64 37.3146 112.434 37.3354H111.442V39.25H110.442V34.3694H112.776C113.038 34.3652 113.299 34.4086 113.545 34.4976C113.723 34.5708 113.879 34.6886 113.998 34.8395C114.106 34.9591 114.19 35.0984 114.246 35.2498C114.311 35.413 114.343 35.5872 114.34 35.7627C114.337 36.0019 114.275 36.2367 114.161 36.4465C114.036 36.6736 113.827 36.8425 113.579 36.9166C113.778 36.9864 113.947 37.1221 114.058 37.3012C114.168 37.539 114.218 37.8003 114.203 38.0619V38.3953C114.19 38.546 114.19 38.6976 114.203 38.8483C114.213 38.9049 114.235 38.9586 114.267 39.0059C114.3 39.0531 114.342 39.0927 114.391 39.1218L114.366 39.25Z" fill="white"/>
<path d="M120.46 39.2498L120.144 38.2412H118.349L118.016 39.2498H116.947L118.691 34.3691H119.845L121.563 39.2498H120.46Z" fill="white"/>
<path d="M127.263 35.2324H125.802V39.2498H124.776V35.2324H123.314V34.3691H127.263V35.2324Z" fill="white"/>
<path d="M133.614 39.2498H129.922V34.3691H133.495V35.2324H130.913V36.2667H133.281V37.1129H130.913V38.3694H133.614V39.2498Z" fill="white"/>
<path d="M140.179 38.3352C140.02 38.6257 139.783 38.8655 139.494 39.0273C139.205 39.1891 138.877 39.2662 138.546 39.2498H136.443V34.3691H138.546C138.801 34.3697 139.054 34.4071 139.298 34.4803C139.644 34.5835 139.945 34.8003 140.153 35.0957C140.323 35.3308 140.442 35.5986 140.503 35.882C140.562 36.1459 140.594 36.4152 140.597 36.6855C140.606 37.2627 140.461 37.8318 140.179 38.3352Z" fill="white"/>
<path d="M87.1072 23.334H74.9014C75.2689 23.8383 75.6194 24.334 75.9527 24.8383H87.0645L87.1072 23.334Z" fill="#2F2F2F"/>
<path d="M79.4153 29.7794H87.108V28.6084H78.5605C78.7059 28.8563 79.2529 29.7794 79.4153 29.7794Z" fill="#2F2F2F"/>
<path d="M63.8584 29.7794H71.5512V28.6084H63.8584V29.7794Z" fill="#2F2F2F"/>
<path d="M87.1078 4.93164H79.415V12.6244C79.415 13.0689 79.415 13.9663 79.415 14.9066H87.1078V4.93164Z" fill="#2F2F2F"/>
<path d="M76.1924 11.966C74.859 10.0599 73.782 8.16234 72.4572 6.25625C72.3632 6.11949 71.7221 4.95703 71.5512 4.95703H63.8584V14.8892H77.996C77.4439 13.8854 76.8419 12.9097 76.1924 11.966Z" fill="#2F2F2F"/>
<path d="M87.1078 20.2402H72.8848C73.2694 20.8898 73.6626 21.5395 74.0814 22.1634H87.1078V20.2402Z" fill="#2F2F2F"/>
<path d="M71.0469 17.094C71.3973 17.6752 71.7306 18.265 72.064 18.8548H87.1076V16.3076H79.4918C79.486 16.8839 79.5549 17.4585 79.6969 18.0171C79.3807 17.4615 79.0644 16.8974 78.7567 16.3076H63.8584V18.8035H71.3802C71.3503 18.2208 71.2381 17.6452 71.0469 17.094Z" fill="#2F2F2F"/>
<path d="M71.5512 23.334H63.8584V24.8383H71.5512V23.334Z" fill="#2F2F2F"/>
<path d="M71.4913 20.2402H63.8584V22.1634H71.5512C71.5426 21.5224 71.5255 20.8642 71.4913 20.2402Z" fill="#2F2F2F"/>
<path d="M76.748 26.0098C77.0729 26.497 77.3977 26.9842 77.7396 27.4714H87.1418V26.0098H76.748Z" fill="#2F2F2F"/>
<path d="M71.5512 26.0098H63.8584V27.5141H71.5512V26.0098Z" fill="#2F2F2F"/>
<path d="M97.6469 4.93164H89.9541V14.8895H97.6469V4.93164Z" fill="#2F2F2F"/>
<path d="M89.9541 29.7794H97.6469V28.6084H89.9541V29.7794Z" fill="#2F2F2F"/>
<path d="M89.9541 26.0098V27.4287H97.6469V26.0098H89.9541Z" fill="#2F2F2F"/>
<path d="M89.9541 24.8383H97.6469V23.334H89.9541V24.8383Z" fill="#2F2F2F"/>
<path d="M89.9541 22.1634H97.6469V20.2402H89.9541V22.1634Z" fill="#2F2F2F"/>
<path d="M97.6469 18.8035V16.3076H89.9541V18.8035H97.6469Z" fill="#2F2F2F"/>
<path d="M104.04 27.3947H115.699C115.699 26.9588 115.699 26.5399 115.647 26.0527H102.612C103.053 26.5358 103.53 26.9844 104.04 27.3947Z" fill="#2F2F2F"/>
<path d="M108.237 29.6255C109.485 29.9874 110.775 30.1856 112.075 30.2153C112.459 30.2153 115.801 30.0871 115.793 29.8392C115.793 29.8392 115.793 29.3349 115.75 28.6084H105.801C106.57 29.0415 107.388 29.3829 108.237 29.6255Z" fill="#2F2F2F"/>
<path d="M113.28 11.1114C114.044 11.0786 114.808 11.1651 115.545 11.3679L115.793 4.79484C114.599 4.5362 113.381 4.40724 112.16 4.41021C109.157 4.40997 106.248 5.45606 103.933 7.36859C101.618 9.28111 100.042 11.9405 99.4756 14.8894H107.767C108.21 13.786 108.97 12.8384 109.951 12.1661C110.933 11.4938 112.091 11.1269 113.28 11.1114Z" fill="#2F2F2F"/>
<path d="M100.22 22.1634H110.323C109.496 21.6921 108.79 21.0334 108.263 20.2402H99.6045C99.7578 20.8967 99.9636 21.5399 100.22 22.1634Z" fill="#2F2F2F"/>
<path d="M101.715 24.8383H115.63C115.63 24.1716 115.588 23.6161 115.579 23.334H100.792C101.065 23.8559 101.373 24.3586 101.715 24.8383Z" fill="#2F2F2F"/>
<path d="M107.391 16.3076H99.2881C99.2881 16.641 99.2881 16.9743 99.2881 17.3162C99.2868 17.8189 99.3153 18.3213 99.3736 18.8206H107.622C107.464 18.2934 107.381 17.7468 107.374 17.1966C107.358 16.9002 107.364 16.6031 107.391 16.3076Z" fill="#2F2F2F"/>
<path d="M0 0V2.67537H119.058V30.4462H148V0H0ZM134.64 18.6763C134.883 19.2842 135.055 19.9181 135.153 20.5653H127.631C127.64 20.4829 127.64 20.3998 127.631 20.3174C127.525 19.7118 127.26 19.1453 126.862 18.6763H134.64ZM125.691 17.283C125.024 16.4283 124.306 15.6761 123.699 14.8299H132.033L132.307 15.1291C132.896 15.8077 133.436 16.5275 133.922 17.283H125.691ZM122.434 12.3682C122.158 11.4401 122.077 10.4647 122.198 9.50378C122.319 8.5429 122.638 7.61761 123.135 6.78672C123.616 6.00305 124.25 5.32438 124.999 4.79126C125.748 4.25815 126.597 3.88155 127.495 3.68397C129.358 3.24382 131.298 3.24382 133.162 3.68397C133.663 3.79012 134.157 3.93004 134.64 4.1028L134.196 9.79544C132.845 9.37661 130.29 9.0518 129.623 10.2997C129.05 11.3767 129.999 12.599 130.743 13.4367H122.819C122.663 13.0911 122.535 12.7338 122.434 12.3682ZM131.922 27.4888C131.502 27.7077 131.061 27.8852 130.606 28.0187C129.053 28.4438 127.431 28.5514 125.836 28.335C125.682 28.335 124.725 28.1726 123.939 28.0187C123.366 27.9076 122.879 27.7879 122.887 27.7025C122.896 27.617 122.887 27.3776 122.939 26.8477H132.871C132.575 27.0902 132.257 27.3048 131.922 27.4888ZM133.974 25.7194H123.016C123.016 25.2835 123.084 24.8049 123.11 24.3347H134.751C134.551 24.827 134.29 25.2922 133.974 25.7194ZM135.093 23.1552H123.187C123.187 22.5227 123.272 21.9927 123.289 21.685C123.289 21.5141 123.289 21.4115 123.289 21.4115C123.571 21.497 123.922 21.5995 124.306 21.685C125.12 21.9117 125.98 21.9117 126.794 21.685H135.23C135.238 22.1871 135.192 22.6885 135.093 23.1808V23.1552ZM144.795 27.9931H137.504V26.8733H144.795V27.9931ZM144.795 25.6852H137.504V24.3347H144.795V25.6852ZM144.795 23.121H137.504V21.7107H144.795V23.121ZM144.795 20.5055H137.504V18.6763H144.795V20.5055ZM144.795 17.2232H137.504V14.8299H144.795V17.2232ZM144.795 13.3768H137.504V3.71816H144.795V13.3768Z" fill="#2F2F2F"/>
<path d="M16.2402 5.26562H17.6591L20.2234 9.7958V5.26562H21.4884V11.7617H20.1806L17.5309 7.15462V11.7617H16.2402V5.26562Z" fill="#2F2F2F"/>
<path d="M24.489 5.26562H26.0275L28.3268 11.7617H26.8566L26.4207 10.4283H24.0274L23.5915 11.7617H22.1641L24.489 5.26562ZM24.395 9.30859H26.0617L25.207 6.74434L24.395 9.30859Z" fill="#2F2F2F"/>
<path d="M33.028 5.26562V6.41099H31.0877V11.7617H29.7201V6.41099H27.7627V5.26562H33.028Z" fill="#2F2F2F"/>
<path d="M34.8827 11.7617H33.5322V5.26562H34.8827V11.7617Z" fill="#2F2F2F"/>
<path d="M40.977 11.1888C40.6931 11.454 40.3576 11.6577 39.9913 11.7871C39.6251 11.9165 39.2361 11.9689 38.8486 11.941C38.4668 11.9642 38.0843 11.9095 37.7243 11.7801C37.3643 11.6508 37.0343 11.4497 36.7545 11.1888C36.4095 10.8439 36.1402 10.431 35.9636 9.97624C35.787 9.52151 35.707 9.03499 35.7288 8.54766C35.6884 8.04568 35.7594 7.54097 35.9367 7.06962C36.114 6.59827 36.3933 6.1719 36.7545 5.821C37.0383 5.55584 37.3739 5.35216 37.7401 5.22272C38.1064 5.09329 38.4954 5.0409 38.8828 5.06882C39.2703 5.0409 39.6593 5.09329 40.0255 5.22272C40.3917 5.35216 40.7273 5.55584 41.0111 5.821C41.3586 6.17879 41.6235 6.60825 41.7874 7.07928C41.9513 7.5503 42.0102 8.05148 41.9599 8.54766C41.9873 9.0319 41.9141 9.51657 41.7449 9.97113C41.5757 10.4257 41.3142 10.8403 40.977 11.1888ZM40.1222 10.1973C40.4712 9.69868 40.6373 9.0948 40.5923 8.48782C40.636 7.907 40.489 7.32779 40.1735 6.83816C40.0131 6.65625 39.8158 6.51057 39.5947 6.41078C39.3737 6.31099 39.1339 6.25938 38.8914 6.25938C38.6488 6.25938 38.4091 6.31099 38.188 6.41078C37.967 6.51057 37.7697 6.65625 37.6092 6.83816C37.2572 7.33569 37.0881 7.93966 37.1306 8.54766C37.0881 9.15565 37.2572 9.75962 37.6092 10.2572C37.7622 10.4513 37.9588 10.6066 38.1831 10.7106C38.4073 10.8145 38.6529 10.8642 38.8999 10.8555C39.1497 10.8574 39.3962 10.7985 39.618 10.6838C39.8399 10.5691 40.0306 10.4022 40.1735 10.1973H40.1222Z" fill="#2F2F2F"/>
<path d="M42.7969 5.26562H44.2158L46.78 9.7958V5.26562H48.045V11.7617H46.7031L44.0619 7.15462V11.7617H42.7969V5.26562Z" fill="#2F2F2F"/>
<path d="M51.02 5.26562H52.5585L54.8578 11.7617H53.3876L52.9945 10.4283H50.6012L50.1652 11.7617H48.7207L51.02 5.26562ZM50.926 9.30859H52.6355L51.7807 6.74434L50.926 9.30859Z" fill="#2F2F2F"/>
<path d="M55.499 5.26562H56.8581V10.5993H60.1061V11.7617H55.499V5.26562Z" fill="#2F2F2F"/>
<path d="M1.84586 20.7959H0.503906V14.2998H1.84586V20.7959Z" fill="#2F2F2F"/>
<path d="M2.91504 14.2998H4.34247L6.90672 18.83V14.2998H8.18885V20.7959H6.83834L4.18862 16.1803V20.7959H2.91504V14.2998Z" fill="#2F2F2F"/>
<path d="M9.28223 14.3086H13.915V15.4454H10.6327V16.9412H13.5132V18.0695H10.6327V20.7961H9.28223V14.3086Z" fill="#2F2F2F"/>
<path d="M19.6594 20.2229C19.375 20.4872 19.0393 20.6904 18.6732 20.8197C18.3072 20.9491 17.9184 21.002 17.5311 20.9751C17.1409 21.0054 16.7486 20.9542 16.3792 20.8247C16.0099 20.6952 15.6715 20.4903 15.3857 20.2229C15.0404 19.8708 14.7736 19.4496 14.6027 18.987C14.4319 18.5245 14.3608 18.031 14.3941 17.539C14.3557 17.0466 14.4245 16.5517 14.5956 16.0883C14.7668 15.625 15.0363 15.2043 15.3857 14.8551C15.6691 14.5888 16.0044 14.3838 16.3706 14.253C16.7367 14.1221 17.126 14.0681 17.514 14.0944C17.9019 14.0686 18.291 14.1228 18.6571 14.2537C19.0233 14.3845 19.3586 14.5892 19.6423 14.8551C19.9901 15.205 20.258 15.6261 20.4277 16.0894C20.5974 16.5527 20.6648 17.0472 20.6253 17.539C20.6604 18.029 20.5926 18.5209 20.4262 18.9831C20.2599 19.4454 19.9987 19.8677 19.6594 20.2229ZM18.8047 19.2314C19.1524 18.7322 19.3183 18.1287 19.2748 17.5219C19.3169 16.9152 19.1511 16.3122 18.8047 15.8124C18.6544 15.6174 18.4595 15.4612 18.2364 15.3571C18.0133 15.253 17.7685 15.204 17.5225 15.2141C17.2755 15.2054 17.0299 15.255 16.8057 15.359C16.5814 15.4629 16.3848 15.6183 16.2319 15.8124C15.8798 16.3099 15.7107 16.9139 15.7532 17.5219C15.7121 18.1298 15.8811 18.7333 16.2319 19.2314C16.3857 19.4245 16.5825 19.5791 16.8065 19.683C17.0306 19.7868 17.2757 19.8371 17.5225 19.8297C17.7682 19.8378 18.0123 19.7878 18.2351 19.6838C18.4579 19.5799 18.653 19.4249 18.8047 19.2314Z" fill="#2F2F2F"/>
<path d="M25.6426 14.4616C25.8762 14.5654 26.0836 14.7202 26.2495 14.9147C26.3849 15.0795 26.4944 15.2639 26.5743 15.4617C26.6555 15.6804 26.6961 15.9122 26.694 16.1455C26.7075 16.4731 26.64 16.799 26.4974 17.0943C26.4178 17.2457 26.3088 17.3796 26.1766 17.4883C26.0445 17.5969 25.892 17.678 25.7281 17.7268C25.9917 17.8198 26.2151 18.001 26.3606 18.2396C26.4836 18.5518 26.5305 18.8887 26.4974 19.2226V19.6585C26.4783 19.8604 26.4783 20.0636 26.4974 20.2654C26.5107 20.3417 26.5405 20.4141 26.5848 20.4776C26.6291 20.5411 26.6868 20.5941 26.7538 20.6329V20.7953H25.2922C25.2574 20.6801 25.2289 20.5632 25.2067 20.4449C25.1695 20.262 25.1494 20.076 25.1469 19.8893V19.2824C25.1811 18.9811 25.1052 18.6775 24.9332 18.4277C24.709 18.2638 24.4312 18.1905 24.1553 18.2225H22.8219V20.7868H21.4971V14.2907H24.6084C24.9607 14.2832 25.3114 14.3411 25.6426 14.4616ZM22.8219 15.4275V17.137H24.2836C24.5077 17.1487 24.7318 17.1137 24.9417 17.0344C25.0724 16.9649 25.179 16.8575 25.2476 16.7263C25.3163 16.5952 25.3437 16.4464 25.3264 16.2994C25.3416 16.1452 25.3146 15.9898 25.2484 15.8498C25.1821 15.7098 25.0791 15.5904 24.9503 15.5044C24.7542 15.4178 24.5402 15.3797 24.3263 15.3933L22.8219 15.4275Z" fill="#2F2F2F"/>
<path d="M32.1217 14.2998H34.079V20.7959H32.8055V16.4025C32.8055 16.2743 32.8055 16.0948 32.8055 15.864V15.3853L31.6259 20.7959H30.2669L29.0617 15.3853V15.9067C29.0617 16.1375 29.0617 16.317 29.0617 16.4452V20.8386H27.7881V14.3425H29.7626L30.9421 19.471L32.1217 14.2998Z" fill="#2F2F2F"/>
<path d="M37.0105 14.2998H38.549L40.8483 20.7959H39.3781L38.9422 19.4625H36.5489L36.113 20.7959H34.6855L37.0105 14.2998ZM36.9164 18.3428H38.6259L37.7712 15.7785L36.9164 18.3428Z" fill="#2F2F2F"/>
<path d="M45.5494 14.2998V15.4452H43.5921V20.7959H42.2245V15.4452H40.2842V14.2998H45.5494Z" fill="#2F2F2F"/>
<path d="M47.4042 20.7959H46.0537V14.2998H47.4042V20.7959Z" fill="#2F2F2F"/>
<path d="M49.1138 14.9742C49.3726 14.7081 49.6842 14.4991 50.0287 14.3607C50.3732 14.2223 50.7429 14.1576 51.1139 14.1708C51.5688 14.1342 52.0255 14.2138 52.4411 14.4022C52.8568 14.5906 53.2177 14.8816 53.4901 15.2478C53.7464 15.6041 53.9001 16.0239 53.9346 16.4615H52.5755C52.517 16.2037 52.4032 15.9617 52.2422 15.7521C52.091 15.6045 51.9099 15.491 51.7112 15.4193C51.5125 15.3476 51.3007 15.3192 51.0901 15.3362C50.8796 15.3533 50.6751 15.4152 50.4904 15.5179C50.3058 15.6206 50.1453 15.7616 50.0198 15.9316C49.7053 16.4437 49.5588 17.0415 49.601 17.6411C49.556 18.2203 49.713 18.7972 50.0454 19.2736C50.1754 19.447 50.3447 19.587 50.5394 19.6821C50.7341 19.7772 50.9485 19.8247 51.1652 19.8207C51.3679 19.8339 51.5709 19.798 51.7569 19.7162C51.9428 19.6344 52.1064 19.509 52.2336 19.3506C52.3974 19.1267 52.5111 18.8701 52.567 18.5984H53.9175C53.8347 19.2487 53.5333 19.8515 53.0627 20.3079C52.5622 20.7641 51.9016 21.0037 51.225 20.9746C50.8166 20.9958 50.4086 20.9263 50.0303 20.7712C49.652 20.616 49.3127 20.379 49.0368 20.0771C48.4748 19.3774 48.1916 18.4944 48.2419 17.5983C48.2075 17.1251 48.2668 16.6497 48.4164 16.1994C48.566 15.7491 48.803 15.3328 49.1138 14.9742Z" fill="#2F2F2F"/>
<path d="M55.8157 18.804C55.8368 19.0445 55.9224 19.2748 56.0635 19.4707C56.2138 19.6194 56.3954 19.7327 56.595 19.8022C56.7947 19.8717 57.0073 19.8957 57.2174 19.8725C57.489 19.8811 57.7602 19.8464 58.0209 19.7699C58.1888 19.7292 58.3378 19.6325 58.4435 19.4958C58.5491 19.3591 58.6051 19.1905 58.6021 19.0177C58.6041 18.9152 58.5781 18.814 58.5269 18.7252C58.4757 18.6363 58.4012 18.5631 58.3115 18.5134C58.0428 18.3723 57.7548 18.2715 57.4568 18.2142L56.7473 18.0604C56.2488 17.9755 55.7687 17.8049 55.3284 17.5561C55.1065 17.3997 54.9291 17.1881 54.8137 16.9424C54.6983 16.6966 54.6489 16.425 54.6703 16.1543C54.6641 15.8799 54.7183 15.6075 54.8291 15.3564C54.9399 15.1053 55.1045 14.8816 55.3113 14.7012C55.8469 14.2796 56.5203 14.0724 57.2003 14.12C57.8365 14.1058 58.4601 14.2977 58.9782 14.667C59.2214 14.8519 59.4177 15.0913 59.5514 15.366C59.685 15.6407 59.7522 15.9429 59.7475 16.2483H58.397C58.4015 16.0708 58.3547 15.8957 58.2622 15.7441C58.1698 15.5925 58.0355 15.4708 57.8756 15.3936C57.6221 15.2736 57.3439 15.2151 57.0636 15.2226C56.7642 15.2119 56.4679 15.286 56.2088 15.4363C56.1094 15.4987 56.028 15.5858 55.9725 15.6893C55.917 15.7927 55.8895 15.9088 55.8926 16.0261C55.8876 16.1346 55.915 16.2421 55.9713 16.3349C56.0276 16.4278 56.1103 16.5018 56.2088 16.5475C56.4818 16.6724 56.7688 16.7643 57.0636 16.821L58.2004 17.086C58.6073 17.1601 58.9926 17.3236 59.3287 17.5646C59.524 17.7233 59.6786 17.9263 59.7797 18.1567C59.8808 18.3871 59.9254 18.6384 59.9099 18.8895C59.9143 19.1724 59.8543 19.4525 59.7343 19.7087C59.6144 19.9649 59.4376 20.1905 59.2176 20.3682C58.6637 20.7935 57.9741 21.0031 57.2773 20.958C56.556 20.9968 55.8425 20.7921 55.2515 20.3768C55.0148 20.1902 54.825 19.9507 54.6973 19.6776C54.5697 19.4045 54.5077 19.1054 54.5164 18.804H55.8157Z" fill="#2F2F2F"/>
<path d="M25.2495 24.0101C25.5083 23.7439 25.82 23.5349 26.1645 23.3965C26.5089 23.2581 26.8786 23.1934 27.2496 23.2066C27.7032 23.1707 28.1585 23.2507 28.5726 23.4391C28.9868 23.6275 29.3463 23.9181 29.6173 24.2836C29.8806 24.6362 30.0351 25.0581 30.0617 25.4973H28.7112C28.6454 25.2421 28.5323 25.0015 28.3779 24.7879C28.2402 24.6432 28.0723 24.5307 27.8861 24.4583C27.7 24.3859 27.5002 24.3555 27.3009 24.3691C27.0745 24.3611 26.8499 24.412 26.6491 24.5169C26.4484 24.6218 26.2783 24.777 26.1555 24.9674C25.8399 25.4791 25.6934 26.0772 25.7367 26.6769C25.6914 27.2576 25.8452 27.8364 26.1726 28.318C26.3049 28.491 26.4758 28.6306 26.6717 28.7256C26.8677 28.8206 27.0832 28.8684 27.3009 28.8651C27.5036 28.8775 27.7063 28.8414 27.8921 28.7596C28.078 28.6778 28.2416 28.5528 28.3693 28.3949C28.5297 28.1691 28.6431 27.9133 28.7027 27.6428H30.0532C29.9672 28.2921 29.6663 28.8939 29.1984 29.3523C28.9496 29.5792 28.6584 29.7549 28.3416 29.8693C28.0248 29.9837 27.6886 30.0345 27.3522 30.019C26.9484 30.0449 26.5439 29.9818 26.1673 29.8341C25.7906 29.6864 25.4511 29.4577 25.1726 29.1642C24.6105 28.4645 24.3273 27.5815 24.3777 26.6854C24.3343 26.2037 24.3892 25.7182 24.5391 25.2583C24.689 24.7984 24.9307 24.3738 25.2495 24.0101Z" fill="#2F2F2F"/>
<path d="M35.7803 24.4801H32.3612V25.8648H35.5238V26.993H32.3612V28.7026H35.8999V29.8308H31.0107V23.3262H35.7803V24.4801Z" fill="#2F2F2F"/>
<path d="M36.7539 23.3262H38.1813L40.7456 27.8649V23.3262H42.0106V29.8308H40.7029L38.0617 25.2152V29.8308H36.7539V23.3262Z" fill="#2F2F2F"/>
<path d="M47.8663 23.3262V24.4801H45.9346V29.8308H44.567V24.4801H42.6182V23.3262H47.8663Z" fill="#2F2F2F"/>
<path d="M52.6614 23.4967C52.8971 23.5969 53.1052 23.7523 53.2683 23.9497C53.4054 24.1133 53.5151 24.2981 53.5931 24.4968C53.6793 24.7141 53.72 24.9469 53.7127 25.1806C53.7102 25.4995 53.631 25.8132 53.482 26.0952C53.319 26.3992 53.0425 26.6266 52.7127 26.7277C52.9777 26.8181 53.2019 26.9999 53.3452 27.2405C53.4923 27.5584 53.557 27.9082 53.5333 28.2577V28.6936C53.5182 28.8928 53.5182 29.0928 53.5333 29.2919C53.547 29.3692 53.577 29.4426 53.6212 29.5074C53.6654 29.5723 53.7228 29.627 53.7897 29.668V29.8304H52.3195C52.3195 29.6851 52.2511 29.574 52.234 29.48C52.201 29.2964 52.181 29.1108 52.1742 28.9244V28.3175C52.2143 28.0158 52.1379 27.7101 51.9605 27.4628C51.7389 27.3002 51.4643 27.227 51.1912 27.2576H49.8493V29.8219H48.5244V23.3258H51.6357C51.9852 23.3187 52.3331 23.3767 52.6614 23.4967ZM49.8493 24.454V26.2063H51.2853C51.5103 26.2202 51.7354 26.1822 51.9434 26.0952C52.0734 26.0271 52.1797 25.9212 52.2484 25.7915C52.317 25.6618 52.3448 25.5144 52.3281 25.3686C52.3433 25.2145 52.3163 25.0591 52.2501 24.9191C52.1838 24.7791 52.0808 24.6597 51.952 24.5737C51.7571 24.4828 51.5427 24.4417 51.328 24.454H49.8493Z" fill="#2F2F2F"/>
<path d="M59.6445 24.4801H56.2255V25.8648H59.3881V26.993H56.2255V28.7026H59.8326V29.8308H54.875V23.3262H59.6445V24.4801Z" fill="#2F2F2F"/>
<path d="M105.22 35.0875C105.035 35.0815 104.852 35.1186 104.684 35.1957C104.517 35.2729 104.369 35.388 104.254 35.532C104.015 35.9168 103.888 36.361 103.888 36.8141C103.888 37.2673 104.015 37.7115 104.254 38.0963C104.369 38.2403 104.517 38.3554 104.684 38.4326C104.852 38.5097 105.035 38.5468 105.22 38.5407C105.405 38.5488 105.589 38.5127 105.757 38.4354C105.924 38.3581 106.072 38.2418 106.186 38.0963C106.446 37.728 106.573 37.2815 106.545 36.8312C106.573 36.3783 106.446 35.9292 106.186 35.5577C106.074 35.4074 105.928 35.2862 105.76 35.2043C105.592 35.1225 105.407 35.0824 105.22 35.0875Z" fill="#2F2F2F"/>
<path d="M112.98 35.3014C112.832 35.2378 112.671 35.2086 112.51 35.216H111.391V36.5237H112.485C112.651 36.5319 112.817 36.5058 112.972 36.4468C113.071 36.3966 113.152 36.3172 113.204 36.2192C113.256 36.1213 113.276 36.0098 113.263 35.8998C113.277 35.7835 113.259 35.6655 113.209 35.5595C113.159 35.4535 113.08 35.364 112.98 35.3014Z" fill="#2F2F2F"/>
<path d="M118.622 37.4039H119.87L119.255 35.4893L118.622 37.4039Z" fill="#2F2F2F"/>
<path d="M98.4673 35.216H97.5527V36.652H98.4673C98.6639 36.6596 98.8571 36.5993 99.0144 36.481C99.0826 36.4066 99.1346 36.3187 99.1669 36.223C99.1993 36.1274 99.2114 36.026 99.2024 35.9254C99.2129 35.826 99.2016 35.7256 99.1691 35.631C99.1366 35.5365 99.0838 35.4503 99.0144 35.3784C98.856 35.2632 98.6629 35.2059 98.4673 35.216Z" fill="#2F2F2F"/>
<path d="M92.2019 35.3014C92.0537 35.2378 91.8929 35.2086 91.7318 35.216H90.6035V36.5237H91.6976C91.8636 36.5335 92.0298 36.5073 92.1848 36.4468C92.2837 36.3966 92.3646 36.3172 92.4166 36.2192C92.4687 36.1213 92.4892 36.0098 92.4754 35.8998C92.4911 35.7844 92.4737 35.6669 92.4253 35.561C92.3769 35.4551 92.2994 35.3651 92.2019 35.3014Z" fill="#2F2F2F"/>
<path d="M84.4489 35.087C84.2641 35.079 84.0801 35.1151 83.9121 35.1924C83.7442 35.2697 83.597 35.3859 83.483 35.5315C83.2378 35.9142 83.1074 36.3591 83.1074 36.8136C83.1074 37.2681 83.2378 37.7131 83.483 38.0958C83.6018 38.2347 83.7492 38.3463 83.9152 38.4227C84.0812 38.4992 84.2618 38.5388 84.4446 38.5388C84.6274 38.5388 84.808 38.4992 84.974 38.4227C85.14 38.3463 85.2874 38.2347 85.4062 38.0958C85.6669 37.7275 85.7936 37.281 85.7652 36.8307C85.7935 36.3778 85.6669 35.9287 85.4062 35.5572C85.2962 35.4076 85.1518 35.2867 84.9851 35.2049C84.8184 35.123 84.6345 35.0826 84.4489 35.087Z" fill="#2F2F2F"/>
<path d="M138.376 35.2156H137.427V38.4038H138.376C138.598 38.4113 138.817 38.3449 138.998 38.2151C139.179 38.0852 139.312 37.8991 139.376 37.6858C139.489 37.3917 139.541 37.0776 139.529 36.7627C139.556 36.3671 139.476 35.9718 139.299 35.6173C139.196 35.4726 139.056 35.3588 138.893 35.288C138.73 35.2172 138.551 35.1921 138.376 35.2156Z" fill="#2F2F2F"/>
<path d="M23.3689 35.301C23.2201 35.2392 23.0598 35.2101 22.8988 35.2155H21.7705V36.5232H22.8646C23.0334 36.5322 23.2022 36.506 23.3603 36.4463C23.4568 36.394 23.5353 36.3138 23.5856 36.2162C23.6359 36.1187 23.6557 36.0082 23.6424 35.8993C23.6581 35.7839 23.6407 35.6664 23.5923 35.5605C23.5439 35.4546 23.4664 35.3646 23.3689 35.301Z" fill="#2F2F2F"/>
</svg>
