<svg width="113" height="32" viewBox="0 0 113 32" fill="none" xmlns="http://www.w3.org/2000/svg">
<path d="M113 24.7148H0V31.4824H113V24.7148Z" fill="#005EB2"/>
<path d="M8.35352 29.7264C8.03245 29.9655 7.63716 30.0834 7.23755 30.0592C6.82588 30.0828 6.41846 29.9654 6.08243 29.7264C5.94395 29.6205 5.83307 29.4827 5.75922 29.3248C5.68537 29.1668 5.65073 28.9934 5.65823 28.8192H6.40221C6.41164 28.9568 6.4616 29.0885 6.54578 29.1978C6.63146 29.2809 6.73422 29.3445 6.84692 29.3839C6.95962 29.4233 7.07956 29.4378 7.1984 29.4262C7.35282 29.4308 7.50699 29.4109 7.65523 29.3674C7.75123 29.3438 7.8364 29.2884 7.89684 29.2102C7.95729 29.132 7.98944 29.0356 7.98806 28.9367C7.99094 28.8791 7.97784 28.8218 7.9502 28.7711C7.92256 28.7204 7.88146 28.6784 7.83143 28.6496C7.6692 28.5658 7.49546 28.5064 7.31587 28.4734L6.91125 28.3885C6.62497 28.3399 6.34908 28.2428 6.09548 28.1014C5.96885 28.0097 5.86765 27.8874 5.80143 27.7458C5.7352 27.6042 5.70613 27.4481 5.71697 27.2921C5.71393 27.1351 5.74572 26.9793 5.81003 26.836C5.87435 26.6927 5.9696 26.5654 6.08896 26.4633C6.39311 26.2089 6.78303 26.0805 7.17882 26.1044C7.5434 26.0939 7.90124 26.2041 8.1969 26.4176C8.33736 26.5229 8.45083 26.6601 8.52798 26.8178C8.60513 26.9755 8.64375 27.1492 8.64067 27.3248H7.87712C7.87784 27.225 7.84995 27.1271 7.79675 27.0426C7.74354 26.9582 7.66725 26.8908 7.57691 26.8484C7.43199 26.7813 7.27309 26.75 7.11356 26.757C6.94259 26.7492 6.7729 26.7899 6.6241 26.8745C6.56651 26.91 6.51929 26.9601 6.48721 27.0196C6.45513 27.0792 6.43932 27.1462 6.44137 27.2138C6.43941 27.2754 6.45491 27.3363 6.4861 27.3894C6.51728 27.4425 6.56286 27.4857 6.61757 27.514C6.77785 27.5794 6.94391 27.6297 7.11356 27.6641L7.76617 27.8208C8.00027 27.8625 8.22277 27.9537 8.41878 28.0883C8.5304 28.1805 8.61871 28.2976 8.67654 28.4303C8.73437 28.563 8.7601 28.7074 8.75162 28.8519C8.7575 29.0185 8.7246 29.1842 8.65552 29.336C8.58644 29.4877 8.48306 29.6214 8.35352 29.7264Z" fill="white"/>
<path d="M13.6855 29.9681H10.8662V26.2417H13.5941V26.9008H11.6232V27.6905H13.431V28.3366H11.6232V29.2959H13.6855V29.9681Z" fill="white"/>
<path d="M18.9257 29.9683H18.0381C18.0153 29.9024 17.9979 29.8348 17.9859 29.766C17.976 29.6597 17.976 29.5526 17.9859 29.4462V29.1004C18.0038 28.9318 17.9597 28.7624 17.8619 28.624C17.7331 28.5323 17.5754 28.4906 17.4181 28.5065H16.622V29.9683H15.8584V26.2419H17.6205C17.8206 26.2387 18.0196 26.2719 18.2078 26.3398C18.3446 26.3971 18.4655 26.4867 18.5602 26.6009C18.6385 26.6941 18.7003 26.8001 18.7429 26.9141C18.7922 27.0387 18.8166 27.1717 18.8147 27.3057C18.8117 27.4874 18.7671 27.666 18.6842 27.8278C18.5877 27.9998 18.4289 28.1283 18.2404 28.1867C18.3912 28.2418 18.5196 28.345 18.6059 28.4804C18.6874 28.6626 18.7233 28.862 18.7103 29.0612V29.3157C18.7001 29.4308 18.7001 29.5465 18.7103 29.6616C18.7191 29.7042 18.7363 29.7447 18.761 29.7805C18.7857 29.8164 18.8172 29.847 18.8539 29.8704L18.9257 29.9683Z" fill="white"/>
<path d="M22.7571 29.9681H22.0261L20.7666 26.2417H21.5954L22.4047 29.0675L23.2204 26.2417H24.0297L22.7571 29.9681Z" fill="white"/>
<path d="M26.7506 26.2417H25.9805V29.9616H26.7506V26.2417Z" fill="white"/>
<path d="M29.9164 29.0873C29.9927 29.1873 30.0916 29.2679 30.2051 29.3224C30.3185 29.3768 30.4432 29.4036 30.569 29.4005C30.6858 29.4072 30.8024 29.3858 30.9091 29.3381C31.0159 29.2905 31.1096 29.2178 31.1825 29.1264C31.2729 28.9965 31.3372 28.8502 31.3717 28.6957H32.1418C32.0918 29.0752 31.9119 29.4257 31.6328 29.6877C31.3453 29.9461 30.9683 30.0819 30.5821 30.0662C30.3488 30.0776 30.1158 30.038 29.8994 29.9501C29.6829 29.8621 29.4883 29.7281 29.3291 29.5572C29.01 29.154 28.8498 28.6478 28.8788 28.1345C28.8602 27.8625 28.8963 27.5896 28.9848 27.3318C29.0734 27.074 29.2126 26.8366 29.3943 26.6334C29.5421 26.4811 29.7199 26.3612 29.9165 26.2814C30.1132 26.2017 30.3243 26.1637 30.5364 26.1701C30.7976 26.15 31.0596 26.1964 31.2981 26.3047C31.5366 26.4131 31.7437 26.5801 31.9004 26.7901C32.0471 26.9929 32.1351 27.2323 32.1549 27.4818H31.3717C31.3394 27.3346 31.2747 27.1964 31.1825 27.0772C31.0959 26.987 30.9904 26.917 30.8736 26.8722C30.7568 26.8275 30.6315 26.8092 30.5068 26.8185C30.3821 26.8279 30.2609 26.8647 30.1521 26.9263C30.0433 26.988 29.9494 27.0729 29.8773 27.1751C29.7038 27.4686 29.6219 27.8072 29.6423 28.1475C29.6235 28.4829 29.7202 28.8146 29.9164 29.0873Z" fill="white"/>
<path d="M37.1601 29.9681H34.3408V26.2417H37.0687V26.9008H35.1044V27.6905H36.9121V28.3366H35.1044V29.2959H37.1601V29.9681Z" fill="white"/>
<path d="M41.8327 29.7264C41.5116 29.9656 41.1164 30.0834 40.7168 30.0593C40.3051 30.0828 39.8977 29.9654 39.5616 29.7264C39.4267 29.6185 39.3196 29.4798 39.2492 29.322C39.1788 29.1642 39.1472 28.9918 39.157 28.8193H39.901C39.9136 28.9562 39.9632 29.087 40.0446 29.1978C40.1302 29.281 40.233 29.3445 40.3457 29.384C40.4584 29.4234 40.5783 29.4378 40.6972 29.4262C40.8385 29.4269 40.9792 29.4071 41.1149 29.3675C41.2109 29.3439 41.296 29.2885 41.3565 29.2102C41.4169 29.132 41.4491 29.0356 41.4477 28.9368C41.4499 28.8785 41.4359 28.8207 41.407 28.7699C41.3782 28.7192 41.3358 28.6775 41.2845 28.6496C41.1228 28.5647 40.9489 28.5053 40.769 28.4734L40.3643 28.3886C40.0784 28.3389 39.8026 28.2418 39.5486 28.1014C39.422 28.0098 39.3208 27.8874 39.2545 27.7458C39.1883 27.6042 39.1592 27.4481 39.1701 27.2922C39.167 27.1351 39.1988 26.9794 39.2631 26.8361C39.3275 26.6928 39.4227 26.5655 39.5421 26.4634C39.8516 26.2048 40.2492 26.0761 40.6515 26.1044C41.0139 26.095 41.3694 26.205 41.663 26.4177C41.8035 26.523 41.917 26.6601 41.9941 26.8178C42.0713 26.9755 42.1099 27.1493 42.1068 27.3248H41.3563C41.357 27.225 41.3292 27.1271 41.276 27.0427C41.2227 26.9582 41.1465 26.8908 41.0561 26.8484C40.9114 26.7806 40.7524 26.7492 40.5928 26.757C40.4218 26.7492 40.2521 26.79 40.1033 26.8745C40.0457 26.91 39.9985 26.9601 39.9664 27.0197C39.9343 27.0793 39.9185 27.1462 39.9206 27.2139C39.9184 27.2763 39.9345 27.338 39.967 27.3913C39.9995 27.4447 40.0469 27.4873 40.1033 27.5141C40.2609 27.5808 40.4249 27.6311 40.5928 27.6642L41.2454 27.8208C41.4795 27.8625 41.702 27.9538 41.898 28.0884C42.0096 28.1805 42.0979 28.2977 42.1557 28.4303C42.2136 28.563 42.2393 28.7075 42.2308 28.8519C42.2367 29.0186 42.2038 29.1843 42.1347 29.336C42.0656 29.4878 41.9623 29.6214 41.8327 29.7264Z" fill="white"/>
<path d="M49.9703 26.2417H49.2002V29.9616H49.9703V26.2417Z" fill="white"/>
<path d="M55.2563 29.9681H54.4797L52.9656 27.325V29.9681H52.2412V26.2417H53.057L54.5319 28.8391V26.2417H55.2563V29.9681Z" fill="white"/>
<path d="M58.4282 29.0868C58.5045 29.1869 58.6034 29.2674 58.7168 29.3219C58.8303 29.3763 58.955 29.4031 59.0808 29.4C59.1967 29.4073 59.3125 29.3862 59.4183 29.3384C59.5241 29.2906 59.6166 29.2177 59.6877 29.126C59.7832 28.9981 59.85 28.8512 59.8835 28.6952H60.6536C60.6036 29.0747 60.4237 29.4252 60.1446 29.6872C59.8551 29.9466 59.4757 30.0825 59.0873 30.0657C58.8549 30.078 58.6226 30.0387 58.4071 29.9507C58.1916 29.8627 57.9983 29.7281 57.8408 29.5567C57.5194 29.1544 57.3568 28.6482 57.384 28.134C57.3667 27.8616 57.404 27.5886 57.4936 27.3308C57.5833 27.073 57.7235 26.8358 57.9061 26.633C58.0775 26.473 58.2797 26.3496 58.5004 26.2705C58.7211 26.1914 58.9556 26.1581 59.1896 26.1728C59.4236 26.1875 59.6521 26.2497 59.8612 26.3558C60.0703 26.4618 60.2555 26.6095 60.4056 26.7896C60.5551 26.9909 60.6435 27.2311 60.6601 27.4814H59.877C59.8446 27.3341 59.78 27.1959 59.6877 27.0767C59.6082 26.9938 59.5115 26.9292 59.4044 26.8875C59.2973 26.8458 59.1824 26.828 59.0678 26.8353C58.9394 26.8335 58.8126 26.8636 58.6987 26.9228C58.5848 26.982 58.4874 27.0685 58.4151 27.1746C58.2394 27.4674 58.1553 27.8061 58.1737 28.147C58.1492 28.4801 58.2389 28.8116 58.4282 29.0868Z" fill="white"/>
<path d="M65.6918 29.6353C65.3456 29.9101 64.9166 30.0596 64.4747 30.0596C64.0327 30.0596 63.6037 29.9101 63.2575 29.6353C63.0607 29.4337 62.9084 29.1931 62.8106 28.9288C62.7128 28.6646 62.6716 28.3828 62.6898 28.1017C62.6673 27.8192 62.7064 27.5351 62.8044 27.2692C62.9025 27.0033 63.0571 26.7618 63.2575 26.5615C63.6037 26.2867 64.0327 26.1372 64.4747 26.1372C64.9166 26.1372 65.3456 26.2867 65.6918 26.5615C65.8923 26.7618 66.0468 27.0033 66.1449 27.2692C66.2429 27.5351 66.282 27.8192 66.2596 28.1017C66.2777 28.3828 66.2365 28.6646 66.1387 28.9288C66.0409 29.1931 65.8886 29.4337 65.6918 29.6353Z" fill="white"/>
<path d="M71.4543 29.9683H70.5993C70.5766 29.9024 70.5591 29.8348 70.5471 29.766C70.5372 29.6597 70.5372 29.5526 70.5471 29.4462V29.1004C70.565 28.9318 70.5209 28.7624 70.4231 28.624C70.2943 28.5323 70.1366 28.4906 69.9794 28.5065H69.1766V29.9683H68.4131V26.2419H70.1947C70.3948 26.2387 70.5938 26.2719 70.7821 26.3398C70.9179 26.3957 71.037 26.4856 71.128 26.6009C71.2106 26.6922 71.2748 26.7985 71.3172 26.9141C71.3665 27.0387 71.3909 27.1717 71.389 27.3057C71.3867 27.4883 71.3397 27.6676 71.252 27.8278C71.2063 27.9134 71.1441 27.9892 71.0691 28.0508C70.9941 28.1124 70.9076 28.1586 70.8147 28.1867C70.9635 28.2422 71.0898 28.3455 71.1736 28.4804C71.2577 28.662 71.2958 28.8614 71.2846 29.0612V29.3157C71.2744 29.4308 71.2744 29.5465 71.2846 29.6616C71.2918 29.7048 71.3085 29.7458 71.3333 29.7819C71.3581 29.818 71.3904 29.8482 71.4282 29.8704L71.4543 29.9683Z" fill="white"/>
<path d="M76.1925 28.3562C75.9224 28.552 75.5921 28.6468 75.2593 28.6238H74.4827V29.9681H73.7061V26.2417H75.305C75.6239 26.2265 75.9373 26.3286 76.186 26.5289C76.3037 26.6443 76.3946 26.7843 76.4521 26.9388C76.5096 27.0933 76.5324 27.2586 76.5188 27.423C76.536 27.5929 76.5156 27.7646 76.4593 27.9258C76.4029 28.087 76.3118 28.234 76.1925 28.3562Z" fill="white"/>
<path d="M81.5765 29.6353C81.2304 29.9101 80.8014 30.0596 80.3594 30.0596C79.9175 30.0596 79.4885 29.9101 79.1423 29.6353C78.9455 29.4337 78.7932 29.1931 78.6954 28.9288C78.5976 28.6646 78.5564 28.3828 78.5745 28.1017C78.5521 27.8192 78.5912 27.5351 78.6892 27.2692C78.7872 27.0033 78.9418 26.7618 79.1423 26.5615C79.4885 26.2867 79.9175 26.1372 80.3594 26.1372C80.8014 26.1372 81.2304 26.2867 81.5765 26.5615C81.777 26.7618 81.9316 27.0033 82.0296 27.2692C82.1277 27.5351 82.1668 27.8192 82.1443 28.1017C82.1624 28.3828 82.1213 28.6646 82.0235 28.9288C81.9256 29.1931 81.7734 29.4337 81.5765 29.6353Z" fill="white"/>
<path d="M87.3197 29.9683H86.4583C86.4583 29.8835 86.4191 29.8182 86.4126 29.766C86.4026 29.6597 86.4026 29.5526 86.4126 29.4462V29.1004C86.4276 28.932 86.3838 28.7636 86.2886 28.624C86.1598 28.5323 86.0021 28.4906 85.8448 28.5065H85.0878V29.9683H84.3242V26.2419H86.1059C86.3059 26.2387 86.505 26.2719 86.6932 26.3398C86.829 26.3957 86.9481 26.4856 87.0391 26.6009C87.1217 26.6922 87.1859 26.7985 87.2283 26.9141C87.2776 27.0387 87.302 27.1717 87.3001 27.3057C87.2979 27.4883 87.2508 27.6676 87.1631 27.8278C87.0682 28.0012 86.9087 28.1302 86.7193 28.1867C86.8711 28.24 87 28.3437 87.0848 28.4804C87.1688 28.662 87.2069 28.8614 87.1957 29.0612V29.3157C87.1855 29.4308 87.1855 29.5465 87.1957 29.6616C87.203 29.7048 87.2196 29.7458 87.2444 29.7819C87.2692 29.818 87.3016 29.8482 87.3393 29.8704L87.3197 29.9683Z" fill="white"/>
<path d="M91.9723 29.9681L91.7308 29.198H90.3603L90.1058 29.9681H89.29L90.6214 26.2417H91.5024L92.8141 29.9681H91.9723Z" fill="white"/>
<path d="M97.1674 26.9008H96.0514V29.9681H95.2683V26.9008H94.1523V26.2417H97.1674V26.9008Z" fill="white"/>
<path d="M102.017 29.9681H99.1973V26.2417H101.925V26.9008H99.9543V27.6905H101.762V28.3366H99.9543V29.2959H102.017V29.9681Z" fill="white"/>
<path d="M107.029 29.2698C106.908 29.4916 106.726 29.6748 106.506 29.7983C106.285 29.9218 106.035 29.9806 105.782 29.9681H104.177V26.2417H105.782C105.977 26.2421 106.17 26.2707 106.356 26.3265C106.621 26.4054 106.851 26.5709 107.009 26.7964C107.139 26.976 107.23 27.1804 107.277 27.3968C107.322 27.5983 107.346 27.8039 107.348 28.0103C107.355 28.451 107.244 28.8855 107.029 29.2698Z" fill="white"/>
<path d="M66.5078 17.8164H57.1885C57.4691 18.2014 57.7367 18.58 57.9912 18.965H66.4752L66.5078 17.8164Z" fill="#005EB2"/>
<path d="M60.6341 22.7369H66.5076V21.8428H59.9814C60.0924 22.032 60.5101 22.7369 60.6341 22.7369Z" fill="#005EB2"/>
<path d="M48.7568 22.7369H54.6304V21.8428H48.7568V22.7369Z" fill="#005EB2"/>
<path d="M66.5083 3.76562H60.6348V9.63914C60.6348 9.9785 60.6348 10.6637 60.6348 11.3816H66.5083V3.76562Z" fill="#005EB2"/>
<path d="M58.174 9.13659C57.156 7.68126 56.3337 6.23246 55.3221 4.77713C55.2503 4.67271 54.7609 3.78516 54.6304 3.78516H48.7568V11.3685H59.5511C59.1295 10.6021 58.6699 9.85716 58.174 9.13659Z" fill="#005EB2"/>
<path d="M66.5079 15.4541H55.6484C55.9421 15.9501 56.2423 16.4461 56.5621 16.9225H66.5079V15.4541Z" fill="#005EB2"/>
<path d="M54.2453 13.0526C54.5129 13.4963 54.7674 13.9466 55.0219 14.3969H66.5079V12.4521H60.6931C60.6887 12.8922 60.7414 13.3309 60.8498 13.7574C60.6083 13.3332 60.3668 12.9025 60.1319 12.4521H48.7568V14.3578H54.4998C54.477 13.9129 54.3913 13.4734 54.2453 13.0526Z" fill="#005EB2"/>
<path d="M54.6304 17.8164H48.7568V18.965H54.6304V17.8164Z" fill="#005EB2"/>
<path d="M54.5847 15.4541H48.7568V16.9225H54.6304C54.6238 16.433 54.6108 15.9305 54.5847 15.4541Z" fill="#005EB2"/>
<path d="M58.5986 19.8589C58.8466 20.2309 59.0946 20.6029 59.3557 20.9749H66.5344V19.8589H58.5986Z" fill="#005EB2"/>
<path d="M54.6304 19.8589H48.7568V21.0075H54.6304V19.8589Z" fill="#005EB2"/>
<path d="M74.5552 3.76562H68.6816V11.3686H74.5552V3.76562Z" fill="#005EB2"/>
<path d="M68.6816 22.7369H74.5552V21.8428H68.6816V22.7369Z" fill="#005EB2"/>
<path d="M68.6816 19.8589V20.9422H74.5552V19.8589H68.6816Z" fill="#005EB2"/>
<path d="M68.6816 18.965H74.5552V17.8164H68.6816V18.965Z" fill="#005EB2"/>
<path d="M68.6816 16.9225H74.5552V15.4541H68.6816V16.9225Z" fill="#005EB2"/>
<path d="M74.5552 14.3578V12.4521H68.6816V14.3578H74.5552Z" fill="#005EB2"/>
<path d="M79.4356 20.9162H88.3372C88.3372 20.5834 88.3372 20.2636 88.2981 19.8916H78.3457C78.6823 20.2604 79.0467 20.603 79.4356 20.9162Z" fill="#005EB2"/>
<path d="M82.6402 22.6194C83.5934 22.8957 84.5783 23.047 85.5705 23.0697C85.8641 23.0697 88.4159 22.9718 88.4093 22.7825C88.4093 22.7825 88.4093 22.3975 88.3767 21.8428H80.7803C81.3678 22.1735 81.992 22.4341 82.6402 22.6194Z" fill="#005EB2"/>
<path d="M86.4909 8.4842C87.074 8.45914 87.6575 8.52519 88.2203 8.67999L88.4096 3.66139C87.4983 3.46392 86.5684 3.36545 85.636 3.36771C83.3433 3.36753 81.1221 4.16624 79.3546 5.62648C77.5871 7.08671 76.3836 9.11721 75.9512 11.3688H82.2815C82.6202 10.5262 83.2006 9.80274 83.9497 9.28944C84.6987 8.77614 85.5829 8.49596 86.4909 8.4842Z" fill="#005EB2"/>
<path d="M76.5187 16.9225H84.2326C83.6008 16.5626 83.0621 16.0597 82.6598 15.4541H76.0488C76.1659 15.9554 76.323 16.4464 76.5187 16.9225Z" fill="#005EB2"/>
<path d="M77.6609 18.965H88.2854C88.2854 18.456 88.2528 18.0318 88.2463 17.8164H76.9561C77.1645 18.2149 77.4 18.5987 77.6609 18.965Z" fill="#005EB2"/>
<path d="M81.9944 12.4521H75.8077C75.8077 12.7067 75.8077 12.9612 75.8077 13.2222C75.8066 13.6061 75.8284 13.9896 75.8729 14.3708H82.1706C82.0503 13.9683 81.9866 13.551 81.9814 13.1309C81.9693 12.9046 81.9736 12.6778 81.9944 12.4521Z" fill="#005EB2"/>
<path d="M0 0V2.04268H90.9025V23.2461H113V0H0ZM102.8 14.2596C102.985 14.7238 103.116 15.2077 103.191 15.7019H97.4482C97.4549 15.639 97.4549 15.5755 97.4482 15.5126C97.3672 15.0502 97.1645 14.6177 96.8609 14.2596H102.8ZM95.9668 13.1958C95.4578 12.5432 94.9096 11.9689 94.4462 11.3228H100.809L101.018 11.5513C101.468 12.0694 101.88 12.619 102.251 13.1958H95.9668ZM93.4803 9.44332C93.2692 8.7347 93.2077 7.98991 93.2998 7.25626C93.3919 6.52262 93.6357 5.81615 94.0155 5.18175C94.3825 4.58341 94.8664 4.06523 95.4383 3.65819C96.0102 3.25115 96.6583 2.96361 97.3438 2.81276C98.7665 2.4767 100.248 2.4767 101.671 2.81276C102.054 2.89381 102.431 3.00064 102.8 3.13254L102.46 7.47895C101.429 7.15917 99.4778 6.91118 98.9688 7.86399C98.5316 8.68628 99.256 9.61952 99.8237 10.2591H93.774C93.6551 9.9952 93.5569 9.72245 93.4803 9.44332ZM100.724 20.988C100.403 21.1552 100.067 21.2907 99.7193 21.3927C98.534 21.7172 97.2955 21.7994 96.0777 21.6341C95.9603 21.6341 95.2293 21.5101 94.6289 21.3927C94.1917 21.3078 93.8197 21.2165 93.8262 21.1512C93.8327 21.0859 93.8262 20.9032 93.8654 20.4986H101.449C101.223 20.6837 100.98 20.8476 100.724 20.988ZM102.291 19.6371H93.9241C93.9241 19.3043 93.9763 18.9388 93.9959 18.5799H102.884C102.731 18.9557 102.532 19.3109 102.291 19.6371ZM103.146 17.6793H94.0546C94.0546 17.1964 94.1199 16.7917 94.1329 16.5568C94.1329 16.4263 94.1329 16.348 94.1329 16.348C94.3483 16.4132 94.6159 16.4915 94.9096 16.5568C95.5308 16.7299 96.1875 16.7299 96.8087 16.5568H103.25C103.256 16.9401 103.221 17.323 103.146 17.6989V17.6793ZM110.553 21.3731H104.986V20.5182H110.553V21.3731ZM110.553 19.611H104.986V18.5799H110.553V19.611ZM110.553 17.6532H104.986V16.5764H110.553V17.6532ZM110.553 15.6562H104.986V14.2596H110.553V15.6562ZM110.553 13.1502H104.986V11.3228H110.553V13.1502ZM110.553 10.2134H104.986V2.83887H110.553V10.2134Z" fill="#005EB2"/>
<path d="M12.3994 4.02002H13.4828L15.4406 7.47887V4.02002H16.4065V8.97988H15.408L13.3849 5.4623V8.97988H12.3994V4.02002Z" fill="#005EB2"/>
<path d="M18.697 4.02002H19.8717L21.6272 8.97988H20.5047L20.1719 7.9618H18.3446L18.0117 8.97988H16.9219L18.697 4.02002ZM18.6252 7.10688H19.8978L19.2452 5.14904L18.6252 7.10688Z" fill="#005EB2"/>
<path d="M25.2174 4.02002V4.89452H23.7359V8.97988H22.6918V4.89452H21.1973V4.02002H25.2174Z" fill="#005EB2"/>
<path d="M26.6337 8.97988H25.6025V4.02002H26.6337V8.97988Z" fill="#005EB2"/>
<path d="M31.286 8.54254C31.0692 8.745 30.813 8.90051 30.5334 8.99934C30.2538 9.09816 29.9568 9.13816 29.661 9.11684C29.3694 9.13454 29.0774 9.09275 28.8025 8.99402C28.5276 8.89529 28.2757 8.74168 28.0621 8.54254C27.7987 8.27921 27.593 7.9639 27.4582 7.61671C27.3233 7.26952 27.2623 6.89805 27.2789 6.52597C27.2481 6.1427 27.3023 5.75735 27.4377 5.39747C27.573 5.03758 27.7863 4.71205 28.0621 4.44413C28.2788 4.24167 28.535 4.08616 28.8146 3.98734C29.0942 3.88851 29.3913 3.84851 29.6871 3.86983C29.9829 3.84851 30.2799 3.88851 30.5595 3.98734C30.8391 4.08616 31.0953 4.24167 31.3121 4.44413C31.5773 4.71731 31.7796 5.04521 31.9048 5.40484C32.0299 5.76447 32.0749 6.14713 32.0365 6.52597C32.0574 6.8957 32.0015 7.26575 31.8723 7.61281C31.7431 7.95987 31.5435 8.27643 31.286 8.54254ZM30.6334 7.78551C30.8998 7.40479 31.0266 6.94372 30.9923 6.48028C31.0256 6.03682 30.9134 5.59458 30.6725 5.22074C30.55 5.08186 30.3994 4.97062 30.2306 4.89443C30.0618 4.81824 29.8788 4.77884 29.6936 4.77884C29.5084 4.77884 29.3253 4.81824 29.1566 4.89443C28.9878 4.97062 28.8372 5.08186 28.7147 5.22074C28.4459 5.60062 28.3168 6.06176 28.3492 6.52597C28.3168 6.99018 28.4459 7.45132 28.7147 7.83119C28.8315 7.97942 28.9816 8.09803 29.1528 8.1774C29.324 8.25677 29.5115 8.29467 29.7001 8.28802C29.8908 8.28948 30.079 8.2445 30.2484 8.15694C30.4178 8.06939 30.5634 7.94191 30.6725 7.78551H30.6334Z" fill="#005EB2"/>
<path d="M32.6768 4.02002H33.7601L35.7179 7.47887V4.02002H36.6838V8.97988H35.6592L33.6426 5.4623V8.97988H32.6768V4.02002Z" fill="#005EB2"/>
<path d="M38.9547 4.02002H40.1295L41.885 8.97988H40.7625L40.4623 7.9618H38.635L38.3021 8.97988H37.1992L38.9547 4.02002ZM38.883 7.10688H40.1882L39.5356 5.14904L38.883 7.10688Z" fill="#005EB2"/>
<path d="M42.374 4.02002H43.4117V8.09233H45.8916V8.97988H42.374V4.02002Z" fill="#005EB2"/>
<path d="M1.40937 15.8783H0.384766V10.9185H1.40937V15.8783Z" fill="#005EB2"/>
<path d="M2.22559 10.9185H3.31545L5.27329 14.3773V10.9185H6.25221V15.8783H5.22108L3.19798 12.3542V15.8783H2.22559V10.9185Z" fill="#005EB2"/>
<path d="M7.08789 10.9248H10.6251V11.7928H8.11902V12.9349H10.3183V13.7963H8.11902V15.8781H7.08789V10.9248Z" fill="#005EB2"/>
<path d="M15.0104 15.441C14.7933 15.6428 14.537 15.7979 14.2575 15.8967C13.978 15.9955 13.6812 16.0358 13.3854 16.0153C13.0875 16.0385 12.788 15.9994 12.506 15.9005C12.224 15.8016 11.9656 15.6451 11.7474 15.441C11.4838 15.1722 11.2801 14.8506 11.1496 14.4974C11.0191 14.1442 10.9648 13.7674 10.9903 13.3918C10.961 13.0158 11.0135 12.638 11.1442 12.2842C11.2749 11.9305 11.4806 11.6092 11.7474 11.3426C11.9638 11.1393 12.2197 10.9828 12.4993 10.8829C12.7789 10.7829 13.0761 10.7417 13.3724 10.7618C13.6686 10.7421 13.9657 10.7835 14.2452 10.8834C14.5247 10.9833 14.7807 11.1396 14.9974 11.3426C15.2629 11.6098 15.4675 11.9313 15.597 12.285C15.7266 12.6387 15.778 13.0163 15.7479 13.3918C15.7747 13.7659 15.7229 14.1415 15.5959 14.4944C15.4689 14.8473 15.2695 15.1698 15.0104 15.441ZM14.3578 14.684C14.6233 14.3028 14.75 13.8421 14.7167 13.3788C14.7489 12.9155 14.6223 12.4552 14.3578 12.0735C14.2431 11.9246 14.0943 11.8054 13.924 11.7259C13.7536 11.6464 13.5667 11.609 13.3789 11.6167C13.1903 11.6101 13.0028 11.6479 12.8316 11.7273C12.6603 11.8067 12.5103 11.9253 12.3934 12.0735C12.1247 12.4534 11.9956 12.9145 12.028 13.3788C11.9966 13.8429 12.1257 14.3036 12.3934 14.684C12.5109 14.8314 12.6612 14.9495 12.8322 15.0288C13.0033 15.1081 13.1904 15.1464 13.3789 15.1408C13.5665 15.1469 13.7529 15.1088 13.923 15.0294C14.093 14.95 14.242 14.8317 14.3578 14.684Z" fill="#005EB2"/>
<path d="M19.5783 11.0422C19.7566 11.1214 19.915 11.2396 20.0416 11.388C20.145 11.5139 20.2286 11.6547 20.2896 11.8057C20.3516 11.9727 20.3826 12.1497 20.381 12.3278C20.3913 12.5779 20.3398 12.8268 20.2309 13.0522C20.1701 13.1678 20.0869 13.2701 19.986 13.353C19.8851 13.436 19.7687 13.4979 19.6435 13.5351C19.8448 13.6062 20.0154 13.7445 20.1265 13.9267C20.2204 14.165 20.2562 14.4223 20.2309 14.6772V15.01C20.2163 15.1642 20.2163 15.3193 20.2309 15.4734C20.241 15.5316 20.2638 15.5869 20.2976 15.6354C20.3315 15.6839 20.3755 15.7244 20.4267 15.754V15.878H19.3107C19.2842 15.7901 19.2624 15.7007 19.2454 15.6104C19.217 15.4708 19.2017 15.3288 19.1997 15.1862V14.7229C19.2259 14.4928 19.168 14.261 19.0366 14.0703C18.8654 13.9451 18.6533 13.8892 18.4427 13.9137H17.4246V15.8715H16.4131V10.9116H18.7886C19.0576 10.9059 19.3254 10.9501 19.5783 11.0422ZM17.4246 11.7796V13.0848H18.5406C18.7117 13.0937 18.8828 13.0671 19.0431 13.0065C19.1429 12.9534 19.2243 12.8714 19.2767 12.7713C19.3291 12.6711 19.35 12.5575 19.3368 12.4453C19.3484 12.3276 19.3278 12.2089 19.2773 12.102C19.2267 11.9951 19.148 11.904 19.0496 11.8383C18.9 11.7722 18.7365 11.7431 18.5732 11.7535L17.4246 11.7796Z" fill="#005EB2"/>
<path d="M24.5246 10.9185H26.0191V15.8783H25.0467V12.5239C25.0467 12.426 25.0467 12.2889 25.0467 12.1127V11.7473L24.1461 15.8783H23.1084L22.1882 11.7473V12.1454C22.1882 12.3216 22.1882 12.4586 22.1882 12.5565V15.9109H21.2158V10.9511H22.7234L23.624 14.8668L24.5246 10.9185Z" fill="#005EB2"/>
<path d="M28.2585 10.9185H29.4332L31.1887 15.8783H30.0662L29.7334 14.8602H27.9061L27.5733 15.8783H26.4834L28.2585 10.9185ZM28.1867 14.0053H29.4919L28.8393 12.0475L28.1867 14.0053Z" fill="#005EB2"/>
<path d="M34.7779 10.9185V11.793H33.2834V15.8783H32.2392V11.793H30.7578V10.9185H34.7779Z" fill="#005EB2"/>
<path d="M36.1942 15.8783H35.1631V10.9185H36.1942V15.8783Z" fill="#005EB2"/>
<path d="M37.4991 11.434C37.6967 11.2308 37.9347 11.0712 38.1977 10.9656C38.4607 10.8599 38.7429 10.8105 39.0262 10.8206C39.3735 10.7927 39.7222 10.8535 40.0396 10.9973C40.3569 11.1411 40.6325 11.3633 40.8405 11.6429C41.0361 11.915 41.1535 12.2355 41.1798 12.5696H40.1422C40.0975 12.3728 40.0106 12.188 39.8877 12.0279C39.7722 11.9152 39.634 11.8286 39.4823 11.7738C39.3306 11.7191 39.1689 11.6975 39.0081 11.7104C38.8473 11.7234 38.6912 11.7707 38.5502 11.8491C38.4092 11.9275 38.2867 12.0352 38.1909 12.165C37.9507 12.556 37.8389 13.0124 37.8711 13.4702C37.8367 13.9124 37.9566 14.3529 38.2104 14.7167C38.3097 14.849 38.4389 14.9559 38.5876 15.0286C38.7362 15.1012 38.9 15.1374 39.0654 15.1344C39.2202 15.1444 39.3751 15.1171 39.5171 15.0546C39.6591 14.9921 39.784 14.8964 39.8811 14.7754C40.0062 14.6045 40.093 14.4086 40.1356 14.2011H41.1668C41.1036 14.6976 40.8735 15.1579 40.5142 15.5063C40.132 15.8546 39.6276 16.0376 39.111 16.0154C38.7993 16.0316 38.4877 15.9785 38.1989 15.8601C37.91 15.7416 37.651 15.5606 37.4404 15.3301C37.0112 14.7959 36.795 14.1217 36.8334 13.4376C36.8072 13.0762 36.8524 12.7133 36.9667 12.3695C37.0809 12.0257 37.2618 11.7078 37.4991 11.434Z" fill="#005EB2"/>
<path d="M42.6156 14.3578C42.6318 14.5414 42.6972 14.7173 42.8049 14.8669C42.9196 14.9804 43.0583 15.0668 43.2107 15.1199C43.3631 15.173 43.5255 15.1913 43.6859 15.1736C43.8933 15.1801 44.1003 15.1537 44.2994 15.0953C44.4276 15.0642 44.5414 14.9903 44.622 14.886C44.7027 14.7816 44.7454 14.6529 44.7432 14.521C44.7447 14.4427 44.7248 14.3655 44.6857 14.2976C44.6466 14.2298 44.5898 14.1739 44.5213 14.1359C44.3161 14.0282 44.0962 13.9512 43.8687 13.9075L43.327 13.79C42.9463 13.7253 42.5798 13.595 42.2436 13.405C42.0742 13.2856 41.9387 13.1241 41.8506 12.9364C41.7625 12.7487 41.7248 12.5414 41.7411 12.3347C41.7364 12.1252 41.7778 11.9172 41.8624 11.7255C41.9469 11.5338 42.0727 11.363 42.2306 11.2253C42.6395 10.9033 43.1537 10.7451 43.6729 10.7815C44.1586 10.7706 44.6347 10.9171 45.0303 11.1992C45.216 11.3403 45.3659 11.5231 45.4679 11.7328C45.5699 11.9425 45.6212 12.1733 45.6177 12.4065H44.5865C44.59 12.271 44.5542 12.1373 44.4836 12.0215C44.413 11.9058 44.3105 11.8128 44.1884 11.7539C43.9949 11.6623 43.7825 11.6176 43.5684 11.6234C43.3399 11.6152 43.1137 11.6717 42.9158 11.7865C42.8399 11.8341 42.7777 11.9007 42.7354 11.9797C42.693 12.0586 42.672 12.1473 42.6744 12.2368C42.6706 12.3196 42.6915 12.4017 42.7345 12.4726C42.7775 12.5435 42.8406 12.6 42.9158 12.6349C43.1243 12.7303 43.3434 12.8004 43.5684 12.8438L44.4364 13.0461C44.7471 13.1026 45.0413 13.2275 45.2979 13.4115C45.447 13.5327 45.565 13.6876 45.6422 13.8636C45.7194 14.0395 45.7535 14.2313 45.7416 14.4231C45.745 14.639 45.6992 14.8529 45.6076 15.0486C45.516 15.2442 45.3811 15.4164 45.213 15.5521C44.7901 15.8768 44.2637 16.0368 43.7316 16.0024C43.1809 16.032 42.6362 15.8757 42.1849 15.5586C42.0041 15.4161 41.8592 15.2333 41.7618 15.0248C41.6643 14.8163 41.617 14.5879 41.6237 14.3578H42.6156Z" fill="#005EB2"/>
<path d="M19.2782 18.3318C19.4758 18.1285 19.7138 17.969 19.9768 17.8633C20.2398 17.7576 20.522 17.7083 20.8053 17.7183C21.1516 17.6909 21.4992 17.752 21.8155 17.8958C22.1317 18.0397 22.4061 18.2615 22.6131 18.5406C22.8141 18.8098 22.9321 19.1319 22.9524 19.4673H21.9213C21.871 19.2724 21.7847 19.0887 21.6668 18.9256C21.5616 18.8152 21.4334 18.7293 21.2913 18.674C21.1492 18.6187 20.9966 18.5955 20.8445 18.6059C20.6716 18.5997 20.5002 18.6386 20.3469 18.7187C20.1936 18.7988 20.0637 18.9173 19.97 19.0627C19.729 19.4534 19.6171 19.9101 19.6502 20.3679C19.6156 20.8113 19.733 21.2532 19.983 21.6209C20.084 21.753 20.2145 21.8596 20.3641 21.9322C20.5137 22.0047 20.6782 22.0411 20.8445 22.0386C20.9992 22.0481 21.154 22.0205 21.2959 21.9581C21.4378 21.8957 21.5627 21.8002 21.6602 21.6797C21.7827 21.5072 21.8692 21.3119 21.9148 21.1054H22.9459C22.8803 21.6011 22.6505 22.0606 22.2933 22.4106C22.1033 22.5839 21.881 22.718 21.6391 22.8053C21.3972 22.8927 21.1405 22.9315 20.8836 22.9196C20.5754 22.9394 20.2665 22.8912 19.9789 22.7785C19.6914 22.6657 19.4321 22.4911 19.2195 22.267C18.7903 21.7328 18.5741 21.0586 18.6125 20.3744C18.5794 20.0066 18.6214 19.6359 18.7358 19.2848C18.8502 18.9337 19.0348 18.6095 19.2782 18.3318Z" fill="#005EB2"/>
<path d="M27.3183 18.6911H24.7079V19.7483H27.1226V20.6098H24.7079V21.915H27.4097V22.7764H23.6768V17.8101H27.3183V18.6911Z" fill="#005EB2"/>
<path d="M28.0625 17.8101H29.1524L31.1102 21.2754V17.8101H32.0761V22.7764H31.0776L29.061 19.2523V22.7764H28.0625V17.8101Z" fill="#005EB2"/>
<path d="M36.5461 17.8101V18.6911H35.0712V22.7764H34.027V18.6911H32.5391V17.8101H36.5461Z" fill="#005EB2"/>
<path d="M40.2075 17.9405C40.3874 18.017 40.5463 18.1357 40.6708 18.2864C40.7755 18.4113 40.8593 18.5524 40.9188 18.7041C40.9847 18.87 41.0158 19.0477 41.0102 19.2262C41.0082 19.4697 40.9478 19.7092 40.834 19.9245C40.7096 20.1566 40.4984 20.3302 40.2466 20.4074C40.449 20.4765 40.6202 20.6153 40.7296 20.799C40.8419 21.0417 40.8913 21.3088 40.8731 21.5756V21.9084C40.8617 22.0605 40.8617 22.2132 40.8731 22.3653C40.8837 22.4242 40.9065 22.4803 40.9403 22.5298C40.974 22.5793 41.0179 22.6211 41.0689 22.6524V22.7764H39.9464C39.9464 22.6655 39.8942 22.5806 39.8812 22.5088C39.8559 22.3687 39.8407 22.2269 39.8355 22.0846V21.6213C39.8661 21.3909 39.8077 21.1575 39.6723 20.9687C39.5032 20.8445 39.2935 20.7886 39.085 20.812H38.0604V22.7699H37.0488V17.81H39.4243C39.6912 17.8046 39.9568 17.8489 40.2075 17.9405ZM38.0604 18.6715V20.0093H39.1568C39.3286 20.0199 39.5005 19.9909 39.6593 19.9245C39.7585 19.8725 39.8397 19.7917 39.8921 19.6926C39.9445 19.5936 39.9658 19.4811 39.953 19.3698C39.9646 19.2521 39.944 19.1334 39.8934 19.0265C39.8428 18.9196 39.7642 18.8285 39.6658 18.7628C39.517 18.6934 39.3533 18.662 39.1894 18.6715H38.0604Z" fill="#005EB2"/>
<path d="M45.539 18.6911H42.9286V19.7483H45.3433V20.6098H42.9286V21.915H45.6826V22.7764H41.8975V17.8101H45.539V18.6911Z" fill="#005EB2"/>
<path d="M80.3374 26.79C80.1965 26.7854 80.0566 26.8137 79.9286 26.8726C79.8006 26.9315 79.688 27.0194 79.5999 27.1294C79.4172 27.4232 79.3203 27.7623 79.3203 28.1083C79.3203 28.4543 79.4172 28.7934 79.5999 29.0872C79.688 29.1972 79.8006 29.2851 79.9286 29.344C80.0566 29.4029 80.1965 29.4312 80.3374 29.4266C80.4784 29.4328 80.6189 29.4052 80.7472 29.3462C80.8754 29.2871 80.9878 29.1984 81.0748 29.0872C81.2739 28.8061 81.3706 28.4652 81.3489 28.1214C81.3705 27.7755 81.2739 27.4326 81.0748 27.149C80.9898 27.0342 80.8784 26.9417 80.75 26.8792C80.6217 26.8167 80.4801 26.7861 80.3374 26.79Z" fill="#005EB2"/>
<path d="M86.2627 26.9528C86.1495 26.9043 86.0268 26.8819 85.9038 26.8876H85.0488V27.8861H85.8842C86.0109 27.8923 86.1375 27.8723 86.2562 27.8273C86.3316 27.789 86.3935 27.7283 86.4332 27.6536C86.4729 27.5788 86.4886 27.4937 86.478 27.4097C86.4894 27.3209 86.4751 27.2308 86.437 27.1499C86.3988 27.0689 86.3383 27.0006 86.2627 26.9528Z" fill="#005EB2"/>
<path d="M90.5693 28.5585H91.5222L91.0523 27.0967L90.5693 28.5585Z" fill="#005EB2"/>
<path d="M75.1807 26.8876H74.4824V27.984H75.1807C75.3308 27.9898 75.4783 27.9437 75.5984 27.8535C75.6505 27.7966 75.6902 27.7295 75.7149 27.6565C75.7396 27.5835 75.7488 27.5061 75.742 27.4293C75.75 27.3534 75.7413 27.2767 75.7165 27.2045C75.6917 27.1323 75.6514 27.0665 75.5984 27.0116C75.4775 26.9236 75.33 26.8799 75.1807 26.8876Z" fill="#005EB2"/>
<path d="M70.3971 26.9528C70.284 26.9043 70.1612 26.8819 70.0382 26.8876H69.1768V27.8861H70.0121C70.1389 27.8935 70.2658 27.8735 70.3841 27.8273C70.4596 27.789 70.5214 27.7283 70.5611 27.6536C70.6008 27.5788 70.6165 27.4937 70.606 27.4097C70.618 27.3216 70.6047 27.2319 70.5677 27.151C70.5308 27.0701 70.4716 27.0014 70.3971 26.9528Z" fill="#005EB2"/>
<path d="M64.4783 26.7899C64.3373 26.7837 64.1968 26.8113 64.0685 26.8703C63.9403 26.9294 63.8279 27.0181 63.7409 27.1293C63.5536 27.4214 63.4541 27.7612 63.4541 28.1082C63.4541 28.4552 63.5536 28.7949 63.7409 29.0871C63.8315 29.1932 63.9441 29.2784 64.0709 29.3368C64.1976 29.3952 64.3355 29.4254 64.475 29.4254C64.6146 29.4254 64.7525 29.3952 64.8792 29.3368C65.006 29.2784 65.1186 29.1932 65.2092 29.0871C65.4083 28.8059 65.505 28.4651 65.4833 28.1212C65.5049 27.7754 65.4083 27.4325 65.2092 27.1488C65.1253 27.0346 65.015 26.9424 64.8877 26.8799C64.7605 26.8174 64.62 26.7865 64.4783 26.7899Z" fill="#005EB2"/>
<path d="M105.651 26.8879H104.927V29.3221H105.651C105.821 29.3278 105.988 29.2772 106.126 29.178C106.264 29.0789 106.366 28.9368 106.415 28.7739C106.501 28.5494 106.541 28.3096 106.532 28.0691C106.552 27.7671 106.491 27.4653 106.356 27.1946C106.278 27.0841 106.17 26.9972 106.046 26.9431C105.922 26.8891 105.785 26.87 105.651 26.8879Z" fill="#005EB2"/>
<path d="M17.8425 26.953C17.7288 26.9058 17.6065 26.8836 17.4835 26.8877H16.6221V27.8862H17.4574C17.5863 27.893 17.7152 27.873 17.8359 27.8275C17.9096 27.7875 17.9695 27.7263 18.0079 27.6518C18.0463 27.5773 18.0614 27.493 18.0513 27.4098C18.0633 27.3217 18.05 27.232 18.013 27.1511C17.9761 27.0703 17.9169 27.0015 17.8425 26.953Z" fill="#005EB2"/>
</svg>
