<svg width="102" height="40" viewBox="0 0 102 40" fill="none" xmlns="http://www.w3.org/2000/svg">
<path d="M69.6376 22.166L70.6574 22.4719C70.5895 22.7609 70.4875 22.9989 70.3345 23.1858C70.1815 23.3728 70.0115 23.5258 69.7906 23.6108C69.5696 23.7128 69.2976 23.7638 68.9577 23.7638C68.5497 23.7638 68.2268 23.7128 67.9548 23.5938C67.6998 23.4748 67.4789 23.2708 67.2919 22.9649C67.1049 22.6759 67.0029 22.285 67.0029 21.826C67.0029 21.2141 67.1729 20.7382 67.4959 20.3982C67.8188 20.0583 68.2948 19.9053 68.8897 19.9053C69.3656 19.9053 69.7226 20.0073 69.9945 20.1942C70.2665 20.3812 70.4705 20.6702 70.5895 21.0781L69.5696 21.2991C69.5356 21.1801 69.5016 21.0951 69.4506 21.0441C69.3826 20.9591 69.3146 20.8911 69.2126 20.8401C69.1107 20.7892 69.0087 20.7722 68.9067 20.7722C68.6517 20.7722 68.4477 20.8741 68.3118 21.0951C68.2098 21.2481 68.1588 21.5031 68.1588 21.826C68.1588 22.234 68.2268 22.5229 68.3458 22.6759C68.4647 22.8289 68.6517 22.9139 68.8727 22.9139C69.0937 22.9139 69.2636 22.8459 69.3656 22.7269C69.5016 22.5739 69.5866 22.4039 69.6376 22.166Z" fill="#225E63"/>
<path d="M71.0654 21.8259C71.0654 21.214 71.2354 20.7381 71.5754 20.3981C71.9153 20.0582 72.3913 19.8882 73.0032 19.8882C73.6321 19.8882 74.108 20.0582 74.448 20.3811C74.7879 20.7211 74.9579 21.18 74.9579 21.7919C74.9579 22.2339 74.8899 22.5908 74.7369 22.8628C74.584 23.1348 74.38 23.3557 74.091 23.5087C73.8191 23.6617 73.4621 23.7467 73.0542 23.7467C72.6292 23.7467 72.2893 23.6787 72.0003 23.5427C71.7283 23.4067 71.5074 23.2027 71.3204 22.8968C71.1334 22.5908 71.0654 22.2679 71.0654 21.8259ZM72.2213 21.8259C72.2213 22.1999 72.2893 22.4718 72.4252 22.6418C72.5612 22.8118 72.7482 22.8968 73.0032 22.8968C73.2581 22.8968 73.4451 22.8118 73.5811 22.6588C73.7171 22.4888 73.7851 22.1999 73.7851 21.7919C73.7851 21.435 73.7171 21.18 73.5641 21.027C73.4281 20.8571 73.2241 20.7891 72.9862 20.7891C72.7482 20.7891 72.5612 20.8741 72.4252 21.044C72.2893 21.18 72.2213 21.452 72.2213 21.8259Z" fill="#225E63"/>
<path d="M75.5535 19.9561H77.0663L77.6442 22.2338L78.2222 19.9561H79.735V23.6956H78.7831V20.8399L78.0522 23.6956H77.2023L76.4714 20.8399V23.6956H75.5195V19.9561H75.5535Z" fill="#225E63"/>
<path d="M80.4824 19.9561H82.4032C82.8281 19.9561 83.1341 20.058 83.338 20.262C83.542 20.466 83.644 20.7379 83.644 21.1119C83.644 21.4858 83.525 21.7918 83.304 21.9958C83.0831 22.2168 82.7261 22.3187 82.2672 22.3187H81.6383V23.7126H80.4824V19.9561ZM81.6383 21.5538H81.9272C82.1482 21.5538 82.3012 21.5198 82.4032 21.4349C82.4882 21.3499 82.5392 21.2649 82.5392 21.1459C82.5392 21.0269 82.5052 20.9249 82.4202 20.8399C82.3352 20.7549 82.1992 20.721 81.9782 20.721H81.6553V21.5538H81.6383Z" fill="#225E63"/>
<path d="M84.2559 19.9561H85.4117V22.7777H87.2135V23.6956H84.2559V19.9561Z" fill="#225E63"/>
<path d="M87.791 19.9561H88.9469V23.6956H87.791V19.9561Z" fill="#225E63"/>
<path d="M92.0749 23.067H90.7661L90.5791 23.679H89.4062L90.8171 19.9395H92.0749L93.4857 23.679H92.2789L92.0749 23.067ZM91.8369 22.2681L91.429 20.9253L91.021 22.2681H91.8369Z" fill="#225E63"/>
<path d="M93.8428 19.9561H94.9136L96.3244 22.0298V19.9561H97.4123V23.6956H96.3244L94.9306 21.6388V23.6956H93.8428V19.9561Z" fill="#225E63"/>
<path d="M97.9219 19.9561H101.44V20.8739H100.268V23.6956H99.1117V20.8739H97.9389V19.9561H97.9219Z" fill="#225E63"/>
<path d="M55.7337 25.6501L59.0822 24.5962L57.9944 22.1825C57.1955 23.1854 56.3966 24.4772 55.7337 25.6501ZM54.5948 14.6185L48.0337 0.000488281L-0.00195312 2.72013L13.3073 39.0273L38.9229 30.9534C37.2911 28.6077 36.6962 25.8201 38.5829 24.4602C40.6907 22.9305 43.8692 24.6982 45.892 27.1969C47.8467 23.9333 53.337 16.3353 54.5948 14.6185Z" fill="#225E63"/>
<path d="M46.5369 10.5648C48.5427 10.5648 50.1744 9.03505 50.1744 7.1313C50.1744 5.22755 48.5427 3.69775 46.5369 3.69775C44.5312 3.69775 42.8994 5.22755 42.8994 7.1313C42.8994 9.01805 44.5312 10.5648 46.5369 10.5648ZM43.5623 12.0436H49.5115V27.5966H43.5623V12.0436Z" fill="#FEFEFE"/>
<path d="M40.6213 16.582C40.6723 16.599 40.7063 16.582 40.7063 16.531V12.5875C40.7063 12.5365 40.6723 12.4855 40.6213 12.4515C40.6213 12.4515 39.8394 11.9416 37.4597 11.8056C37.3407 11.7376 35.25 11.7206 34.6891 11.8056C26.0202 12.5025 25.6973 18.7747 25.6973 19.0466V20.5764C25.6973 20.7634 25.6973 27.1716 34.6891 27.7325C35.573 27.8005 37.2897 27.7325 37.4597 27.7325C39.5334 27.7325 40.9612 27.1036 40.9612 27.1036C41.0122 27.0866 41.0462 27.0356 41.0462 26.9846V23.2961C41.0462 23.2451 41.0122 23.2281 40.9782 23.2621C40.9782 23.2621 40.3323 23.772 37.5107 24.061C36.7118 24.146 36.3209 24.112 36.0319 24.061C32.0204 23.3811 31.8335 20.4574 31.8335 20.4574C31.8335 20.4064 31.8165 20.3215 31.8165 20.2875V19.1656C31.8165 19.1146 31.8165 19.0296 31.8335 18.9956C31.8335 18.9956 32.1054 15.8511 36.0319 15.5111H37.5107C39.2275 15.7321 40.6213 16.582 40.6213 16.582Z" fill="#FEFEFE"/>
<path d="M9.17578 27.5455C9.17578 27.5965 9.20978 27.6305 9.26077 27.6305H15.057C15.108 27.6305 15.142 27.5965 15.142 27.5455V23.0241C15.142 22.9731 15.176 22.9391 15.227 22.9391C15.227 22.9391 24.4907 23.602 24.4907 17.3978C24.4907 12.4855 18.6775 11.9585 16.7738 12.0435C16.7398 12.0435 9.26077 12.0435 9.26077 12.0435C9.20978 12.0435 9.17578 12.0775 9.17578 12.1285V27.5455ZM15.04 19.4885V15.4261H16.4678C16.4678 15.4261 18.5245 15.5111 18.6945 16.9219C18.7285 17.0239 18.7285 17.7208 18.6945 17.7548C18.4226 19.4035 16.6378 19.4885 16.6378 19.4885H15.04Z" fill="#FEFEFE"/>
<path d="M46.7072 35.1012C47.1832 35.1012 47.5571 35.1012 48.169 34.8292C50.2767 33.7243 57.3988 16.3356 64.9118 10.9814C64.9628 10.9474 65.0138 10.8964 65.0478 10.8454C65.0988 10.7774 65.0988 10.7094 65.0988 10.7094C65.0988 10.7094 65.0988 10.3524 63.9939 10.3524C57.3138 10.1655 50.3617 24.1886 46.7072 29.7299C46.6562 29.7979 46.4183 29.7299 46.4183 29.7299C46.4183 29.7299 43.9706 26.8403 41.8459 25.7354C41.7949 25.7184 41.5569 25.6334 41.3019 25.6504C41.132 25.6504 40.1461 25.8544 39.6871 26.3303C39.1432 26.9082 39.1602 27.2312 39.1602 27.9281C39.1602 27.9791 39.1942 28.2171 39.2622 28.3361C39.7891 29.2539 42.1518 32.5175 44.1066 34.3193C44.3955 34.5402 44.8545 35.1012 46.7072 35.1012Z" fill="#2BBC5D"/>
<path d="M66.8838 5.729H72.4421C73.5469 5.729 74.4308 5.88198 75.0937 6.17095C75.7736 6.47691 76.3345 6.90185 76.7595 7.44578C77.2014 8.0067 77.5244 8.65262 77.7114 9.38352C77.9153 10.1144 78.0173 10.8963 78.0173 11.7292C78.0173 13.021 77.8643 14.0239 77.5754 14.7378C77.2864 15.4517 76.8785 16.0466 76.3515 16.5396C75.8246 17.0155 75.2637 17.3385 74.6688 17.5084C73.8529 17.7294 73.105 17.8314 72.4421 17.8314H66.8838V5.729ZM70.6233 8.46564V15.0778H71.5412C72.3231 15.0778 72.884 14.9928 73.207 14.8228C73.5299 14.6528 73.8019 14.3469 73.9889 13.9219C74.1758 13.497 74.2778 12.7831 74.2778 11.8142C74.2778 10.5224 74.0738 9.65548 73.6489 9.17954C73.224 8.70361 72.544 8.46564 71.5582 8.46564H70.6233Z" fill="#225E63"/>
<path d="M79.0547 13.8367L82.6242 13.6157C82.7092 14.1937 82.8622 14.6356 83.1002 14.9416C83.4911 15.4345 84.035 15.6725 84.7489 15.6725C85.2759 15.6725 85.7008 15.5535 85.9898 15.2985C86.2787 15.0435 86.4317 14.7546 86.4317 14.4316C86.4317 14.1257 86.2957 13.8367 86.0238 13.5817C85.7518 13.3268 85.1059 13.1058 84.103 12.8848C82.4542 12.5109 81.2984 12.0179 80.5845 11.406C79.8706 10.7941 79.5306 10.0122 79.5306 9.06034C79.5306 8.43143 79.7176 7.8535 80.0746 7.29258C80.4315 6.73165 80.9754 6.30671 81.7063 5.98375C82.4372 5.66079 83.4231 5.50781 84.6809 5.50781C86.2277 5.50781 87.4176 5.79678 88.2165 6.3747C89.0324 6.95262 89.5083 7.8705 89.6613 9.12833L86.1258 9.33231C86.0238 8.78838 85.8368 8.39743 85.5308 8.14247C85.2249 7.8875 84.8169 7.76851 84.29 7.76851C83.8481 7.76851 83.5251 7.8535 83.3041 8.04048C83.0832 8.22745 82.9812 8.44842 82.9812 8.72039C82.9812 8.90736 83.0662 9.09434 83.2531 9.24732C83.4231 9.4003 83.8481 9.55327 84.511 9.68926C86.1427 10.0462 87.3156 10.4032 88.0295 10.7601C88.7434 11.1171 89.2533 11.576 89.5763 12.1029C89.8992 12.6299 90.0522 13.2418 90.0522 13.9047C90.0522 14.6866 89.8313 15.4005 89.4063 16.0464C88.9814 16.7093 88.3695 17.2023 87.6046 17.5422C86.8397 17.8822 85.8538 18.0521 84.6809 18.0521C82.6242 18.0521 81.1964 17.6612 80.3975 16.8623C79.6156 16.0634 79.1737 15.0605 79.0547 13.8367Z" fill="#225E63"/>
<path d="M91.0039 13.8367L94.5734 13.6157C94.6584 14.1937 94.8114 14.6356 95.0494 14.9416C95.4403 15.4345 95.9842 15.6725 96.6982 15.6725C97.2251 15.6725 97.65 15.5535 97.939 15.2985C98.2279 15.0435 98.3809 14.7546 98.3809 14.4316C98.3809 14.1257 98.2449 13.8367 97.973 13.5817C97.701 13.3268 97.0551 13.1058 96.0522 12.8848C94.4035 12.5109 93.2476 12.0179 92.5337 11.406C91.8368 10.7941 91.4798 10.0122 91.4798 9.06034C91.4798 8.43143 91.6668 7.8535 92.0238 7.29258C92.3807 6.73165 92.9246 6.30671 93.6556 5.98375C94.3865 5.66079 95.3723 5.50781 96.6302 5.50781C98.177 5.50781 99.3668 5.79678 100.166 6.3747C100.982 6.95262 101.458 7.8705 101.61 9.12833L98.075 9.33231C97.973 8.78838 97.786 8.39743 97.48 8.14247C97.1741 7.8875 96.7661 7.76851 96.2392 7.76851C95.7973 7.76851 95.4743 7.8535 95.2533 8.04048C95.0324 8.22745 94.9304 8.44842 94.9304 8.72039C94.9304 8.90736 95.0154 9.09434 95.2024 9.24732C95.3723 9.4003 95.7973 9.55327 96.4602 9.68926C98.092 10.0462 99.2648 10.4032 99.9787 10.7601C100.693 11.1171 101.203 11.576 101.526 12.1029C101.848 12.6299 102.001 13.2418 102.001 13.9047C102.001 14.6866 101.78 15.4005 101.356 16.0464C100.931 16.7093 100.319 17.2023 99.5538 17.5422C98.7889 17.8822 97.803 18.0521 96.6302 18.0521C94.5734 18.0521 93.1456 17.6612 92.3467 16.8623C91.5478 16.0634 91.1059 15.0605 91.0039 13.8367Z" fill="#225E63"/>
</svg>
