<svg width="69" height="71" viewBox="0 0 69 71" fill="none" xmlns="http://www.w3.org/2000/svg">
<path fill-rule="evenodd" clip-rule="evenodd" d="M38.4542 17.8647C38.839 18.0389 40.4476 18.5099 41.3568 18.8947C43.9785 20.008 46.5815 21.5726 47.7631 24.2898C49.5824 28.4685 47.162 33.4545 45.5964 36.548L46.6835 35.3683C47.0459 34.9535 47.3708 34.5125 47.7135 34.0771C48.4048 33.178 49.0199 32.2227 49.5524 31.2213C51.7921 26.9545 51.5308 24.5538 51.7293 24.0632V22.2364L51.4737 20.3357C50.9775 17.4584 49.3979 14.4547 47.485 12.3601C46.9637 11.7721 46.4098 11.2138 45.8258 10.6879C43.0431 8.16447 38.3166 5.67761 33.458 5.51562C33.576 5.71974 33.8035 5.9042 33.972 6.08397C35.6078 7.82272 36.9027 9.77026 37.6499 12.1466C38.3653 14.421 38.3278 15.4331 38.4542 17.8647Z" fill="#00ADEE"/>
<path fill-rule="evenodd" clip-rule="evenodd" d="M14.1259 22.8288V24.8728C14.1998 25.047 14.33 26.3934 14.4068 26.7595C14.5221 27.3561 14.6725 27.9455 14.8571 28.5245C15.9732 31.9186 17.5902 34.1302 20.0499 36.5113C21.5275 37.941 23.4516 39.0852 25.3617 39.9803C27.1744 40.8305 30.7146 41.6657 32.7024 41.3408C31.9384 41.3408 32.1912 41.3998 31.2193 40.3792C29.1959 38.2519 27.5302 35.2482 27.0059 32.3334C26.7128 30.707 26.7034 29.4889 26.6875 27.7183L26.6557 29.0291C25.3945 28.8334 22.4731 27.4224 21.3421 26.6883C17.3 24.0732 16.5341 20.5189 17.7438 16.0143C18.1548 14.59 18.6938 13.2058 19.3543 11.8786C19.5415 11.5228 19.8552 10.9423 19.9666 10.6099C19.5069 10.9488 18.3262 12.4703 17.917 13.0171C16.5608 14.8315 15.5166 16.8593 14.8272 19.0171C14.2363 20.8897 14.2186 22.4815 14.123 22.8288H14.1259Z" fill="#00ADEE"/>
<path fill-rule="evenodd" clip-rule="evenodd" d="M26.6847 27.7172C26.7006 29.4878 26.71 30.7059 27.0031 32.3323C27.5293 35.2471 29.195 38.2508 31.2165 40.3781C32.1884 41.3987 31.9356 41.3406 32.6996 41.3397L33.8607 41.3229L33.1799 40.585C32.6818 40.1347 31.6706 38.7545 31.3157 38.1628C26.5471 30.2209 32.1116 22.0581 29.1903 13.135C28.7783 11.8794 27.9843 10.4402 27.2006 9.37003C26.9853 9.07696 26.7868 8.86535 26.577 8.58258C26.4394 8.39532 25.3458 7.15001 25.1725 7.13316C25.0789 7.12473 24.8102 7.27174 24.6978 7.32885L24.1885 7.60975L24.9637 8.38221C25.2306 8.63875 25.4755 8.91718 25.696 9.2146C27.2587 11.3007 27.9562 13.5638 27.8617 16.3915C27.7961 18.3578 27.5658 20.1311 27.2858 22.0328C27.033 23.7453 26.6744 25.9728 26.6875 27.7172H26.6847Z" fill="#231F20"/>
<path fill-rule="evenodd" clip-rule="evenodd" d="M38.4537 17.8651C38.3273 15.4307 38.3647 14.4213 37.6494 12.147C36.9003 9.77064 35.6073 7.82309 33.9715 6.08435C33.803 5.90458 33.5755 5.72012 33.4575 5.516V5.49072H33.1869L31.9229 5.52911C32.0024 5.67611 32.4622 6.06562 32.6232 6.22012C37.258 10.6723 35.8404 17.293 35.6194 23.1544C35.4069 28.8847 36.3994 32.8209 39.6213 37.0213L41.6456 39.1982C41.9714 38.9866 42.3328 38.8059 42.6194 38.5877C42.4969 38.4512 42.3652 38.3232 42.2252 38.2048C42.0697 38.0578 41.9948 37.9473 41.8329 37.7937C41.492 37.4698 40.6522 36.3893 40.3919 36.0044C37.1204 31.1768 37.8863 26.4942 38.2964 20.9859C38.3732 19.9606 38.3666 18.882 38.4537 17.867V17.8651Z" fill="#231F20"/>
<path fill-rule="evenodd" clip-rule="evenodd" d="M22.1495 50.4119C22.2666 52.9465 22.7909 53.381 25.1804 53.3875C26.1794 53.3875 25.7272 52.6254 25.7057 52.6029C25.4781 52.366 24.7178 52.5093 24.3311 52.4671C23.3461 52.3557 23.3237 51.1834 23.3536 50.4072C24.2029 50.3482 24.907 50.161 25.2394 49.6067C25.7075 48.8314 25.4266 48.2228 25.1626 47.4765L31.2084 47.4616L31.2018 48.5758C30.1653 48.616 30.259 48.9335 29.7702 49.1376C29.0212 48.3127 27.009 48.0318 26.157 49.367C25.3339 50.6563 26.1167 52.1628 27.2693 52.9053C27.6438 53.1431 28.8442 53.9297 29.0024 53.0645C29.0961 52.5776 28.7946 52.4587 28.4725 52.3098C26.2937 51.3117 26.9219 49.4831 28.1045 49.5009C28.5549 49.5093 28.8405 49.6881 29.1419 49.8333C29.0296 50.2228 28.6307 50.395 28.7468 50.9774C28.8208 51.3463 29.2346 51.6619 29.6354 51.2761C30.0839 50.8435 30.1972 49.8595 31.2056 49.6891V52.4334C30.758 52.4334 30.2206 52.5917 30.5127 53.1375C30.685 53.4587 31.347 53.3688 31.787 53.3688C32.1915 53.3688 32.8928 53.4624 33.0904 53.1703C33.1475 53.0791 33.1739 52.972 33.1658 52.8647C33.1577 52.7574 33.1156 52.6555 33.0455 52.5739C32.8928 52.425 32.6709 52.4353 32.4266 52.4325V47.469L36.7336 47.4625C36.7336 47.7883 36.7795 48.1507 36.6803 48.4391C36.3488 48.632 35.2683 48.4821 34.7795 48.5561C33.1981 48.793 32.7618 51.0757 34.2093 52.4287C35.9668 54.071 39.257 52.6263 38.7355 51.4868C38.581 51.1488 38.3226 51.1816 37.9302 51.2153C37.861 51.2508 37.2561 52.4325 35.8572 52.1937C34.1606 51.9044 34.2655 49.7012 35.1335 49.4569C35.9387 49.2303 37.684 49.7771 37.8488 49.0617C37.9143 48.7808 37.8722 47.8127 37.8712 47.47L44.6193 47.4822V48.5936C43.7513 48.5879 43.683 48.8595 43.1952 49.1554C42.5997 48.719 42.1811 48.4306 41.2766 48.4541C40.9337 48.4566 40.5967 48.5433 40.2952 48.7065C39.9936 48.8698 39.7368 49.1046 39.5473 49.3904C38.7149 50.6834 39.5304 52.2171 40.7102 52.9484C40.9795 53.1271 41.2629 53.2837 41.5575 53.4165C41.9826 53.5795 42.3796 53.4062 42.4087 52.9905C42.4564 52.3042 41.8272 52.5224 40.9695 51.7349C39.9677 50.808 40.4358 49.4653 41.5819 49.5149C41.8403 49.5261 42.2439 49.6404 42.4386 49.8005L42.5425 49.9025C42.36 50.2125 42.0416 50.4868 42.1418 51.0018C42.1585 51.0949 42.199 51.1821 42.2594 51.255C42.3198 51.3278 42.398 51.3838 42.4864 51.4175C43.3618 51.763 43.2804 49.9269 44.6156 49.6909L44.6221 52.44C44.1708 52.44 43.6708 52.5739 43.918 53.1151C44.0922 53.4961 44.8 53.3735 45.2139 53.3735C45.5697 53.3735 46.3318 53.4774 46.5247 53.1787C46.5753 53.0852 46.5975 52.9789 46.5885 52.873C46.5795 52.767 46.5398 52.666 46.4741 52.5823C46.3 52.4035 46.0996 52.4643 45.8384 52.4128L45.8449 47.4906C46.182 47.4194 46.7663 47.5346 47.0416 47.4353C47.3431 47.3258 47.4526 46.8604 47.167 46.6348C46.9217 46.4419 45.1961 46.5412 44.7626 46.5412L21.8967 46.573C21.5737 46.573 20.9435 46.5056 20.76 46.6947C20.7016 46.7576 20.6615 46.8353 20.6443 46.9194C20.6271 47.0035 20.6333 47.0908 20.6623 47.1716C20.6913 47.2524 20.7419 47.3236 20.8087 47.3776C20.8755 47.4316 20.9558 47.4661 21.0409 47.4775C21.7282 47.5505 22.834 47.4719 23.569 47.4775C23.9192 47.4775 24.0699 47.6282 24.2422 48.0674C24.3116 48.233 24.3355 48.4141 24.3115 48.592C24.2874 48.77 24.2163 48.9383 24.1055 49.0795C23.8826 49.3501 23.6373 49.3848 23.1635 49.3979C22.1074 49.4269 21.1711 49.1788 21.2591 49.9915C21.3106 50.4681 21.6963 50.3997 22.1523 50.4138L22.1495 50.4119Z" fill="#282724"/>
<path fill-rule="evenodd" clip-rule="evenodd" d="M21.2906 56.3633C22.0219 56.3558 22.8964 56.2809 22.8571 57.1189C22.8196 57.9232 22.0238 57.8062 21.2916 57.8305V56.3633H21.2906ZM21.3009 58.8193C21.405 58.9205 21.499 59.0315 21.5818 59.1507L22.3786 60.1713C22.682 60.5271 23.1277 61.2846 23.6249 61.3501C23.9994 61.3988 24.8121 61.0234 24.0462 60.0206C23.8973 59.8249 23.0443 58.8193 22.8824 58.72C22.9844 58.603 22.8711 58.7003 22.99 58.6264C23.0255 58.6029 23.0644 58.5849 23.1052 58.573C23.3318 58.4878 23.4516 58.4981 23.7148 58.279C23.9482 58.097 24.1246 57.8521 24.2232 57.573C24.3342 57.2294 24.3495 56.8619 24.2672 56.5103C24.0331 55.5019 23.0921 55.0646 21.9994 55.0496C21.3299 55.0403 20.1989 54.8699 19.961 55.4841C19.8094 55.8736 19.8674 59.6395 19.8787 60.3529C19.9058 61.7668 20.9386 61.367 21.108 61.1263C21.4105 60.6966 21.2644 59.4325 21.3009 58.8202V58.8193Z" fill="#231F20"/>
<path fill-rule="evenodd" clip-rule="evenodd" d="M26.4905 58.781C26.5495 58.4842 27.1347 56.6743 27.2657 56.5123L27.9549 58.7866L26.4905 58.781ZM26.0869 60.1125L28.3575 60.0975C28.5401 60.472 28.5054 60.8325 28.7854 61.1331C28.852 61.2056 28.9333 61.263 29.0239 61.3017C29.1144 61.3403 29.2122 61.3591 29.3106 61.357C29.409 61.3549 29.5059 61.3318 29.5947 61.2893C29.6835 61.2468 29.7622 61.1859 29.8256 61.1106C30.1946 60.6696 29.5513 59.3316 29.3809 58.8222C29.1271 58.0666 28.8659 57.3578 28.614 56.6116C28.3622 55.8653 28.1993 54.9122 27.2976 54.899C26.4109 54.8869 26.2077 55.782 25.9465 56.5264C25.6852 57.2707 25.41 57.9917 25.1412 58.7483C24.954 59.2735 24.3276 60.5816 24.63 61.0497C24.8173 61.3437 25.306 61.5179 25.63 61.1574C25.895 60.8634 25.8987 60.4645 26.0869 60.1125Z" fill="#231F20"/>
<path fill-rule="evenodd" clip-rule="evenodd" d="M42.1867 59.9361V58.6346C42.8328 58.6346 44.2045 58.8312 44.2054 57.9792C44.2064 57.1271 42.888 57.3238 42.1867 57.3238V56.3622C42.8421 56.3622 44.0743 56.5073 44.3093 55.9567C44.4704 55.5822 44.2747 55.2667 43.9592 55.144C43.624 55.0148 43.1371 55.0504 42.7419 55.0504C40.4555 55.0504 40.7757 54.9165 40.7757 58.1786C40.7757 58.8088 40.7045 60.129 40.8038 60.6786C40.8768 61.0803 41.051 61.1992 41.4863 61.2451C41.8712 61.2844 42.3936 61.2554 42.7972 61.2554C43.4667 61.2554 44.7157 61.3144 44.3618 60.349C44.1436 59.7535 42.8777 59.981 42.1923 59.9361H42.1867Z" fill="#231F20"/>
<path fill-rule="evenodd" clip-rule="evenodd" d="M37.4895 56.3638C37.5007 57.081 37.4549 60.1166 37.5045 60.595C37.5513 61.0454 37.7264 61.3553 38.1992 61.3572C39.1356 61.3572 38.9043 59.9621 38.9043 59.2392C38.9043 58.2833 38.8949 57.3207 38.9043 56.3647C39.2741 56.3601 39.747 56.3919 40.0597 56.2599C40.1366 56.2265 40.2057 56.1775 40.2627 56.116C40.3197 56.0545 40.3632 55.9818 40.3906 55.9026C40.418 55.8233 40.4286 55.7393 40.4218 55.6557C40.4149 55.5721 40.3908 55.4909 40.3509 55.4172C40.0644 54.8554 38.8425 55.0427 38.1974 55.0427C37.5831 55.0427 36.2901 54.8891 36.0392 55.4097C36.0005 55.4838 35.9774 55.5651 35.9713 55.6485C35.9653 55.7319 35.9764 55.8157 36.0039 55.8946C36.0315 55.9736 36.0749 56.0461 36.1315 56.1076C36.1881 56.1691 36.2568 56.2184 36.3332 56.2524C36.645 56.3797 37.1225 56.3526 37.4886 56.3554L37.4895 56.3638Z" fill="#231F20"/>
<path fill-rule="evenodd" clip-rule="evenodd" d="M34.5159 59.9355C34.5346 59.1125 34.6516 55.5975 34.3286 55.1368C34.146 54.8765 33.1376 54.5067 33.1039 55.9065C33.0889 56.5619 33.0533 60.4729 33.1704 60.839C33.3689 61.457 34.6273 61.2557 35.2734 61.2566C35.6479 61.2566 36.0496 61.2828 36.3735 61.1489C36.4513 61.1184 36.5216 61.0716 36.5798 61.0116C36.638 60.9516 36.6826 60.8798 36.7107 60.8012C36.7389 60.7225 36.7498 60.6387 36.7428 60.5554C36.7359 60.4722 36.7111 60.3913 36.6703 60.3184C36.3735 59.7351 35.1722 59.9823 34.5168 59.9355H34.5159Z" fill="#231F20"/>
<path fill-rule="evenodd" clip-rule="evenodd" d="M46.5765 59.9441C46.5877 59.1239 46.5765 58.2943 46.5765 57.4732C46.5765 56.8767 46.6776 55.5462 46.3892 55.1371C46.1935 54.8562 45.1908 54.5303 45.1636 55.9067C45.1505 56.535 45.1168 60.5106 45.2282 60.8383C45.4389 61.461 46.6861 61.2559 47.334 61.2568C47.7085 61.2568 48.1055 61.2868 48.4388 61.1538C48.5161 61.1208 48.5856 61.0721 48.6429 61.0107C48.7003 60.9494 48.7443 60.8768 48.7721 60.7976C48.7999 60.7183 48.811 60.6342 48.8046 60.5504C48.7981 60.4667 48.7743 60.3852 48.7347 60.3112C48.4885 59.7971 47.1776 59.9451 46.5765 59.9441Z" fill="#231F20"/>
<path fill-rule="evenodd" clip-rule="evenodd" d="M31.0306 54.9379C30.4613 55.112 30.5278 55.7506 30.5278 56.4135V60.3526C30.5428 60.9593 30.745 61.5155 31.451 61.3273C31.7197 61.2552 31.8255 61.0829 31.8911 60.8039C31.9791 60.4415 31.9538 56.4968 31.9397 55.9069C31.9248 55.2983 31.7178 54.7281 31.0306 54.9379Z" fill="#231F20"/>
<path fill-rule="evenodd" clip-rule="evenodd" d="M36.8012 46.1954H37.7113C37.555 45.0147 36.1112 42.9745 35.1196 43.0213C34.7001 43.0419 34.1215 43.6842 35.1627 44.1589C35.3261 44.2423 35.481 44.3414 35.6252 44.4548C35.9015 44.6636 36.1486 44.9082 36.3602 45.1823C36.6776 45.6102 36.6046 45.8022 36.8012 46.1973V46.1954Z" fill="#282724"/>
<path fill-rule="evenodd" clip-rule="evenodd" d="M23.7203 46.2111L24.6566 46.2186C24.4197 44.9817 23.078 42.977 22.048 43.0426C21.6454 43.0688 21.3702 43.5257 21.6501 43.8853C21.7615 44.0285 22.358 44.3263 22.5424 44.4592C23.1042 44.8684 23.5593 45.33 23.7156 46.2111H23.7203Z" fill="#282626"/>
<path d="M21.1283 65.2133H20.6789L20.4991 64.7452H19.6789L19.5094 65.2133H19.0703L19.869 63.1618H20.3044L21.1255 65.2133H21.1283ZM20.3662 64.4015L20.0853 63.6412L19.8044 64.4015H20.3662ZM22.9879 64.4596V64.1131H23.8802V64.9305C23.7708 65.0279 23.6436 65.1033 23.5057 65.1525C23.3462 65.2143 23.1767 65.246 23.0057 65.2461C22.8099 65.2507 22.6163 65.2042 22.4439 65.1113C22.2865 65.0242 22.1604 64.8899 22.0834 64.7274C22.0028 64.5564 21.9619 64.3695 21.9635 64.1806C21.96 63.9826 22.006 63.7869 22.0974 63.6113C22.1862 63.4466 22.3235 63.3132 22.4907 63.2293C22.6437 63.1563 22.812 63.1213 22.9813 63.1272C23.1922 63.1147 23.4015 63.1709 23.5778 63.2873C23.7237 63.3944 23.8239 63.5525 23.8586 63.7302L23.4476 63.807C23.4216 63.7111 23.3638 63.627 23.2837 63.5682C23.1962 63.5077 23.0914 63.4771 22.9851 63.4811C22.9051 63.4775 22.8254 63.491 22.7511 63.5207C22.6768 63.5504 22.6097 63.5957 22.5544 63.6534C22.4375 63.7967 22.3802 63.9794 22.3942 64.1637C22.3942 64.4071 22.4476 64.5897 22.5562 64.7114C22.6087 64.7723 22.6741 64.8206 22.7477 64.853C22.8212 64.8854 22.901 64.901 22.9813 64.8987C23.0709 64.8983 23.1595 64.8808 23.2425 64.8472C23.3229 64.8174 23.3983 64.7757 23.4663 64.7236V64.4596H22.9879ZM24.1686 64.4493C24.168 64.3171 24.2002 64.1868 24.2622 64.0701C24.3232 63.9512 24.4185 63.8534 24.5356 63.7892C24.6574 63.7253 24.7933 63.6931 24.9307 63.6955C25.033 63.6919 25.1348 63.7095 25.2299 63.7473C25.325 63.785 25.4112 63.842 25.4832 63.9146C25.5546 63.9875 25.6105 64.0741 25.6475 64.1693C25.6846 64.2644 25.7019 64.366 25.6985 64.468C25.7022 64.5715 25.6849 64.6746 25.6475 64.7712C25.6102 64.8677 25.5536 64.9557 25.4813 65.0298C25.4102 65.1025 25.3249 65.1597 25.2306 65.1977C25.1363 65.2358 25.0352 65.2538 24.9335 65.2508C24.7981 65.2507 24.6647 65.2186 24.544 65.1571C24.4244 65.0986 24.3261 65.0039 24.2631 64.8865C24.196 64.7519 24.1638 64.6025 24.1695 64.4521L24.1686 64.4493ZM24.5712 64.4699C24.5632 64.5919 24.6005 64.7126 24.6761 64.8088C24.7081 64.8461 24.7479 64.8759 24.7927 64.8961C24.8376 64.9164 24.8863 64.9265 24.9354 64.9259C24.9843 64.9265 25.0327 64.9163 25.0772 64.8961C25.1217 64.8759 25.1612 64.8461 25.1929 64.8088C25.2691 64.7119 25.3065 64.5901 25.2978 64.4671C25.306 64.3461 25.2686 64.2265 25.1929 64.1319C25.1622 64.0941 25.1235 64.0636 25.0797 64.0426C25.0358 64.0215 24.9878 64.0104 24.9392 64.0101C24.8899 64.0094 24.8411 64.0196 24.7962 64.04C24.7514 64.0604 24.7116 64.0905 24.6798 64.1281C24.6043 64.2239 24.5669 64.3444 24.5749 64.4661L24.5712 64.4699ZM26.4176 65.2133L25.823 63.7292H26.235L26.5159 64.4877L26.5974 64.7405C26.6189 64.6768 26.633 64.6337 26.6376 64.6131L26.6798 64.4877L26.9607 63.7292H27.3652L26.7743 65.2152L26.4176 65.2133ZM28.4625 64.7405L28.8548 64.806C28.8126 64.9381 28.7289 65.053 28.6161 65.1337C28.4954 65.2127 28.3529 65.252 28.2088 65.2461C27.9504 65.2461 27.7594 65.1628 27.6348 64.9933C27.5326 64.8429 27.4811 64.6638 27.4878 64.482C27.4753 64.2711 27.5447 64.0634 27.6816 63.9025C27.743 63.8345 27.8184 63.7806 27.9027 63.7446C27.9869 63.7085 28.0779 63.6912 28.1695 63.6937C28.2675 63.689 28.3654 63.7062 28.4559 63.7441C28.5464 63.782 28.6274 63.8396 28.6929 63.9128C28.8177 64.0588 28.8801 64.2826 28.8801 64.5841H27.8951C27.8912 64.6832 27.9246 64.7801 27.9888 64.8556C28.0178 64.8863 28.053 64.9106 28.092 64.9267C28.1311 64.9428 28.1731 64.9505 28.2153 64.9493C28.2715 64.9511 28.3264 64.9332 28.3708 64.8987C28.4183 64.856 28.4511 64.7993 28.4644 64.7367L28.4625 64.7405ZM28.4859 64.3435C28.4892 64.2489 28.4579 64.1564 28.3979 64.0832C28.3719 64.0549 28.3402 64.0324 28.3048 64.0172C28.2695 64.002 28.2313 63.9945 28.1929 63.9952C28.1529 63.994 28.1131 64.0018 28.0765 64.018C28.0399 64.0342 28.0073 64.0584 27.9813 64.0888C27.9218 64.1598 27.892 64.251 27.8979 64.3435H28.4859ZM29.5739 65.2133H29.1807V63.7292H29.5458V63.9409C29.5877 63.864 29.6451 63.7967 29.7144 63.7433C29.7652 63.7116 29.824 63.695 29.8839 63.6955C29.9755 63.6963 30.0653 63.7222 30.1432 63.7704L30.0206 64.1122C29.9657 64.0732 29.9006 64.0511 29.8333 64.0485C29.7827 64.047 29.7331 64.0629 29.6929 64.0935C29.6452 64.1373 29.6125 64.1949 29.5992 64.2583C29.573 64.4239 29.5646 64.5918 29.5739 64.7592V65.218V65.2133ZM31.6638 65.2133H31.2705V64.4549C31.276 64.3503 31.2675 64.2454 31.2453 64.1431C31.2301 64.0988 31.2013 64.0604 31.1629 64.0336C31.1228 64.0068 31.0753 63.9934 31.0271 63.9952C30.9604 63.9933 30.8948 64.0126 30.8398 64.0504C30.7902 64.0871 30.7535 64.1385 30.735 64.1974C30.7101 64.3095 30.7 64.4244 30.705 64.5392V65.2124H30.3118V63.7292H30.6769V63.9474C30.7573 63.8362 30.8729 63.7555 31.005 63.7183C31.1371 63.681 31.2778 63.6895 31.4044 63.7424C31.4682 63.7676 31.5243 63.8089 31.5674 63.8622C31.6047 63.911 31.6312 63.9672 31.6451 64.027C31.6616 64.1143 31.6688 64.2031 31.6666 64.292V65.2152L31.6638 65.2133ZM32.0355 63.7292H32.3979V63.9315C32.4521 63.8584 32.5227 63.799 32.604 63.7581C32.6853 63.7171 32.775 63.6957 32.866 63.6955C32.9521 63.6935 33.0373 63.7138 33.1132 63.7545C33.1859 63.7965 33.2455 63.8577 33.2855 63.9315C33.3434 63.8592 33.415 63.7991 33.4962 63.7545C33.571 63.7154 33.6543 63.6952 33.7387 63.6955C33.8366 63.6921 33.9336 63.715 34.0196 63.762C34.0957 63.8066 34.1549 63.8751 34.1881 63.9568C34.2208 64.056 34.2348 64.1605 34.2293 64.2648V65.2152H33.8361V64.3659C33.8441 64.2705 33.8304 64.1744 33.7958 64.085C33.7776 64.0577 33.7526 64.0356 33.7232 64.0209C33.6937 64.0063 33.661 63.9997 33.6282 64.0017C33.5722 64.0014 33.5175 64.0188 33.4718 64.0513C33.422 64.0882 33.3853 64.1401 33.367 64.1993C33.3419 64.2996 33.3312 64.403 33.3351 64.5064V65.2199H32.9419V64.4053C32.9467 64.3111 32.9398 64.2168 32.9213 64.1244C32.9104 64.087 32.8878 64.0541 32.8567 64.0307C32.8205 64.0092 32.7788 63.9988 32.7368 64.0008C32.6785 63.9999 32.6213 64.0169 32.573 64.0495C32.5233 64.0836 32.4864 64.1334 32.4681 64.1909C32.443 64.2909 32.4326 64.394 32.4372 64.497V65.2189H32.0439V63.7292H32.0355ZM35.4727 64.7405L35.8651 64.806C35.8225 64.9379 35.7388 65.0528 35.6263 65.1337C35.5052 65.2127 35.3625 65.252 35.2181 65.2461C34.9596 65.2461 34.7686 65.1628 34.645 64.9933C34.5418 64.8433 34.4899 64.664 34.4971 64.482C34.4845 64.2711 34.554 64.0634 34.6909 63.9025C34.7523 63.8345 34.8277 63.7806 34.9119 63.7446C34.9962 63.7085 35.0872 63.6912 35.1787 63.6937C35.2768 63.6886 35.3748 63.7057 35.4654 63.7436C35.556 63.7816 35.6369 63.8394 35.7021 63.9128C35.827 64.0588 35.8894 64.2826 35.8894 64.5841H34.9007C34.8972 64.6831 34.9305 64.7799 34.9943 64.8556C35.0235 64.8864 35.0588 64.9107 35.098 64.9268C35.1372 64.9429 35.1794 64.9506 35.2218 64.9493C35.2779 64.9509 35.3328 64.933 35.3772 64.8987C35.4242 64.8555 35.4568 64.799 35.4709 64.7367L35.4727 64.7405ZM35.4952 64.3435C35.4994 64.2488 35.468 64.1559 35.4072 64.0832C35.3805 64.0544 35.348 64.0316 35.3119 64.0161C35.2758 64.0007 35.2369 63.993 35.1976 63.9935C35.1584 63.994 35.1197 64.0028 35.084 64.0192C35.0483 64.0356 35.0165 64.0593 34.9905 64.0888C34.9314 64.16 34.9016 64.2511 34.9072 64.3435H35.4952ZM37.5551 65.2133H37.1628V64.4549C37.1683 64.3503 37.1598 64.2454 37.1375 64.1431C37.122 64.099 37.0932 64.0607 37.0551 64.0336C37.015 64.0069 36.9675 63.9935 36.9194 63.9952C36.8526 63.9931 36.787 64.0124 36.7321 64.0504C36.6793 64.0857 36.64 64.1379 36.6207 64.1983C36.5953 64.3104 36.5852 64.4253 36.5907 64.5401V65.2133H36.1975V63.7292H36.5626V63.9474C36.643 63.8362 36.7586 63.7555 36.8907 63.7183C37.0228 63.681 37.1635 63.6895 37.2901 63.7424C37.3539 63.7676 37.41 63.8089 37.4531 63.8622C37.4897 63.9113 37.5159 63.9674 37.5298 64.027C37.5468 64.1143 37.554 64.2031 37.5514 64.292V65.2152L37.5551 65.2133ZM38.6366 63.7292V64.0429H38.3688V64.6412C38.3657 64.7118 38.3679 64.7826 38.3753 64.8528C38.3806 64.873 38.3929 64.8906 38.41 64.9025C38.4297 64.9155 38.4528 64.9223 38.4765 64.9221C38.5309 64.9178 38.5843 64.9049 38.6347 64.8837L38.6684 65.189C38.5698 65.2293 38.464 65.2491 38.3575 65.247C38.2934 65.2478 38.2297 65.2357 38.1703 65.2114C38.1204 65.1928 38.0769 65.1603 38.0448 65.1178C38.0148 65.0716 37.9958 65.019 37.9896 64.9643C37.9786 64.871 37.9746 64.7772 37.9774 64.6834V64.0364H37.7967V63.7292H37.9774V63.4343L38.3716 63.2049V63.7292H38.6366ZM39.615 64.4512C39.6149 64.319 39.647 64.1888 39.7087 64.0719C39.7697 63.9531 39.8649 63.8553 39.9821 63.791C40.1041 63.7271 40.2403 63.6949 40.3781 63.6974C40.4803 63.694 40.5821 63.7117 40.6772 63.7494C40.7722 63.7871 40.8585 63.844 40.9306 63.9165C41.0017 63.9896 41.0574 64.0762 41.0942 64.1713C41.1311 64.2664 41.1483 64.368 41.145 64.4699C41.1486 64.5733 41.1313 64.6763 41.0941 64.7728C41.0569 64.8694 41.0007 64.9574 40.9287 65.0317C40.8574 65.1044 40.7719 65.1615 40.6775 65.1995C40.583 65.2376 40.4818 65.2557 40.38 65.2526C40.2449 65.2525 40.1117 65.2205 39.9914 65.159C39.8716 65.1006 39.7733 65.0059 39.7105 64.8884C39.6438 64.7536 39.6116 64.6043 39.6169 64.454L39.615 64.4512ZM40.0176 64.4717C40.009 64.594 40.0468 64.7151 40.1234 64.8107C40.1556 64.8475 40.1953 64.877 40.2398 64.8971C40.2842 64.9173 40.3325 64.9278 40.3814 64.9278C40.4303 64.9278 40.4786 64.9173 40.523 64.8971C40.5675 64.877 40.6072 64.8475 40.6394 64.8107C40.7156 64.7138 40.7529 64.5919 40.7442 64.4689C40.7525 64.348 40.715 64.2284 40.6394 64.1337C40.6074 64.0967 40.5678 64.067 40.5232 64.0466C40.4787 64.0262 40.4304 64.0157 40.3814 64.0157C40.3324 64.0157 40.2841 64.0262 40.2396 64.0466C40.195 64.067 40.1554 64.0967 40.1234 64.1337C40.0468 64.229 40.009 64.3498 40.0176 64.4717ZM41.2835 63.7292H41.5017V63.6178C41.4971 63.5225 41.5108 63.4271 41.542 63.3369C41.5724 63.2714 41.6242 63.2182 41.689 63.1862C41.7729 63.1446 41.8659 63.1246 41.9596 63.1281C42.0711 63.1281 42.1819 63.1451 42.2882 63.1787L42.2348 63.453C42.1761 63.438 42.1157 63.4304 42.0551 63.4306C42.033 63.4284 42.0108 63.4307 41.9897 63.4375C41.9686 63.4443 41.9491 63.4553 41.9324 63.4699C41.9025 63.5151 41.8895 63.5696 41.8959 63.6234V63.7292H42.189V64.0382H41.8959V65.2152H41.5017V64.0364H41.2835V63.7292ZM43.1964 65.2152V63.1618H43.6103V65.2133L43.1964 65.2152ZM45.35 65.2152H44.9567V64.4568C44.9622 64.3522 44.9537 64.2473 44.9314 64.145C44.9163 64.1006 44.8874 64.0623 44.8491 64.0354C44.809 64.0087 44.7614 63.9953 44.7133 63.997C44.6466 63.9951 44.581 64.0145 44.526 64.0523C44.4738 64.0882 44.4346 64.1401 44.4146 64.2002C44.3897 64.3123 44.3796 64.4272 44.3846 64.542V65.2152H43.9923V63.7292H44.3678V63.9474C44.4482 63.8362 44.5638 63.7555 44.6959 63.7183C44.8279 63.681 44.9687 63.6895 45.0953 63.7424C45.159 63.7676 45.2151 63.8089 45.2582 63.8622C45.2956 63.911 45.3221 63.9672 45.3359 64.027C45.3524 64.1143 45.3596 64.2031 45.3575 64.292V65.2152H45.35ZM47.1112 65.2152H46.746V64.997C46.6908 65.0759 46.6172 65.1402 46.5316 65.1843C46.4542 65.224 46.3686 65.2451 46.2816 65.2461C46.1977 65.2467 46.1147 65.2286 46.0387 65.1929C45.9627 65.1573 45.8956 65.1051 45.8425 65.0401C45.7111 64.8782 45.6444 64.6734 45.6552 64.4652C45.6552 64.2124 45.7151 64.0214 45.8331 63.8903C45.8891 63.8266 45.9584 63.7761 46.036 63.7421C46.1137 63.7081 46.1978 63.6916 46.2826 63.6937C46.3651 63.6944 46.4466 63.7133 46.521 63.7491C46.5954 63.7848 46.6611 63.8366 46.7133 63.9006V63.1618H47.1065V65.2133L47.1112 65.2152ZM46.0616 64.4399C46.0532 64.5586 46.0762 64.6774 46.1281 64.7845C46.154 64.8318 46.1924 64.8711 46.2391 64.8982C46.2858 64.9253 46.3391 64.939 46.393 64.938C46.4378 64.9378 46.482 64.9273 46.522 64.9073C46.5621 64.8873 46.5971 64.8585 46.6243 64.8229C46.6939 64.7221 46.727 64.6005 46.7179 64.4783C46.7286 64.3483 46.6957 64.2185 46.6243 64.1094C46.5963 64.0736 46.5602 64.0448 46.5191 64.0252C46.478 64.0057 46.4329 63.9961 46.3874 63.997C46.3426 63.9966 46.2982 64.0063 46.2577 64.0254C46.2172 64.0446 46.1815 64.0726 46.1533 64.1075C46.0839 64.2038 46.0507 64.3215 46.0597 64.4399H46.0616ZM47.4988 63.5279V63.1637H47.8921V63.5279H47.4988ZM47.4988 65.2133V63.7292H47.8921V65.2152L47.4988 65.2133ZM48.5887 64.1834L48.231 64.1188C48.261 63.9918 48.3341 63.8793 48.438 63.8004C48.5698 63.7223 48.7223 63.6861 48.8752 63.6965C49.0087 63.689 49.1422 63.7104 49.2666 63.7592C49.3435 63.7907 49.4084 63.8458 49.452 63.9165C49.4952 64.0283 49.5131 64.1482 49.5044 64.2676L49.4997 64.7274C49.4972 64.8239 49.5037 64.9205 49.5194 65.0158C49.5342 65.085 49.5578 65.152 49.5896 65.2152H49.2001C49.1898 65.189 49.1777 65.1496 49.1627 65.0991C49.1561 65.0757 49.1514 65.0598 49.1486 65.0523C49.0864 65.1142 49.0134 65.1643 48.9333 65.2002C48.8558 65.2323 48.7727 65.2485 48.6889 65.248C48.5566 65.2554 48.4267 65.2111 48.3265 65.1244C48.2834 65.0841 48.2493 65.0352 48.2266 64.9808C48.2038 64.9264 48.1929 64.8678 48.1945 64.8088C48.1934 64.73 48.2145 64.6524 48.2554 64.585C48.2949 64.5192 48.3533 64.4667 48.423 64.4343C48.5232 64.3901 48.6286 64.3587 48.7366 64.3407C48.8662 64.3206 48.9937 64.2893 49.1177 64.247V64.2068C49.1207 64.1775 49.1171 64.1479 49.1074 64.12C49.0977 64.0922 49.0821 64.0669 49.0615 64.0457C48.9986 64.0069 48.9245 63.9901 48.8509 63.998C48.7933 63.9946 48.7361 64.0089 48.687 64.0392C48.6415 64.0763 48.6088 64.1267 48.5934 64.1834H48.5887ZM49.114 64.5026C49.0634 64.5195 48.9838 64.5392 48.8752 64.5626C48.8006 64.574 48.7283 64.5971 48.6608 64.6309C48.6373 64.6456 48.6179 64.666 48.6044 64.6903C48.591 64.7145 48.584 64.7418 48.584 64.7695C48.5838 64.7961 48.5891 64.8225 48.5996 64.847C48.61 64.8715 48.6255 64.8936 48.6449 64.9118C48.6657 64.9319 48.6904 64.9477 48.7174 64.9581C48.7444 64.9686 48.7732 64.9735 48.8022 64.9727C48.8757 64.9718 48.947 64.9472 49.0054 64.9025C49.0505 64.871 49.0835 64.8251 49.099 64.7723C49.1115 64.7107 49.1166 64.6478 49.114 64.585V64.5064V64.5026ZM26.2229 66.3659H26.6367V67.4745C26.6334 67.589 26.6387 67.7035 26.6526 67.8172C26.6679 67.8981 26.713 67.9703 26.779 68.0195C26.8594 68.074 26.9554 68.1007 27.0524 68.0953C27.1466 68.1022 27.2402 68.0771 27.3183 68.0241C27.376 67.9817 27.4157 67.9193 27.4298 67.8491C27.4444 67.7336 27.4504 67.6171 27.4476 67.5007V66.3631H27.8623V67.4399C27.8676 67.6147 27.8564 67.7897 27.8286 67.9624C27.8086 68.0587 27.7649 68.1485 27.7013 68.2236C27.6348 68.2971 27.5521 68.3542 27.4597 68.3902C27.3332 68.4358 27.199 68.4568 27.0646 68.452C26.9133 68.4598 26.762 68.4368 26.6199 68.3846C26.5272 68.3456 26.4451 68.2853 26.3802 68.2086C26.3245 68.1427 26.2848 68.0648 26.2641 67.9811C26.232 67.8095 26.2182 67.635 26.2229 67.4605V66.3631V66.3659ZM29.647 68.4108H29.2537V67.6524C29.2593 67.5481 29.2508 67.4436 29.2284 67.3416C29.2133 67.2972 29.1849 67.2586 29.147 67.2311C29.1067 67.2056 29.0598 67.1925 29.0121 67.1936C28.947 67.1923 28.8831 67.2117 28.8296 67.2489C28.7766 67.2844 28.7373 67.3369 28.7181 67.3977C28.6927 67.5095 28.6826 67.6241 28.6882 67.7386V68.4108H28.2949V66.9287H28.6592V67.1468C28.74 67.0359 28.8557 66.9554 28.9878 66.918C29.1199 66.8807 29.2607 66.8887 29.3876 66.9408C29.4511 66.9666 29.5071 67.0078 29.5505 67.0607C29.5876 67.1099 29.6138 67.1663 29.6273 67.2264C29.6442 67.3133 29.6515 67.4019 29.6488 67.4904V68.4108H29.647ZM31.4082 68.4108H31.043V68.1955C30.9879 68.2745 30.9143 68.3388 30.8286 68.3828C30.7513 68.4227 30.6656 68.4439 30.5786 68.4446C30.4948 68.4449 30.4119 68.4266 30.3361 68.3908C30.2602 68.355 30.1934 68.3026 30.1404 68.2376C30.0084 68.0761 29.9416 67.871 29.9531 67.6627C29.9531 67.4109 30.0121 67.2189 30.1301 67.0888C30.1861 67.0252 30.2554 66.9746 30.333 66.9406C30.4107 66.9067 30.4948 66.8901 30.5795 66.8921C30.6621 66.8928 30.7436 66.9118 30.818 66.9475C30.8924 66.9833 30.9581 67.035 31.0103 67.0991V66.3603H31.4035V68.4108H31.4082ZM30.3586 67.6356C30.3501 67.7543 30.373 67.8731 30.4251 67.9801C30.4512 68.0275 30.4897 68.0669 30.5366 68.094C30.5835 68.121 30.6369 68.1348 30.691 68.1337C30.7357 68.1337 30.7797 68.1232 30.8197 68.1032C30.8597 68.0833 30.8945 68.0543 30.9213 68.0185C30.9914 67.9179 31.0244 67.7962 31.0149 67.674C31.0254 67.544 30.9925 67.4143 30.9213 67.3051C30.893 67.2693 30.8568 67.2405 30.8156 67.221C30.7743 67.2015 30.7291 67.1918 30.6835 67.1927C30.6387 67.1921 30.5943 67.2018 30.5539 67.2211C30.5134 67.2405 30.478 67.2689 30.4503 67.3041C30.3806 67.3999 30.3473 67.5174 30.3567 67.6356H30.3586ZM32.6554 67.9427L33.0477 68.0082C33.0054 68.1406 32.9217 68.2558 32.8089 68.3369C32.688 68.4154 32.5457 68.4546 32.4016 68.4492C32.1432 68.4492 31.9519 68.365 31.8277 68.1964C31.7255 68.0457 31.674 67.8663 31.6807 67.6843C31.6683 67.4736 31.7378 67.2663 31.8745 67.1056C31.9359 67.0376 32.0113 66.9838 32.0955 66.9477C32.1797 66.9117 32.2707 66.8943 32.3623 66.8968C32.4603 66.8917 32.5582 66.9086 32.6488 66.9464C32.7394 66.9841 32.8204 67.0417 32.8857 67.115C33.0105 67.261 33.073 67.4848 33.073 67.7863H32.0842C32.0801 67.8854 32.1135 67.9824 32.1778 68.0579C32.2067 68.0887 32.2419 68.1131 32.281 68.1292C32.3201 68.1454 32.3622 68.153 32.4044 68.1515C32.4604 68.1532 32.5152 68.1357 32.5599 68.1019C32.6072 68.0586 32.64 68.0017 32.6535 67.9389L32.6554 67.9427ZM32.6788 67.5457C32.6822 67.4514 32.6509 67.3591 32.5908 67.2863C32.5644 67.2572 32.5323 67.2339 32.4964 67.218C32.4605 67.2021 32.4217 67.1938 32.3824 67.1938C32.3432 67.1938 32.3043 67.2021 32.2685 67.218C32.2326 67.2339 32.2004 67.2572 32.1741 67.2863C32.1146 67.3574 32.0848 67.4486 32.0908 67.541L32.6788 67.5457ZM33.7658 68.4108H33.3726V66.9287H33.7378V67.1393C33.7802 67.0629 33.8375 66.9957 33.9063 66.9418C33.9572 66.9103 34.016 66.8941 34.0758 66.8949C34.1671 66.8952 34.2565 66.9208 34.3342 66.9689L34.2125 67.3116C34.1578 67.272 34.0926 67.2495 34.0252 67.247C33.9745 67.2453 33.9247 67.2616 33.8848 67.2929C33.8371 67.3363 33.8043 67.3936 33.7911 67.4567C33.7627 67.6212 33.7517 67.7881 33.7583 67.9549V68.4108H33.7658ZM35.1853 66.9258V67.2386H34.9166V67.8378C34.9143 67.9084 34.9168 67.9791 34.9241 68.0494C34.9294 68.0698 34.9421 68.0875 34.9596 68.099C34.9791 68.1126 35.0024 68.1195 35.0261 68.1187C35.0805 68.1144 35.1338 68.1018 35.1844 68.0813L35.2181 68.3856C35.1195 68.4262 35.0138 68.4463 34.9072 68.4446C34.8415 68.4454 34.7763 68.4333 34.7153 68.409C34.6654 68.3908 34.6221 68.3582 34.5907 68.3153C34.5603 68.2692 34.5411 68.2166 34.5346 68.1618C34.5236 68.0686 34.5195 67.9747 34.5224 67.8809V67.233H34.3417V66.9202H34.5224V66.6318L34.9166 66.4024V66.9277L35.1853 66.9258ZM35.7471 67.3781L35.3904 67.3144C35.4195 67.1869 35.4928 67.0738 35.5973 66.9951C35.7292 66.9179 35.8811 66.8821 36.0336 66.8921C36.1673 66.8848 36.301 66.9059 36.4259 66.9539C36.5011 66.9867 36.5642 67.042 36.6066 67.1122C36.6498 67.2242 36.6678 67.3444 36.6591 67.4642V67.923C36.6563 68.0198 36.6626 68.1167 36.6778 68.2123C36.6929 68.2813 36.7168 68.348 36.749 68.4108H36.3594C36.3449 68.3728 36.3324 68.3341 36.322 68.2947C36.3154 68.2713 36.3108 68.2564 36.3079 68.2489C36.2455 68.3103 36.1726 68.3601 36.0926 68.3959C36.015 68.4287 35.9315 68.4452 35.8473 68.4446C35.7151 68.452 35.5853 68.4073 35.4859 68.32C35.4428 68.28 35.4087 68.2312 35.3859 68.177C35.3632 68.1227 35.3522 68.0642 35.3538 68.0054C35.3524 67.9264 35.3731 67.8485 35.4138 67.7807C35.454 67.715 35.5126 67.6626 35.5823 67.63C35.6823 67.5861 35.7874 67.5547 35.895 67.5363C36.025 67.5168 36.1528 67.4855 36.277 67.4427V67.4034C36.28 67.3739 36.2765 67.3442 36.2668 67.3162C36.2571 67.2882 36.2414 67.2627 36.2209 67.2414C36.1578 67.2028 36.0838 67.186 36.0102 67.1936C35.9514 67.1868 35.8921 67.2022 35.8441 67.2369C35.7961 67.2715 35.7628 67.3229 35.7508 67.3809L35.7471 67.3781ZM36.2733 67.6974C36.2227 67.7142 36.1432 67.7339 36.0336 67.7573C35.9595 67.7698 35.8877 67.7928 35.8201 67.8256C35.7968 67.8405 35.7775 67.861 35.7641 67.8852C35.7507 67.9094 35.7436 67.9365 35.7433 67.9642C35.7431 67.991 35.7484 68.0175 35.7588 68.0422C35.7693 68.0668 35.7848 68.0891 35.8042 68.1075C35.8251 68.1275 35.8497 68.1431 35.8768 68.1534C35.9038 68.1637 35.9326 68.1685 35.9615 68.1674C36.0349 68.1665 36.106 68.1422 36.1647 68.0981C36.2094 68.0662 36.2423 68.0205 36.2583 67.968C36.2708 67.9064 36.2758 67.8435 36.2733 67.7807V67.7021V67.6974ZM37.0327 68.4108V66.3603H37.4259V67.4483L37.8856 66.9258H38.3753L37.8669 67.4745L38.4109 68.4108H37.9877L37.6132 67.7442L37.4259 67.9314V68.4108H37.0327ZM38.6403 66.7255V66.3622H39.0336V66.7255H38.6403ZM38.6403 68.4108V66.9287H39.0336V68.4108H38.6403ZM40.7882 68.4108H40.395V67.6524C40.4005 67.5481 40.392 67.4436 40.3697 67.3416C40.3542 67.2972 40.3254 67.2586 40.2873 67.2311C40.2476 67.2058 40.2014 67.1927 40.1543 67.1936C40.0876 67.1917 40.0221 67.2111 39.9671 67.2489C39.9141 67.2844 39.8748 67.3369 39.8557 67.3977C39.8307 67.5095 39.8206 67.6241 39.8257 67.7386V68.4108H39.4324V66.9287H39.7976V67.1468C39.8783 67.036 39.9939 66.9555 40.1258 66.9181C40.2577 66.8808 40.3983 66.8888 40.5251 66.9408C40.5888 66.9661 40.645 67.0074 40.688 67.0607C40.7251 67.1099 40.7513 67.1663 40.7648 67.2264C40.7821 67.3133 40.7897 67.4019 40.7873 67.4904V68.4108H40.7882ZM41.1506 68.5092L41.5991 68.5635C41.6 68.584 41.605 68.604 41.6139 68.6225C41.6227 68.641 41.6352 68.6576 41.6506 68.6711C41.7034 68.7033 41.765 68.718 41.8266 68.7133C41.9065 68.7186 41.9864 68.7025 42.0579 68.6665C42.0938 68.6449 42.1215 68.612 42.1365 68.5728C42.1516 68.5135 42.1576 68.4523 42.1543 68.3912V68.1749C42.106 68.2488 42.04 68.3094 41.9624 68.3515C41.8847 68.3935 41.7978 68.4155 41.7096 68.4155C41.6154 68.4176 41.5223 68.3954 41.4392 68.3512C41.3561 68.3069 41.2857 68.242 41.2349 68.1627C41.1397 68.0144 41.0921 67.8407 41.0982 67.6646C41.0841 67.4584 41.1483 67.2544 41.2779 67.0934C41.3338 67.0301 41.4028 66.9798 41.48 66.9458C41.5573 66.9119 41.6411 66.8951 41.7255 66.8968C41.8153 66.8963 41.9038 66.9182 41.983 66.9603C42.0623 67.0025 42.1298 67.0637 42.1796 67.1384V66.9305H42.5476V68.2638C42.5529 68.396 42.5384 68.5283 42.5045 68.6562C42.4815 68.7332 42.4397 68.8034 42.3828 68.8603C42.3226 68.9139 42.2513 68.9536 42.174 68.9764C42.0663 69.0071 41.9545 69.0213 41.8425 69.0185C41.5928 69.0185 41.4143 68.9754 41.307 68.8893C41.2568 68.8508 41.2164 68.8012 41.1889 68.7442C41.1614 68.6873 41.1477 68.6248 41.1487 68.5616C41.1479 68.5457 41.1479 68.5297 41.1487 68.5138L41.1506 68.5092ZM41.5008 67.6374C41.4914 67.7602 41.5245 67.8825 41.5944 67.9839C41.621 68.0184 41.6552 68.0462 41.6943 68.0652C41.7335 68.0843 41.7765 68.0939 41.8201 68.0934C41.8666 68.0939 41.9126 68.0841 41.9549 68.0647C41.9971 68.0453 42.0345 68.0167 42.0644 67.9811C42.1369 67.8853 42.1721 67.7666 42.1637 67.6468C42.1739 67.5254 42.1407 67.4043 42.0701 67.3051C42.0413 67.269 42.0047 67.2401 41.9629 67.2207C41.9212 67.2012 41.8755 67.1916 41.8294 67.1927C41.7848 67.1918 41.7405 67.2013 41.7001 67.2203C41.6596 67.2393 41.6241 67.2673 41.5963 67.3022C41.5273 67.3998 41.4942 67.5182 41.5026 67.6374H41.5008Z" fill="#00ADEE"/>
<g style="mix-blend-mode:color">
<rect x="0.591797" y="0.980469" width="68.4081" height="69.9116" />
</g>
</svg>
