<svg width="82" height="63" viewBox="0 0 82 63" fill="none" xmlns="http://www.w3.org/2000/svg">
<path d="M0.839918 61.99C0.496019 61.8767 0.238906 61.7472 0.0739861 61.6038C-0.0395654 61.505 -0.0333471 61.4794 0.169694 61.2275L0.387334 60.9573L0.781791 61.1644C1.41011 61.494 2.02004 61.4096 2.02004 60.9926C2.02004 60.8518 1.62045 60.6409 1.12596 60.5201C0.420049 60.348 0.0885858 60.0087 0.0885858 59.4588C0.0885858 59.0872 0.33191 58.7366 0.732855 58.5297C0.998891 58.3924 1.13434 58.3692 1.51934 58.394C1.96056 58.4226 2.52048 58.6287 2.62782 58.8018C2.66377 58.8601 2.54671 59.0829 2.3315 59.3652C2.31987 59.3803 2.15063 59.3242 1.95516 59.2404C1.53556 59.0602 1.14434 59.0438 0.987806 59.1999C0.715553 59.4715 0.899127 59.656 1.65506 59.8707C2.04546 59.9818 2.32069 60.1104 2.5021 60.2671C2.75759 60.4872 2.77111 60.5201 2.77111 60.9298C2.77111 61.416 2.63295 61.6688 2.24174 61.8972C1.95137 62.0671 1.22086 62.1151 0.839918 61.99ZM8.04963 61.9859C7.29803 61.7405 6.81138 61.0509 6.81408 60.2334C6.81787 59.1622 7.51351 58.4515 8.62199 58.3865C9.05375 58.3611 9.15892 58.3827 9.56176 58.5807C10.4269 59.0055 10.8011 59.8779 10.5199 60.8143C10.412 61.173 9.95486 61.6914 9.57582 61.8845C9.2065 62.0728 8.46653 62.1219 8.04963 61.9859Z" fill="#2F2F2F"/>
<path d="M9.04302 61.2978C9.36124 61.2096 9.64268 60.8949 9.74596 60.5119C9.93711 59.8045 9.38827 59.0879 8.65533 59.0879C8.31521 59.0879 7.90372 59.3614 7.74232 59.6947C7.48547 60.2241 7.60146 60.7762 8.03863 61.1053C8.38956 61.369 8.62369 61.4138 9.04302 61.2978Z" fill="white"/>
<path d="M18.9018 61.9557C18.4514 61.8073 18.114 61.6064 18.1172 61.4883C18.1183 61.4438 18.2172 61.3 18.3367 61.1687C18.536 60.9502 18.5644 60.9395 18.6769 61.0411C18.9918 61.3254 19.6756 61.46 19.9797 61.2976C20.1701 61.1962 20.1574 60.9006 19.957 60.7725C19.8686 60.7159 19.6512 60.6339 19.4742 60.5902C18.9929 60.4715 18.5241 60.2404 18.3854 60.0535C18.0299 59.574 18.247 58.8304 18.8304 58.5297C19.1024 58.3894 19.2254 58.3692 19.6253 58.3997C20.0992 58.4361 20.7619 58.681 20.7619 58.8199C20.7619 58.9261 20.4742 59.3736 20.4061 59.3736C20.3742 59.3736 20.2079 59.3099 20.0365 59.2325C19.6385 59.0523 19.2479 59.0464 19.0919 59.2188C18.8439 59.492 19.0118 59.6508 19.7897 59.8782C20.2101 60.0009 20.4264 60.1104 20.6305 60.304C20.8819 60.5427 20.9049 60.5967 20.9049 60.9459C20.9049 61.6264 20.4785 62.018 19.6888 62.0628C19.4444 62.0765 19.1462 62.0358 18.9018 61.9557ZM27.9529 61.9759C27.2124 61.6941 27.0567 61.2893 27.0567 59.6462V58.4461H27.8434L27.844 59.6055C27.844 60.6142 27.8616 60.7935 27.9784 60.9848C28.256 61.4387 28.9208 61.4805 29.2317 61.0632C29.3675 60.8809 29.3837 60.7488 29.4042 59.6541L29.4267 58.4458H30.2156L30.1921 59.7485C30.1696 60.9842 30.1594 61.0667 29.9888 61.3707C29.7443 61.8057 29.3353 62.0261 28.711 62.059C28.4044 62.0752 28.1368 62.0455 27.9529 61.9759ZM39.3603 61.98C38.6135 61.7386 38.1458 61.0646 38.1458 60.2299C38.1458 59.0801 39.0129 58.2985 40.1846 58.3924C41.2309 58.476 41.9384 59.2304 41.9338 60.2566C41.9311 60.9114 41.5113 61.5727 40.8984 61.8883C40.5312 62.0768 39.7961 62.1207 39.3603 61.98Z" fill="#2F2F2F"/>
<path d="M40.5057 61.2396C40.8942 61.0338 41.0767 60.711 41.0767 60.2301C41.0767 59.7495 40.8942 59.4264 40.5057 59.2206C39.4696 58.6712 38.4328 60.0437 39.1982 60.951C39.5478 61.3653 40.0566 61.4777 40.5057 61.2396Z" fill="white"/>
<path d="M57.8866 62.0186C57.5686 61.9224 57.2816 61.7445 57.0544 61.5026C56.6713 61.0964 56.5664 60.8227 56.5664 60.2299C56.5664 59.6371 56.6713 59.3636 57.0544 58.9569C57.4502 58.537 57.7725 58.4121 58.4592 58.4121C59.1794 58.4121 59.5101 58.5518 59.9205 59.0303C60.9638 60.2461 60.0532 62.1065 58.4287 62.079C58.2291 62.0757 57.9853 62.0485 57.8866 62.0186Z" fill="#2F2F2F"/>
<path d="M58.9245 61.2289C59.7099 60.8497 59.731 59.6714 58.9602 59.2393C58.234 58.8321 57.3867 59.3429 57.3867 60.1881C57.3867 60.6844 57.5706 61.0107 57.9615 61.2111C58.3481 61.4088 58.5444 61.4126 58.9245 61.2289Z" fill="white"/>
<path d="M3.52246 60.2304V58.4463H4.44764C5.41796 58.4463 5.66696 58.4975 5.94354 58.7543C6.20985 59.0016 6.32259 59.2856 6.32259 59.7082C6.32259 60.4828 5.84675 60.8814 4.86372 60.931L4.30948 60.9591V62.0144H3.52273L3.52246 60.2304Z" fill="#2F2F2F"/>
<path d="M5.35922 60.0745C5.5701 59.8769 5.58091 59.5006 5.38166 59.3019C5.2681 59.1886 5.1432 59.1592 4.77361 59.1592H4.30859V60.2296H4.75117C5.10697 60.2296 5.2262 60.1991 5.35922 60.0745Z" fill="white"/>
<path d="M11.3193 60.2245V58.4355L12.4516 58.4582C13.5182 58.4798 13.5987 58.4911 13.8405 58.6567C14.1581 58.8741 14.3239 59.2074 14.3239 59.6287C14.3239 60.0273 14.1898 60.2954 13.8515 60.5737L13.5906 60.7881L13.9932 61.3707C14.2144 61.6911 14.3955 61.9667 14.3955 61.9832C14.3955 61.9999 14.1944 62.0126 13.9483 62.0118L13.5011 62.0099L13.1253 61.4406L12.7495 60.8715H12.1061V62.0131H11.3193V60.2242V60.2245Z" fill="#2F2F2F"/>
<path d="M13.3708 60.0031C13.5816 59.8057 13.5857 59.496 13.3799 59.3045C13.2502 59.184 13.128 59.1592 12.6646 59.1592H12.1055V60.1582H12.6554C13.1212 60.1582 13.2304 60.1347 13.3708 60.0031Z" fill="white"/>
<path d="M15.8973 60.5864V59.1597H14.8242V58.4458H17.7571V59.1594H16.684V62.0139H15.8973V60.5864ZM22.9077 61.9602C22.9077 61.9308 23.243 61.1201 23.6526 60.1586L24.3974 58.4102H25.1382L25.8376 60.0513C26.7685 62.2356 26.7263 62.0258 26.2297 61.9996L25.8198 61.978L25.6765 61.6013L25.5332 61.2245L24.7467 61.2444L23.9603 61.2644L23.8178 61.6393L23.6753 62.0139H23.2914C23.0805 62.0139 22.9077 61.9896 22.9077 61.9602Z" fill="#2F2F2F"/>
<path d="M25.1968 60.4621C25.1976 60.3677 24.8042 59.4456 24.7631 59.4453C24.7412 59.4453 24.6225 59.6862 24.4992 59.9804L24.2754 60.5155H24.7358C24.9889 60.5155 25.1965 60.4915 25.1968 60.4621Z" fill="white"/>
<path d="M31.8493 60.5891V59.1651L31.2996 59.1441L30.75 59.1233L30.7565 58.8913C30.7603 58.7638 30.7662 58.6111 30.77 58.5523C30.7754 58.4606 30.9931 58.4453 32.271 58.4453H33.7659L33.7553 58.7843L33.7451 59.1233L33.1905 59.1441L32.6363 59.1648V62.0134H31.8496L31.8493 60.5891ZM34.3528 60.2293V58.4453H35.1347L35.155 59.1411L35.1755 59.8369L35.8731 59.8571C36.403 59.8728 36.5714 59.8555 36.5738 59.7859C36.5757 59.7355 36.5782 59.4132 36.5792 59.0696L36.5817 58.4453H37.429V62.0134H36.5706V60.5859H35.1398V62.0131H34.3531V60.2291L34.3528 60.2293ZM42.6507 60.2245V58.4355L43.7903 58.4582C44.809 58.4787 44.9507 58.4968 45.1272 58.6281C45.4409 58.8619 45.5966 59.1182 45.6355 59.4634C45.6861 59.9105 45.5509 60.2563 45.213 60.5449L44.9245 60.7914L45.3254 61.3723C45.5463 61.6919 45.7266 61.9667 45.7266 61.9832C45.7266 61.9996 45.5255 62.0123 45.2797 62.011L44.8326 62.0083L44.4459 61.44C44.062 60.8761 44.0566 60.8715 43.7484 60.8715H43.4375V62.0131H42.6507V60.2242V60.2245Z" fill="#2F2F2F"/>
<path d="M44.7255 59.9629C44.8363 59.8224 44.8677 59.7096 44.8377 59.5602C44.7734 59.2404 44.6114 59.1638 43.9917 59.1611L43.4375 59.1592V60.1582H44.0044C44.5371 60.1582 44.5809 60.1463 44.7255 59.9629Z" fill="white"/>
<path d="M46.4424 60.2304V58.4463H47.2291V62.0144H46.4424V60.2304ZM48.9459 60.5872V59.1599H47.8731V58.4463H50.8417L50.8168 58.8031L50.7922 59.1599H49.7329V62.0144H48.9462L48.9459 60.5872ZM52.4493 61.283L52.4474 60.5516L51.7812 59.5167L51.1153 58.4822L51.5071 58.4606C51.7225 58.4484 51.9367 58.4533 51.9829 58.4711C52.0294 58.4886 52.2365 58.7956 52.443 59.1526C52.6499 59.51 52.841 59.8023 52.868 59.8023C52.8951 59.8023 53.0957 59.5051 53.3139 59.1421L53.7105 58.4822L54.1539 58.4606C54.3977 58.4493 54.5973 58.4565 54.5973 58.4773C54.5973 58.4981 54.2915 58.9914 53.9176 59.5736L53.2382 60.6322V62.0144H52.4514L52.4493 61.283ZM61.1068 60.2304V58.4463H63.825V59.1599H61.8935V59.9447H63.6184L63.5962 60.2838L63.5746 60.6228L62.7341 60.643L61.8935 60.663V62.0142H61.1068V60.2304ZM66.0425 60.2304V58.4463H66.8292V62.0144H66.0425V60.2304ZM67.7593 60.2304V58.4463L68.1348 58.4471C68.4692 58.4479 68.526 58.4711 68.6533 58.6569C69.0294 59.2055 70.0673 60.5157 70.1255 60.5157C70.1625 60.5157 70.1914 60.0634 70.1914 59.4809V58.4463H70.9782V62.0217L70.6072 62.0001L70.236 61.9786L69.4087 60.893L68.582 59.8075L68.5622 60.9108L68.5425 62.0142H67.7593V60.2301V60.2304ZM71.8366 60.2304V58.4463L72.7844 58.4471C73.6288 58.4476 73.7718 58.4662 74.0938 58.6159C75.2158 59.137 75.4878 60.5858 74.6259 61.4494C74.1665 61.9095 73.8126 62.0144 72.7179 62.0144H71.8366V60.2304Z" fill="#2F2F2F"/>
<path d="M73.7651 61.1747C74.0944 61.0091 74.2847 60.6663 74.2847 60.2388C74.2847 59.5168 73.8948 59.1597 73.1059 59.1592H72.623V61.2998H73.07C73.3533 61.2995 73.6082 61.2539 73.7651 61.1747Z" fill="white"/>
<path d="M75.8894 61.9662C75.8632 61.94 75.8418 61.1374 75.8418 60.1824V58.4458H76.7002V62.0139H76.3187C76.1089 62.0139 75.9159 61.9923 75.8894 61.9662ZM77.4529 61.6034C77.5497 61.3777 77.896 60.567 78.2221 59.8018L78.8147 58.4102H79.1699C79.5044 58.4102 79.5328 58.425 79.6517 58.6599C79.7901 58.9331 81.0635 61.9295 81.0635 61.9815C81.0635 61.9993 80.8848 62.0139 80.6661 62.0139H80.2687L80.0938 61.6188L79.9188 61.2239L79.1597 61.2442L78.4002 61.2644L78.2477 61.6393L78.095 62.0136H77.2766L77.4529 61.6034Z" fill="#2F2F2F"/>
<path d="M79.633 60.4841C79.633 60.422 79.2493 59.5498 79.1942 59.4867C79.1628 59.4506 79.1076 59.498 79.0706 59.5938C79.0338 59.6882 78.9365 59.9344 78.8543 60.1405L78.7051 60.5153H79.169C79.4242 60.5153 79.633 60.5013 79.633 60.4841Z" fill="white"/>
<path d="M15.7188 54.6156C10.6482 54.4657 6.63552 53.5937 3.12137 51.8782C2.06183 51.3611 0.390728 50.3425 0.178494 50.0846C0.0895455 49.9768 0.210397 49.7416 0.963892 48.556C2.00748 46.9138 3.47933 46.1009 5.40889 46.1009C6.63958 46.1009 7.41713 46.2471 9.56704 46.8817C12.8552 47.8526 14.3381 48.0603 17.6143 48.0082C20.4334 47.9634 21.7084 47.7995 22.9964 47.3159C24.4204 46.7811 25.1998 45.3924 25.1106 43.5482C25.0314 41.903 24.2014 41.1147 21.8347 40.4364C20.3509 40.0113 19.5872 39.8673 15.3611 39.2154C11.9351 38.6871 9.73845 38.1595 7.89784 37.4227C6.2289 36.7547 5.26101 36.1861 4.3899 35.3619C3.19924 34.2357 2.48332 32.7674 2.20269 30.8784C1.94936 29.1712 1.9918 27.1819 2.31624 25.5513C2.99349 22.1476 5.08203 19.8951 8.63727 18.7332C9.81497 18.3484 10.8045 18.1385 12.571 17.8982C13.6876 17.7467 13.9374 17.7421 22.7477 17.7181C31.244 17.6946 31.7823 17.7005 31.8269 17.8162C31.8778 17.9481 31.7723 18.6591 31.5904 19.4129C31.4406 20.0332 30.8063 21.3412 30.3892 21.8909C29.627 22.8942 28.4572 23.7753 27.3598 24.1726C26.2472 24.5755 26.394 24.5663 20.1895 24.6208C14.1694 24.6737 13.888 24.6882 12.5713 25.0156C11.8543 25.1939 11.0167 25.6462 10.6501 26.0532C10.1251 26.6357 9.99989 27.0457 9.99773 28.19C9.99611 29.1237 10.0031 29.1677 10.2194 29.6173C10.4717 30.1416 10.9362 30.6556 11.3995 30.9226C12.3774 31.4863 14.5214 32.0023 17.972 32.5039C22.7001 33.1911 24.783 33.6366 26.8039 34.394C28.6034 35.0682 29.4934 35.5685 30.3754 36.4011C32.489 38.3974 33.3456 41.6044 32.8035 45.4946C32.4845 47.7868 31.7188 49.4633 30.3153 50.9439C28.1508 53.2277 24.648 54.3405 18.8304 54.5924C17.9453 54.6307 17.0277 54.6561 16.7919 54.6485C16.5556 54.641 16.073 54.6261 15.7188 54.6156ZM33.8522 54.5498C33.8522 54.5139 34.1445 53.7461 34.5016 52.8437C35.1188 51.2848 36.4152 47.9912 37.142 46.1368C37.5313 45.1426 39.5841 39.9347 40.7705 36.9316C41.2201 35.7934 41.68 34.6213 41.7924 34.3268C41.9049 34.0326 42.188 33.31 42.4213 32.7213C42.6546 32.1325 43.4333 30.1578 44.1519 28.3327L46.1331 23.302C46.504 22.3602 47.015 21.0597 47.2683 20.4118C47.5216 19.764 47.8661 18.8975 48.034 18.4854L48.3392 17.7361L51.7806 17.7173C54.4802 17.703 55.2372 17.7183 55.2929 17.789C55.3318 17.8384 55.576 18.4247 55.8352 19.0917C56.0948 19.7592 56.6093 21.0756 56.9791 22.0176L59.3881 28.1544C60.2517 30.3548 61.1159 32.5551 61.9805 34.7551C62.8081 36.8604 63.2791 38.0603 65.243 43.0684C66.1375 45.348 67.0327 47.6275 67.9285 49.9066C68.8975 52.3725 69.6904 54.4406 69.6904 54.5023C69.6904 54.6032 69.5069 54.6102 67.9558 54.5698C65.4766 54.5053 64.4722 54.3327 63.2791 53.7661C61.8064 53.067 60.7801 51.7023 59.5278 48.7769C59.3935 48.4629 59.251 48.1824 59.2115 48.1536C59.1718 48.1245 55.8112 48.1085 51.7436 48.1177L44.3479 48.1347L43.8383 49.2764C42.6757 51.8809 41.734 53.0883 40.329 53.7763C39.616 54.1256 39.178 54.2515 38.1085 54.4155C37.2839 54.542 33.8522 54.6501 33.8522 54.5498Z" fill="#2F2F2F"/>
<path d="M56.4867 41.4905C56.5489 41.4665 56.6 41.4048 56.6 41.353C56.6 41.3012 55.6643 38.8882 54.5204 35.9908C53.7395 34.0159 52.9614 32.0398 52.1861 30.0628C51.9411 29.4282 51.8292 29.3001 51.6872 29.4921C51.651 29.5412 51.4391 30.0469 51.2163 30.6159C50.2728 33.0201 49.3247 35.4225 48.3721 37.8231C46.9035 41.5302 46.9557 41.3816 47.0906 41.4665C47.2041 41.5383 56.3018 41.5612 56.4867 41.4905Z" fill="white"/>
<path d="M73.7342 54.524C73.7039 54.4752 73.7017 46.8038 73.7293 37.4767C73.7715 23.3214 73.7964 20.4448 73.8802 20.0726C74.1046 19.0758 74.6493 18.3837 75.5434 17.9614L76.0212 17.7356L78.5436 17.7135L81.0664 17.6914L81.0474 33.4482L81.0285 49.2047L80.8355 49.9021C80.0206 52.8467 77.9499 54.411 74.655 54.5706C74.0035 54.6025 73.7755 54.5909 73.7342 54.524Z" fill="#2F2F2F"/>
<path d="M66.5424 16.3936C66.5424 16.4739 67.0615 16.0505 67.6033 15.5278C68.9908 14.1888 69.6813 12.6795 69.5964 11.1708C69.5253 9.90645 69.04 8.88212 67.2972 6.31835C65.6778 3.9358 64.6242 2.43114 64.5331 2.24774C64.4768 2.1342 64.7388 2.51124 65.7356 3.7071C66.4932 4.61599 68.1548 6.26656 68.8169 6.80435C69.6264 7.46242 70.3566 7.95597 71.0447 8.31036C72.0613 8.83439 72.6155 9.00349 73.4552 9.04664C74.096 9.07928 74.2588 9.06148 74.8487 8.89264C75.5943 8.67904 76.4049 8.29741 77.123 7.82112C78.2625 7.06542 79.7419 5.64166 80.7158 4.36328C80.9069 4.11219 81.0635 3.95064 81.0635 4.00458C81.0635 4.19121 80.0418 5.968 79.2291 7.19406C78.2417 8.68416 77.2892 9.83902 75.9477 11.1732C72.3127 14.788 67.818 17.2226 63.0015 18.1852C62.2263 18.34 61.6713 18.4279 61.7854 18.3775C61.8249 18.36 62.2342 18.2494 62.6946 18.1321C63.7487 17.8629 64.6139 17.5325 64.8102 17.3238" fill="#2F2F2F"/>
<path d="M66.5424 16.3936C66.5424 16.4739 67.0615 16.0505 67.6033 15.5278C68.9908 14.1888 69.6813 12.6795 69.5964 11.1708C69.5253 9.90645 69.04 8.88212 67.2972 6.31834C65.6778 3.9358 64.6242 2.43114 64.5331 2.24774C64.4768 2.1342 64.7388 2.51124 65.7356 3.7071C66.4932 4.61599 68.1548 6.26656 68.8169 6.80435C69.6264 7.46242 70.3566 7.95597 71.0447 8.31036C72.0613 8.83439 72.6155 9.00349 73.4552 9.04664C74.096 9.07928 74.2588 9.06148 74.8487 8.89264C75.5943 8.67904 76.4049 8.29741 77.123 7.82112C78.2625 7.06542 79.7419 5.64166 80.7158 4.36328C80.9069 4.11219 81.0635 3.95064 81.0635 4.00458C81.0635 4.19121 80.0418 5.968 79.2291 7.19406C78.2417 8.68416 77.2892 9.83902 75.9477 11.1732C72.3127 14.788 67.818 17.2226 63.0015 18.1852C62.2263 18.34 61.6713 18.4279 61.7854 18.3775C61.8249 18.36 62.2342 18.2494 62.6946 18.1321C63.7487 17.8629 64.6139 17.5325 64.8102 17.3238" stroke="#2F2F2F" stroke-width="0.446316"/>
<path d="M64.811 17.3241C65.2133 16.8972 65.2931 16.1533 65.01 15.4667C64.7502 14.8361 64.4558 14.3884 63.2973 12.8603C61.7914 10.8737 61.4956 10.1824 61.5524 8.78052C61.5724 8.28535 61.6308 7.89536 61.724 7.62998C61.8895 7.15989 62.3202 6.42441 62.4272 6.42873C62.4681 6.43035 62.5727 6.58273 62.6592 6.76774C62.746 6.95249 63.0377 7.47301 63.307 7.92422C63.8037 8.75625 63.9699 9.01031 65.5286 11.3252C66.885 13.3398 67.1605 14.0518 66.9831 15.0832C66.935 15.3645 66.816 15.7671 66.7192 15.9783C66.6224 16.1892 66.5432 16.3761 66.5432 16.3937" fill="#2F2F2F"/>
<path d="M64.6201 17.4605C64.9118 17.3317 65.2007 17.1967 65.4866 17.0557C65.7543 16.9235 66.02 16.786 66.2634 16.6142C66.3607 16.5457 66.4537 16.472 66.5427 16.3936" stroke="#2F2F2F" stroke-width="0.318797"/>
<path d="M68.6 14.1601C68.6075 14.0811 68.6132 13.8338 68.6124 13.6107C68.6113 13.255 68.6054 13.173 68.5637 12.944C68.4191 12.1482 68.1074 11.4445 67.562 10.6842C67.3965 10.4569 67.2292 10.231 67.06 10.0065C65.8217 8.35912 65.0661 7.31592 64.528 6.51059C63.4028 4.82603 62.9605 3.91256 62.7748 2.8885C62.7323 2.65332 62.7274 2.58185 62.7266 2.17649C62.7258 1.78677 62.7312 1.69561 62.7661 1.50089C62.8515 1.02352 62.9621 0.684502 63.1706 0.259453L63.2976 0L63.5631 0.520523C63.9187 1.21851 64.1831 1.68024 64.5367 2.22153C64.6305 2.36528 64.7373 2.53978 64.7741 2.60963C64.8679 2.78844 65.3216 3.47753 66.1908 4.76265C67.8557 7.22314 68.2206 7.77953 68.5937 8.42682C69.1426 9.37886 69.3991 10.0296 69.5108 10.7543C69.5576 11.0578 69.5668 11.6756 69.5284 11.9529C69.4497 12.5241 69.2896 13.0374 69.0255 13.5657C68.9117 13.7933 68.6932 14.1682 68.6216 14.2594L68.5862 14.3044L68.6 14.1601Z" fill="#7C7C7C"/>
<path d="M73.6933 8.04938C74.3809 8.04938 74.9383 7.49333 74.9383 6.8074C74.9383 6.12148 74.3809 5.56543 73.6933 5.56543C73.0057 5.56543 72.4482 6.12148 72.4482 6.8074C72.4482 7.49333 73.0057 8.04938 73.6933 8.04938Z" fill="#2F2F2F"/>
</svg>
