<svg width="194" height="37" viewBox="0 0 194 37" fill="none" xmlns="http://www.w3.org/2000/svg">
<path fill-rule="evenodd" clip-rule="evenodd" d="M60.4261 22.0554C60.4091 21.8886 60.4017 21.721 60.4041 21.5533C60.4041 20.8299 60.582 20.2057 60.9437 19.6845C61.2859 19.1822 61.7546 18.779 62.3023 18.5155C62.8507 18.2531 63.3793 18.1237 63.8969 18.1237C64.316 18.1237 64.7343 18.1965 65.1526 18.3369C65.5672 18.4775 65.9538 18.6903 66.2944 18.9655C66.6369 19.2426 66.9193 19.5962 67.1325 20.0226C67.3449 20.4527 67.4633 20.9365 67.4854 21.4805H65.7724C65.743 20.8791 65.5518 20.4417 65.1945 20.1638C64.8402 19.8859 64.4064 19.7447 63.8969 19.7447C63.4485 19.7447 63.0294 19.8933 62.6442 20.1866C62.256 20.4792 62.0509 20.91 62.0244 21.4805C62.0281 21.4952 62.0509 21.5871 62.0891 21.7621L62.1648 22.0966C62.2795 22.512 62.6721 22.8583 63.3411 23.1325C64.0109 23.4096 64.6843 23.6765 65.3621 23.9316C66.0392 24.1867 66.6134 24.5595 67.0825 25.0542C67.55 25.549 67.7868 26.2526 67.7868 27.1664C67.7868 27.3223 67.7713 27.5546 67.7368 27.8553C67.6412 28.6236 67.3912 29.2558 66.9759 29.7543C66.5612 30.2527 66.0694 30.6144 65.5106 30.835C64.9475 31.0556 64.3954 31.1658 63.8513 31.1658C63.0978 31.1658 62.4199 30.9945 61.8259 30.649C61.2427 30.3137 60.7636 29.8236 60.4416 29.233C60.1107 28.6309 59.9468 27.9685 59.9468 27.2422L61.6399 27.1929C61.6627 27.9082 61.9031 28.4905 62.367 28.936C62.8316 29.3845 63.3566 29.6168 63.9499 29.6396C64.5217 29.5974 65.0599 29.3535 65.4687 28.9515C65.8878 28.5442 66.0966 28.0494 66.0966 27.4708C66.0966 26.9562 65.929 26.493 65.5908 26.0739C65.2555 25.6549 64.738 25.3586 64.0373 25.1836C63.086 24.9285 62.2714 24.5661 61.5943 24.1066C60.9209 23.6464 60.5283 22.9612 60.4254 22.0554H60.4261ZM69.8791 30.8923V13.9941H71.5921V20.1822C71.8645 19.7417 72.2136 19.3535 72.6228 19.036C73.0166 18.7286 73.463 18.4954 73.9403 18.3479C74.4221 18.1982 74.9238 18.1224 75.4283 18.1229C76.3451 18.1229 77.2324 18.3516 78.0882 18.8044C78.941 19.261 79.6335 19.9153 80.1629 20.7644C80.6922 21.6136 80.9576 22.5833 80.9576 23.6758V30.8909H79.2681V23.6758C79.2681 22.8458 79.0858 22.1385 78.7241 21.5526C78.3827 20.985 77.8864 20.5266 77.2934 20.2314C76.6992 19.9378 76.0447 19.7868 75.382 19.7903C74.7166 19.7903 74.0961 19.9307 73.5175 20.2123C72.9424 20.4939 72.4582 20.9319 72.1207 21.4761C71.7678 22.0356 71.5914 22.709 71.5914 23.4927V30.8909L69.8791 30.8923ZM83.7822 30.8923V18.3553H85.3613V20.2234C86.0539 18.7971 87.2714 18.081 89.0108 18.081V19.7896C88.59 19.7951 88.1742 19.8804 87.7852 20.041C87.3577 20.209 86.9624 20.4498 86.617 20.7527C86.2627 21.0651 85.9774 21.4224 85.7642 21.8378C85.554 22.2513 85.4458 22.7091 85.4488 23.1729V30.8909L83.7822 30.8923ZM90.1753 24.5668C90.2018 23.5655 90.3959 22.6678 90.7649 21.8687C91.1125 21.0928 91.6166 20.3969 92.2456 19.8249C92.8479 19.2723 93.5473 18.836 94.3085 18.5383C95.0513 18.2482 95.8402 18.0938 96.6376 18.0825C97.7036 18.0825 98.7387 18.3398 99.7357 18.8581C100.736 19.3757 101.555 20.1565 102.194 21.1953C102.829 22.2333 103.148 23.4714 103.148 24.9094V25.2255H91.8648C91.9383 26.1504 92.2228 26.9415 92.7176 27.5928C93.2124 28.2471 93.8101 28.7338 94.5136 29.0573C95.2216 29.3808 95.9105 29.5447 96.592 29.5447C97.1963 29.5447 97.8095 29.4227 98.427 29.183C99.0271 28.9505 99.5811 28.6129 100.063 28.1861C100.538 27.7641 100.874 27.2958 101.071 26.7819H102.803C102.453 27.7406 101.943 28.5522 101.272 29.2176C100.632 29.8598 99.8647 30.3613 99.0196 30.6902C98.2174 31.0015 97.3649 31.1627 96.5045 31.1658C95.4076 31.1245 94.3368 30.8194 93.3829 30.2763C92.4169 29.7278 91.6405 28.9588 91.0546 27.9737C90.4679 26.9834 90.1753 25.8497 90.1753 24.5668ZM101.505 23.7214C101.361 22.9963 101.057 22.3125 100.615 21.7202C100.165 21.1072 99.5821 20.6049 98.9093 20.2513C98.2245 19.8861 97.4593 19.6978 96.6832 19.7036C95.6098 19.7036 94.7195 19.958 94.0115 20.4645C93.2999 20.9703 92.7786 21.5379 92.4434 22.1657C92.1089 22.7899 91.9184 23.3111 91.8648 23.7221L101.505 23.7214ZM105.014 24.5668C105.041 23.5655 105.235 22.6678 105.604 21.8687C105.951 21.0926 106.455 20.3967 107.085 19.8249C107.687 19.2723 108.386 18.8361 109.147 18.5383C109.89 18.2482 110.678 18.0938 111.476 18.0825C112.542 18.0825 113.578 18.3398 114.573 18.8581C115.575 19.3757 116.393 20.1565 117.033 21.1953C117.668 22.2333 117.987 23.4714 117.987 24.9094V25.2255H106.703C106.777 26.1504 107.062 26.9415 107.556 27.5928C108.051 28.2471 108.648 28.7338 109.353 29.0573C110.061 29.3808 110.749 29.5447 111.431 29.5447C112.035 29.5447 112.648 29.4227 113.265 29.183C113.865 28.951 114.419 28.6134 114.901 28.1861C115.377 27.7641 115.711 27.2958 115.91 26.7819H117.642C117.292 27.7406 116.781 28.5522 116.111 29.2176C115.471 29.8598 114.704 30.3613 113.859 30.6902C113.056 31.0014 112.203 31.1627 111.343 31.1658C110.246 31.1244 109.176 30.8192 108.223 30.2763C107.256 29.7278 106.479 28.9588 105.894 27.9737C105.307 26.9834 105.014 25.8497 105.014 24.5668ZM116.343 23.7214C116.2 22.9963 115.896 22.3125 115.454 21.7202C115.004 21.1077 114.421 20.6054 113.748 20.2513C113.063 19.8861 112.298 19.6979 111.522 19.7036C110.449 19.7036 109.558 19.958 108.85 20.4645C108.139 20.9703 107.618 21.5379 107.282 22.1657C106.947 22.7899 106.757 23.3111 106.703 23.7221L116.343 23.7214Z" fill="#2F2F2F"/>
<path fill-rule="evenodd" clip-rule="evenodd" d="M121.634 24.7264C121.645 23.7294 121.84 22.82 122.22 21.9915C122.577 21.1893 123.096 20.4698 123.745 19.8786C124.373 19.3038 125.102 18.8519 125.896 18.5464C126.67 18.2421 127.493 18.0845 128.324 18.0818C130.612 18.1391 132.248 19.0522 133.237 20.8262V18.3979H134.881V30.8916H133.237V28.517C132.77 29.358 132.091 30.0094 131.201 30.4733C130.315 30.9335 129.311 31.1658 128.186 31.1658C127.343 31.1459 126.51 30.9785 125.724 30.6711C124.948 30.37 124.235 29.9276 123.62 29.3661C123 28.7948 122.504 28.1015 122.163 27.3296C121.809 26.5386 121.634 25.6696 121.634 24.7264ZM123.369 24.3382C123.369 25.363 123.594 26.2717 124.047 27.0598C124.5 27.8509 125.094 28.4567 125.835 28.8831C126.551 29.2993 127.36 29.5269 128.187 29.5447C129.143 29.5447 130.002 29.3168 130.771 28.8559C131.52 28.4189 132.144 27.7963 132.582 27.0481C133.02 26.3063 133.237 25.5299 133.237 24.7264C133.237 23.8441 133.024 23.0259 132.602 22.2797C132.186 21.5401 131.584 20.9223 130.855 20.4873C130.117 20.0403 129.278 19.7865 128.415 19.7492C127.453 19.7492 126.585 19.9888 125.813 20.4682C125.039 20.9475 124.439 21.5489 124.008 22.2679C123.583 22.9913 123.369 23.6802 123.369 24.3382ZM137.755 30.8916V18.3979H139.445V30.8916H137.755ZM137.755 16.8908V13.9941H139.445V16.8908H137.755ZM142.321 30.8916V18.356H143.902V20.2241C144.593 18.7978 145.812 18.0818 147.55 18.0818V19.7903C147.155 19.7903 146.748 19.8749 146.326 20.0418C145.898 20.2096 145.502 20.4504 145.157 20.7534C144.807 21.0582 144.517 21.4263 144.304 21.8386C144.094 22.252 143.986 22.7098 143.989 23.1736V30.8916H142.321ZM149.172 30.8916V13.9949H150.862V30.8916H149.172ZM153.716 30.8916V18.3979H155.405V30.8916H153.716ZM153.716 16.8908V13.9941H155.405V16.8908H153.716ZM158.26 30.8916V18.3979H159.863V20.2704C160.263 19.5923 160.847 19.041 161.548 18.6802C162.253 18.3129 163.037 18.1222 163.832 18.1244C164.532 18.1244 165.209 18.2501 165.864 18.5052C166.518 18.7567 167.103 19.1257 167.622 19.6087C168.136 20.0925 168.55 20.6939 168.855 21.4129C169.163 22.1356 169.315 22.9421 169.315 23.8331V30.8923H167.671V23.8331C167.671 22.9729 167.485 22.2341 167.117 21.6217C166.747 21.0129 166.264 20.5527 165.662 20.2483C165.067 19.9448 164.407 19.788 163.739 19.7911C163.093 19.7861 162.455 19.9364 161.879 20.2292C161.299 20.5248 160.815 20.9785 160.482 21.5379C160.128 22.1209 159.95 22.8171 159.95 23.628V30.8923L158.26 30.8916ZM171.706 24.5668C171.732 23.5655 171.927 22.6678 172.296 21.8687C172.643 21.0927 173.146 20.3968 173.775 19.8249C174.976 18.7242 176.539 18.104 178.168 18.0825C179.233 18.0825 180.269 18.3398 181.265 18.8581C182.266 19.3757 183.086 20.1565 183.724 21.1953C184.36 22.2333 184.679 23.4714 184.679 24.9094V25.2255H173.394C173.468 26.1504 173.754 26.9415 174.247 27.5928C174.743 28.2471 175.34 28.7338 176.045 29.0573C176.752 29.3808 177.442 29.5447 178.122 29.5447C178.751 29.5396 179.373 29.417 179.957 29.183C180.557 28.9509 181.111 28.6133 181.592 28.1861C182.068 27.7641 182.403 27.2958 182.601 26.7819H184.333C183.983 27.7406 183.473 28.5522 182.803 29.2176C182.163 29.8596 181.396 30.3611 180.551 30.6902C179.748 31.0015 178.895 31.1627 178.034 31.1658C176.938 31.1244 175.867 30.8192 174.914 30.2763C173.947 29.7278 173.172 28.9588 172.585 27.9737C171.999 26.9834 171.706 25.8497 171.706 24.5668H171.706ZM183.036 23.7214C182.892 22.9963 182.588 22.3125 182.146 21.7202C181.696 21.1074 181.112 20.6051 180.439 20.2513C179.754 19.886 178.989 19.6977 178.214 19.7036C177.14 19.7036 176.249 19.958 175.542 20.4645C174.83 20.9703 174.308 21.5379 173.974 22.1657C173.639 22.7899 173.449 23.3111 173.395 23.7221L183.036 23.7214ZM186.449 22.0554C186.432 21.8886 186.424 21.721 186.426 21.5533C186.426 20.8299 186.606 20.2057 186.967 19.6845C187.309 19.182 187.778 18.7788 188.326 18.5155C188.874 18.2531 189.402 18.1237 189.92 18.1237C190.339 18.1237 190.757 18.1965 191.176 18.3369C191.59 18.4773 191.977 18.6902 192.317 18.9655C192.661 19.2426 192.942 19.5962 193.155 20.0226C193.368 20.4527 193.486 20.9365 193.508 21.4805H191.796C191.766 20.8791 191.576 20.4417 191.217 20.1638C190.864 19.8859 190.431 19.7447 189.92 19.7447C189.471 19.7447 189.052 19.8933 188.668 20.1866C188.279 20.4792 188.074 20.91 188.047 21.4805C188.052 21.4952 188.074 21.5871 188.112 21.7621L188.188 22.0966C188.302 22.512 188.695 22.8583 189.364 23.1325C190.035 23.4096 190.708 23.6765 191.386 23.9316C192.062 24.1867 192.637 24.5595 193.106 25.0542C193.573 25.549 193.81 26.2526 193.81 27.1664C193.81 27.3223 193.795 27.5546 193.76 27.8553C193.664 28.6236 193.413 29.2558 192.999 29.7543C192.584 30.2527 192.093 30.6144 191.534 30.835C190.97 31.0556 190.418 31.1658 189.875 31.1658C189.121 31.1658 188.444 30.9945 187.85 30.649C187.266 30.3138 186.787 29.8237 186.465 29.233C186.134 28.6309 185.97 27.9685 185.97 27.2422L187.664 27.1929C187.686 27.9082 187.926 28.4905 188.391 28.936C188.854 29.3845 189.38 29.6168 189.974 29.6396C190.545 29.5972 191.083 29.3533 191.491 28.9515C191.911 28.5442 192.12 28.0494 192.12 27.4708C192.12 26.9562 191.952 26.493 191.614 26.0739C191.278 25.6549 190.761 25.3586 190.061 25.1836C189.109 24.9285 188.294 24.5661 187.617 24.1066C186.944 23.6464 186.552 22.9612 186.449 22.0554Z" fill="#2F2F2F"/>
<path d="M2.82899 26.9096C1.26672 26.9096 0 26.631 0 26.2876C0 25.9443 1.26672 25.6657 2.82899 25.6657H18.0083L18.5722 25.6804C19.8845 25.7392 21.2997 25.4686 22.8752 24.671C24.9999 23.5969 26.8717 21.7523 28.3957 18.8535H28.3979L33.7339 7.96539V7.96024C35.241 5.13493 36.5158 3.22933 38.1612 2.02437C40.1888 0.537826 42.9634 -0.0503211 47.2745 0.00334728H67.5457C69.108 0.00334728 70.3747 0.282717 70.3747 0.626048C70.3747 0.969379 69.108 1.24875 67.5457 1.24875H47.2444L47.0459 1.24581C45.7468 1.22522 44.7029 1.55459 43.5758 2.37946C42.0415 3.50429 40.8167 5.34813 39.3478 8.1014H39.3448L34.0096 18.9895V18.9946C32.4194 22.0199 30.3925 23.9806 28.0473 25.1672C25.2389 26.5891 21.7379 27.0537 17.7988 26.9096H2.82899Z" fill="#2F2F2F"/>
<path d="M72.4614 35.6228C73.5032 35.6228 74.3479 35.8088 74.3479 36.0375C74.3479 36.2668 73.5024 36.4528 72.4614 36.4528H57.4107C53.8804 36.5594 50.8499 36.2213 48.615 35.1758C46.6814 34.2715 45.3449 32.7791 44.8288 30.4765V30.4721L43.3658 22.2234H43.3643C42.8754 20.1384 42.3086 18.7445 41.183 17.899C40.3067 17.241 39.1186 16.9815 37.2755 17.0035L37.1726 17.005H20.9985C19.9575 17.005 19.1128 16.819 19.1128 16.5896C19.1128 16.361 19.9575 16.175 20.9985 16.175H37.1726C41.0066 16.1382 43.3312 16.572 44.7928 17.6696C46.0183 18.5893 46.6182 20.0369 47.1218 22.1807V22.1866L48.5848 30.4376C49.0752 32.6255 50.2861 34.0157 52.0181 34.8251C53.415 35.4794 55.1155 35.6919 57.0027 35.628L57.2821 35.6228H72.4614Z" fill="#2F2F2F"/>
</svg>
