<svg width="158" height="43" viewBox="0 0 158 43" fill="none" xmlns="http://www.w3.org/2000/svg">
<path d="M39.9647 0V1.31211H41.2768V0H39.9647ZM39.9647 2.62423V3.93634H41.2768V2.62423H39.9647ZM36.0283 3.93634V5.24846H37.3404V3.93634H36.0283Z" fill="#2F2F2F"/>
<path d="M18.8617 4.91992C8.443 4.91992 0 13.3629 0 23.7816C0 34.2002 8.443 42.6432 18.8617 42.6432C29.2803 42.6432 37.7233 34.2002 37.7233 23.7816C37.7233 13.3629 29.2803 4.91992 18.8617 4.91992ZM18.8617 10.9338C25.9506 10.9338 31.7094 16.6926 31.7094 23.7816C31.7094 30.8705 25.9506 36.6294 18.8617 36.6294C11.7727 36.6294 6.06853 30.8705 6.06853 23.7816C6.06853 16.6926 11.7727 10.9338 18.8617 10.9338Z" fill="#2F2F2F"/>
<path d="M48.6687 33.763C45.957 33.763 43.6827 33.0894 41.8457 31.7423L43.6039 28.8557C45.0735 29.8879 46.7355 30.404 48.59 30.404C49.4997 30.404 50.217 30.229 50.7418 29.8791C51.2667 29.5117 51.5291 29.0044 51.5291 28.3571C51.5291 28.1821 51.5116 28.0247 51.4766 27.8847C51.4416 27.7447 51.3804 27.6135 51.2929 27.4911C51.2055 27.3511 51.118 27.2374 51.0305 27.1499C50.943 27.0449 50.8031 26.94 50.6106 26.835C50.4357 26.73 50.2782 26.6426 50.1383 26.5726C50.0158 26.5026 49.8146 26.4151 49.5347 26.3102C49.2548 26.2052 49.0186 26.1265 48.8262 26.074C48.6512 26.004 48.38 25.9078 48.0126 25.7853C47.6452 25.6629 47.3391 25.5579 47.0942 25.4704C46.4468 25.243 45.8958 25.0068 45.4409 24.7619C44.986 24.4994 44.5224 24.167 44.0501 23.7647C43.5777 23.3448 43.219 22.8199 42.9741 22.1901C42.7292 21.5428 42.6067 20.808 42.6067 19.9858C42.6067 18.3238 43.1841 17.0379 44.3387 16.1281C45.4934 15.2009 47.0154 14.7373 48.9049 14.7373C51.1792 14.7373 53.0249 15.1572 54.442 15.9969L53.1037 19.0148C51.774 18.385 50.4182 18.0701 49.0361 18.0701C47.2166 18.0701 46.3069 18.6649 46.3069 19.8546C46.3069 20.1345 46.3594 20.3794 46.4643 20.5893C46.5693 20.7993 46.683 20.9742 46.8055 21.1142C46.928 21.2542 47.1466 21.3941 47.4616 21.5341C47.794 21.674 48.0651 21.779 48.2751 21.849C48.5025 21.919 48.8699 22.0327 49.3772 22.1901C49.6047 22.2601 49.7796 22.3126 49.9021 22.3476C50.5144 22.54 51.0392 22.7237 51.4766 22.8987C51.914 23.0736 52.3951 23.3273 52.92 23.6597C53.4448 23.9746 53.8734 24.3332 54.2058 24.7356C54.5382 25.138 54.8181 25.6454 55.0456 26.2577C55.273 26.87 55.3867 27.5523 55.3867 28.3046C55.3867 29.9491 54.8006 31.27 53.6285 32.2672C52.4738 33.2644 50.8206 33.763 48.6687 33.763Z" fill="#2F2F2F"/>
<path d="M61.8631 34.1307L56.9033 19.9336H61.0234L63.5689 29.8532L65.7207 19.9336H69.5784L65.5108 33.6846C64.5661 36.8686 62.5979 38.4606 59.6063 38.4607C58.9065 38.4606 58.163 38.3819 57.3757 38.2245L57.7956 35.4428C58.4954 35.5128 58.9415 35.5478 59.1339 35.5478C59.8512 35.5478 60.411 35.434 60.8134 35.2066C61.2158 34.9967 61.5657 34.638 61.8631 34.1307Z" fill="#2F2F2F"/>
<path d="M82.5894 21.7175C83.9015 20.318 85.3011 19.6182 86.7882 19.6182C88.1702 19.6182 89.1412 20.0905 89.7011 21.0352C90.2784 21.98 90.567 23.1609 90.5671 24.578V33.5003H86.5782V24.5255C86.5782 23.4408 86.1583 22.8985 85.3186 22.8985C84.6538 22.8985 83.9102 23.2659 83.088 24.0006V33.5003H79.0992V24.5255C79.0992 23.4408 78.6793 22.8985 77.8395 22.8985C77.0698 22.8985 76.3262 23.2834 75.6089 24.0531V33.5003H71.6201V19.9331H74.0869L74.8742 22.0062C76.2563 20.4142 77.7346 19.6182 79.3091 19.6182C80.8836 19.6182 81.9771 20.318 82.5894 21.7175Z" fill="#2F2F2F"/>
<path d="M100.532 24.8141V24.473C100.532 23.8607 100.392 23.4146 100.112 23.1346C99.8497 22.8547 99.3861 22.7148 98.7213 22.7148C97.6891 22.7148 96.4207 23.0647 94.9162 23.7644L93.5516 21.1402C95.3011 20.1255 97.138 19.6182 99.0625 19.6182C100.864 19.6182 102.22 20.0643 103.13 20.9565C104.057 21.8313 104.521 23.0822 104.521 24.7092V33.5003H102.054C101.599 32.5381 101.363 32.057 101.346 32.057C100.103 33.1942 98.7738 33.7628 97.3567 33.7628C96.1496 33.7628 95.1349 33.4129 94.3126 32.7131C93.5078 31.9958 93.1055 31.0248 93.1055 29.8002C93.1055 28.3656 93.5691 27.3159 94.4963 26.6511C95.581 25.8463 97.5929 25.234 100.532 24.8141ZM100.532 30.1413V27.2809C98.8 27.6308 97.7503 28.0157 97.383 28.4356C97.138 28.698 97.0156 29.0566 97.0156 29.5115C97.0156 30.4737 97.4792 30.9548 98.4064 30.9548C99.1762 30.9548 99.8847 30.6837 100.532 30.1413Z" fill="#2F2F2F"/>
<path d="M107.704 33.5003V19.9331H110.171L110.958 22.0062C112.34 20.4142 113.854 19.6182 115.498 19.6182C118.087 19.6182 119.382 21.2714 119.382 24.578V33.5003H115.393V24.5255C115.393 23.4408 114.938 22.8985 114.028 22.8985C113.189 22.8985 112.41 23.2834 111.693 24.0531V33.5003H107.704Z" fill="#2F2F2F"/>
<path d="M123.511 22.663H121.517V19.9338H123.563L124.246 16.0762H127.5V19.9338H130.386V22.663H127.5V29.1973C127.5 29.7921 127.596 30.2033 127.789 30.4307C127.981 30.6581 128.375 30.7719 128.969 30.7719C129.302 30.7719 129.765 30.6844 130.36 30.5094L130.833 33.2649C129.835 33.5973 128.821 33.7635 127.789 33.7635C124.937 33.7635 123.511 32.3114 123.511 29.4073V22.663Z" fill="#2F2F2F"/>
<path d="M136.589 27.8845C136.676 28.8117 136.93 29.494 137.35 29.9314C137.787 30.3688 138.434 30.5874 139.292 30.5874C139.764 30.5874 140.236 30.5175 140.709 30.3775C141.199 30.2375 141.557 30.1063 141.785 29.9839C142.03 29.8614 142.388 29.669 142.861 29.4065L144.435 31.9258C143.893 32.3282 143.429 32.6431 143.044 32.8705C142.66 33.0805 142.108 33.2817 141.391 33.4741C140.674 33.6665 139.878 33.7628 139.003 33.7628C137.009 33.7628 135.417 33.1504 134.227 31.9258C133.055 30.6837 132.469 28.9954 132.469 26.861C132.469 24.7267 133.029 22.9859 134.148 21.6388C135.268 20.2917 136.807 19.6182 138.767 19.6182C140.779 19.6182 142.283 20.2917 143.281 21.6388C144.278 22.9859 144.776 24.7179 144.776 26.8348V27.8845H136.589ZM136.589 25.5489H140.709C140.709 23.502 140.053 22.4786 138.741 22.4786C138.111 22.4786 137.621 22.7235 137.271 23.2134C136.921 23.6857 136.694 24.4643 136.589 25.5489Z" fill="#2F2F2F"/>
<path d="M153.303 33.7628C151.134 33.7628 149.498 33.1242 148.396 31.8471C147.311 30.5525 146.769 28.8642 146.769 26.7823C146.769 24.7004 147.337 22.9859 148.474 21.6388C149.611 20.2917 151.221 19.6182 153.303 19.6182C155.14 19.6182 156.636 20.1255 157.79 21.1402L155.927 23.7907C155.455 23.4408 155.044 23.2046 154.694 23.0821C154.344 22.9422 153.889 22.8722 153.329 22.8722C151.702 22.8722 150.889 24.1581 150.889 26.7298C150.889 29.2491 151.72 30.5087 153.382 30.5087C154.274 30.5087 155.175 30.1501 156.085 29.4328L158 31.8996C156.758 33.1417 155.192 33.7628 153.303 33.7628Z" fill="#2F2F2F"/>
<path d="M24.219 14.4326C20.7942 18.7131 19.9311 20.5926 18.5667 24.0534C17.0186 20.9223 15.1711 18.7614 11.9726 17.3302C11.3667 17.1755 11.0688 17.0858 10.6605 17.6582C10.2523 18.2306 10.4998 18.7456 10.9885 19.353C12.2693 20.9448 13.7085 22.4154 14.7062 24.2188C15.8758 26.333 17.332 29.8174 17.8225 30.7247C18.2125 31.4463 19.1559 31.7635 19.5173 31.7635C21.4529 31.5344 21.4536 30.5504 21.8226 28.8445C22.4209 26.0473 23.1959 23.1553 26.8433 19.6811V14.4326H24.219Z" fill="#2F2F2F"/>
<path d="M38.6524 1.3125V2.62461H39.9645V1.3125H38.6524ZM38.6524 2.62461H36.0282V3.93673H38.6524V2.62461ZM36.0282 3.93673H34.7161V6.56096H36.0282V3.93673ZM36.0282 6.56096V7.87307H37.3403V6.56096H36.0282ZM37.3403 6.56096H38.6524V5.24884H37.3403V6.56096ZM36.0282 7.87307H34.7161V9.18519H33.4039V7.87307H30.7797V9.18519H29.4676V10.4973H30.7797V11.8094H29.4676V10.4973H28.1555V11.8094H26.8434V13.1215H25.5312V18.37H28.1555V17.0579H29.4676V15.7458H30.7797V14.4336H29.4676V13.1215H30.7797V14.4336H32.0918V13.1215H33.4039V11.8094H34.7161V10.4973H36.0282V7.87307ZM33.4039 7.87307H34.7161V6.56096H33.4039V7.87307ZM33.4039 6.56096V5.24884H32.0918V6.56096H33.4039Z" fill="#2F2F2F"/>
</svg>
