<svg width="80" height="74" viewBox="0 0 80 74" fill="none" xmlns="http://www.w3.org/2000/svg">
<path d="M37.0956 29.127C28.8717 28.5563 20.9843 24.0493 19.0527 22.8786C13.0092 29.7123 12.0434 36.6778 11.8971 38.7264L16.8577 38.902L17.5309 38.9313L17.4431 39.6044L17.0772 42.5604L17.0041 43.1164L16.448 43.1018L11.9117 43.0286C12.8336 52.7159 19.1113 58.8618 20.7502 60.3252C28.0522 54.2377 35.4274 53.0085 37.5199 52.7598L37.5492 48.3844V47.7698H38.1638L41.2075 47.7405H41.8368V48.3698V52.8037C50.8801 52.7598 57.509 57.9838 59.2504 59.5057C66.128 52.3939 66.3621 44.6529 66.289 42.575L61.5185 42.3994L60.8454 42.3701L60.9186 41.7116L61.2698 38.5655L61.3283 38.0094H61.8844L66.2597 38.0533C64.7817 29.9318 60.0552 24.2688 58.7236 22.8054C50.5436 28.2344 43.2416 28.966 41.0905 29.0685L41.149 33.1512L41.1636 33.7804H40.5344H37.7102H37.0956V33.1512V29.127ZM19.2722 21.547C19.3015 21.5616 28.4034 27.4881 37.7394 27.9124L38.3394 27.9417V28.527V32.5073H39.9198L39.8613 28.4392L39.8466 27.7954L40.4905 27.81C40.5198 27.81 48.8754 28.0002 58.4748 21.4592L58.8992 21.1665L59.265 21.5323C59.2943 21.5616 66.0402 28.2929 67.6352 38.5655L67.7523 39.2825H67.0206L62.4697 39.2386L62.2502 41.1556L66.9182 41.3312L67.4596 41.3458L67.5182 41.8872C67.5182 41.9165 68.6303 51.9549 59.7333 60.7788L59.3089 61.2032L58.8699 60.7788C58.8553 60.7642 51.6557 53.6817 41.2514 54.0182L40.6076 54.0329V53.389V48.9405L38.793 48.9551L38.7638 53.2866V53.8719L38.1784 53.9012C38.1492 53.9012 29.5887 54.3255 21.1599 61.5544L20.7648 61.8909L20.3551 61.569C20.3258 61.5544 11.4434 54.4865 10.6093 42.3994L10.5654 41.7555L11.2386 41.7702L15.9066 41.8433L16.1261 40.1166L11.2239 39.941L10.624 39.9264V39.3264C10.624 39.2971 10.6386 30.2684 18.482 21.664L18.8332 21.2689L19.2722 21.547Z" fill="#2F2F2F"/>
<path d="M60.6112 19.7767C55.0799 14.2892 47.4413 10.8943 38.9979 10.8943C30.5545 10.8943 22.9159 14.2892 17.3845 19.7767C11.8531 25.2642 8.42895 32.8442 8.42895 41.2144C8.42895 49.5847 11.8531 57.1647 17.3845 62.6522C22.9159 68.1397 30.5545 71.5346 38.9979 71.5346C47.4413 71.5346 55.0799 68.1397 60.6112 62.6522C66.1426 57.1647 69.5668 49.5847 69.5668 41.2144C69.5668 32.8442 66.1426 25.2642 60.6112 19.7767ZM38.9979 9.24072C47.8949 9.24072 55.9432 12.8259 61.7819 18.606C67.6206 24.3862 71.2204 32.3906 71.2204 41.2144C71.2204 50.0383 67.606 58.0427 61.7819 63.8229C55.9432 69.603 47.8949 73.1882 38.9979 73.1882C30.1008 73.1882 22.0525 69.603 16.2139 63.8229C10.3752 58.0427 6.77539 50.0383 6.77539 41.2144C6.77539 32.3906 10.3898 24.3862 16.2139 18.606C22.0525 12.8112 30.1008 9.24072 38.9979 9.24072Z" fill="#2F2F2F"/>
<path fill-rule="evenodd" clip-rule="evenodd" d="M20.9551 19.6009C20.9551 19.6009 28.3595 13.7183 37.959 12.8257L38.0175 25.5713C38.0175 25.5713 29.9984 25.7615 20.9551 19.6009Z" fill="#2F2F2F"/>
<path fill-rule="evenodd" clip-rule="evenodd" d="M40.3584 25.3226L40.4755 12.8843C40.4755 12.8843 48.3189 12.9282 57.5232 19.3229C57.5232 19.3229 50.8651 24.708 40.3584 25.3226Z" fill="#2F2F2F"/>
<path fill-rule="evenodd" clip-rule="evenodd" d="M43.0951 34.644L32.2079 34.5562L27.9643 46.5993C27.9643 46.5993 27.8033 46.9944 28.2569 46.9944C28.7106 47.0091 38.8514 46.7749 38.8514 46.7749L40.2562 42.8825C40.2562 42.8825 40.4318 42.7215 39.905 42.7215L36.2321 42.7069L37.8271 38.6242L41.0903 38.7413C41.0903 38.7413 41.5147 38.7266 41.6756 38.2291L43.0951 34.644Z" fill="#2F2F2F"/>
<path fill-rule="evenodd" clip-rule="evenodd" d="M44.0018 34.8926L52.1525 34.9657L48.2015 47.1114L40.0508 47.0821L44.0018 34.8926Z" fill="#2F2F2F"/>
<path fill-rule="evenodd" clip-rule="evenodd" d="M38.6907 56.1547L38.5297 68.7832C38.5297 68.7832 28.5498 67.8467 22.916 62.9006C22.9306 62.9006 31.0814 55.6864 38.6907 56.1547Z" fill="#2F2F2F"/>
<path fill-rule="evenodd" clip-rule="evenodd" d="M40.6806 56.0378L40.5928 68.5346C40.5928 68.5346 50.5727 67.5396 57.4796 62.0082C57.4796 62.0082 48.1728 54.7647 40.6806 56.0378Z" fill="#2F2F2F"/>
<path fill-rule="evenodd" clip-rule="evenodd" d="M0 28.937L32.7054 28.9663L26.0472 47.1847L16.9746 47.1262L20.9549 36.3707L0 28.937Z" fill="#2F2F2F"/>
<path fill-rule="evenodd" clip-rule="evenodd" d="M79.7366 52.6867L58.5769 45.6481C58.5769 45.6481 58.2257 45.6627 58.3867 44.9896C58.5476 44.3164 61.8986 34.9511 61.8986 34.9511L53.3089 34.9219L47.0166 52.7891L79.7366 52.6867Z" fill="#2F2F2F"/>
<path fill-rule="evenodd" clip-rule="evenodd" d="M11.3995 28.1318L13.8432 28.3513C13.8432 28.3513 13.2579 28.9367 11.4287 34.3802L9.35081 33.7803C9.33618 33.7949 10.0239 30.2537 11.3995 28.1318Z" fill="#2F2F2F"/>
<path fill-rule="evenodd" clip-rule="evenodd" d="M68.8934 48.2673L67.0203 47.521C67.0203 47.521 65.835 52.189 64.9717 53.4914L67.152 53.4328C67.152 53.4182 68.1471 51.3696 68.8934 48.2673Z" fill="#2F2F2F"/>
<path d="M70.2546 21.7959L70.8253 22.791L69.9327 23.3031L69.362 22.3081L70.2546 21.7959ZM68.7181 13.4695L69.2888 13.0159L73.3276 18.1668L72.7569 18.6205L72.4203 18.1961L68.7035 21.1228L68.0889 20.3472L70.4156 18.518C70.0936 18.1083 69.0547 18.079 68.6596 18.3863L68.4401 17.5815C68.601 17.4498 68.9961 17.3913 69.201 17.4059C69.2303 17.3766 69.362 16.8937 68.9522 16.4108C68.6157 16.0304 68.0889 16.0011 67.7377 16.2938C66.9475 16.923 67.5035 18.5766 67.5035 18.5766L66.6841 18.6644C66.6548 18.6351 65.9524 16.484 67.1377 15.5621C68.4108 14.567 70.1961 16.0596 69.9619 17.4791C70.3278 17.5522 70.7668 17.7864 71.0009 18.0937L71.8204 17.4498L68.7181 13.4695ZM65.3964 9.41613L69.0108 12.855L68.5132 13.3818L68.0742 12.9574L66.7865 14.3036C66.4792 14.6256 65.8939 14.5085 65.572 14.289L65.4842 13.411C65.5134 13.4403 65.7037 13.572 65.8646 13.6159C66.0841 13.6744 66.1866 13.5134 66.1866 13.5134L67.3718 12.2696L66.1866 11.1429L64.4013 13.0159L64.811 16.3084C64.8257 16.3523 64.7964 16.5718 64.5915 16.7913C64.2111 17.1571 63.5526 16.9669 63.2892 16.6889L63.2453 15.9133C63.2453 15.9133 63.6257 16.3377 63.8745 16.206C63.9769 16.1328 64.0647 16.0304 64.0355 15.8987L63.5965 12.4452L65.4842 10.4697L64.9135 9.91366L65.3964 9.41613ZM53.1776 7.26504L54.2165 7.7333L53.7922 8.66983L52.7532 8.20157L53.1776 7.26504ZM54.758 0.606893L54.5531 1.11906C54.4214 0.972725 54.2897 0.928825 54.0995 0.841025C53.1776 0.475193 52.68 2.02632 53.3239 2.52385L52.7386 2.28972C52.5922 2.11412 52.3288 1.36782 52.5483 0.855658C52.9288 -0.0516056 54.1726 -0.154038 54.758 0.606893ZM50.1485 7.04554C50.5143 7.36747 50.8362 7.79184 51.1874 8.14303L50.5728 8.71373C50.046 8.14303 49.6509 7.5138 49.2119 6.88457C49.2119 6.88457 48.9632 6.84067 48.8022 6.79677C48.3193 6.63581 47.9096 6.26997 48.0705 5.84561C48.1583 5.50904 48.4656 5.36271 48.8461 5.47978C49.3729 5.62611 49.6509 6.29924 49.6363 6.31387C49.6509 6.35777 50.7484 6.70897 50.9826 5.72854C51.1728 5.04078 50.4265 5.40661 50.0314 5.31881C49.0949 5.07004 48.6412 3.67988 48.7876 3.16772C48.89 2.83115 49.2412 2.72872 49.5192 2.80189L51.2606 3.29942L51.4508 2.64092L48.5095 1.80682L48.7144 1.11906L53.4556 2.46532L53.2654 3.15308L52.3288 2.88968L51.963 4.19205L49.9143 3.60672C49.8704 3.59208 49.6363 3.51892 49.8119 3.95791C50.0314 4.54325 50.1192 4.67495 50.8509 4.67495C51.6557 4.63105 52.2703 4.93834 52.0069 5.87488C51.6411 7.0309 50.2216 7.06017 50.1485 7.04554ZM46.2999 0.577625L48.6266 1.11906L48.4656 1.82145L47.9096 1.68975L46.8414 6.29924L45.8756 6.07974L46.9438 1.47026L46.139 1.28002L46.2999 0.577625ZM43.2708 0.182527L45.6853 0.372759L45.6268 1.08979L45.0415 1.04589L44.6756 5.75781L43.7098 5.68464L43.8854 3.40185C43.7245 3.54818 43.2416 3.48965 43.1391 3.34332C43.3294 4.41155 42.3928 5.26028 41.3246 5.17248C39.8027 5.05541 38.9686 2.84578 38.9833 2.77262L39.832 2.50922C39.8027 2.52385 40.4905 4.35301 41.4124 4.39691C41.9246 4.44081 42.1587 4.08961 42.188 3.65062C42.2904 2.62629 41.0027 2.71409 40.9002 2.77262L40.6368 2.05559C40.6807 2.09949 41.8075 2.23119 41.8953 1.39709C41.9392 1.06052 41.7636 0.753225 41.3539 0.723958C40.871 0.680058 40.2417 1.22149 40.2271 1.26539L39.5979 0.709325C39.5979 0.694692 40.3734 -0.0808726 41.4417 0.00692709C42.2611 0.0654602 42.8757 0.621526 42.8172 1.33856C42.7879 1.77756 42.5684 2.08485 42.1733 2.28972C42.188 2.31899 42.6855 2.52385 42.9343 2.72872C43.1099 2.88969 43.5928 2.80188 43.9293 2.68482L44.061 0.958091L43.1977 0.899558L43.2708 0.182527ZM28.3302 6.00657L29.4277 5.69928L29.7058 6.69434L28.6083 7.00164L28.3302 6.00657ZM24.6719 2.52385C24.6719 2.50922 23.5744 0.870292 22.6379 1.13369C22.1989 1.28002 21.8623 1.71902 21.9794 2.15802C22.1257 2.67019 22.755 3.13845 22.8281 3.13845L21.8916 3.46038C21.8477 3.43112 21.2624 3.06528 21.0721 2.40679C20.8673 1.61659 21.3355 0.870291 22.3745 0.519092C24.0134 -0.0369727 25.506 2.21655 25.5207 2.23119L26.0767 2.04095L26.3109 2.72872L25.7694 2.91895L27.2913 7.39674L26.3548 7.71867L24.8329 3.24088L24.0573 3.50428L23.8232 2.81652L24.6719 2.52385ZM17.6772 5.80171L23.4281 2.86042L23.75 3.50428L23.2379 3.76768L25.389 7.98207L24.5256 8.42107L23.3842 6.19681L22.4477 6.67971L21.7014 6.29924L23.0769 5.59684L22.3745 4.22131L20.9551 4.95298L21.5697 6.15291C21.8477 6.70897 21.5697 7.2504 21.0429 7.52844C21.0721 7.54307 21.6721 7.87963 22.0379 8.01133C22.5647 8.2162 23.2086 8.45033 23.2525 8.4357L22.7989 9.28443C22.7696 9.2698 21.8184 8.88933 20.6624 8.28937C19.8722 7.89427 19.0088 7.3382 19.0088 7.32357L19.4478 6.57727C19.7112 7.10407 21.0429 7.27967 20.6331 6.47484L20.0917 5.40661L18.0138 6.47484L17.6772 5.80171ZM11.6337 16.6303L12.4239 15.7962L13.1702 16.5133L12.38 17.3474L11.6337 16.6303ZM6.58519 15.7084C6.57055 15.6938 4.77066 14.9182 4.12679 15.6645C3.83413 16.0304 3.79023 16.5864 4.14143 16.8791C4.53653 17.2157 5.32672 17.2742 5.38526 17.2303L4.77066 18.0059C4.71212 18.0059 4.02436 18.0205 3.5122 17.5669C2.91223 17.0108 2.8976 16.1328 3.57073 15.2841C4.63896 13.9232 7.12662 14.9914 7.14125 15.006L7.50708 14.5378L8.07778 14.9914L7.72658 15.445L11.4434 18.3717L10.8288 19.1473L7.11198 16.2206L6.59982 16.8645L6.02912 16.4108L6.58519 15.7084ZM3.0293 20.9179L5.91205 16.4108L6.52665 16.8059L5.98522 17.64L7.31685 18.4888L6.20472 20.2155C5.97059 20.5813 6.10229 21.0203 6.51202 21.2837C7.78511 22.1032 9.35088 20.5667 8.60458 19.279L9.43868 18.9131C9.73134 19.7033 9.67281 20.4204 9.18991 21.1667C8.47288 22.2788 6.93638 22.7763 5.89742 22.0447C5.16576 21.5764 5.06332 20.713 5.48769 20.0399L6.21935 18.8839L5.47305 18.401L3.62926 21.2837L3.0293 20.9179Z" fill="#2F2F2F"/>
</svg>
