<!-- created by svgstack.com | Attribution is required. --><svg xmlns="http://www.w3.org/2000/svg" width="1024" height="1024"><path fill="#304F7A" d="M499.07 135.57c207.812-7.007 381.978 155.732 389.066 363.542 7.088 207.808-155.584 382.036-363.39 389.204-207.92 7.172-382.264-155.608-389.356-363.53s155.756-382.203 363.68-389.215m21.19 698.474c177.992-4.728 318.45-152.85 313.726-330.84-4.724-177.992-152.84-318.455-330.832-313.737-177.998 4.719-318.47 152.843-313.745 330.843 4.724 177.998 152.853 318.464 330.851 313.734"/><path fill="#2FB1FC" d="M511.372 471.122c4.52-3.68 8.66-8.354 12.824-12.462l89.48-88.164c7.476-7.336 19.9-21.588 27.646-27.242 25.302-18.474 55.774 12.148 41.286 35.89-5.484 8.984-24.222 25.712-32.642 34.124-31 30.97-69.434 66.142-98.012 98.256 6.332 8.072 14.63 15.35 21.896 22.626l66.048 65.878c10 9.874 41.042 36.24 45.008 48.814 5.038 15.966-4.106 30.994-19.854 35.518-24.582 5.446-38.242-18.634-53.498-33.436l-100.182-98.772c-16.862 20.268-37.498 37.692-56.02 56.432l-47.126 47.492c-10.168 10.15-22.19 27.212-37.712 28.57-15.428 1.352-31.21-10.792-32.05-26.666-.696-13.16 7.328-19.486 15.724-28.024l94.434-94.576c7.668-7.832 16.11-15.2 23.392-23.36l.438-.496c-29.998-29.374-59.504-59.296-88.914-89.256l-25.31-25.388c-6.794-6.814-16.504-14.298-18.972-24.048-4.13-16.326 5.59-30.574 21.738-34.184 20.608-1.758 28.612 11.248 41.936 24.496l83.082 82.846c8.45 8.35 17.524 16.192 25.36 25.132"/></svg>