<svg width="316" height="92" viewBox="0 0 316 92" fill="none" xmlns="http://www.w3.org/2000/svg">
<path d="M43.7387 43.7695H0V47.4575H43.7387V43.7695Z" fill="white"/>
<path d="M44.5119 36.4707H1.03418V40.1587H44.5119V36.4707Z" fill="white"/>
<path d="M45.9829 29.1777H2.98535V32.8657H45.9829V29.1777Z" fill="white"/>
<path d="M49.7813 21.8809H6.33496V25.5688H49.7813V21.8809Z" fill="white"/>
<path d="M55.4095 14.5898H11.8691V18.2778H55.4095V14.5898Z" fill="white"/>
<path d="M63.4894 7.28906H20.3457V10.977H63.4894V7.28906Z" fill="white"/>
<path d="M56.799 0H38.3223V3.68797H56.799V0Z" fill="white"/>
<path d="M44.5119 51.0566H1.03418V54.7446H44.5119V51.0566Z" fill="white"/>
<path d="M45.9829 58.3633H2.98535V62.0512H45.9829V58.3633Z" fill="white"/>
<path d="M49.7813 65.6523H6.33496V69.3403H49.7813V65.6523Z" fill="white"/>
<path d="M55.4095 72.9473H11.8691V76.6352H55.4095V72.9473Z" fill="white"/>
<path d="M63.4894 80.2363H20.3457V83.9243H63.4894V80.2363Z" fill="white"/>
<path d="M56.799 87.5312H38.3223V91.2192H56.799V87.5312Z" fill="white"/>
<path d="M95.0967 43.7695H47.5479V47.4575H95.0967V43.7695Z" fill="white"/>
<path d="M94.3242 36.4707H48.3203V40.1587H94.3242V36.4707Z" fill="white"/>
<path d="M92.8642 29.1777H49.7832V32.8657H92.8642V29.1777Z" fill="white"/>
<path d="M88.9191 21.8809H53.7402V25.5688H88.9191V21.8809Z" fill="white"/>
<path d="M83.4482 14.5898H59.2197V18.2778H83.4482V14.5898Z" fill="white"/>
<path d="M75.3377 7.28906H67.2998V10.977H75.3377V7.28906Z" fill="white"/>
<path d="M94.3242 51.0566H48.3203V54.7446H94.3242V51.0566Z" fill="white"/>
<path d="M92.8642 58.3633H49.7832V62.0512H92.8642V58.3633Z" fill="white"/>
<path d="M88.9191 65.6523H53.7402V69.3403H88.9191V65.6523Z" fill="white"/>
<path d="M83.4482 72.9473H59.2197V76.6352H83.4482V72.9473Z" fill="white"/>
<path d="M75.3377 80.2363H67.2998V83.9243H75.3377V80.2363Z" fill="white"/>
<path d="M300.336 76.1713C295.125 76.1713 292.035 73.7277 291.783 69.5593H295.88C296.024 71.6076 297.784 72.6856 300.12 72.6856C302.276 72.6856 303.426 71.8591 303.426 70.3858C303.426 68.9124 302.204 68.6249 300.551 68.0859L298.036 67.2594C294.874 66.2173 292.143 65.1392 292.143 61.6176C292.143 58.2397 294.73 56.0117 299.294 56.0117C303.714 56.0117 306.732 58.3475 307.235 62.6597H303.211C302.995 60.5036 301.45 59.4974 299.258 59.4974C297.389 59.4974 296.311 60.288 296.311 61.5817C296.311 63.055 297.964 63.4503 299.33 63.9174L301.629 64.6721C305.403 65.9298 307.667 67.0797 307.667 70.4936C307.667 74.0152 305.007 76.1713 300.336 76.1713Z" fill="white"/>
<path d="M277.323 75.633H273.083V48.6816H277.323V64.8524L285.445 56.5874H290.619L283.72 63.451L291.554 75.633H286.631L280.773 66.3977L277.323 69.8474V75.633Z" fill="white"/>
<path d="M263.935 75.6323H259.694V56.5867H263.108L263.611 60.324C264.833 57.7366 267.061 56.3711 270.223 56.3711H270.942V60.5036H270.223C266.27 60.5036 263.935 62.6238 263.935 66.2173V75.6323Z" fill="white"/>
<path d="M247.353 76.1713C241.173 76.1713 237.579 71.8232 237.579 65.9298C237.579 59.713 241.784 56.0117 247.353 56.0117C253.498 56.0117 257.092 60.3239 257.092 65.9298C257.092 72.3622 253.031 76.1713 247.353 76.1713ZM247.353 72.5419C250.767 72.5419 252.78 69.7389 252.78 65.9298C252.78 62.1566 250.659 59.6412 247.353 59.6412C244.047 59.6412 241.891 62.1566 241.891 65.9298C241.891 70.0983 244.227 72.5419 247.353 72.5419Z" fill="white"/>
<path d="M219.672 75.6335H215.216L209.574 56.5879H213.922L217.767 70.387L221.541 56.5879H225.062L228.871 70.2432L232.645 56.5879H236.993L231.351 75.6335H226.967L223.301 62.625L219.672 75.6335Z" fill="white"/>
<path d="M201.589 75.6323H197.349V56.5867H200.762L201.266 60.324C202.487 57.7366 204.715 56.3711 207.878 56.3711H208.596V60.5036H207.878C203.925 60.5036 201.589 62.6238 201.589 66.2173V75.6323Z" fill="white"/>
<path d="M186.026 76.1713C180.205 76.1713 176.216 72.0028 176.216 66.1814C176.216 59.8927 180.348 56.0117 185.667 56.0117C191.057 56.0117 194.651 59.7849 194.758 65.9657V66.9719H180.456C180.744 70.3139 182.828 72.5778 186.062 72.5778C188.254 72.5778 189.907 71.4997 190.554 69.5952H194.686C193.716 73.6918 190.518 76.1713 186.026 76.1713ZM180.636 63.9893H190.374C189.835 61.2582 188.146 59.6052 185.667 59.6052C183.151 59.6052 181.283 61.2582 180.636 63.9893Z" fill="white"/>
<path d="M166.012 76.172C162.994 76.172 160.478 74.6627 159.293 72.2551L158.897 75.633H155.483V48.6816H159.724V59.0669C161.089 57.1983 163.353 56.0124 166.048 56.0124C171.079 56.0124 174.637 60.109 174.637 66.0024C174.637 72.0035 171.079 76.172 166.012 76.172ZM165.078 72.5785C168.168 72.5785 170.289 69.8834 170.289 66.0024C170.289 62.2292 168.168 59.6059 165.078 59.6059C161.952 59.6059 159.724 62.1932 159.724 65.8946C159.724 69.8115 161.952 72.5785 165.078 72.5785Z" fill="white"/>
<path d="M138.481 82.8205H135.031V79.227H138.481C140.062 79.227 140.924 78.652 141.283 77.6459L142.038 75.6335H141.248L133.701 56.5879H138.265L143.727 71.0338L149.081 56.5879H153.501L145.2 78.9036C144.23 81.455 142.218 82.8205 138.481 82.8205Z" fill="white"/>
<path d="M120.352 76.1721C112.626 76.1721 107.703 70.8537 107.703 62.9839C107.703 55.3657 112.518 49.9395 120.352 49.9395C126.892 49.9395 131.384 53.7486 132.462 60.181H128.042C127.252 56.2281 124.341 53.8204 120.352 53.8204C115.285 53.8204 112.123 57.378 112.123 62.9839C112.123 68.7335 115.285 72.2552 120.352 72.2552C124.413 72.2552 127.252 69.9194 128.042 65.9306H132.462C131.312 72.4708 126.928 76.1721 120.352 76.1721Z" fill="white"/>
<path d="M308.669 34.7104C303.458 34.7104 300.368 32.2668 300.116 28.0983H304.213C304.357 30.1466 306.117 31.2247 308.453 31.2247C310.609 31.2247 311.759 30.3982 311.759 28.9248C311.759 27.4515 310.537 27.164 308.884 26.625L306.369 25.7985C303.207 24.7563 300.476 23.6783 300.476 20.1567C300.476 16.7788 303.063 14.5508 307.627 14.5508C312.047 14.5508 315.065 16.8866 315.568 21.1988H311.544C311.328 19.0427 309.783 18.0365 307.591 18.0365C305.722 18.0365 304.644 18.8271 304.644 20.1207C304.644 21.5941 306.297 21.9893 307.663 22.4565L309.962 23.2111C313.736 24.4689 316 25.6188 316 29.0326C316 32.5543 313.34 34.7104 308.669 34.7104Z" fill="white"/>
<path d="M298.342 34.167H295.899C291.766 34.167 289.538 32.1187 289.538 28.3456V18.715H286.196V15.1214H289.538V8.61719H293.779V15.1214H298.702V18.715H293.779V28.0581C293.779 29.6752 294.605 30.5735 296.186 30.5735H298.342V34.167Z" fill="white"/>
<path d="M276.658 34.7104C270.836 34.7104 266.848 30.5419 266.848 24.7204C266.848 18.4318 270.98 14.5508 276.299 14.5508C281.689 14.5508 285.282 18.324 285.39 24.5048V25.511H271.088C271.375 28.853 273.46 31.1169 276.694 31.1169C278.886 31.1169 280.539 30.0388 281.186 28.1343H285.318C284.348 32.2309 281.15 34.7104 276.658 34.7104ZM271.268 22.5284H281.006C280.467 19.7973 278.778 18.1443 276.299 18.1443C273.783 18.1443 271.915 19.7973 271.268 22.5284Z" fill="white"/>
<path d="M251.829 34.1681H247.589V7.2168H251.829V17.1708C253.123 15.5897 255.315 14.5476 257.794 14.5476C261.855 14.5476 264.514 17.2786 264.514 21.5549V34.1681H260.274V21.7705C260.274 19.6503 258.872 18.2489 256.609 18.2489C253.734 18.2489 251.865 20.1534 251.829 22.633V34.1681Z" fill="white"/>
<path d="M230.017 41.3584H225.741V15.1257H229.155L229.586 18.2521C230.844 16.0241 233.324 14.5508 236.342 14.5508C241.373 14.5508 244.931 18.6474 244.931 24.5407C244.931 30.5419 241.373 34.7104 236.306 34.7104C233.575 34.7104 231.311 33.4886 230.017 31.5122V41.3584ZM235.372 31.1169C238.462 31.1169 240.582 28.4217 240.582 24.5407C240.582 20.7676 238.462 18.1443 235.336 18.1443C232.21 18.1443 230.017 20.7316 230.017 24.4329C230.017 28.3499 232.21 31.1169 235.372 31.1169Z" fill="white"/>
<path d="M213.364 34.7104C207.183 34.7104 203.59 30.3622 203.59 24.4689C203.59 18.2521 207.794 14.5508 213.364 14.5508C219.509 14.5508 223.103 18.863 223.103 24.4689C223.103 30.9013 219.042 34.7104 213.364 34.7104ZM213.364 31.0809C216.778 31.0809 218.79 28.278 218.79 24.4689C218.79 20.6957 216.67 18.1802 213.364 18.1802C210.058 18.1802 207.902 20.6957 207.902 24.4689C207.902 28.6373 210.238 31.0809 213.364 31.0809Z" fill="white"/>
<path d="M196.045 34.1694H191.805V15.1238H195.219L195.722 18.8611C196.943 16.2737 199.171 14.9082 202.334 14.9082H203.052V19.0407H202.334C198.381 19.0407 196.045 21.1609 196.045 24.7544V34.1694Z" fill="white"/>
<path d="M172.387 34.1702H168.075V9.01562H180.832C185.971 9.01562 189.097 12.4295 189.097 16.9213C189.097 21.9882 185.576 25.0786 180.832 25.0786H172.387V34.1702ZM172.387 12.8966V21.1976H180.617C183.312 21.1976 184.713 19.1853 184.713 16.9213C184.713 14.5496 183.096 12.8966 180.617 12.8966H172.387Z" fill="white"/>
<path d="M164.862 34.167H162.418C158.286 34.167 156.058 32.1187 156.058 28.3456V18.715H152.716V15.1214H156.058V8.61719H160.298V15.1214H165.221V18.715H160.298V28.0581C160.298 29.6752 161.125 30.5735 162.706 30.5735H164.862V34.167Z" fill="white"/>
<path d="M143.176 34.7104C137.355 34.7104 133.366 30.5419 133.366 24.7204C133.366 18.4318 137.499 14.5508 142.817 14.5508C148.207 14.5508 151.801 18.324 151.909 24.5048V25.511H137.607C137.894 28.853 139.978 31.1169 143.212 31.1169C145.404 31.1169 147.057 30.0388 147.704 28.1343H151.837C150.867 32.2309 147.668 34.7104 143.176 34.7104ZM137.786 22.5284H147.525C146.986 19.7973 145.297 18.1443 142.817 18.1443C140.302 18.1443 138.433 19.7973 137.786 22.5284Z" fill="white"/>
<path d="M113.165 34.1702H108.853V9.01562H113.524L125.994 27.9534V9.01562H130.306V34.1702H125.634L113.165 15.2324V34.1702Z" fill="white"/>
</svg>
