<svg width="791" height="243" viewBox="0 0 791 243" fill="none" xmlns="http://www.w3.org/2000/svg">
<path d="M109.11 116.238H0V126.032H109.11V116.238Z" fill="#353535"/>
<path d="M111.037 96.8594H2.57812V106.653H111.037V96.8594Z" fill="#353535"/>
<path d="M114.708 77.4824H7.44727V87.2762H114.708V77.4824Z" fill="#353535"/>
<path d="M124.188 58.1055H15.8066V67.8992H124.188V58.1055Z" fill="#353535"/>
<path d="M138.224 38.7539H29.6084V48.5477H138.224V38.7539Z" fill="#353535"/>
<path d="M158.379 19.3516H50.7529V29.1453H158.379V19.3516Z" fill="#353535"/>
<path d="M141.687 0H95.5947V9.79375H141.687V0Z" fill="#353535"/>
<path d="M111.037 135.59H2.57812V145.384H111.037V135.59Z" fill="#353535"/>
<path d="M114.708 154.992H7.44727V164.786H114.708V154.992Z" fill="#353535"/>
<path d="M124.188 174.344H15.8066V184.137H124.188V174.344Z" fill="#353535"/>
<path d="M138.224 193.721H29.6084V203.514H138.224V193.721Z" fill="#353535"/>
<path d="M158.379 213.072H50.7529V222.866H158.379V213.072Z" fill="#353535"/>
<path d="M141.687 232.449H95.5947V242.243H141.687V232.449Z" fill="#353535"/>
<path d="M237.23 116.238H118.615V126.032H237.23V116.238Z" fill="#353535"/>
<path d="M235.303 96.8594H120.542V106.653H235.303V96.8594Z" fill="#353535"/>
<path d="M231.657 77.4824H124.188V87.2762H231.657V77.4824Z" fill="#353535"/>
<path d="M221.813 58.1055H134.057V67.8992H221.813V58.1055Z" fill="#353535"/>
<path d="M208.169 38.7539H147.729V48.5477H208.169V38.7539Z" fill="#353535"/>
<path d="M187.935 19.3516H167.884V29.1453H187.935V19.3516Z" fill="#353535"/>
<path d="M235.303 135.59H120.542V145.384H235.303V135.59Z" fill="#353535"/>
<path d="M231.657 154.992H124.188V164.786H231.657V154.992Z" fill="#353535"/>
<path d="M221.813 174.344H134.057V184.137H221.813V174.344Z" fill="#353535"/>
<path d="M208.169 193.721H147.729V203.514H208.169V193.721Z" fill="#353535"/>
<path d="M187.935 213.072H167.884V222.866H187.935V213.072Z" fill="#353535"/>
<path d="M751.139 197.35C738.089 197.35 730.349 191.23 729.719 180.79H739.979C740.339 185.92 744.749 188.62 750.599 188.62C755.999 188.62 758.879 186.55 758.879 182.86C758.879 179.17 755.819 178.45 751.679 177.1L745.379 175.03C737.459 172.42 730.619 169.72 730.619 160.9C730.619 152.44 737.099 146.86 748.529 146.86C759.599 146.86 767.159 152.71 768.419 163.51H758.339C757.799 158.11 753.929 155.59 748.439 155.59C743.759 155.59 741.059 157.57 741.059 160.81C741.059 164.5 745.199 165.49 748.619 166.66L754.379 168.55C763.829 171.7 769.499 174.58 769.499 183.13C769.499 191.95 762.839 197.35 751.139 197.35Z" fill="#353535"/>
<path d="M693.509 196H682.889V128.5H693.509V169L713.849 148.3H726.809L709.529 165.49L729.149 196H716.819L702.149 172.87L693.509 181.51V196Z" fill="#353535"/>
<path d="M659.973 196H649.353V148.3H657.903L659.163 157.66C662.223 151.18 667.803 147.76 675.723 147.76H677.523V158.11H675.723C665.823 158.11 659.973 163.42 659.973 172.42V196Z" fill="#353535"/>
<path d="M618.445 197.35C602.965 197.35 593.965 186.46 593.965 171.7C593.965 156.13 604.495 146.86 618.445 146.86C633.835 146.86 642.835 157.66 642.835 171.7C642.835 187.81 632.665 197.35 618.445 197.35ZM618.445 188.26C626.995 188.26 632.035 181.24 632.035 171.7C632.035 162.25 626.725 155.95 618.445 155.95C610.165 155.95 604.765 162.25 604.765 171.7C604.765 182.14 610.615 188.26 618.445 188.26Z" fill="#353535"/>
<path d="M549.12 196H537.96L523.83 148.3H534.72L544.35 182.86L553.8 148.3H562.62L572.16 182.5L581.61 148.3H592.5L578.37 196H567.39L558.21 163.42L549.12 196Z" fill="#353535"/>
<path d="M503.83 196H493.21V148.3H501.76L503.02 157.66C506.08 151.18 511.66 147.76 519.58 147.76H521.38V158.11H519.58C509.68 158.11 503.83 163.42 503.83 172.42V196Z" fill="#353535"/>
<path d="M464.853 197.35C450.273 197.35 440.283 186.91 440.283 172.33C440.283 156.58 450.633 146.86 463.953 146.86C477.453 146.86 486.453 156.31 486.723 171.79V174.31H450.903C451.623 182.68 456.843 188.35 464.943 188.35C470.433 188.35 474.573 185.65 476.193 180.88H486.543C484.113 191.14 476.103 197.35 464.853 197.35ZM451.353 166.84H475.743C474.393 160 470.163 155.86 463.953 155.86C457.653 155.86 452.973 160 451.353 166.84Z" fill="#353535"/>
<path d="M414.727 197.35C407.167 197.35 400.867 193.57 397.897 187.54L396.907 196H388.357V128.5H398.977V154.51C402.397 149.83 408.067 146.86 414.817 146.86C427.417 146.86 436.327 157.12 436.327 171.88C436.327 186.91 427.417 197.35 414.727 197.35ZM412.387 188.35C420.127 188.35 425.437 181.6 425.437 171.88C425.437 162.43 420.127 155.86 412.387 155.86C404.557 155.86 398.977 162.34 398.977 171.61C398.977 181.42 404.557 188.35 412.387 188.35Z" fill="#353535"/>
<path d="M345.774 214H337.134V205H345.774C349.734 205 351.894 203.56 352.794 201.04L354.684 196H352.704L333.804 148.3H345.234L358.914 184.48L372.324 148.3H383.394L362.604 204.19C360.174 210.58 355.134 214 345.774 214Z" fill="#353535"/>
<path d="M300.37 197.35C281.02 197.35 268.69 184.03 268.69 164.32C268.69 145.24 280.75 131.65 300.37 131.65C316.75 131.65 328 141.19 330.7 157.3H319.63C317.65 147.4 310.36 141.37 300.37 141.37C287.68 141.37 279.76 150.28 279.76 164.32C279.76 178.72 287.68 187.54 300.37 187.54C310.54 187.54 317.65 181.69 319.63 171.7H330.7C327.82 188.08 316.84 197.35 300.37 197.35Z" fill="#353535"/>
<path d="M772.015 97.3499C758.965 97.3499 751.225 91.2299 750.595 80.7899H760.855C761.215 85.9199 765.625 88.6199 771.475 88.6199C776.875 88.6199 779.755 86.5499 779.755 82.8599C779.755 79.1699 776.695 78.4499 772.555 77.0999L766.255 75.0299C758.335 72.4199 751.495 69.7199 751.495 60.8999C751.495 52.4399 757.975 46.8599 769.405 46.8599C780.475 46.8599 788.035 52.7099 789.295 63.5099H779.215C778.675 58.1099 774.805 55.5899 769.315 55.5899C764.635 55.5899 761.935 57.5699 761.935 60.8099C761.935 64.4999 766.075 65.4899 769.495 66.6599L775.255 68.5499C784.705 71.6999 790.375 74.5799 790.375 83.1299C790.375 91.9499 783.715 97.3499 772.015 97.3499Z" fill="#353535"/>
<path d="M746.15 95.9998H740.03C729.68 95.9998 724.1 90.8698 724.1 81.4198V57.2998H715.73V48.2998H724.1V32.0098H734.72V48.2998H747.05V57.2998H734.72V80.6998C734.72 84.7498 736.79 86.9998 740.75 86.9998H746.15V95.9998Z" fill="#353535"/>
<path d="M691.839 97.3499C677.259 97.3499 667.269 86.9099 667.269 72.3299C667.269 56.5799 677.619 46.8599 690.939 46.8599C704.439 46.8599 713.439 56.3099 713.709 71.7899V74.3099H677.889C678.609 82.6799 683.829 88.3499 691.929 88.3499C697.419 88.3499 701.559 85.6499 703.179 80.8799H713.529C711.099 91.1399 703.089 97.3499 691.839 97.3499ZM678.339 66.8399H702.729C701.379 59.9999 697.149 55.8599 690.939 55.8599C684.639 55.8599 679.959 59.9999 678.339 66.8399Z" fill="#353535"/>
<path d="M629.655 96H619.035V28.5H629.655V53.43C632.895 49.47 638.385 46.86 644.595 46.86C654.765 46.86 661.425 53.7 661.425 64.41V96H650.805V64.95C650.805 59.64 647.295 56.13 641.625 56.13C634.425 56.13 629.745 60.9 629.655 67.11V96Z" fill="#353535"/>
<path d="M575.029 114H564.319V48.2999H572.869L573.949 56.1299C577.099 50.5499 583.309 46.8599 590.869 46.8599C603.469 46.8599 612.379 57.1199 612.379 71.8799C612.379 86.9099 603.469 97.3499 590.779 97.3499C583.939 97.3499 578.269 94.2899 575.029 89.3399V114ZM588.439 88.3499C596.179 88.3499 601.489 81.5999 601.489 71.8799C601.489 62.4299 596.179 55.8599 588.349 55.8599C580.519 55.8599 575.029 62.3399 575.029 71.6099C575.029 81.4199 580.519 88.3499 588.439 88.3499Z" fill="#353535"/>
<path d="M533.321 97.3499C517.841 97.3499 508.841 86.4599 508.841 71.6999C508.841 56.1299 519.371 46.8599 533.321 46.8599C548.711 46.8599 557.711 57.6599 557.711 71.6999C557.711 87.8099 547.541 97.3499 533.321 97.3499ZM533.321 88.2599C541.871 88.2599 546.911 81.2399 546.911 71.6999C546.911 62.2499 541.601 55.9499 533.321 55.9499C525.041 55.9499 519.641 62.2499 519.641 71.6999C519.641 82.1399 525.491 88.2599 533.321 88.2599Z" fill="#353535"/>
<path d="M489.943 95.9998H479.323V48.2998H487.873L489.133 57.6598C492.193 51.1798 497.773 47.7598 505.693 47.7598H507.493V58.1098H505.693C495.793 58.1098 489.943 63.4198 489.943 72.4198V95.9998Z" fill="#353535"/>
<path d="M430.691 96H419.891V33H451.841C464.711 33 472.541 41.55 472.541 52.8C472.541 65.49 463.721 73.23 451.841 73.23H430.691V96ZM430.691 42.72V63.51H451.301C458.051 63.51 461.561 58.47 461.561 52.8C461.561 46.86 457.511 42.72 451.301 42.72H430.691Z" fill="#353535"/>
<path d="M411.846 95.9998H405.726C395.376 95.9998 389.796 90.8698 389.796 81.4198V57.2998H381.426V48.2998H389.796V32.0098H400.416V48.2998H412.746V57.2998H400.416V80.6998C400.416 84.7498 402.486 86.9998 406.446 86.9998H411.846V95.9998Z" fill="#353535"/>
<path d="M357.535 97.3499C342.955 97.3499 332.965 86.9099 332.965 72.3299C332.965 56.5799 343.315 46.8599 356.635 46.8599C370.135 46.8599 379.135 56.3099 379.405 71.7899V74.3099H343.585C344.305 82.6799 349.525 88.3499 357.625 88.3499C363.115 88.3499 367.255 85.6499 368.875 80.8799H379.225C376.795 91.1399 368.785 97.3499 357.535 97.3499ZM344.035 66.8399H368.425C367.075 59.9999 362.845 55.8599 356.635 55.8599C350.335 55.8599 345.655 59.9999 344.035 66.8399Z" fill="#353535"/>
<path d="M282.37 96H271.57V33H283.27L314.5 80.43V33H325.3V96H313.6L282.37 48.57V96Z" fill="#353535"/>
</svg>
