<svg width="601" height="597" viewBox="0 0 601 597" fill="none" xmlns="http://www.w3.org/2000/svg">
<path d="M276.421 286.53H0V310.598H276.421V286.53Z" fill="url(#paint0_linear_608_166)"/>
<path d="M281.301 238.909H6.53027V262.977H281.301V238.909Z" fill="url(#paint1_linear_608_166)"/>
<path d="M290.604 191.294H18.8672V215.362H290.604V191.294Z" fill="url(#paint2_linear_608_166)"/>
<path d="M314.618 143.672H40.0444V167.74H314.618V143.672Z" fill="url(#paint3_linear_608_166)"/>
<path d="M350.177 96.1142H75.0098V120.182H350.177V96.1142Z" fill="url(#paint4_linear_608_166)"/>
<path d="M401.238 48.4355H128.578V72.5035H401.238V48.4355Z" fill="url(#paint5_linear_608_166)"/>
<path d="M358.949 0.877747H242.18V24.9457H358.949V0.877747Z" fill="url(#paint6_linear_608_166)"/>
<path d="M281.301 334.088H6.53027V358.156H281.301V334.088Z" fill="url(#paint7_linear_608_166)"/>
<path d="M290.604 381.774H18.8672V405.842H290.604V381.774Z" fill="url(#paint8_linear_608_166)"/>
<path d="M314.618 429.324H40.0444V453.392H314.618V429.324Z" fill="url(#paint9_linear_608_166)"/>
<path d="M350.177 476.946H75.0098V501.014H350.177V476.946Z" fill="url(#paint10_linear_608_166)"/>
<path d="M401.238 524.497H128.578V548.565H401.238V524.497Z" fill="url(#paint11_linear_608_166)"/>
<path d="M358.949 572.119H242.18V596.187H358.949V572.119Z" fill="url(#paint12_linear_608_166)"/>
<path d="M601 286.53H300.5V310.598H601V286.53Z" fill="url(#paint13_linear_608_166)"/>
<path d="M596.119 238.909H305.383V262.977H596.119V238.909Z" fill="url(#paint14_linear_608_166)"/>
<path d="M586.704 191.65H314.44V215.718H586.704V191.65Z" fill="url(#paint15_linear_608_166)"/>
<path d="M561.945 143.672H339.621V167.74H561.945V143.672Z" fill="url(#paint16_linear_608_166)"/>
<path d="M527.376 96.1142H374.256V120.182H527.376V96.1142Z" fill="url(#paint17_linear_608_166)"/>
<path d="M476.115 48.4355H425.317V72.5035H476.115V48.4355Z" fill="url(#paint18_linear_608_166)"/>
<path d="M596.119 334.088H305.383V358.156H596.119V334.088Z" fill="url(#paint19_linear_608_166)"/>
<path d="M586.882 381.774H314.618V405.842H586.882V381.774Z" fill="url(#paint20_linear_608_166)"/>
<path d="M561.945 429.324H339.621V453.392H561.945V429.324Z" fill="url(#paint21_linear_608_166)"/>
<path d="M527.376 476.946H374.256V501.014H527.376V476.946Z" fill="url(#paint22_linear_608_166)"/>
<path d="M476.115 524.497H425.317V548.565H476.115V524.497Z" fill="url(#paint23_linear_608_166)"/>
<defs>
<linearGradient id="paint0_linear_608_166" x1="-48.0631" y1="313.481" x2="-26.5686" y2="226.926" gradientUnits="userSpaceOnUse">
<stop stop-color="#D4D4D4"/>
<stop offset="1" stop-color="white"/>
</linearGradient>
<linearGradient id="paint1_linear_608_166" x1="-41.2461" y1="265.86" x2="-19.6376" y2="179.365" gradientUnits="userSpaceOnUse">
<stop stop-color="#D4D4D4"/>
<stop offset="1" stop-color="white"/>
</linearGradient>
<linearGradient id="paint2_linear_608_166" x1="-28.3815" y1="218.245" x2="-6.56051" y2="131.864" gradientUnits="userSpaceOnUse">
<stop stop-color="#D4D4D4"/>
<stop offset="1" stop-color="white"/>
</linearGradient>
<linearGradient id="paint3_linear_608_166" x1="-7.69749" y1="170.623" x2="13.9247" y2="84.1361" gradientUnits="userSpaceOnUse">
<stop stop-color="#D4D4D4"/>
<stop offset="1" stop-color="white"/>
</linearGradient>
<linearGradient id="paint4_linear_608_166" x1="27.1646" y1="123.065" x2="48.7456" y2="36.5564" gradientUnits="userSpaceOnUse">
<stop stop-color="#D4D4D4"/>
<stop offset="1" stop-color="white"/>
</linearGradient>
<linearGradient id="paint5_linear_608_166" x1="81.1689" y1="75.3866" x2="102.925" y2="-11.0288" gradientUnits="userSpaceOnUse">
<stop stop-color="#D4D4D4"/>
<stop offset="1" stop-color="white"/>
</linearGradient>
<linearGradient id="paint6_linear_608_166" x1="221.876" y1="27.8288" x2="262.023" y2="-40.4631" gradientUnits="userSpaceOnUse">
<stop stop-color="#D4D4D4"/>
<stop offset="1" stop-color="white"/>
</linearGradient>
<linearGradient id="paint7_linear_608_166" x1="-41.2461" y1="361.039" x2="-19.6376" y2="274.545" gradientUnits="userSpaceOnUse">
<stop stop-color="#D4D4D4"/>
<stop offset="1" stop-color="white"/>
</linearGradient>
<linearGradient id="paint8_linear_608_166" x1="-28.3815" y1="408.725" x2="-6.56053" y2="322.345" gradientUnits="userSpaceOnUse">
<stop stop-color="#D4D4D4"/>
<stop offset="1" stop-color="white"/>
</linearGradient>
<linearGradient id="paint9_linear_608_166" x1="-7.69749" y1="456.275" x2="13.9247" y2="369.789" gradientUnits="userSpaceOnUse">
<stop stop-color="#D4D4D4"/>
<stop offset="1" stop-color="white"/>
</linearGradient>
<linearGradient id="paint10_linear_608_166" x1="27.1646" y1="503.897" x2="48.7456" y2="417.388" gradientUnits="userSpaceOnUse">
<stop stop-color="#D4D4D4"/>
<stop offset="1" stop-color="white"/>
</linearGradient>
<linearGradient id="paint11_linear_608_166" x1="81.1689" y1="551.448" x2="102.925" y2="465.033" gradientUnits="userSpaceOnUse">
<stop stop-color="#D4D4D4"/>
<stop offset="1" stop-color="white"/>
</linearGradient>
<linearGradient id="paint12_linear_608_166" x1="221.876" y1="599.07" x2="262.023" y2="530.778" gradientUnits="userSpaceOnUse">
<stop stop-color="#D4D4D4"/>
<stop offset="1" stop-color="white"/>
</linearGradient>
<linearGradient id="paint13_linear_608_166" x1="248.25" y1="313.481" x2="268.2" y2="226.146" gradientUnits="userSpaceOnUse">
<stop stop-color="#D4D4D4"/>
<stop offset="1" stop-color="white"/>
</linearGradient>
<linearGradient id="paint14_linear_608_166" x1="254.831" y1="265.86" x2="275.381" y2="178.819" gradientUnits="userSpaceOnUse">
<stop stop-color="#D4D4D4"/>
<stop offset="1" stop-color="white"/>
</linearGradient>
<linearGradient id="paint15_linear_608_166" x1="267.1" y1="218.601" x2="288.883" y2="132.201" gradientUnits="userSpaceOnUse">
<stop stop-color="#D4D4D4"/>
<stop offset="1" stop-color="white"/>
</linearGradient>
<linearGradient id="paint16_linear_608_166" x1="300.964" y1="170.623" x2="326.867" y2="86.7283" gradientUnits="userSpaceOnUse">
<stop stop-color="#D4D4D4"/>
<stop offset="1" stop-color="white"/>
</linearGradient>
<linearGradient id="paint17_linear_608_166" x1="347.632" y1="123.065" x2="381.934" y2="46.5506" gradientUnits="userSpaceOnUse">
<stop stop-color="#D4D4D4"/>
<stop offset="1" stop-color="white"/>
</linearGradient>
<linearGradient id="paint18_linear_608_166" x1="416.485" y1="75.3866" x2="460.424" y2="42.8707" gradientUnits="userSpaceOnUse">
<stop stop-color="#D4D4D4"/>
<stop offset="1" stop-color="white"/>
</linearGradient>
<linearGradient id="paint19_linear_608_166" x1="254.831" y1="361.039" x2="275.381" y2="273.999" gradientUnits="userSpaceOnUse">
<stop stop-color="#D4D4D4"/>
<stop offset="1" stop-color="white"/>
</linearGradient>
<linearGradient id="paint20_linear_608_166" x1="267.277" y1="408.725" x2="289.061" y2="322.325" gradientUnits="userSpaceOnUse">
<stop stop-color="#D4D4D4"/>
<stop offset="1" stop-color="white"/>
</linearGradient>
<linearGradient id="paint21_linear_608_166" x1="300.964" y1="456.275" x2="326.867" y2="372.381" gradientUnits="userSpaceOnUse">
<stop stop-color="#D4D4D4"/>
<stop offset="1" stop-color="white"/>
</linearGradient>
<linearGradient id="paint22_linear_608_166" x1="347.632" y1="503.897" x2="381.934" y2="427.383" gradientUnits="userSpaceOnUse">
<stop stop-color="#D4D4D4"/>
<stop offset="1" stop-color="white"/>
</linearGradient>
<linearGradient id="paint23_linear_608_166" x1="416.485" y1="551.448" x2="460.424" y2="518.932" gradientUnits="userSpaceOnUse">
<stop stop-color="#D4D4D4"/>
<stop offset="1" stop-color="white"/>
</linearGradient>
</defs>
</svg>
