<svg width="50" height="50" viewBox="0 0 50 50" fill="none" xmlns="http://www.w3.org/2000/svg">
<g clip-path="url(#clip0_184_244)">
<path d="M25 49.375C11.5381 49.375 0.625 38.4619 0.625 25C0.625 11.5381 11.5381 0.625 25 0.625C38.4619 0.625 49.375 11.5381 49.375 25C49.375 38.4619 38.4619 49.375 25 49.375Z" stroke="#222222"/>
<path fill-rule="evenodd" clip-rule="evenodd" d="M22.5 15.3025C22.6411 15.1638 22.8313 15.0865 23.0292 15.0874C23.227 15.0883 23.4165 15.1674 23.5563 15.3074C23.6961 15.4474 23.775 15.6369 23.7757 15.8348C23.7764 16.0327 23.6988 16.2228 23.56 16.3637L15.9775 23.9475H35.8337C35.9322 23.9475 36.0298 23.9669 36.1208 24.0046C36.2117 24.0423 36.2944 24.0975 36.3641 24.1671C36.4337 24.2368 36.489 24.3195 36.5266 24.4105C36.5643 24.5015 36.5837 24.599 36.5837 24.6975C36.5837 24.796 36.5643 24.8935 36.5266 24.9845C36.489 25.0755 36.4337 25.1582 36.3641 25.2278C36.2944 25.2974 36.2117 25.3527 36.1208 25.3904C36.0298 25.4281 35.9322 25.4475 35.8337 25.4475H15.9775L23.56 33.03C23.6306 33.0994 23.6868 33.1821 23.7253 33.2733C23.7638 33.3645 23.7838 33.4624 23.7843 33.5614C23.7848 33.6604 23.7656 33.7585 23.728 33.8501C23.6903 33.9417 23.6349 34.0249 23.5649 34.0949C23.495 34.165 23.4118 34.2205 23.3203 34.2582C23.2288 34.296 23.1307 34.3152 23.0317 34.3149C22.9327 34.3146 22.8347 34.2946 22.7435 34.2562C22.6522 34.2178 22.5695 34.1618 22.5 34.0912L13.6362 25.2275C13.5662 25.1578 13.5106 25.0749 13.4728 24.9837C13.435 24.8924 13.4156 24.7945 13.4159 24.6957C13.4161 24.5969 13.4359 24.4991 13.4742 24.408C13.5124 24.3169 13.5684 24.2343 13.6387 24.165L22.5 15.3025Z" fill="#222222"/>
</g>
<defs>
<clipPath id="clip0_184_244">
<rect width="50" height="50" fill="white" transform="matrix(-1 0 0 1 50 0)"/>
</clipPath>
</defs>
</svg>
