<svg width="238" height="243" viewBox="0 0 238 243" fill="none" xmlns="http://www.w3.org/2000/svg">
<path d="M109.11 116.858H0V126.652H109.11V116.858Z" fill="#353535"/>
<path d="M111.037 97.4795H2.57812V107.273H111.037V97.4795Z" fill="#353535"/>
<path d="M114.708 78.1025H7.44727V87.8963H114.708V78.1025Z" fill="#353535"/>
<path d="M124.188 58.7256H15.8066V68.5193H124.188V58.7256Z" fill="#353535"/>
<path d="M138.224 39.374H29.6084V49.1678H138.224V39.374Z" fill="#353535"/>
<path d="M158.379 19.9717H50.7529V29.7654H158.379V19.9717Z" fill="#353535"/>
<path d="M141.687 0.620117H95.5947V10.4139H141.687V0.620117Z" fill="#353535"/>
<path d="M111.037 136.21H2.57812V146.004H111.037V136.21Z" fill="#353535"/>
<path d="M114.708 155.612H7.44727V165.406H114.708V155.612Z" fill="#353535"/>
<path d="M124.188 174.964H15.8066V184.758H124.188V174.964Z" fill="#353535"/>
<path d="M138.224 194.341H29.6084V204.135H138.224V194.341Z" fill="#353535"/>
<path d="M158.379 213.692H50.7529V223.486H158.379V213.692Z" fill="#353535"/>
<path d="M141.687 233.069H95.5947V242.863H141.687V233.069Z" fill="#353535"/>
<path d="M237.23 116.858H118.615V126.652H237.23V116.858Z" fill="#353535"/>
<path d="M235.303 97.4795H120.542V107.273H235.303V97.4795Z" fill="#353535"/>
<path d="M231.657 78.1025H124.188V87.8963H231.657V78.1025Z" fill="#353535"/>
<path d="M221.813 58.7256H134.057V68.5193H221.813V58.7256Z" fill="#353535"/>
<path d="M208.169 39.374H147.729V49.1678H208.169V39.374Z" fill="#353535"/>
<path d="M187.935 19.9717H167.884V29.7654H187.935V19.9717Z" fill="#353535"/>
<path d="M235.303 136.21H120.542V146.004H235.303V136.21Z" fill="#353535"/>
<path d="M231.657 155.612H124.188V165.406H231.657V155.612Z" fill="#353535"/>
<path d="M221.813 174.964H134.057V184.758H221.813V174.964Z" fill="#353535"/>
<path d="M208.169 194.341H147.729V204.135H208.169V194.341Z" fill="#353535"/>
<path d="M187.935 213.692H167.884V223.486H187.935V213.692Z" fill="#353535"/>
</svg>
