<svg width="119" height="41" viewBox="0 0 119 41" fill="none" xmlns="http://www.w3.org/2000/svg">
<g clip-path="url(#clip0_4_12)">
<path d="M18.4561 19.6733H0V21.3309H18.4561V19.6733Z" fill="#C6DD73"/>
<path d="M18.7825 16.3938H0.436523V18.0514H18.7825V16.3938Z" fill="#C6DD73"/>
<path d="M19.4031 13.1141H1.25977V14.7717H19.4031V13.1141Z" fill="#C6DD73"/>
<path d="M21.0066 9.83447H2.67383V11.4921H21.0066V9.83447Z" fill="#C6DD73"/>
<path d="M23.3802 6.55933H5.00781V8.21692H23.3802V6.55933Z" fill="#C6DD73"/>
<path d="M26.79 3.27515H8.58496V4.93274H26.79V3.27515Z" fill="#C6DD73"/>
<path d="M23.9664 0H16.1699V1.6576H23.9664V0Z" fill="#C6DD73"/>
<path d="M18.7825 22.9486H0.436523V24.6062H18.7825V22.9486Z" fill="#C6DD73"/>
<path d="M19.4031 26.2327H1.25977V27.8903H19.4031V26.2327Z" fill="#C6DD73"/>
<path d="M21.0066 29.5079H2.67383V31.1655H21.0066V29.5079Z" fill="#C6DD73"/>
<path d="M23.3802 32.7876H5.00781V34.4452H23.3802V32.7876Z" fill="#C6DD73"/>
<path d="M26.79 36.0627H8.58496V37.7203H26.79V36.0627Z" fill="#C6DD73"/>
<path d="M23.9664 39.3424H16.1699V41H23.9664V39.3424Z" fill="#C6DD73"/>
<path d="M40.1273 19.6733H20.0635V21.3309H40.1273V19.6733Z" fill="#052541"/>
<path d="M39.8016 16.3938H20.3896V18.0514H39.8016V16.3938Z" fill="#052541"/>
<path d="M39.1854 13.1141H21.0068V14.7717H39.1854V13.1141Z" fill="#052541"/>
<path d="M37.5199 9.83447H22.6758V11.4921H37.5199V9.83447Z" fill="#052541"/>
<path d="M35.2118 6.55933H24.9883V8.21692H35.2118V6.55933Z" fill="#052541"/>
<path d="M31.7892 3.27515H28.3975V4.93274H31.7892V3.27515Z" fill="#052541"/>
<path d="M39.8016 22.9486H20.3896V24.6062H39.8016V22.9486Z" fill="#052541"/>
<path d="M39.1854 26.2327H21.0068V27.8903H39.1854V26.2327Z" fill="#052541"/>
<path d="M37.5199 29.5079H22.6758V31.1655H37.5199V29.5079Z" fill="#052541"/>
<path d="M35.2118 32.7876H24.9883V34.4452H35.2118V32.7876Z" fill="#052541"/>
<path d="M31.7892 36.0627H28.3975V37.7203H31.7892V36.0627Z" fill="#052541"/>
<path d="M52.8267 8.14136L54.6943 14.9228H54.8353V8.14136H56.3769V16.3805H53.646L51.7739 9.59898H51.6374V16.3805H50.0957V8.14136H52.8267Z" fill="#052541"/>
<path d="M61.821 12.8831C61.799 12.1809 61.2176 11.6254 60.5216 11.6476C60.5128 11.6476 60.504 11.6476 60.4952 11.6476C59.7904 11.5943 59.1738 12.132 59.1253 12.8431V12.8831H61.8254H61.821ZM60.4952 10.3722C61.9972 10.3189 63.2614 11.501 63.3143 13.0164C63.3143 13.1186 63.3143 13.2164 63.3099 13.3186V13.8696H59.0945C59.1077 14.6562 59.7552 15.2828 60.5348 15.2695C61.1471 15.3006 61.7153 14.9584 61.9796 14.4029L63.1865 15.105C62.6447 16.0427 61.636 16.5938 60.5613 16.5404C58.9359 16.5627 57.6012 15.2517 57.5792 13.6119C57.5792 13.5497 57.5792 13.483 57.5792 13.4208C57.4867 11.8343 58.6892 10.47 60.2617 10.3767C60.3366 10.3767 60.4159 10.3722 60.4908 10.3767L60.4952 10.3722Z" fill="#052541"/>
<path d="M65.2525 10.5366V8.72351H66.7192V10.5366H68.3094V11.7854H66.7192V14.7762C66.7192 15.0117 66.8382 15.1273 67.0452 15.1273H67.979V16.376H66.3933C65.7898 16.4027 65.2789 15.9316 65.248 15.3228C65.248 15.2961 65.248 15.2739 65.248 15.2472V11.781H63.7812V10.5322H65.2525V10.5366Z" fill="#052541"/>
<path d="M71.0891 11.9499H72.7541C73.4104 11.9854 73.9742 11.4744 74.005 10.8078C74.0403 10.1456 73.5337 9.5768 72.873 9.54569C72.8334 9.54569 72.7937 9.54569 72.7497 9.54569H71.0802V11.9499H71.0891ZM72.9082 8.1414C74.2693 8.05696 75.4366 9.09685 75.5203 10.47C75.5247 10.5634 75.5247 10.6611 75.5203 10.7544C75.5819 12.141 74.5204 13.3142 73.1505 13.3764C73.0668 13.3764 72.9875 13.3764 72.9038 13.3764H71.0846V16.3894H69.543V8.1414H72.9038H72.9082Z" fill="#052541"/>
<path d="M77.9961 11.3854H78.1591C78.3705 10.781 78.9784 10.4166 79.6082 10.5188H80.1677V11.8164H79.2823C78.6568 11.7365 78.0842 12.1897 78.0049 12.8208C77.9961 12.8919 77.9961 12.963 78.0005 13.0385V16.3804H76.5293V10.5366H77.9741L77.9917 11.3854H77.9961Z" fill="#052541"/>
<path d="M83.6557 15.225C84.5279 15.225 85.2326 14.5095 85.2282 13.6296C85.2282 13.5674 85.2238 13.5052 85.215 13.443C85.3251 12.572 84.7129 11.7765 83.8495 11.6654C82.9862 11.5543 82.1977 12.172 82.0876 13.043C82.07 13.1763 82.07 13.3097 82.0876 13.443C81.9863 14.3184 82.6074 15.1139 83.4751 15.2161C83.5324 15.225 83.5896 15.225 83.6513 15.225H83.6557ZM83.6557 10.3722C85.2811 10.3233 86.6422 11.6121 86.6906 13.2519C86.6906 13.3185 86.6906 13.3896 86.6906 13.4563C86.7523 15.145 85.4396 16.5671 83.7658 16.6249C82.092 16.6826 80.6825 15.3628 80.6252 13.6741C80.6252 13.5985 80.6252 13.5274 80.6252 13.4563C80.5635 11.8165 81.8321 10.4344 83.4575 10.3722C83.5236 10.3722 83.5896 10.3722 83.6557 10.3722Z" fill="#052541"/>
<path d="M92.5225 13.4564C92.6194 12.572 91.9852 11.7766 91.1086 11.6832C90.232 11.5899 89.4436 12.2254 89.3511 13.1097C89.3379 13.2253 89.3379 13.3408 89.3511 13.4564C89.2542 14.3407 89.8885 15.1362 90.765 15.2295C91.6416 15.3273 92.43 14.6874 92.5225 13.803C92.5358 13.6875 92.5358 13.5719 92.5225 13.4564ZM87.8799 10.5367H89.3291V11.3633H89.492C89.8709 10.71 90.5844 10.3278 91.3332 10.3723C92.897 10.47 94.0862 11.8299 93.9893 13.4075C93.9893 13.4253 93.9893 13.443 93.9893 13.4564C94.1127 15.034 92.941 16.4161 91.3773 16.5405H91.3377C90.5888 16.5894 89.8753 16.2072 89.4964 15.5539H89.3555V18.7225H87.8843V10.5367H87.8799Z" fill="#052541"/>
<path d="M96.6548 8.14133V11.4832H96.7958C97.1261 10.7766 97.8617 10.3589 98.6282 10.4433C99.8571 10.4255 100.866 11.4121 100.888 12.652C100.888 12.7319 100.888 12.8075 100.879 12.8875V16.3716H99.4166V13.0297C99.4783 12.3764 99.0026 11.7943 98.3551 11.7321C98.267 11.7232 98.1789 11.7232 98.0908 11.7365C97.1437 11.7365 96.6416 12.3231 96.6416 13.3585V16.3716H95.1748V8.13245H96.6592L96.6548 8.14133Z" fill="#052541"/>
<path d="M106.235 12.883C106.213 12.1808 105.632 11.6253 104.936 11.6476C104.927 11.6476 104.918 11.6476 104.909 11.6476C104.204 11.5942 103.588 12.1275 103.535 12.8385V12.883H106.239H106.235ZM104.905 10.3721C106.407 10.3144 107.667 11.4965 107.724 13.0119C107.724 13.1141 107.724 13.2163 107.72 13.3185V13.8695H103.504C103.522 14.6606 104.169 15.2872 104.953 15.2694C105.566 15.3005 106.134 14.9583 106.398 14.4028L107.601 15.105C107.063 16.0426 106.05 16.5981 104.975 16.5404C103.354 16.5626 102.02 15.2516 101.998 13.6162C101.998 13.5496 101.998 13.4874 101.998 13.4207C101.901 11.8342 103.099 10.4744 104.671 10.3766C104.746 10.3721 104.826 10.3721 104.9 10.3721H104.905Z" fill="#052541"/>
<path d="M109.67 10.5366V8.72351H111.142V10.5366H112.727V11.7854H111.142V14.7762C111.142 15.0117 111.256 15.1273 111.463 15.1273H112.401V16.376H110.816C110.212 16.4027 109.701 15.9316 109.67 15.3228C109.67 15.2961 109.67 15.2739 109.67 15.2472V11.781H108.199V10.5322H109.67V10.5366Z" fill="#052541"/>
<path d="M115.991 10.3722C117.128 10.3722 118.211 10.8566 118.969 11.7143L117.974 12.6031C117.52 11.9898 116.82 11.6166 116.062 11.5899C115.48 11.5899 115.207 11.8254 115.207 12.1409C115.207 12.4565 115.498 12.6209 116.049 12.7142L116.753 12.8342C118.013 13.0431 119.004 13.4786 119.004 14.6162C119.004 15.7539 117.978 16.5316 116.555 16.5316C115.278 16.5627 114.075 15.9228 113.384 14.8384L114.538 14.1229C114.917 14.8829 115.692 15.3539 116.533 15.3361C117.207 15.3361 117.582 15.0651 117.582 14.7095C117.582 14.354 117.282 14.194 116.696 14.1007L115.991 13.9807C114.639 13.7585 113.78 13.2519 113.78 12.1676C113.78 11.0833 114.661 10.3678 115.987 10.3678" fill="#052541"/>
<path d="M53.1574 22.1043C55.2189 22.1043 56.3773 23.2553 56.3773 25.0907V25.3751H54.8357V25.0684C54.8885 24.2419 54.263 23.5308 53.4437 23.4819C53.3468 23.4775 53.2499 23.4819 53.1574 23.4908C52.184 23.4464 51.3559 24.2108 51.3118 25.1929C51.3118 25.2551 51.3118 25.3173 51.3118 25.3751V27.4015C51.2193 28.3481 51.9021 29.1924 52.8359 29.2858C52.9416 29.2946 53.0473 29.2991 53.153 29.2858C54.3555 29.2858 54.8313 28.6369 54.8313 27.7082V27.3971H56.3729V27.6815C56.3729 29.5035 55.307 30.6678 53.153 30.6678C51.1488 30.6678 49.7701 29.5168 49.7701 27.326V25.4417C49.66 23.7041 50.9683 22.2065 52.6905 22.0954C52.8447 22.0865 52.9989 22.0865 53.1574 22.0999" fill="#052541"/>
<path d="M63.5167 24.6639L60.3453 32.8631H58.7683L59.5832 30.8855L57.1826 24.6417H58.7683L60.288 28.8368H60.4245L61.9442 24.6417L63.5167 24.6639Z" fill="#052541"/>
<path d="M65.9004 27.6059C65.8035 28.4858 66.4334 29.2812 67.3055 29.379C67.3628 29.3835 67.4245 29.3879 67.4861 29.3879C68.464 29.4946 69.3405 28.7835 69.4463 27.797C69.552 26.8104 68.8472 25.9261 67.8693 25.8194C66.8915 25.7127 66.0149 26.4238 65.9092 27.4103C65.9048 27.4681 65.9004 27.5259 65.9004 27.5792V27.6014V27.6059ZM65.9004 22.2909V25.5128H66.0369C66.4158 24.8551 67.1337 24.4729 67.8826 24.5173C69.4463 24.6151 70.6355 25.9749 70.5386 27.5525C70.5386 27.5703 70.5386 27.5881 70.5386 27.6014C70.662 29.179 69.4903 30.5611 67.9266 30.6855H67.887C67.1381 30.7344 66.4202 30.3522 66.0413 29.699H65.8784V30.5256H64.4336V22.2909H65.9048H65.9004Z" fill="#052541"/>
<path d="M75.6126 27.0281C75.5906 26.326 75.0092 25.7705 74.3132 25.7927C74.3044 25.7927 74.2956 25.7927 74.2868 25.7927C73.5776 25.7394 72.9609 26.2771 72.9125 26.9926V27.0104L75.617 27.0281H75.6126ZM74.2868 24.5173C75.7888 24.4595 77.0486 25.6416 77.1058 27.157C77.1058 27.2592 77.1058 27.3614 77.1014 27.4636V28.0147H72.9125C72.9213 28.7968 73.5556 29.4279 74.3352 29.419H74.3396C74.9563 29.4456 75.5289 29.0946 75.7888 28.5257L76.9913 29.2279C76.4495 30.1656 75.4364 30.7166 74.3616 30.6633C72.7407 30.6855 71.406 29.3745 71.384 27.7392C71.384 27.6725 71.384 27.6103 71.384 27.5436C71.3003 25.9571 72.5028 24.6017 74.0753 24.5173C74.1458 24.5173 74.2119 24.5128 74.2824 24.5173" fill="#052541"/>
<path d="M79.687 25.5172H79.85C80.057 24.9039 80.6649 24.5307 81.2992 24.624H81.8586V25.9216H80.9732C80.3433 25.8461 79.7707 26.2949 79.6958 26.9304C79.687 27.0015 79.687 27.0726 79.6914 27.1437V30.4856H78.2246V24.664H79.6694L79.687 25.5172Z" fill="#052541"/>
<path d="M84.0034 24.6639L84.695 29.2368H84.836L85.7477 24.6639H87.7784L88.6902 29.2368H88.8179L89.505 24.6639H90.9762L89.8354 30.5033H87.7299L86.8181 25.9394H86.6772L85.7654 30.5033H83.6643L82.5234 24.6639H84.0034Z" fill="#052541"/>
<path d="M94.6149 29.3746C95.5928 29.4946 96.4781 28.7969 96.6015 27.8104C96.7204 26.8238 96.0288 25.9306 95.051 25.8061C94.0731 25.6861 93.1877 26.3838 93.0644 27.3704C93.0556 27.4415 93.0512 27.5171 93.0512 27.5882C92.9499 28.4547 93.5577 29.2369 94.4167 29.3435C94.4828 29.3524 94.5488 29.3569 94.6149 29.3524V29.3702V29.3746ZM94.6149 24.5218C96.3019 24.5085 97.685 25.8817 97.6938 27.5837C97.7071 29.2858 96.346 30.6812 94.6589 30.69C92.9719 30.6989 91.5888 29.3302 91.58 27.6282V27.6059C91.5227 25.9617 92.7913 24.5796 94.4211 24.5218C94.4872 24.5218 94.5488 24.5218 94.6149 24.5218Z" fill="#052541"/>
<path d="M100.302 25.5172H100.465C100.672 24.9039 101.28 24.5307 101.914 24.624H102.473V25.9216H101.588C100.962 25.8416 100.39 26.2949 100.311 26.9259C100.302 26.9971 100.302 27.0682 100.306 27.1437V30.4856H98.835V24.664H100.297V25.5172H100.302Z" fill="#052541"/>
<path d="M106.834 26.8682L109.362 30.5078H107.657L105.794 27.7525L104.909 28.4947V30.5078H103.438V22.2909H104.909V26.6904H105.05L107.406 24.6862H109.463L106.834 26.8682Z" fill="#052541"/>
<path d="M112.42 24.5173C113.556 24.5173 114.635 25.0017 115.393 25.8594L114.406 26.7482C113.953 26.1349 113.248 25.7661 112.495 25.735C111.913 25.735 111.64 25.9705 111.64 26.286C111.64 26.6016 111.931 26.766 112.481 26.8593L113.177 26.9793C114.441 27.1882 115.433 27.6237 115.433 28.7613C115.433 29.899 114.406 30.6767 112.979 30.6767C111.702 30.7078 110.499 30.0678 109.808 28.9835L110.966 28.268C111.345 29.028 112.12 29.499 112.957 29.4812C113.631 29.4812 114.01 29.2102 114.01 28.8546C114.01 28.4991 113.706 28.3391 113.124 28.2458L112.428 28.1258C111.072 27.9036 110.217 27.397 110.217 26.3127C110.217 25.2284 111.089 24.5173 112.42 24.5173Z" fill="#052541"/>
</g>
<defs>
<clipPath id="clip0_4_12">
<rect width="119" height="41" fill="white"/>
</clipPath>
</defs>
</svg>
