<svg width="523" height="186" viewBox="0 0 523 186" fill="none" xmlns="http://www.w3.org/2000/svg">
<path d="M14.37 67.6201H3.57V4.62011H15.27L46.5 52.0501V4.62011H57.3V67.6201H45.6L14.37 20.1901V67.6201ZM89.5348 68.9701C74.9548 68.9701 64.9648 58.5301 64.9648 43.9501C64.9648 28.2001 75.3148 18.4801 88.6348 18.4801C102.135 18.4801 111.135 27.9301 111.405 43.4101V45.9301H75.5848C76.3048 54.3001 81.5248 59.9701 89.6248 59.9701C95.1148 59.9701 99.2548 57.2701 100.875 52.5001H111.225C108.795 62.7601 100.785 68.9701 89.5348 68.9701ZM76.0348 38.4601H100.425C99.0748 31.6201 94.8448 27.4801 88.6348 27.4801C82.3348 27.4801 77.6548 31.6201 76.0348 38.4601ZM143.846 67.6201H137.726C127.376 67.6201 121.796 62.4901 121.796 53.0401V28.9201H113.426V19.9201H121.796V3.63011H132.416V19.9201H144.746V28.9201H132.416V52.3201C132.416 56.3701 134.486 58.6201 138.446 58.6201H143.846V67.6201ZM162.691 67.6201H151.891V4.62011H183.841C196.711 4.62011 204.541 13.1701 204.541 24.4201C204.541 37.1101 195.721 44.8501 183.841 44.8501H162.691V67.6201ZM162.691 14.3401V35.1301H183.301C190.051 35.1301 193.561 30.0901 193.561 24.4201C193.561 18.4801 189.511 14.3401 183.301 14.3401H162.691ZM221.943 67.6201H211.323V19.9201H219.873L221.133 29.2801C224.193 22.8001 229.773 19.3801 237.693 19.3801H239.493V29.7301H237.693C227.793 29.7301 221.943 35.0401 221.943 44.0401V67.6201ZM265.321 68.9701C249.841 68.9701 240.841 58.0801 240.841 43.3201C240.841 27.7501 251.371 18.4801 265.321 18.4801C280.711 18.4801 289.711 29.2801 289.711 43.3201C289.711 59.4301 279.541 68.9701 265.321 68.9701ZM265.321 59.8801C273.871 59.8801 278.911 52.8601 278.911 43.3201C278.911 33.8701 273.601 27.5701 265.321 27.5701C257.041 27.5701 251.641 33.8701 251.641 43.3201C251.641 53.7601 257.491 59.8801 265.321 59.8801ZM307.029 85.6201H296.319V19.9201H304.869L305.949 27.7501C309.099 22.1701 315.309 18.4801 322.869 18.4801C335.469 18.4801 344.379 28.7401 344.379 43.5001C344.379 58.5301 335.469 68.9701 322.779 68.9701C315.939 68.9701 310.269 65.9101 307.029 60.9601V85.6201ZM320.439 59.9701C328.179 59.9701 333.489 53.2201 333.489 43.5001C333.489 34.0501 328.179 27.4801 320.349 27.4801C312.519 27.4801 307.029 33.9601 307.029 43.2301C307.029 53.0401 312.519 59.9701 320.439 59.9701ZM361.655 67.6201H351.035V0.120112H361.655V25.0501C364.895 21.0901 370.385 18.4801 376.595 18.4801C386.765 18.4801 393.425 25.3201 393.425 36.0301V67.6201H382.805V36.5701C382.805 31.2601 379.295 27.7501 373.625 27.7501C366.425 27.7501 361.745 32.5201 361.655 38.7301V67.6201ZM423.839 68.9701C409.259 68.9701 399.269 58.5301 399.269 43.9501C399.269 28.2001 409.619 18.4801 422.939 18.4801C436.439 18.4801 445.439 27.9301 445.709 43.4101V45.9301H409.889C410.609 54.3001 415.829 59.9701 423.929 59.9701C429.419 59.9701 433.559 57.2701 435.179 52.5001H445.529C443.099 62.7601 435.089 68.9701 423.839 68.9701ZM410.339 38.4601H434.729C433.379 31.6201 429.149 27.4801 422.939 27.4801C416.639 27.4801 411.959 31.6201 410.339 38.4601ZM478.15 67.6201H472.03C461.68 67.6201 456.1 62.4901 456.1 53.0401V28.9201H447.73V19.9201H456.1V3.63011H466.72V19.9201H479.05V28.9201H466.72V52.3201C466.72 56.3701 468.79 58.6201 472.75 58.6201H478.15V67.6201ZM504.015 68.9701C490.965 68.9701 483.225 62.8501 482.595 52.4101H492.855C493.215 57.5401 497.625 60.2401 503.475 60.2401C508.875 60.2401 511.755 58.1701 511.755 54.4801C511.755 50.7901 508.695 50.0701 504.555 48.7201L498.255 46.6501C490.335 44.0401 483.495 41.3401 483.495 32.5201C483.495 24.0601 489.975 18.4801 501.405 18.4801C512.475 18.4801 520.035 24.3301 521.295 35.1301H511.215C510.675 29.7301 506.805 27.2101 501.315 27.2101C496.635 27.2101 493.935 29.1901 493.935 32.4301C493.935 36.1201 498.075 37.1101 501.495 38.2801L507.255 40.1701C516.705 43.3201 522.375 46.2001 522.375 54.7501C522.375 63.5701 515.715 68.9701 504.015 68.9701ZM32.37 168.97C13.02 168.97 0.69 155.65 0.69 135.94C0.69 116.86 12.75 103.27 32.37 103.27C48.75 103.27 60 112.81 62.7 128.92H51.63C49.65 119.02 42.36 112.99 32.37 112.99C19.68 112.99 11.76 121.9 11.76 135.94C11.76 150.34 19.68 159.16 32.37 159.16C42.54 159.16 49.65 153.31 51.63 143.32H62.7C59.82 159.7 48.84 168.97 32.37 168.97ZM77.7736 185.62H69.1336V176.62H77.7736C81.7336 176.62 83.8936 175.18 84.7936 172.66L86.6836 167.62H84.7036L65.8036 119.92H77.2336L90.9136 156.1L104.324 119.92H115.394L94.6036 175.81C92.1736 182.2 87.1336 185.62 77.7736 185.62ZM146.727 168.97C139.167 168.97 132.867 165.19 129.897 159.16L128.907 167.62H120.357V100.12H130.977V126.13C134.397 121.45 140.067 118.48 146.817 118.48C159.417 118.48 168.327 128.74 168.327 143.5C168.327 158.53 159.417 168.97 146.727 168.97ZM144.387 159.97C152.127 159.97 157.437 153.22 157.437 143.5C157.437 134.05 152.127 127.48 144.387 127.48C136.557 127.48 130.977 133.96 130.977 143.23C130.977 153.04 136.557 159.97 144.387 159.97ZM196.853 168.97C182.273 168.97 172.283 158.53 172.283 143.95C172.283 128.2 182.633 118.48 195.953 118.48C209.453 118.48 218.453 127.93 218.723 143.41V145.93H182.903C183.623 154.3 188.843 159.97 196.943 159.97C202.433 159.97 206.573 157.27 208.193 152.5H218.543C216.113 162.76 208.103 168.97 196.853 168.97ZM183.353 138.46H207.743C206.393 131.62 202.163 127.48 195.953 127.48C189.653 127.48 184.973 131.62 183.353 138.46ZM235.83 167.62H225.21V119.92H233.76L235.02 129.28C238.08 122.8 243.66 119.38 251.58 119.38H253.38V129.73H251.58C241.68 129.73 235.83 135.04 235.83 144.04V167.62ZM281.12 167.62H269.96L255.83 119.92H266.72L276.35 154.48L285.8 119.92H294.62L304.16 154.12L313.61 119.92H324.5L310.37 167.62H299.39L290.21 135.04L281.12 167.62ZM350.445 168.97C334.965 168.97 325.965 158.08 325.965 143.32C325.965 127.75 336.495 118.48 350.445 118.48C365.835 118.48 374.835 129.28 374.835 143.32C374.835 159.43 364.665 168.97 350.445 168.97ZM350.445 159.88C358.995 159.88 364.035 152.86 364.035 143.32C364.035 133.87 358.725 127.57 350.445 127.57C342.165 127.57 336.765 133.87 336.765 143.32C336.765 153.76 342.615 159.88 350.445 159.88ZM391.973 167.62H381.353V119.92H389.903L391.163 129.28C394.223 122.8 399.803 119.38 407.723 119.38H409.523V129.73H407.723C397.823 129.73 391.973 135.04 391.973 144.04V167.62ZM425.509 167.62H414.889V100.12H425.509V140.62L445.849 119.92H458.809L441.529 137.11L461.149 167.62H448.819L434.149 144.49L425.509 153.13V167.62ZM483.139 168.97C470.089 168.97 462.349 162.85 461.719 152.41H471.979C472.339 157.54 476.749 160.24 482.599 160.24C487.999 160.24 490.879 158.17 490.879 154.48C490.879 150.79 487.819 150.07 483.679 148.72L477.379 146.65C469.459 144.04 462.619 141.34 462.619 132.52C462.619 124.06 469.099 118.48 480.529 118.48C491.599 118.48 499.159 124.33 500.419 135.13H490.339C489.799 129.73 485.929 127.21 480.439 127.21C475.759 127.21 473.059 129.19 473.059 132.43C473.059 136.12 477.199 137.11 480.619 138.28L486.379 140.17C495.829 143.32 501.499 146.2 501.499 154.75C501.499 163.57 494.839 168.97 483.139 168.97Z" fill="#353535"/>
</svg>
