<svg width="50" height="50" viewBox="0 0 50 50" fill="none" xmlns="http://www.w3.org/2000/svg">
    <g clip-path="url(#clip0_685_18)">
        <path d="M25 49.375C38.4619 49.375 49.375 38.4619 49.375 25C49.375 11.5381 38.4619 0.625 25 0.625C11.5381 0.625 0.625 11.5381 0.625 25C0.625 38.4619 11.5381 49.375 25 49.375Z" stroke="white" />
        <path fill-rule="evenodd" clip-rule="evenodd" d="M27.5 15.3025C27.3589 15.1638 27.1687 15.0865 26.9708 15.0874C26.773 15.0884 26.5835 15.1674 26.4437 15.3074C26.3039 15.4474 26.225 15.637 26.2243 15.8348C26.2236 16.0327 26.3012 16.2228 26.44 16.3638L34.0225 23.9475H14.1663C14.0678 23.9475 13.9702 23.9669 13.8792 24.0046C13.7883 24.0423 13.7056 24.0975 13.6359 24.1672C13.5663 24.2368 13.511 24.3195 13.4734 24.4105C13.4357 24.5015 13.4163 24.599 13.4163 24.6975C13.4163 24.796 13.4357 24.8935 13.4734 24.9845C13.511 25.0755 13.5663 25.1582 13.6359 25.2278C13.7056 25.2975 13.7883 25.3527 13.8792 25.3904C13.9702 25.4281 14.0678 25.4475 14.1663 25.4475H34.0225L26.44 33.03C26.3694 33.0994 26.3132 33.1821 26.2747 33.2733C26.2362 33.3645 26.2162 33.4624 26.2157 33.5614C26.2152 33.6604 26.2344 33.7586 26.272 33.8501C26.3097 33.9417 26.3651 34.0249 26.4351 34.095C26.505 34.165 26.5882 34.2205 26.6797 34.2583C26.7712 34.296 26.8693 34.3153 26.9683 34.3149C27.0673 34.3146 27.1653 34.2946 27.2565 34.2563C27.3478 34.2179 27.4305 34.1618 27.5 34.0913L36.3638 25.2275C36.4338 25.1578 36.4894 25.075 36.5272 24.9837C36.565 24.8924 36.5844 24.7945 36.5841 24.6957C36.5839 24.5969 36.5641 24.4992 36.5258 24.4081C36.4876 24.317 36.4316 24.2343 36.3613 24.165L27.5 15.3025Z" fill="white" />
    </g>
    <defs>
        <clipPath id="clip0_685_18">
            <rect width="50" height="50" fill="white" />
        </clipPath>
    </defs>
</svg>