<svg width="556" height="695" viewBox="0 0 556 695" fill="none" xmlns="http://www.w3.org/2000/svg">
<path d="M187.975 333.488H-125V361.586H187.975V333.488Z" fill="url(#paint0_linear_422_25)"/>
<path d="M193.502 277.892H-117.605V305.99H193.502V277.892Z" fill="url(#paint1_linear_422_25)"/>
<path d="M204.034 222.303H-103.638V250.402H204.034V222.303Z" fill="url(#paint2_linear_422_25)"/>
<path d="M231.224 166.707H-79.6602V194.805H231.224V166.707Z" fill="url(#paint3_linear_422_25)"/>
<path d="M271.486 111.185H-40.0703V139.283H271.486V111.185Z" fill="url(#paint4_linear_422_25)"/>
<path d="M329.3 55.522H20.582V83.6204H329.3V55.522Z" fill="url(#paint5_linear_422_25)"/>
<path d="M281.418 0H149.206V28.0984H281.418V0Z" fill="url(#paint6_linear_422_25)"/>
<path d="M193.502 389.01H-117.605V417.108H193.502V389.01Z" fill="url(#paint7_linear_422_25)"/>
<path d="M204.034 444.681H-103.638V472.78H204.034V444.681Z" fill="url(#paint8_linear_422_25)"/>
<path d="M231.224 500.195H-79.6602V528.293H231.224V500.195Z" fill="url(#paint9_linear_422_25)"/>
<path d="M271.486 555.791H-40.0703V583.889H271.486V555.791Z" fill="url(#paint10_linear_422_25)"/>
<path d="M329.3 611.305H20.582V639.403H329.3V611.305Z" fill="url(#paint11_linear_422_25)"/>
<path d="M281.418 666.901H149.206V695H281.418V666.901Z" fill="url(#paint12_linear_422_25)"/>
<path d="M555.478 333.488H215.239V361.586H555.478V333.488Z" fill="url(#paint13_linear_422_25)"/>
<path d="M549.952 277.892H220.768V305.99H549.952V277.892Z" fill="url(#paint14_linear_422_25)"/>
<path d="M539.292 222.719H231.022V250.818H539.292V222.719Z" fill="url(#paint15_linear_422_25)"/>
<path d="M511.258 166.707H259.533V194.805H511.258V166.707Z" fill="url(#paint16_linear_422_25)"/>
<path d="M472.117 111.185H298.748V139.283H472.117V111.185Z" fill="url(#paint17_linear_422_25)"/>
<path d="M414.078 55.522H356.562V83.6204H414.078V55.522Z" fill="url(#paint18_linear_422_25)"/>
<path d="M549.952 389.01H220.768V417.108H549.952V389.01Z" fill="url(#paint19_linear_422_25)"/>
<path d="M539.493 444.681H231.224V472.78H539.493V444.681Z" fill="url(#paint20_linear_422_25)"/>
<path d="M511.258 500.195H259.533V528.293H511.258V500.195Z" fill="url(#paint21_linear_422_25)"/>
<path d="M472.117 555.791H298.748V583.889H472.117V555.791Z" fill="url(#paint22_linear_422_25)"/>
<path d="M414.078 611.305H356.562V639.403H414.078V611.305Z" fill="url(#paint23_linear_422_25)"/>
<defs>
<linearGradient id="paint0_linear_422_25" x1="-64.9539" y1="352.59" x2="-48.7397" y2="428.571" gradientUnits="userSpaceOnUse">
<stop stop-color="#D4D4D4"/>
<stop offset="1" stop-color="white"/>
</linearGradient>
<linearGradient id="paint1_linear_422_25" x1="-57.9177" y1="296.994" x2="-41.6147" y2="372.936" gradientUnits="userSpaceOnUse">
<stop stop-color="#D4D4D4"/>
<stop offset="1" stop-color="white"/>
</linearGradient>
<linearGradient id="paint2_linear_422_25" x1="-44.6091" y1="241.405" x2="-28.1403" y2="317.272" gradientUnits="userSpaceOnUse">
<stop stop-color="#D4D4D4"/>
<stop offset="1" stop-color="white"/>
</linearGradient>
<linearGradient id="paint3_linear_422_25" x1="-20.0154" y1="185.808" x2="-3.70163" y2="261.745" gradientUnits="userSpaceOnUse">
<stop stop-color="#D4D4D4"/>
<stop offset="1" stop-color="white"/>
</linearGradient>
<linearGradient id="paint4_linear_422_25" x1="19.7035" y1="130.287" x2="35.9851" y2="206.238" gradientUnits="userSpaceOnUse">
<stop stop-color="#D4D4D4"/>
<stop offset="1" stop-color="white"/>
</linearGradient>
<linearGradient id="paint5_linear_422_25" x1="79.8112" y1="74.6239" x2="96.2292" y2="150.514" gradientUnits="userSpaceOnUse">
<stop stop-color="#D4D4D4"/>
<stop offset="1" stop-color="white"/>
</linearGradient>
<linearGradient id="paint6_linear_422_25" x1="174.572" y1="19.1019" x2="206.543" y2="82.3927" gradientUnits="userSpaceOnUse">
<stop stop-color="#D4D4D4"/>
<stop offset="1" stop-color="white"/>
</linearGradient>
<linearGradient id="paint7_linear_422_25" x1="-57.9177" y1="408.112" x2="-41.6147" y2="484.053" gradientUnits="userSpaceOnUse">
<stop stop-color="#D4D4D4"/>
<stop offset="1" stop-color="white"/>
</linearGradient>
<linearGradient id="paint8_linear_422_25" x1="-44.6091" y1="463.783" x2="-28.1404" y2="539.65" gradientUnits="userSpaceOnUse">
<stop stop-color="#D4D4D4"/>
<stop offset="1" stop-color="white"/>
</linearGradient>
<linearGradient id="paint9_linear_422_25" x1="-20.0154" y1="519.296" x2="-3.70168" y2="595.233" gradientUnits="userSpaceOnUse">
<stop stop-color="#D4D4D4"/>
<stop offset="1" stop-color="white"/>
</linearGradient>
<linearGradient id="paint10_linear_422_25" x1="19.7035" y1="574.893" x2="35.9851" y2="650.844" gradientUnits="userSpaceOnUse">
<stop stop-color="#D4D4D4"/>
<stop offset="1" stop-color="white"/>
</linearGradient>
<linearGradient id="paint11_linear_422_25" x1="79.8112" y1="630.407" x2="96.2292" y2="706.297" gradientUnits="userSpaceOnUse">
<stop stop-color="#D4D4D4"/>
<stop offset="1" stop-color="white"/>
</linearGradient>
<linearGradient id="paint12_linear_422_25" x1="174.572" y1="686.003" x2="206.544" y2="749.294" gradientUnits="userSpaceOnUse">
<stop stop-color="#D4D4D4"/>
<stop offset="1" stop-color="white"/>
</linearGradient>
<linearGradient id="paint13_linear_422_25" x1="280.516" y1="352.59" x2="295.532" y2="429.084" gradientUnits="userSpaceOnUse">
<stop stop-color="#D4D4D4"/>
<stop offset="1" stop-color="white"/>
</linearGradient>
<linearGradient id="paint14_linear_422_25" x1="283.923" y1="296.994" x2="299.404" y2="373.295" gradientUnits="userSpaceOnUse">
<stop stop-color="#D4D4D4"/>
<stop offset="1" stop-color="white"/>
</linearGradient>
<linearGradient id="paint15_linear_422_25" x1="290.166" y1="241.821" x2="306.605" y2="317.701" gradientUnits="userSpaceOnUse">
<stop stop-color="#D4D4D4"/>
<stop offset="1" stop-color="white"/>
</linearGradient>
<linearGradient id="paint16_linear_422_25" x1="307.828" y1="185.808" x2="327.519" y2="260.026" gradientUnits="userSpaceOnUse">
<stop stop-color="#D4D4D4"/>
<stop offset="1" stop-color="white"/>
</linearGradient>
<linearGradient id="paint17_linear_422_25" x1="332.01" y1="130.287" x2="358.659" y2="199.462" gradientUnits="userSpaceOnUse">
<stop stop-color="#D4D4D4"/>
<stop offset="1" stop-color="white"/>
</linearGradient>
<linearGradient id="paint18_linear_422_25" x1="367.597" y1="74.6239" x2="406.878" y2="108.452" gradientUnits="userSpaceOnUse">
<stop stop-color="#D4D4D4"/>
<stop offset="1" stop-color="white"/>
</linearGradient>
<linearGradient id="paint19_linear_422_25" x1="283.923" y1="408.112" x2="299.404" y2="484.413" gradientUnits="userSpaceOnUse">
<stop stop-color="#D4D4D4"/>
<stop offset="1" stop-color="white"/>
</linearGradient>
<linearGradient id="paint20_linear_422_25" x1="290.367" y1="463.783" x2="306.807" y2="539.663" gradientUnits="userSpaceOnUse">
<stop stop-color="#D4D4D4"/>
<stop offset="1" stop-color="white"/>
</linearGradient>
<linearGradient id="paint21_linear_422_25" x1="307.828" y1="519.296" x2="327.519" y2="593.514" gradientUnits="userSpaceOnUse">
<stop stop-color="#D4D4D4"/>
<stop offset="1" stop-color="white"/>
</linearGradient>
<linearGradient id="paint22_linear_422_25" x1="332.01" y1="574.893" x2="358.659" y2="644.069" gradientUnits="userSpaceOnUse">
<stop stop-color="#D4D4D4"/>
<stop offset="1" stop-color="white"/>
</linearGradient>
<linearGradient id="paint23_linear_422_25" x1="367.597" y1="630.407" x2="406.878" y2="664.235" gradientUnits="userSpaceOnUse">
<stop stop-color="#D4D4D4"/>
<stop offset="1" stop-color="white"/>
</linearGradient>
</defs>
</svg>
