<svg width="121" height="32" viewBox="0 0 121 32" fill="none" xmlns="http://www.w3.org/2000/svg">
<path opacity="0.994" fill-rule="evenodd" clip-rule="evenodd" d="M20.7839 0.0195392C23.1498 -0.104174 25.3873 0.359586 27.4962 1.41082C30.1895 2.9282 31.6934 5.23224 32.0081 8.32305C32.1825 10.7354 31.7825 13.0468 30.8079 15.2574C29.427 18.2939 27.5081 20.9513 25.0513 23.2296C22.4775 25.5369 19.6918 27.5539 16.6943 29.2806C15.401 30.0184 14.023 30.5485 12.5603 30.8706C11.6091 30.9133 10.6608 30.8986 9.71531 30.8264C8.2319 30.1178 7.47621 28.94 7.44825 27.293C7.44638 27.0183 7.46861 26.7459 7.51493 26.4759C7.96532 24.7419 8.73581 23.1665 9.82645 21.75C10.4541 21.015 11.2024 20.4334 12.0713 20.0054C12.9644 19.6517 13.883 19.5634 14.8273 19.7404C15.3314 19.8883 15.7685 20.1459 16.1387 20.5133C16.4106 20.8822 16.4995 21.2945 16.4054 21.75C16.3128 22.0484 16.1794 22.3281 16.0053 22.5892C15.0273 23.7964 13.9604 24.9153 12.8047 25.9459C12.0784 26.6826 11.4709 27.507 10.9822 28.4193C10.6087 29.5797 11.031 30.0582 12.2491 29.8548C12.9296 29.6884 13.5815 29.4528 14.205 29.1481C16.0169 28.2109 17.7209 27.1067 19.317 25.8355C21.3642 24.2873 23.1942 22.5132 24.8068 20.5133C26.1647 18.7485 27.0686 16.7757 27.5184 14.5949C27.7791 13.0478 27.468 11.6344 26.5849 10.3548C25.9189 9.58978 25.0743 9.23644 24.0512 9.29474C23.1176 9.33007 22.2211 9.52883 21.3618 9.891C20.7055 10.1655 20.0684 10.4747 19.4504 10.8185C16.9082 12.2798 14.4337 13.8404 12.0268 15.5003C10.6219 16.6105 9.1698 17.6558 7.67051 18.6362C6.69261 19.2153 5.64056 19.5833 4.5144 19.7404C2.85629 19.7816 1.55975 19.1264 0.624835 17.7749C0.0940845 16.9528 -0.0985403 16.0547 0.0469563 15.0807C0.28122 13.7494 0.78501 12.5275 1.55833 11.4148C3.30313 8.94502 5.42945 6.86176 7.93723 5.16507C10.5876 3.375 13.4325 1.94688 16.4721 0.880808C17.8818 0.431579 19.3191 0.144489 20.7839 0.0195392Z" fill="#2F2F2F"/>
<path opacity="0.992" fill-rule="evenodd" clip-rule="evenodd" d="M60.3465 0.10751C62.1072 0.072883 63.2701 0.882608 63.836 2.53673C64.1253 3.95716 63.703 5.11285 62.5691 6.00389C61.2604 6.78751 59.9566 6.78751 58.6573 6.00389C57.5109 5.07491 57.1183 3.88976 57.4793 2.44839C57.73 1.54393 58.271 0.874083 59.1018 0.438767C59.5148 0.30251 59.9299 0.192091 60.3465 0.10751Z" fill="#2F2F2F"/>
<path opacity="0.993" fill-rule="evenodd" clip-rule="evenodd" d="M116.579 2.22754C116.623 2.22754 116.668 2.22754 116.712 2.22754C116.712 9.52041 116.712 16.8081 116.712 24.0905C116.748 24.6479 116.77 25.2074 116.779 25.7689C116.879 26.2807 117.153 26.6709 117.601 26.9393C117.895 27.1006 118.206 27.2184 118.534 27.2927C119.05 27.4005 119.568 27.4815 120.09 27.5356C120.128 28.696 120.158 29.8444 120.179 30.9807C118.786 31.05 117.408 30.9396 116.045 30.6494C113.331 29.8962 111.901 28.1221 111.756 25.3272C111.733 17.907 111.726 10.4869 111.733 3.06672C113.357 2.80287 114.972 2.52311 116.579 2.22754Z" fill="#2F2F2F"/>
<path opacity="0.994" fill-rule="evenodd" clip-rule="evenodd" d="M86.2175 2.31592C86.3211 2.31592 86.4251 2.31592 86.5287 2.31592C86.4869 4.35942 86.4869 6.40584 86.5287 8.45522C87.6107 8.4599 88.6922 8.47461 89.7737 8.49938C89.715 9.79747 89.715 11.1077 89.7737 12.4303C88.6922 12.4303 87.6102 12.4303 86.5287 12.4303C86.4802 16.5907 86.4731 20.7572 86.5065 24.9297C86.5096 25.5162 86.6576 26.0609 86.951 26.5639C87.3808 26.9669 87.892 27.2098 88.4846 27.2927C88.97 27.362 89.4519 27.443 89.9293 27.5356C89.8942 28.6422 89.9013 29.7611 89.9515 30.8924C89.002 30.9083 88.0538 30.8862 87.1066 30.8261C85.352 30.694 83.8629 30.0094 82.6391 28.7723C81.8648 27.7743 81.4496 26.6406 81.3945 25.3714C81.3722 17.9365 81.3647 10.5017 81.3722 3.06677C82.9938 2.81987 84.6088 2.56957 86.2175 2.31592Z" fill="#2F2F2F"/>
<path opacity="0.994" fill-rule="evenodd" clip-rule="evenodd" d="M75.9936 7.96973C77.265 7.91673 78.5243 8.01244 79.7721 8.25682C79.8081 8.27043 79.8374 8.29251 79.861 8.32307C79.2511 9.73361 78.5994 11.1249 77.9051 12.4969C77.0756 12.4764 76.2461 12.4764 75.4157 12.4969C74.0857 12.5793 72.8482 12.9547 71.704 13.6232C71.7395 19.2787 71.7324 24.9469 71.6818 30.6277C70.0224 30.6277 68.3625 30.6277 66.7031 30.6277C66.652 24.7225 66.6444 18.966 66.6809 13.3582C66.7271 12.8227 66.9049 12.3369 67.2143 11.9007C69.6414 9.51317 72.5677 8.20285 75.9936 7.96973Z" fill="#2F2F2F"/>
<path opacity="0.994" fill-rule="evenodd" clip-rule="evenodd" d="M46.255 8.10184C48.4221 7.89156 50.3926 8.39949 52.1672 9.62562C53.5456 10.6578 54.3978 12.0197 54.7232 13.7111C54.7747 16.0038 54.8414 18.2931 54.9232 20.5792C54.9232 21.6098 54.9232 22.6404 54.9232 23.6709C54.8796 24.8124 54.7978 25.9535 54.6787 27.0939C53.1731 28.7887 51.3132 29.9297 49.1 30.5169C47.1365 31.0639 45.1513 31.167 43.1434 30.8261C40.7672 30.1288 39.0261 28.6786 37.9202 26.4756C36.953 24.2416 37.0419 22.0479 38.1869 19.8946C39.2908 18.0332 40.9132 16.8922 43.0545 16.4716C43.7461 16.3543 44.4427 16.2807 45.1437 16.2508C46.7587 16.2287 48.3741 16.2213 49.989 16.2287C50.0028 15.2731 49.7881 14.375 49.3444 13.5345C48.8977 12.8857 48.2829 12.4808 47.4997 12.3198C46.5666 12.1174 45.6331 12.1174 44.6992 12.3198C43.2994 12.684 41.9511 13.1845 40.654 13.8215C40.597 13.8518 40.5451 13.8444 40.4984 13.7995C40.0361 12.6493 39.5693 11.501 39.0982 10.3544C41.3221 9.07781 43.7079 8.32696 46.255 8.10184ZM46.2995 20.1596C47.4552 20.1843 48.611 20.1991 49.7667 20.2038C49.7916 21.6908 49.7992 23.1777 49.789 24.6647C49.7663 25.05 49.7218 25.4328 49.6556 25.8131C48.6092 26.8172 47.357 27.222 45.8994 27.0277C44.1822 26.7936 43.1078 25.844 42.6766 24.1789C42.4019 22.9808 42.6908 21.9429 43.5434 21.065C43.9466 20.7691 44.3911 20.5482 44.877 20.4025C45.3522 20.29 45.8265 20.2091 46.2995 20.1596Z" fill="#2F2F2F"/>
<path opacity="0.995" fill-rule="evenodd" clip-rule="evenodd" d="M99.6868 8.27845C101.803 8.13429 103.759 8.61276 105.554 9.7139C106.649 10.6012 107.457 11.698 107.977 13.0044C108.513 14.3837 108.839 15.8118 108.955 17.2886C109.042 18.2438 109.094 19.2008 109.111 20.1595C104.932 20.1049 100.754 20.1049 96.5751 20.1595C96.604 21.4731 96.8632 22.7393 97.353 23.958C98.347 26.2253 100.088 27.2632 102.576 27.0718C103.683 26.9212 104.75 26.6267 105.777 26.1884C106.364 25.9333 106.957 25.6904 107.555 25.4597C108.065 26.4949 108.568 27.5328 109.066 28.5735C109.055 28.6292 109.025 28.6733 108.977 28.706C106.872 29.9822 104.59 30.7478 102.132 31.0027C97.6455 31.3404 94.4672 29.4928 92.5966 25.4597C91.0253 21.7099 90.9808 17.9262 92.4633 14.1086C92.9456 12.958 93.5533 11.8833 94.2858 10.8843C95.7319 9.30301 97.5322 8.43436 99.6868 8.27845ZM100.22 12.121C101.725 12.0693 102.755 12.7318 103.31 14.1086C103.559 14.8471 103.759 15.598 103.91 16.3611C101.568 16.3611 99.2276 16.3611 96.8863 16.3611C97.0299 15.6736 97.2148 14.9964 97.4419 14.3294C97.9371 13.0502 98.8631 12.314 100.22 12.121Z" fill="#2F2F2F"/>
<path opacity="0.995" fill-rule="evenodd" clip-rule="evenodd" d="M62.969 8.63184C63.0432 8.63184 63.117 8.63184 63.1913 8.63184C63.2282 15.9636 63.2428 23.2954 63.2357 30.6273C61.591 30.6273 59.9462 30.6273 58.3015 30.6273C58.3015 23.531 58.3015 16.4348 58.3015 9.33852C59.8671 9.12691 61.4229 8.89132 62.969 8.63184Z" fill="#2F2F2F"/>
</svg>
