<svg width="188" height="38" viewBox="0 0 188 38" fill="none" xmlns="http://www.w3.org/2000/svg">
<mask id="mask0_459_1674" style="mask-type:luminance" maskUnits="userSpaceOnUse" x="181" y="1" width="4" height="3">
<path d="M181.22 3.01719L181.593 3.83669L184.759 2.68193L184.238 1.56445L181.22 3.01719Z" fill="white"/>
</mask>
<g mask="url(#mask0_459_1674)">
<mask id="mask1_459_1674" style="mask-type:luminance" maskUnits="userSpaceOnUse" x="153" y="-464" width="352" height="497">
<path d="M504.139 -463.685H153.208V32.9294H504.139V-463.685Z" fill="white"/>
</mask>
<g mask="url(#mask1_459_1674)">
<path d="M187.702 -1.41504H178.278V6.77994H187.702V-1.41504Z" fill="#2F2F2F"/>
</g>
</g>
<mask id="mask2_459_1674" style="mask-type:luminance" maskUnits="userSpaceOnUse" x="179" y="0" width="3" height="4">
<path d="M179.693 3.39016L180.587 3.61365L181.556 0.447419L180.326 0.149414L179.693 3.39016Z" fill="white"/>
</mask>
<g mask="url(#mask2_459_1674)">
<mask id="mask3_459_1674" style="mask-type:luminance" maskUnits="userSpaceOnUse" x="153" y="-464" width="352" height="497">
<path d="M504.139 -463.685H153.208V32.9294H504.139V-463.685Z" fill="white"/>
</mask>
<g mask="url(#mask3_459_1674)">
<path d="M184.535 -2.79346H176.75V6.55622H184.535V-2.79346Z" fill="#2F2F2F"/>
</g>
</g>
<mask id="mask4_459_1674" style="mask-type:luminance" maskUnits="userSpaceOnUse" x="182" y="2" width="4" height="4">
<path d="M182.524 4.58159L183.046 5.3266L185.877 3.50134L185.132 2.49561L182.524 4.58159Z" fill="white"/>
</mask>
<g mask="url(#mask4_459_1674)">
<mask id="mask5_459_1674" style="mask-type:luminance" maskUnits="userSpaceOnUse" x="153" y="-464" width="352" height="497">
<path d="M504.139 -463.685H153.208V32.9294H504.139V-463.685Z" fill="white"/>
</mask>
<g mask="url(#mask5_459_1674)">
<path d="M188.857 -0.447266H179.581V8.26918H188.857V-0.447266Z" fill="#2F2F2F"/>
</g>
</g>
<mask id="mask6_459_1674" style="mask-type:luminance" maskUnits="userSpaceOnUse" x="183" y="4" width="5" height="3">
<path d="M183.642 5.9233L184.052 6.7428L187.143 5.36455L186.547 4.24707L183.642 5.9233Z" fill="white"/>
</mask>
<g mask="url(#mask6_459_1674)">
<mask id="mask7_459_1674" style="mask-type:luminance" maskUnits="userSpaceOnUse" x="153" y="-464" width="352" height="497">
<path d="M504.139 -463.685H153.208V32.9294H504.139V-463.685Z" fill="white"/>
</mask>
<g mask="url(#mask7_459_1674)">
<path d="M190.086 1.3042H180.699V9.68541H190.086V1.3042Z" fill="#2F2F2F"/>
</g>
</g>
<mask id="mask8_459_1674" style="mask-type:luminance" maskUnits="userSpaceOnUse" x="184" y="6" width="4" height="3">
<path d="M184.349 7.37622L184.573 8.27021L187.851 7.63697L187.553 6.40771L184.349 7.37622Z" fill="white"/>
</mask>
<g mask="url(#mask8_459_1674)">
<mask id="mask9_459_1674" style="mask-type:luminance" maskUnits="userSpaceOnUse" x="153" y="-464" width="352" height="497">
<path d="M504.139 -463.685H153.208V32.9294H504.139V-463.685Z" fill="white"/>
</mask>
<g mask="url(#mask9_459_1674)">
<path d="M190.793 3.46484H181.369V11.2128H190.793V3.46484Z" fill="#2F2F2F"/>
</g>
</g>
<mask id="mask10_459_1674" style="mask-type:luminance" maskUnits="userSpaceOnUse" x="184" y="8" width="4" height="2">
<path d="M184.61 8.9034V9.83464L188 9.98365V8.75439L184.61 8.9034Z" fill="white"/>
</mask>
<g mask="url(#mask10_459_1674)">
<mask id="mask11_459_1674" style="mask-type:luminance" maskUnits="userSpaceOnUse" x="153" y="-464" width="352" height="497">
<path d="M504.139 -463.685H153.208V32.9294H504.139V-463.685Z" fill="white"/>
</mask>
<g mask="url(#mask11_459_1674)">
<path d="M190.943 5.81152H181.667V12.9635H190.943V5.81152Z" fill="#2F2F2F"/>
</g>
</g>
<mask id="mask12_459_1674" style="mask-type:luminance" maskUnits="userSpaceOnUse" x="184" y="10" width="4" height="3">
<path d="M184.349 10.5039L184.089 11.3606L187.255 12.4781L187.627 11.2861L184.349 10.5039Z" fill="white"/>
</mask>
<g mask="url(#mask12_459_1674)">
<mask id="mask13_459_1674" style="mask-type:luminance" maskUnits="userSpaceOnUse" x="153" y="-464" width="352" height="497">
<path d="M504.139 -463.685H153.208V32.9294H504.139V-463.685Z" fill="white"/>
</mask>
<g mask="url(#mask13_459_1674)">
<path d="M190.607 7.56104H181.146V15.458H190.607V7.56104Z" fill="#2F2F2F"/>
</g>
</g>
<mask id="mask14_459_1674" style="mask-type:luminance" maskUnits="userSpaceOnUse" x="183" y="11" width="4" height="4">
<path d="M183.79 11.9951L183.306 12.7401L186.063 14.6026L186.733 13.5596L183.79 11.9951Z" fill="white"/>
</mask>
<g mask="url(#mask14_459_1674)">
<mask id="mask15_459_1674" style="mask-type:luminance" maskUnits="userSpaceOnUse" x="153" y="-464" width="352" height="497">
<path d="M504.139 -463.685H153.208V32.9294H504.139V-463.685Z" fill="white"/>
</mask>
<g mask="url(#mask15_459_1674)">
<path d="M189.676 9.01416H180.326V17.5444H189.676V9.01416Z" fill="#2F2F2F"/>
</g>
</g>
<mask id="mask16_459_1674" style="mask-type:luminance" maskUnits="userSpaceOnUse" x="180" y="14" width="4" height="4">
<path d="M181.518 14.229L180.699 14.6388L182.152 17.6188L183.269 17.06L181.518 14.229Z" fill="white"/>
</mask>
<g mask="url(#mask16_459_1674)">
<mask id="mask17_459_1674" style="mask-type:luminance" maskUnits="userSpaceOnUse" x="153" y="-464" width="352" height="497">
<path d="M504.139 -463.685H153.208V32.9294H504.139V-463.685Z" fill="white"/>
</mask>
<g mask="url(#mask17_459_1674)">
<path d="M186.212 11.2861H177.756V20.5986H186.212V11.2861Z" fill="#2F2F2F"/>
</g>
</g>
<mask id="mask18_459_1674" style="mask-type:luminance" maskUnits="userSpaceOnUse" x="179" y="14" width="2" height="5">
<path d="M180.177 14.8257L179.246 14.9747L179.693 18.2527L180.922 18.0292L180.177 14.8257Z" fill="white"/>
</mask>
<g mask="url(#mask18_459_1674)">
<mask id="mask19_459_1674" style="mask-type:luminance" maskUnits="userSpaceOnUse" x="153" y="-464" width="352" height="497">
<path d="M504.139 -463.685H153.208V32.9294H504.139V-463.685Z" fill="white"/>
</mask>
<g mask="url(#mask19_459_1674)">
<path d="M183.902 11.8823H176.303V21.1948H183.902V11.8823Z" fill="#2F2F2F"/>
</g>
</g>
<mask id="mask20_459_1674" style="mask-type:luminance" maskUnits="userSpaceOnUse" x="177" y="14" width="2" height="5">
<path d="M178.538 15.0491L177.607 14.9746L177.234 18.2898L178.501 18.3644L178.538 15.0491Z" fill="white"/>
</mask>
<g mask="url(#mask20_459_1674)">
<mask id="mask21_459_1674" style="mask-type:luminance" maskUnits="userSpaceOnUse" x="153" y="-464" width="352" height="497">
<path d="M504.139 -463.685H153.208V32.9294H504.139V-463.685Z" fill="white"/>
</mask>
<g mask="url(#mask21_459_1674)">
<path d="M181.481 12.0317H174.292V21.2697H181.481V12.0317Z" fill="#2F2F2F"/>
</g>
</g>
<mask id="mask22_459_1674" style="mask-type:luminance" maskUnits="userSpaceOnUse" x="174" y="14" width="3" height="5">
<path d="M176.936 14.8623L176.08 14.6016L174.888 17.6933L176.117 18.0658L176.936 14.8623Z" fill="white"/>
</mask>
<g mask="url(#mask22_459_1674)">
<mask id="mask23_459_1674" style="mask-type:luminance" maskUnits="userSpaceOnUse" x="153" y="-464" width="352" height="497">
<path d="M504.139 -463.685H153.208V32.9294H504.139V-463.685Z" fill="white"/>
</mask>
<g mask="url(#mask23_459_1674)">
<path d="M179.88 11.6226H171.945V21.0095H179.88V11.6226Z" fill="#2F2F2F"/>
</g>
</g>
<mask id="mask24_459_1674" style="mask-type:luminance" maskUnits="userSpaceOnUse" x="172" y="13" width="4" height="5">
<path d="M175.484 14.2305L174.739 13.709L172.653 16.3165L173.696 17.0242L175.484 14.2305Z" fill="white"/>
</mask>
<g mask="url(#mask24_459_1674)">
<mask id="mask25_459_1674" style="mask-type:luminance" maskUnits="userSpaceOnUse" x="153" y="-464" width="352" height="497">
<path d="M504.139 -463.685H153.208V32.9294H504.139V-463.685Z" fill="white"/>
</mask>
<g mask="url(#mask25_459_1674)">
<path d="M178.427 10.7656H169.71V19.9663H178.427V10.7656Z" fill="#2F2F2F"/>
</g>
</g>
<mask id="mask26_459_1674" style="mask-type:luminance" maskUnits="userSpaceOnUse" x="170" y="12" width="5" height="4">
<path d="M174.217 13.2242L173.621 12.5537L170.939 14.5652L171.759 15.4964L174.217 13.2242Z" fill="white"/>
</mask>
<g mask="url(#mask26_459_1674)">
<mask id="mask27_459_1674" style="mask-type:luminance" maskUnits="userSpaceOnUse" x="153" y="-464" width="352" height="497">
<path d="M504.139 -463.685H153.208V32.9294H504.139V-463.685Z" fill="white"/>
</mask>
<g mask="url(#mask27_459_1674)">
<path d="M177.16 9.61084H167.997V18.4763H177.16V9.61084Z" fill="#2F2F2F"/>
</g>
</g>
<mask id="mask28_459_1674" style="mask-type:luminance" maskUnits="userSpaceOnUse" x="169" y="11" width="5" height="3">
<path d="M173.249 11.8459L172.913 11.0264L169.747 12.1811L170.231 13.3358L173.249 11.8459Z" fill="white"/>
</mask>
<g mask="url(#mask28_459_1674)">
<mask id="mask29_459_1674" style="mask-type:luminance" maskUnits="userSpaceOnUse" x="153" y="-464" width="352" height="497">
<path d="M504.139 -463.685H153.208V32.9294H504.139V-463.685Z" fill="white"/>
</mask>
<g mask="url(#mask29_459_1674)">
<path d="M176.229 8.08301H166.804V16.278H176.229V8.08301Z" fill="#2F2F2F"/>
</g>
</g>
<mask id="mask30_459_1674" style="mask-type:luminance" maskUnits="userSpaceOnUse" x="169" y="7" width="4" height="2">
<path d="M172.653 8.75401L172.764 7.85999L169.449 7.30127L169.263 8.53049L172.653 8.75401Z" fill="white"/>
</mask>
<g mask="url(#mask30_459_1674)">
<mask id="mask31_459_1674" style="mask-type:luminance" maskUnits="userSpaceOnUse" x="153" y="-464" width="352" height="497">
<path d="M504.138 -463.685H153.208V32.9294H504.138V-463.685Z" fill="white"/>
</mask>
<g mask="url(#mask31_459_1674)">
<path d="M175.707 4.3584H166.32V11.7338H175.707V4.3584Z" fill="#2F2F2F"/>
</g>
</g>
<mask id="mask32_459_1674" style="mask-type:luminance" maskUnits="userSpaceOnUse" x="169" y="4" width="5" height="4">
<path d="M172.988 7.11487L173.361 6.29537L170.306 4.87988L169.822 6.03462L172.988 7.11487Z" fill="white"/>
</mask>
<g mask="url(#mask32_459_1674)">
<mask id="mask33_459_1674" style="mask-type:luminance" maskUnits="userSpaceOnUse" x="153" y="-464" width="352" height="497">
<path d="M504.139 -463.685H153.208V32.9294H504.139V-463.685Z" fill="white"/>
</mask>
<g mask="url(#mask33_459_1674)">
<path d="M176.266 1.93701H166.842V10.0947H176.266V1.93701Z" fill="#2F2F2F"/>
</g>
</g>
<mask id="mask34_459_1674" style="mask-type:luminance" maskUnits="userSpaceOnUse" x="171" y="2" width="4" height="4">
<path d="M173.696 5.73666L174.292 5.06616L171.871 2.79395L171.014 3.72519L173.696 5.73666Z" fill="white"/>
</mask>
<g mask="url(#mask34_459_1674)">
<mask id="mask35_459_1674" style="mask-type:luminance" maskUnits="userSpaceOnUse" x="153" y="-464" width="352" height="497">
<path d="M504.139 -463.685H153.208V32.9294H504.139V-463.685Z" fill="white"/>
</mask>
<g mask="url(#mask35_459_1674)">
<path d="M177.235 -0.148926H168.071V8.71652H177.235V-0.148926Z" fill="#2F2F2F"/>
</g>
</g>
<mask id="mask36_459_1674" style="mask-type:luminance" maskUnits="userSpaceOnUse" x="172" y="1" width="4" height="4">
<path d="M174.776 4.6186L175.558 4.13434L173.845 1.26611L172.802 1.93661L174.776 4.6186Z" fill="white"/>
</mask>
<g mask="url(#mask36_459_1674)">
<mask id="mask37_459_1674" style="mask-type:luminance" maskUnits="userSpaceOnUse" x="153" y="-464" width="352" height="497">
<path d="M504.139 -463.685H153.208V32.9294H504.139V-463.685Z" fill="white"/>
</mask>
<g mask="url(#mask37_459_1674)">
<path d="M178.501 -1.67676H169.859V7.56121H178.501V-1.67676Z" fill="#2F2F2F"/>
</g>
</g>
<path d="M176.266 3.83728L177.16 3.57653L176.266 0.373047L175.037 0.782797L176.266 3.83728Z" fill="#2F2F2F"/>
<mask id="mask38_459_1674" style="mask-type:luminance" maskUnits="userSpaceOnUse" x="177" y="0" width="2" height="4">
<path d="M177.979 3.35246L178.911 3.31523L178.948 0L177.681 0.0372293L177.979 3.35246Z" fill="white"/>
</mask>
<g mask="url(#mask38_459_1674)">
<mask id="mask39_459_1674" style="mask-type:luminance" maskUnits="userSpaceOnUse" x="153" y="-464" width="352" height="497">
<path d="M504.139 -463.685H153.208V32.9294H504.139V-463.685Z" fill="white"/>
</mask>
<g mask="url(#mask39_459_1674)">
<path d="M181.891 -2.94287H174.739V6.29507H181.891V-2.94287Z" fill="#2F2F2F"/>
</g>
</g>
<mask id="mask40_459_1674" style="mask-type:luminance" maskUnits="userSpaceOnUse" x="169" y="9" width="4" height="2">
<path d="M172.727 10.3559L172.615 9.46191L169.263 9.75992L169.412 10.9892L172.727 10.3559Z" fill="white"/>
</mask>
<g mask="url(#mask40_459_1674)">
<mask id="mask41_459_1674" style="mask-type:luminance" maskUnits="userSpaceOnUse" x="153" y="-464" width="352" height="497">
<path d="M504.138 -463.685H153.208V32.9294H504.138V-463.685Z" fill="white"/>
</mask>
<g mask="url(#mask41_459_1674)">
<path d="M175.67 6.51904H166.283V13.9317H175.67V6.51904Z" fill="#2F2F2F"/>
</g>
</g>
<mask id="mask42_459_1674" style="mask-type:luminance" maskUnits="userSpaceOnUse" x="182" y="13" width="4" height="4">
<path d="M182.785 13.2612L182.077 13.8572L184.2 16.4275L185.169 15.608L182.785 13.2612Z" fill="white"/>
</mask>
<g mask="url(#mask42_459_1674)">
<mask id="mask43_459_1674" style="mask-type:luminance" maskUnits="userSpaceOnUse" x="153" y="-464" width="352" height="497">
<path d="M504.139 -463.685H153.208V32.9294H504.139V-463.685Z" fill="white"/>
</mask>
<g mask="url(#mask43_459_1674)">
<path d="M188.111 10.2822H179.134V19.3339H188.111V10.2822Z" fill="#2F2F2F"/>
</g>
</g>
<path d="M9.0517 18.3638C8.71646 18.3638 8.41846 18.401 8.12046 18.4383C6.70497 18.6245 5.51297 19.1833 4.43273 20.2263V11.3608H0V13.3351H1.97424V29.5388H0V31.4757H4.43273V29.9485C5.55022 31.066 6.66772 31.5875 8.12046 31.7365C8.38121 31.7365 8.60471 31.7737 8.90271 31.7737C12.9629 31.7737 15.7567 28.8683 15.7567 25.0688C15.7567 21.2693 12.9257 18.3638 9.0517 18.3638ZM8.71646 29.7995C8.71646 29.7995 8.34396 29.725 8.12046 29.6877C5.95997 29.3897 4.28373 27.639 4.28373 25.0688C4.28373 22.4986 5.95997 20.7851 8.12046 20.5243C8.34396 20.4871 8.49296 20.4126 8.71646 20.4126C11.3612 20.4126 13.1864 22.3868 13.1864 25.0688C13.1864 27.7508 11.2122 29.7995 8.71646 29.7995Z" fill="#2F2F2F"/>
<path d="M26.2613 18.3639V20.5244H25.5908C24.8086 20.5244 24.1381 20.6734 23.5421 20.9342C22.2011 21.4929 21.3816 22.6477 21.3816 24.3984V29.5389H23.3931V31.4758H16.9116V29.5389H18.9231V20.6362H16.9116V18.6992H21.3816V20.7106C21.9403 19.7422 22.6481 19.1089 23.5421 18.7364C24.1753 18.4757 24.8458 18.3267 25.7026 18.3267H26.2613V18.3639Z" fill="#2F2F2F"/>
<path d="M40.6398 25.4795C40.6398 21.3447 38.0695 18.7372 34.3818 18.402C34.1583 18.402 33.9348 18.3647 33.6741 18.3647C29.4648 18.3647 26.7456 20.9722 26.7456 24.9579C26.7456 29.2044 29.6138 31.8119 33.6741 31.8119C33.9348 31.8119 34.1583 31.7374 34.3818 31.7002C37.0266 31.4767 39.2243 30.0239 40.3045 27.6772H38.0323C37.1756 28.9437 35.8718 29.6514 34.3818 29.7632C34.2701 29.7632 34.1211 29.8004 34.0093 29.8004C31.4391 29.8004 29.5021 28.1987 29.2786 25.7774H40.6398V25.4795ZM29.2786 23.9149C29.6511 21.5682 31.2156 20.3017 33.6741 20.3017C33.9348 20.3017 34.1583 20.3762 34.3818 20.4135C36.4306 20.637 37.7343 21.8289 38.0696 23.9149H29.2786Z" fill="#2F2F2F"/>
<path d="M44.8861 24.1763V25.9642C44.8861 25.6662 44.7371 25.4055 44.7371 25.0703C44.7371 24.7723 44.8488 24.4743 44.8861 24.1763Z" fill="#2F2F2F"/>
<path d="M57.9604 20.637V18.7H53.4904V20.3762C52.3357 19.0352 50.7712 18.3647 48.8715 18.3647C47.3442 18.3647 46.0032 18.849 44.8857 19.6312C43.2095 20.8605 42.1665 22.8347 42.1665 25.0697C42.1665 27.3047 43.2468 29.3162 44.8857 30.5082C46.0032 31.3277 47.3442 31.7746 48.8715 31.7746C50.8457 31.7746 52.4102 31.1042 53.4904 29.8004V31.4766H57.9604V29.5397H55.9489V20.637H57.9604ZM49.2067 29.8004C47.009 29.8004 45.2582 28.2359 44.8857 25.9637C44.8857 25.6657 44.7367 25.405 44.7367 25.0697C44.7367 24.7717 44.8485 24.4737 44.8857 24.1757C45.2582 21.978 46.8972 20.4135 49.2067 20.4135C51.6652 20.4135 53.6767 22.276 53.6767 25.0697C53.6767 27.8635 51.6652 29.8004 49.2067 29.8004Z" fill="#2F2F2F"/>
<path d="M108.956 18.3639V20.5244H108.285C107.242 20.5244 106.385 20.7851 105.678 21.2321C104.672 21.8654 104.039 22.9084 104.039 24.3984V29.5389H106.087V31.4758H99.606V29.5389H101.617V20.6362H99.606V18.6992H104.039V20.7106C104.523 19.9284 105.044 19.3697 105.678 18.9972C106.423 18.5502 107.317 18.3267 108.397 18.3267H108.956V18.3639Z" fill="#2F2F2F"/>
<path d="M116.517 31.7738C120.652 31.7738 123.669 28.8311 123.669 25.0316C123.669 21.2322 120.652 18.3267 116.517 18.3267C112.383 18.3267 109.365 21.2694 109.365 25.0316C109.365 28.7939 112.383 31.7738 116.517 31.7738ZM116.517 20.3382C119.05 20.3382 121.136 22.2007 121.136 25.0689C121.136 27.9372 119.05 29.7996 116.517 29.7996C113.984 29.7996 111.898 27.8627 111.898 25.0689C111.898 22.2752 113.947 20.3382 116.517 20.3382Z" fill="#2F2F2F"/>
<path d="M139.65 29.5394V31.4764H135.18V29.6512C133.69 31.1039 132.162 31.8117 130.412 31.8117C129.145 31.8117 128.251 31.4764 127.581 30.8804C126.724 30.0982 126.314 28.9062 126.314 27.1927V20.6367H124.303V18.6997H128.773V26.3732C128.773 28.3101 128.922 29.6512 131.082 29.6512C132.498 29.6512 133.801 28.9062 135.18 27.4534V20.6367H133.168V18.6997H137.638V29.5394H139.65Z" fill="#2F2F2F"/>
<path d="M151.867 18.7V20.2272C150.601 18.9607 149.148 18.3647 147.248 18.3647C145.237 18.3647 143.486 19.1842 142.294 20.5252C141.214 21.7172 140.543 23.319 140.543 25.0697C140.543 26.8205 141.214 28.4222 142.294 29.6141C143.523 30.9551 145.274 31.7746 147.435 31.7746C149.297 31.7746 150.601 31.2532 151.867 29.9494V31.2159C151.867 34.0097 150.862 35.3134 147.695 35.3134C145.721 35.3134 144.417 34.6429 143.859 33.3391H141.288C141.512 34.0096 141.847 34.6057 142.294 35.1272C143.449 36.5427 145.311 37.3249 147.733 37.3249C150.564 37.3249 152.724 36.2446 153.693 34.5312C154.326 33.3764 154.326 31.8864 154.326 29.9867V20.637H156.337V18.7H151.867ZM147.584 29.8004C145.125 29.8004 143.114 27.8635 143.114 25.0697C143.114 22.276 144.939 20.4135 147.584 20.4135C150.042 20.4135 152.054 22.276 152.054 25.0697C152.054 27.8635 150.042 29.8004 147.584 29.8004Z" fill="#2F2F2F"/>
<path d="M172.392 29.5388V31.4757H165.911V29.5388H167.959V23.8023C167.959 21.8653 167.81 20.5243 165.65 20.5243C164.234 20.5243 162.931 21.2693 161.515 22.722V29.5388H163.564V31.4757H157.083V29.5388H159.057V13.3351H157.083V11.3608H161.515V20.5243C163.042 19.0343 164.57 18.3638 166.283 18.3638C167.848 18.3638 169.002 18.9225 169.71 19.8538C170.381 20.7478 170.418 21.6418 170.418 22.6848V29.5388H172.392Z" fill="#2F2F2F"/>
<path d="M71.8177 20.6361L66.7145 24.659L71.7059 29.5388H73.2332V31.4757H67.1615V29.5388H68.7632L63.958 24.8825V29.5388H65.6342V31.4757H59.5625V29.5388H61.574V13.3351H59.5625V11.3608H63.958V24.4355L68.8377 20.6361H67.0497V18.6991H73.2332V20.6361H71.8177Z" fill="#2F2F2F"/>
<path d="M98.265 29.5388V31.4757H91.858V29.5388H93.8323V23.8023C93.8323 21.977 93.6088 20.785 91.858 20.5988C91.7463 20.5988 91.6718 20.5243 91.4855 20.5243C91.2248 20.5243 90.964 20.5988 90.7033 20.6361C89.623 20.8596 88.5428 21.5301 87.388 22.722V29.5388H89.3995V31.4757H82.9553V29.5388H84.9296V13.3351H82.9553V11.3608H87.388V20.5243C88.4683 19.4813 89.5485 18.8481 90.7033 18.5501C91.0758 18.4383 91.4855 18.4011 91.858 18.4011C91.9698 18.4011 92.0443 18.3638 92.156 18.3638C93.7205 18.3638 94.8753 18.9225 95.583 19.8538C96.2535 20.7478 96.2908 21.6418 96.2908 22.6848V29.5388H98.265Z" fill="#2F2F2F"/>
<path d="M91.8582 29.54H91.7837V31.477H91.8582V29.54Z" fill="#2F2F2F"/>
<path d="M78.7834 20.6376V27.3798C78.7834 29.205 78.8579 29.5403 80.3107 29.5403C80.4224 29.5403 80.6832 29.503 80.9812 29.4658C81.0929 29.4658 81.2047 29.4286 81.3909 29.4286V31.44C81.3909 31.44 81.0929 31.4772 80.9812 31.4772C80.4597 31.5517 79.9009 31.589 79.3049 31.589C77.5169 31.589 76.7719 31.1048 76.5857 29.7638C76.5484 29.5775 76.5112 29.3913 76.5112 29.1305V20.6376H74.1272V18.7006H76.5112V13.9326H78.7834V18.7006H81.3909V20.6376H78.7834Z" fill="#2F2F2F"/>
</svg>
