<svg width="140" height="50" viewBox="0 0 140 50" fill="none" xmlns="http://www.w3.org/2000/svg">
<path fill-rule="evenodd" clip-rule="evenodd" d="M107.262 6.39652C107.33 5.73968 107.747 3.8265 109.963 5.18188C112.178 6.53727 112.084 6.21406 112.997 6.64153C113.909 7.06899 113.023 9.12813 112.882 9.44091C112.746 9.75891 112.684 10.1812 112.413 11.6877C112.147 13.1891 111.063 12.6938 110.573 12.5635C110.077 12.4228 108.487 11.3802 107.288 11.0569C106.084 10.739 106.663 9.61816 106.882 8.67981C107.241 7.19411 107.205 7.04293 107.262 6.39652ZM52.9792 6.10459C53.2555 4.72835 53.5265 4.72314 55.0435 5.26008C55.4189 5.3904 56.0079 5.54679 56.8212 5.6302C57.6292 5.71882 59.1305 6.18278 58.9585 7.41305C58.7708 8.77886 58.6666 10.0352 57.796 10.9683C57.3112 11.4896 56.5709 11.4844 55.9454 11.5001C55.4293 11.5157 54.5222 11.6929 54.0322 11.083C53.6986 10.6816 53.0782 10.3376 52.6247 9.96222C52.1712 9.58167 52.02 7.98127 52.3328 7.50167C52.583 7.1107 52.8697 6.77185 52.9792 6.10459ZM1.68835 19.6532C3.10107 19.747 4.80573 18.2718 5.4365 17.2917C6.59379 15.4828 2.39732 6.46428 11.176 0.516237C11.7182 0.151326 12.0675 -0.0571942 13.1465 0.776888C14.4863 1.81428 16.9051 3.04976 18.1302 4.00896C19.1415 4.79612 18.8079 5.16624 18.0781 5.45296C17.7392 5.57807 11.0405 9.11771 12.693 14.8155C12.9068 15.5506 13.7565 15.9937 14.2361 15.8477C14.7157 15.7122 16.8113 15.389 17.1971 15.6809C17.8591 16.223 18.3856 17.0311 19.1519 17.2813C19.1519 17.2813 19.6732 17.2709 19.9808 16.9372C20.9713 15.8581 24.0365 13.8668 25.6369 14.0596C26.6952 14.1795 27.5918 15.8946 27.9619 15.9728C28.3321 16.0458 29.1088 15.5401 29.7083 15.4515C30.5684 15.3264 32.0646 17.6931 32.8778 18.5585C33.2531 18.9599 32.9821 19.7679 32.7579 20.112C32.539 20.4716 30.5945 23.7454 30.5372 25.7368C30.4746 27.7386 33.6024 30.1991 34.7753 26.8732C35.7971 23.2345 36.4852 1.14701 36.6572 0.630924C36.8605 0.0522792 37.215 0.015788 37.7676 0.000149008C38.5183 -0.020703 42.3915 2.15312 42.8451 2.64315C43.3299 3.16445 43.5332 3.83693 43.4133 4.37908C43.1787 5.51552 41.8703 10.6034 41.912 12.6938C41.9432 14.3099 42.3081 15.1648 43.0797 14.7321C43.0797 14.7321 45.2535 13.1734 47.1354 14.68C47.5993 14.9667 47.9121 15.8425 48.8244 16.5723C49.7263 17.3021 51.2485 16.0458 51.3944 16.0458C51.5352 16.0458 51.1703 13.5748 51.947 13.1422C52.7185 12.7199 57.7595 15.2274 58.114 15.8216C58.8125 17.0154 58.0827 17.422 58.5936 18.5376C59.1045 19.6428 63.1915 17.6358 63.6241 16.6453C64.599 14.3359 64.1402 13.1004 65.3861 13.1161C66.1055 13.1213 69.2334 14.3099 69.9058 14.9146C70.7295 15.6548 70.0726 19.3196 70.4636 20.0077C71.0318 21.0138 75.0928 18.0737 75.9634 15.5558C76.6202 13.6635 77.814 12.9858 78.3822 12.9753C78.9504 12.9649 79.1068 13.236 79.9148 13.4497C80.7333 13.6635 83.2303 14.6122 83.4701 15.6965C83.7933 17.1666 83.4075 17.5263 83.0791 19.4238C82.7455 21.3214 82.6152 25.7681 82.6256 27.6604C82.636 28.4528 83.0113 29.0054 83.8141 29.0158C84.9506 29.0262 85.0496 27.5926 85.0184 26.842C84.9193 24.7463 86.3164 14.5862 92.89 13.7312C94.1151 13.5748 94.798 14.9302 95.8614 14.4089C96.7372 13.9814 96.7216 3.94119 96.6955 1.71002C96.6903 1.27212 97.0083 0.651776 97.6756 0.834231C98.3063 1.01147 98.0196 0.813379 98.9267 1.45458C99.839 2.09057 101.074 2.25738 102.414 2.84124C102.982 2.98199 103.081 3.77958 102.998 4.22269C102.034 8.61726 101.971 21.2484 101.789 28.7395C102.044 29.3129 102.545 29.5892 102.868 29.5006C104.859 28.948 104.692 28.1035 104.87 26.3728C104.974 25.351 105.646 16.4159 105.672 15.8842C105.698 15.3577 106.23 13.9033 107.351 14.1222C108.92 14.4246 111.954 15.7904 112.032 15.9103C112.116 16.0354 112.543 16.4107 112.277 17.5993C112.011 18.7931 111.136 27.2173 112.272 28.6404C113.038 29.5944 113.351 29.9437 113.883 29.9124C114.488 29.8655 116.369 28.7916 116.333 27.921C116.307 27.2225 115.191 25.2937 115.04 25.0695C114.717 24.5795 114.555 23.4743 115.775 22.6194C116.797 21.3579 121.708 17.1718 122.781 15.9311C123.12 15.5766 123.923 14.4715 125.127 15.415C126.337 16.3742 132.676 20.6072 132.519 20.7114C132.363 20.8053 133.666 21.191 132.691 22.5308C131.758 23.8132 131.028 26.5448 131.539 27.4519C132.05 28.3589 135.183 27.5874 136.205 26.9671C136.83 26.5813 139.546 24.1364 139.63 24.1051C139.896 24.0009 139.745 24.2928 140 24.5847C139.536 25.5439 138.983 27.577 137.685 29.2139C137.076 30.637 138.52 29.7977 138.269 30.4911C138.019 31.1896 134.777 34.5781 131.951 34.3383C130.424 34.2079 130.054 32.6545 129.178 31.4555C128.719 30.8247 128.636 30.8351 127.958 31.1635C127.275 31.492 124.721 33.5094 124.043 33.7857C123.36 34.062 122.974 34.4269 121.942 33.9473C120.915 33.4677 119.33 31.4711 118.866 31.9455C118.303 32.5189 115.921 33.916 114.988 34.3748C114.05 34.8283 113.205 35.0785 112.402 34.3956C111.5 33.6241 109.665 32.0185 107.648 32.9777C105.667 34.0359 103.973 35.0316 102.753 35.2662C101.794 35.4486 101.147 34.9482 101.017 34.8908L98.176 33.5511C98.03 33.4781 97.05 33.1758 96.3619 33.3165C94.8866 33.6345 92.4104 35.5529 90.3773 35.4591C89.3243 35.4017 86.0245 33.5094 85.6335 33.0037C85.2477 32.5033 84.3459 32.3782 83.9549 32.6701C83.0687 33.3426 81.3536 34.2601 81.0513 34.3748C80.7489 34.4999 79.9722 35.0994 78.6637 34.2132C77.3657 33.3322 76.37 33.0089 76.3387 32.936C76.3074 32.8578 75.4264 32.7014 75.4629 31.0489C75.4994 29.3911 75.1762 27.6291 75.1501 27.2851C75.1293 26.941 74.7956 25.987 73.9199 26.4145C72.8668 26.9254 70.3959 28.5414 69.7599 29.7247C69.1187 30.9029 69.2438 30.6579 68.8163 31.7682C68.3941 32.8838 68.3576 33.1184 68.2272 33.4885C68.0083 34.1089 66.9605 34.4529 66.4392 34.1662C64.8961 33.3322 63.7388 32.399 62.618 31.5337C61.6171 30.7673 61.6484 30.0375 61.8204 28.9428C62.0811 27.332 62.4199 24.1937 62.4669 23.6359C62.5242 23.0782 62.8943 22.0408 61.5442 22.5777C60.2044 23.1094 59.7769 23.4118 58.9585 23.9644C58.3538 24.3762 57.9263 24.4752 57.8221 26.0287C57.7126 27.5822 57.3373 31.2522 57.16 32.4459C57.0766 33.0246 56.2947 34.2861 55.1165 33.9473C53.9175 33.6084 52.9688 33.1653 52.0252 32.5867C51.0869 32.0028 50.6855 31.8881 50.894 30.3295C51.0973 28.7708 51.5925 23.8393 51.629 23.0312C51.6603 22.2232 51.801 20.7062 51.0452 20.8887C50.4248 21.0399 50.331 21.0868 49.7315 21.6654C49.4395 21.9417 49.0538 31.5597 41.8077 34.2809C39.785 35.042 37.1368 31.9142 35.9118 32.2061C35.0256 32.4147 34.1654 33.1184 32.956 33.9212C31.2878 35.0368 29.8178 33.3582 28.9159 32.7274C28.0245 32.1019 27.4198 32.0289 26.6013 32.5554C25.1261 33.4938 24.6256 34.1767 24.0105 34.5207C23.3745 34.8752 21.4769 34.8439 20.8305 34.4425C18.615 33.1601 15.5028 30.2408 15.2213 30.0219C14.9398 29.8029 14.4394 28.9741 14.6687 27.9732C14.9867 26.5865 15.4559 24.9548 15.4924 24.4283C15.5393 23.8393 15.4716 23.4118 15.1953 23.3232C12.9432 22.609 12.6252 23.8601 12.5992 24.8714C12.5575 26.7116 12.5783 37.195 12.3333 39.0143C12.1144 40.5991 11.6973 42.6687 10.5088 44.2691C9.3202 45.8694 7.9596 46.6722 6.87008 47.1831C6.00993 47.5897 5.64502 47.3291 5.20192 47.0424C4.04463 46.2969 2.25135 44.6131 1.3912 43.8468C0.995016 43.4923 0.859478 43.1065 1.46419 42.6217C5.42086 39.4939 6.41655 38.5556 6.3175 33.2592C6.22367 28.2807 6.30186 27.4414 6.21324 26.4145C6.11941 25.3927 4.13325 25.8671 3.52333 25.6169C2.93947 25.3823 2.88213 25.2363 2.25135 23.9279C1.31301 23.1094 0.7083 22.4578 0.17136 21.2692C-0.501119 19.7731 0.974164 19.6011 1.68835 19.6532Z" fill="#2F2F2F"/>
<path d="M26.346 45.4161C26.1166 45.2024 25.8664 45.046 25.6057 44.9417C25.3451 44.8322 25.0688 44.7801 24.7821 44.7801C24.2295 44.7801 23.776 44.9678 23.4267 45.3483C23.0774 45.7289 22.9054 46.2189 22.9054 46.8236C22.9054 47.4022 23.0722 47.8818 23.4111 48.2624C23.7499 48.6429 24.1826 48.8306 24.6987 48.8306C25.001 48.8306 25.2825 48.7733 25.5588 48.6638C25.8299 48.5491 26.0905 48.3771 26.3408 48.1477V49.1434C26.1166 49.3102 25.8768 49.4405 25.6162 49.5239C25.3503 49.6073 25.0688 49.6491 24.7612 49.6491C24.3755 49.6491 24.0158 49.5813 23.6821 49.4457C23.3537 49.3102 23.0618 49.1121 22.8116 48.8462C22.5666 48.5856 22.3737 48.2832 22.2433 47.934C22.1078 47.5847 22.04 47.2094 22.04 46.8132C22.04 46.417 22.1078 46.0469 22.2433 45.6976C22.3737 45.3483 22.5666 45.046 22.822 44.7801C23.0722 44.5142 23.3641 44.3109 23.6874 44.1754C24.0158 44.0398 24.3703 43.9721 24.7508 43.9721C25.0479 43.9721 25.3347 44.019 25.6057 44.1128C25.8768 44.2015 26.1375 44.3422 26.3929 44.5299L26.346 45.4161ZM30.923 49.5031V44.1024H33.7641V44.8479H31.7467V46.2032H33.7641V46.9748H31.7467V48.7159H33.7641V49.5031H30.923ZM38.2577 49.5031V44.1024H39.0866V48.7159H40.9372V49.5031H38.2577ZM45.1545 49.5031V44.1024H48.0008V44.8479H45.9834V46.2032H48.0008V46.9748H45.9834V48.7159H48.0008V49.5031H45.1545ZM53.3077 46.3805H53.6205C54.0167 46.3805 54.2929 46.3284 54.4598 46.2137C54.6214 46.099 54.6996 45.9061 54.6996 45.635C54.6996 45.3379 54.6266 45.1346 54.4754 45.0147C54.3242 44.8948 54.0427 44.8322 53.6205 44.8322H53.3077V46.3805ZM53.3077 48.7733H53.5892C53.8811 48.7733 54.1001 48.7576 54.2408 48.7368C54.3868 48.7107 54.4963 48.6638 54.5849 48.6064C54.6839 48.5335 54.7621 48.4344 54.8195 48.3197C54.8768 48.1946 54.9029 48.0643 54.9029 47.9183C54.9029 47.7463 54.8664 47.5951 54.7986 47.47C54.7308 47.3397 54.637 47.2406 54.5119 47.1677C54.4337 47.126 54.3451 47.0947 54.2408 47.079C54.1418 47.0582 54.0062 47.0478 53.8394 47.0478H53.5892H53.3077V48.7733ZM52.4945 49.5031V44.1024H53.7769C54.147 44.1024 54.4181 44.1233 54.5901 44.165C54.7673 44.2067 54.9133 44.2744 55.0384 44.3683C55.1948 44.4934 55.3199 44.655 55.4033 44.8531C55.4919 45.0564 55.5336 45.2753 55.5336 45.5151C55.5336 45.8018 55.4711 46.0416 55.346 46.2345C55.2209 46.4326 55.0384 46.5629 54.8038 46.6411C55.101 46.6881 55.3303 46.834 55.5024 47.0738C55.6692 47.3084 55.7578 47.6108 55.7578 47.9705C55.7578 48.1894 55.7213 48.3979 55.6483 48.5908C55.5754 48.7889 55.4763 48.9557 55.3408 49.0965C55.2052 49.2424 55.0332 49.3519 54.8247 49.4145C54.6162 49.4718 54.2721 49.5031 53.7873 49.5031H52.4945ZM60.9708 46.4066H61.122C61.5599 46.4066 61.8518 46.3492 61.9926 46.245C62.1385 46.1355 62.2115 45.9426 62.2115 45.6663C62.2115 45.3692 62.1333 45.1606 61.9769 45.0407C61.8258 44.9156 61.539 44.8583 61.122 44.8583H60.9708V46.4066ZM60.9239 47.0842V49.5031H60.1472V44.1024H61.2992C61.6381 44.1024 61.8987 44.1233 62.0864 44.1702C62.2741 44.2171 62.4305 44.2953 62.566 44.4048C62.7224 44.5351 62.8423 44.7019 62.9309 44.9104C63.0143 45.1137 63.056 45.3431 63.056 45.5881C63.056 46.0208 62.9622 46.3596 62.7641 46.6047C62.566 46.8497 62.2741 46.9956 61.8883 47.0478L63.6451 49.5031H62.712L61.0125 47.0842H60.9239ZM68.7591 47.3814H70.177L69.6557 46.1459C69.6244 46.0677 69.5931 45.9791 69.5619 45.88C69.5306 45.7758 69.4941 45.6611 69.4628 45.536C69.4368 45.6559 69.4055 45.7654 69.3742 45.8644C69.3429 45.9687 69.3116 46.0625 69.2804 46.1459L68.7591 47.3814ZM71.0476 49.5031L70.4689 48.1112H68.4515L67.8572 49.5031H66.9918L69.4576 43.8887L71.9181 49.5031H71.0476ZM77.1989 44.8479V49.5031H76.3753V44.8479H75.0199V44.1024H78.5491V44.8479H77.1989ZM82.7299 49.5031V44.1024H85.571V44.8479H83.5536V46.2032H85.571V46.9748H83.5536V48.7159H85.571V49.5031H82.7299ZM95.1317 49.5031V44.1024H95.9554V49.5031H95.1317ZM100.694 49.5031V43.8887L103.931 47.1885C104.02 47.2823 104.109 47.3814 104.202 47.4909C104.291 47.5951 104.385 47.715 104.484 47.8453V44.1024H105.245V49.7168L101.95 46.3544C101.862 46.2606 101.773 46.1668 101.695 46.0625C101.611 45.9635 101.533 45.8592 101.46 45.7445V49.5031H100.694ZM110.792 48.7107H111.485C111.871 48.7107 112.157 48.6846 112.345 48.6273C112.538 48.5752 112.705 48.4813 112.846 48.3562C113.038 48.179 113.184 47.9652 113.278 47.7046C113.377 47.4439 113.424 47.1416 113.424 46.7975C113.424 46.4535 113.377 46.1511 113.278 45.8905C113.184 45.6298 113.038 45.4161 112.846 45.2388C112.705 45.1137 112.533 45.0199 112.329 44.9678C112.131 44.9104 111.813 44.8844 111.386 44.8844H111.089H110.792V48.7107ZM109.963 49.5031V44.1024H111.078C111.803 44.1024 112.314 44.1389 112.611 44.2171C112.908 44.2953 113.169 44.4256 113.388 44.6029C113.685 44.8427 113.909 45.1502 114.06 45.5256C114.211 45.9009 114.29 46.3284 114.29 46.808C114.29 47.2876 114.211 47.7098 114.06 48.0799C113.909 48.4501 113.685 48.7576 113.388 48.9974C113.169 49.1799 112.913 49.3102 112.627 49.3884C112.345 49.4666 111.902 49.5031 111.302 49.5031H111.078H109.963ZM118.799 49.5031V44.1024H119.622V49.5031H118.799ZM125.435 47.3814H126.858L126.337 46.1459C126.306 46.0677 126.274 45.9791 126.243 45.88C126.206 45.7758 126.175 45.6611 126.144 45.536C126.118 45.6559 126.087 45.7654 126.055 45.8644C126.024 45.9687 125.993 46.0625 125.961 46.1459L125.435 47.3814ZM127.723 49.5031L127.15 48.1112H125.133L124.538 49.5031H123.673L126.139 43.8887L128.599 49.5031H127.723Z" fill="#2F2F2F"/>
</svg>
