<svg width="148" height="42" viewBox="0 0 148 42" fill="none" xmlns="http://www.w3.org/2000/svg">
<path d="M148 32.3691H0V41.2329H148V32.3691Z" fill="#2F2F2F"/>
<path d="M10.9409 38.9341C10.5203 39.2473 10.0026 39.4017 9.47923 39.37C8.94005 39.4008 8.40644 39.2471 7.96633 38.9341C7.78495 38.7954 7.63974 38.6149 7.54301 38.4081C7.44629 38.2012 7.40091 37.9741 7.41074 37.746H8.38515C8.39751 37.9262 8.46294 38.0987 8.5732 38.2417C8.68541 38.3507 8.81999 38.4338 8.9676 38.4855C9.11521 38.5372 9.2723 38.5561 9.42795 38.5409C9.6302 38.5469 9.83212 38.5209 10.0263 38.464C10.152 38.4331 10.2636 38.3604 10.3427 38.258C10.4219 38.1555 10.464 38.0293 10.4622 37.8998C10.466 37.8243 10.4488 37.7492 10.4126 37.6829C10.3764 37.6165 10.3226 37.5614 10.2571 37.5237C10.0446 37.414 9.81703 37.3362 9.5818 37.293L9.05186 37.1818C8.67691 37.1182 8.31557 36.991 7.98342 36.8057C7.81757 36.6857 7.68502 36.5254 7.59829 36.34C7.51155 36.1546 7.47348 35.9501 7.48767 35.7459C7.48369 35.5402 7.52532 35.3362 7.60956 35.1485C7.6938 34.9608 7.81856 34.7941 7.97487 34.6603C8.37324 34.3272 8.88393 34.159 9.40231 34.1902C9.87981 34.1766 10.3485 34.3208 10.7357 34.6005C10.9197 34.7384 11.0683 34.918 11.1694 35.1246C11.2704 35.3311 11.321 35.5587 11.3169 35.7886H10.3169C10.3178 35.6579 10.2813 35.5296 10.2116 35.4191C10.1419 35.3085 10.042 35.2202 9.9237 35.1646C9.73389 35.0768 9.52578 35.0357 9.31683 35.045C9.09291 35.0347 8.87066 35.0881 8.67577 35.1988C8.60034 35.2453 8.5385 35.3109 8.49649 35.3889C8.45447 35.467 8.43376 35.5547 8.43644 35.6433C8.43387 35.7239 8.45418 35.8036 8.49502 35.8732C8.53586 35.9428 8.59556 35.9994 8.66722 36.0365C8.87715 36.1221 9.09463 36.1879 9.31683 36.2331L10.1716 36.4382C10.4782 36.4929 10.7696 36.6123 11.0263 36.7887C11.1725 36.9093 11.2882 37.0628 11.3639 37.2365C11.4397 37.4103 11.4734 37.5995 11.4623 37.7887C11.47 38.007 11.4269 38.224 11.3364 38.4228C11.2459 38.6215 11.1105 38.7966 10.9409 38.9341Z" fill="white"/>
<path d="M17.9242 39.2498H14.2317V34.3691H17.8045V35.2324H15.2232V36.2667H17.5909V37.1129H15.2232V38.3694H17.9242V39.2498Z" fill="white"/>
<path d="M24.7878 39.25H23.6254C23.5955 39.1637 23.5727 39.0751 23.557 38.9851C23.544 38.8458 23.544 38.7056 23.557 38.5662V38.1132C23.5804 37.8924 23.5227 37.6706 23.3946 37.4893C23.2259 37.3693 23.0193 37.3146 22.8134 37.3354H21.7706V39.25H20.7705V34.3694H23.0783C23.3404 34.3652 23.6011 34.4086 23.8476 34.4976C24.0268 34.5727 24.1851 34.69 24.3092 34.8395C24.4117 34.9617 24.4926 35.1004 24.5485 35.2498C24.6131 35.413 24.645 35.5872 24.6425 35.7627C24.6386 36.0007 24.5801 36.2346 24.4716 36.4465C24.3452 36.6718 24.1372 36.8401 23.8903 36.9166C24.0878 36.9888 24.256 37.1239 24.369 37.3012C24.4758 37.5399 24.5228 37.801 24.5058 38.0619V38.3953C24.4924 38.546 24.4924 38.6976 24.5058 38.8483C24.5173 38.9041 24.5399 38.9571 24.5722 39.0041C24.6044 39.051 24.6458 39.0911 24.6938 39.1218L24.7878 39.25Z" fill="white"/>
<path d="M29.8052 39.2498H28.8479L27.1982 34.3691H28.2838L29.3437 38.0702L30.4121 34.3691H31.472L29.8052 39.2498Z" fill="white"/>
<path d="M35.0362 34.3691H34.0276V39.2412H35.0362V34.3691Z" fill="white"/>
<path d="M39.1817 38.0953C39.2816 38.2263 39.4111 38.3318 39.5597 38.4032C39.7083 38.4745 39.8717 38.5096 40.0364 38.5055C40.1893 38.5143 40.342 38.4863 40.4818 38.4238C40.6217 38.3614 40.7444 38.2663 40.8399 38.1466C40.9583 37.9764 41.0425 37.7848 41.0878 37.5824H42.0964C42.0308 38.0795 41.7952 38.5385 41.4297 38.8816C41.0532 39.2201 40.5593 39.398 40.0535 39.3774C39.7479 39.3923 39.4428 39.3404 39.1593 39.2253C38.8759 39.1101 38.621 38.9345 38.4124 38.7107C37.9945 38.1826 37.7846 37.5197 37.8226 36.8473C37.7983 36.4912 37.8455 36.1337 37.9615 35.7961C38.0775 35.4585 38.2598 35.1475 38.4979 34.8814C38.6913 34.6819 38.9243 34.5249 39.1818 34.4204C39.4394 34.3159 39.7159 34.2662 39.9937 34.2745C40.3358 34.2483 40.6789 34.3089 40.9913 34.4509C41.3036 34.5929 41.575 34.8115 41.7801 35.0865C41.9723 35.3522 42.0876 35.6657 42.1135 35.9926H41.0878C41.0454 35.7998 40.9607 35.6188 40.8399 35.4626C40.7265 35.3444 40.5883 35.2527 40.4353 35.1942C40.2823 35.1356 40.1183 35.1116 39.9549 35.1238C39.7915 35.1361 39.6329 35.1843 39.4904 35.265C39.3478 35.3458 39.2249 35.457 39.1304 35.5908C38.9031 35.9752 38.796 36.4187 38.8227 36.8644C38.798 37.3037 38.9247 37.7381 39.1817 38.0953Z" fill="white"/>
<path d="M48.6696 39.2498H44.9771V34.3691H48.5499V35.2324H45.9771V36.2667H48.3448V37.1129H45.9771V38.3694H48.6696V39.2498Z" fill="white"/>
<path d="M54.7895 38.9335C54.3689 39.2467 53.8512 39.4011 53.3278 39.3694C52.7887 39.4002 52.255 39.2465 51.8149 38.9335C51.6383 38.792 51.498 38.6104 51.4058 38.4037C51.3136 38.1971 51.2722 37.9713 51.285 37.7454H52.2594C52.2759 37.9246 52.3409 38.096 52.4475 38.2411C52.5597 38.3501 52.6942 38.4332 52.8419 38.4849C52.9895 38.5366 53.1466 38.5555 53.3022 38.5403C53.4873 38.5411 53.6715 38.5152 53.8492 38.4634C53.975 38.4324 54.0865 38.3598 54.1657 38.2574C54.2449 38.1549 54.287 38.0287 54.2852 37.8992C54.2881 37.8229 54.2697 37.7472 54.2319 37.6807C54.1942 37.6143 54.1386 37.5597 54.0715 37.5231C53.8596 37.4119 53.6318 37.3341 53.3962 37.2923L52.8663 37.1812C52.4917 37.1161 52.1306 36.989 51.7978 36.8051C51.632 36.6851 51.4994 36.5248 51.4127 36.3394C51.326 36.154 51.2879 35.9495 51.3021 35.7453C51.2981 35.5396 51.3397 35.3355 51.424 35.1479C51.5082 34.9602 51.633 34.7935 51.7893 34.6597C52.1947 34.321 52.7155 34.1526 53.2424 34.1896C53.7171 34.1772 54.1826 34.3214 54.5672 34.5999C54.7512 34.7378 54.8998 34.9174 55.0009 35.124C55.1019 35.3305 55.1525 35.5581 55.1485 35.788H54.1655C54.1665 35.6573 54.1299 35.529 54.0602 35.4185C53.9906 35.3079 53.8906 35.2196 53.7723 35.164C53.5828 35.0752 53.3745 35.0341 53.1654 35.0444C52.9415 35.0341 52.7193 35.0875 52.5244 35.1982C52.449 35.2447 52.3871 35.3103 52.3451 35.3883C52.3031 35.4664 52.2824 35.5541 52.285 35.6427C52.2822 35.7244 52.3033 35.8052 52.3459 35.8751C52.3884 35.945 52.4505 36.0009 52.5244 36.0359C52.7307 36.1233 52.9456 36.1892 53.1654 36.2325L54.0202 36.4376C54.3268 36.4923 54.6182 36.6117 54.8749 36.788C55.0211 36.9087 55.1368 37.0622 55.2125 37.2359C55.2883 37.4097 55.322 37.5989 55.3109 37.7881C55.3186 38.0064 55.2755 38.2234 55.185 38.4222C55.0945 38.6209 54.9591 38.796 54.7895 38.9335Z" fill="white"/>
<path d="M65.4483 34.3691H64.4397V39.2412H65.4483V34.3691Z" fill="white"/>
<path d="M72.3718 39.2498H71.3546L69.3716 35.788V39.2498H68.4229V34.3691H69.4913L71.423 37.771V34.3691H72.3718V39.2498Z" fill="white"/>
<path d="M76.5258 38.0954C76.6258 38.2264 76.7553 38.332 76.9039 38.4033C77.0525 38.4746 77.2158 38.5097 77.3806 38.5057C77.5323 38.5152 77.6841 38.4875 77.8227 38.4249C77.9612 38.3624 78.0824 38.2668 78.1755 38.1467C78.3005 37.9792 78.388 37.7868 78.4319 37.5825H79.4405C79.375 38.0796 79.1394 38.5387 78.7738 38.8818C78.3947 39.2215 77.8977 39.3995 77.3891 39.3775C77.0847 39.3935 76.7805 39.3421 76.4982 39.2268C76.216 39.1116 75.9627 38.9354 75.7566 38.7108C75.3356 38.184 75.1227 37.5209 75.1582 36.8474C75.1356 36.4907 75.1844 36.1331 75.3018 35.7955C75.4192 35.4579 75.6029 35.1472 75.842 34.8815C76.0665 34.672 76.3313 34.5104 76.6204 34.4068C76.9095 34.3032 77.2166 34.2596 77.5231 34.2788C77.8295 34.298 78.1289 34.3796 78.4027 34.5185C78.6766 34.6574 78.9192 34.8507 79.1157 35.0867C79.3116 35.3504 79.4273 35.6649 79.4491 35.9927H78.4234C78.381 35.7999 78.2963 35.6189 78.1755 35.4628C78.0713 35.3541 77.9447 35.2695 77.8044 35.2149C77.6642 35.1603 77.5137 35.1369 77.3635 35.1465C77.1954 35.1442 77.0293 35.1835 76.8802 35.2611C76.731 35.3387 76.6034 35.452 76.5087 35.591C76.2785 35.9744 76.1684 36.418 76.1925 36.8645C76.1604 37.3008 76.278 37.7349 76.5258 38.0954Z" fill="white"/>
<path d="M86.0391 38.814C85.5856 39.1739 85.0238 39.3697 84.4449 39.3697C83.8661 39.3697 83.3042 39.1739 82.8508 38.814C82.593 38.55 82.3936 38.2348 82.2655 37.8887C82.1374 37.5427 82.0835 37.1736 82.1072 36.8054C82.0778 36.4353 82.129 36.0633 82.2574 35.715C82.3858 35.3668 82.5883 35.0505 82.8508 34.7881C83.3042 34.4283 83.8661 34.2324 84.4449 34.2324C85.0238 34.2324 85.5856 34.4283 86.0391 34.7881C86.3016 35.0505 86.5041 35.3668 86.6325 35.715C86.7609 36.0633 86.8121 36.4353 86.7827 36.8054C86.8064 37.1736 86.7525 37.5427 86.6244 37.8887C86.4963 38.2348 86.2969 38.55 86.0391 38.814Z" fill="white"/>
<path d="M93.5866 39.25H92.4669C92.4371 39.1637 92.4142 39.0751 92.3985 38.9851C92.3855 38.8458 92.3855 38.7056 92.3985 38.5662V38.1132C92.422 37.8924 92.3642 37.6706 92.2361 37.4893C92.0674 37.3693 91.8609 37.3146 91.6549 37.3354H90.6036V39.25H89.6035V34.3694H91.937C92.1991 34.3652 92.4597 34.4086 92.7063 34.4976C92.8841 34.5708 93.0401 34.6886 93.1593 34.8395C93.2675 34.9591 93.3516 35.0984 93.4072 35.2498C93.4717 35.413 93.5037 35.5872 93.5012 35.7627C93.4982 36.0019 93.4366 36.2367 93.3217 36.4465C93.2619 36.5587 93.1805 36.6579 93.0822 36.7386C92.9839 36.8193 92.8707 36.8798 92.749 36.9166C92.9439 36.9892 93.1093 37.1245 93.2191 37.3012C93.3292 37.539 93.3791 37.8003 93.3644 38.0619V38.3953C93.3511 38.546 93.3511 38.6976 93.3644 38.8483C93.3739 38.9049 93.3957 38.9586 93.4282 39.0059C93.4606 39.0531 93.5031 39.0927 93.5525 39.1218L93.5866 39.25Z" fill="white"/>
<path d="M99.792 37.1385C99.4383 37.3951 99.0056 37.5191 98.5697 37.489H97.5525V39.2498H96.5354V34.3691H98.6295C99.0472 34.3492 99.4578 34.483 99.7834 34.7452C99.9377 34.8964 100.057 35.0797 100.132 35.2821C100.207 35.4845 100.237 35.701 100.219 35.9162C100.242 36.1388 100.215 36.3636 100.141 36.5748C100.068 36.786 99.9483 36.9784 99.792 37.1385Z" fill="white"/>
<path d="M106.844 38.814C106.39 39.1739 105.828 39.3697 105.25 39.3697C104.671 39.3697 104.109 39.1739 103.656 38.814C103.398 38.55 103.198 38.2348 103.07 37.8887C102.942 37.5427 102.888 37.1736 102.912 36.8054C102.882 36.4353 102.934 36.0633 103.062 35.715C103.19 35.3668 103.393 35.0505 103.656 34.7881C104.109 34.4283 104.671 34.2324 105.25 34.2324C105.828 34.2324 106.39 34.4283 106.844 34.7881C107.106 35.0505 107.309 35.3668 107.437 35.715C107.566 36.0633 107.617 36.4353 107.587 36.8054C107.611 37.1736 107.557 37.5427 107.429 37.8887C107.301 38.2348 107.102 38.55 106.844 38.814Z" fill="white"/>
<path d="M114.366 39.25H113.237C113.237 39.1389 113.186 39.0535 113.178 38.9851C113.165 38.8458 113.165 38.7056 113.178 38.5662V38.1132C113.197 37.8927 113.14 37.6722 113.015 37.4893C112.846 37.3693 112.64 37.3146 112.434 37.3354H111.442V39.25H110.442V34.3694H112.776C113.038 34.3652 113.299 34.4086 113.545 34.4976C113.723 34.5708 113.879 34.6886 113.998 34.8395C114.106 34.9591 114.19 35.0984 114.246 35.2498C114.311 35.413 114.343 35.5872 114.34 35.7627C114.337 36.0019 114.275 36.2367 114.161 36.4465C114.036 36.6736 113.827 36.8425 113.579 36.9166C113.778 36.9864 113.947 37.1221 114.058 37.3012C114.168 37.539 114.218 37.8003 114.203 38.0619V38.3953C114.19 38.546 114.19 38.6976 114.203 38.8483C114.213 38.9049 114.235 38.9586 114.267 39.0059C114.3 39.0531 114.342 39.0927 114.391 39.1218L114.366 39.25Z" fill="white"/>
<path d="M120.46 39.2498L120.144 38.2412H118.349L118.015 39.2498H116.947L118.691 34.3691H119.845L121.563 39.2498H120.46Z" fill="white"/>
<path d="M127.264 35.2324H125.802V39.2498H124.777V35.2324H123.315V34.3691H127.264V35.2324Z" fill="white"/>
<path d="M133.614 39.2498H129.922V34.3691H133.495V35.2324H130.913V36.2667H133.281V37.1129H130.913V38.3694H133.614V39.2498Z" fill="white"/>
<path d="M140.179 38.3352C140.02 38.6257 139.783 38.8655 139.494 39.0273C139.206 39.1891 138.877 39.2662 138.547 39.2498H136.444V34.3691H138.547C138.801 34.3697 139.055 34.4071 139.299 34.4803C139.645 34.5835 139.946 34.8003 140.153 35.0957C140.323 35.3308 140.443 35.5986 140.504 35.882C140.563 36.1459 140.594 36.4152 140.598 36.6855C140.606 37.2627 140.462 37.8318 140.179 38.3352Z" fill="white"/>
<path d="M87.1077 23.334H74.9019C75.2694 23.8383 75.6198 24.334 75.9532 24.8383H87.065L87.1077 23.334Z" fill="#2F2F2F"/>
<path d="M79.4148 29.7794H87.1076V28.6084H78.5601C78.7054 28.8563 79.2524 29.7794 79.4148 29.7794Z" fill="#2F2F2F"/>
<path d="M63.8584 29.7794H71.5512V28.6084H63.8584V29.7794Z" fill="#2F2F2F"/>
<path d="M87.1075 4.93164H79.4148V12.6244C79.4148 13.0689 79.4148 13.9663 79.4148 14.9066H87.1075V4.93164Z" fill="#2F2F2F"/>
<path d="M76.1924 11.966C74.859 10.0599 73.782 8.16234 72.4572 6.25625C72.3632 6.11949 71.7221 4.95703 71.5512 4.95703H63.8584V14.8892H77.996C77.4439 13.8854 76.8419 12.9097 76.1924 11.966Z" fill="#2F2F2F"/>
<path d="M87.1076 20.2402H72.8845C73.2692 20.8898 73.6623 21.5395 74.0812 22.1634H87.1076V20.2402Z" fill="#2F2F2F"/>
<path d="M71.0469 17.094C71.3973 17.6752 71.7306 18.265 72.064 18.8548H87.1076V16.3076H79.4918C79.486 16.8839 79.5549 17.4585 79.6969 18.0171C79.3807 17.4615 79.0644 16.8974 78.7567 16.3076H63.8584V18.8035H71.3802C71.3503 18.2208 71.2381 17.6452 71.0469 17.094Z" fill="#2F2F2F"/>
<path d="M71.5512 23.334H63.8584V24.8383H71.5512V23.334Z" fill="#2F2F2F"/>
<path d="M71.4913 20.2402H63.8584V22.1634H71.5512C71.5426 21.5224 71.5255 20.8642 71.4913 20.2402Z" fill="#2F2F2F"/>
<path d="M76.748 26.0098C77.0729 26.497 77.3977 26.9842 77.7396 27.4714H87.1418V26.0098H76.748Z" fill="#2F2F2F"/>
<path d="M71.5512 26.0098H63.8584V27.5141H71.5512V26.0098Z" fill="#2F2F2F"/>
<path d="M97.6466 4.93164H89.9539V14.8895H97.6466V4.93164Z" fill="#2F2F2F"/>
<path d="M89.9539 29.7794H97.6466V28.6084H89.9539V29.7794Z" fill="#2F2F2F"/>
<path d="M89.9539 26.0098V27.4287H97.6466V26.0098H89.9539Z" fill="#2F2F2F"/>
<path d="M89.9539 24.8383H97.6466V23.334H89.9539V24.8383Z" fill="#2F2F2F"/>
<path d="M89.9539 22.1634H97.6466V20.2402H89.9539V22.1634Z" fill="#2F2F2F"/>
<path d="M97.6466 18.8035V16.3076H89.9539V18.8035H97.6466Z" fill="#2F2F2F"/>
<path d="M104.04 27.3947H115.699C115.699 26.9588 115.699 26.5399 115.648 26.0527H102.613C103.054 26.5358 103.531 26.9844 104.04 27.3947Z" fill="#2F2F2F"/>
<path d="M108.237 29.6255C109.485 29.9874 110.775 30.1856 112.075 30.2153C112.46 30.2153 115.802 30.0871 115.793 29.8392C115.793 29.8392 115.793 29.3349 115.75 28.6084H105.801C106.57 29.0415 107.388 29.3829 108.237 29.6255Z" fill="#2F2F2F"/>
<path d="M113.28 11.1114C114.044 11.0786 114.808 11.1651 115.545 11.3679L115.793 4.79484C114.6 4.5362 113.382 4.40724 112.16 4.41021C109.158 4.40997 106.248 5.45606 103.933 7.36859C101.618 9.28111 100.042 11.9405 99.4758 14.8894H107.767C108.21 13.786 108.971 12.8384 109.952 12.1661C110.933 11.4938 112.091 11.1269 113.28 11.1114Z" fill="#2F2F2F"/>
<path d="M100.219 22.1634H110.323C109.495 21.6921 108.79 21.0334 108.263 20.2402H99.604C99.7573 20.8967 99.9631 21.5399 100.219 22.1634Z" fill="#2F2F2F"/>
<path d="M101.715 24.8383H115.631C115.631 24.1716 115.588 23.6161 115.579 23.334H100.792C101.065 23.8559 101.374 24.3586 101.715 24.8383Z" fill="#2F2F2F"/>
<path d="M107.391 16.3076H99.2879C99.2879 16.641 99.2879 16.9743 99.2879 17.3162C99.2865 17.8189 99.3151 18.3213 99.3734 18.8206H107.622C107.464 18.2934 107.381 17.7468 107.374 17.1966C107.358 16.9002 107.364 16.6031 107.391 16.3076Z" fill="#2F2F2F"/>
<path d="M0 0V2.67537H119.058V30.4462H148V0H0ZM134.64 18.6763C134.883 19.2842 135.055 19.9181 135.153 20.5653H127.631C127.64 20.4829 127.64 20.3998 127.631 20.3174C127.525 19.7118 127.26 19.1453 126.862 18.6763H134.64ZM125.691 17.283C125.024 16.4283 124.306 15.6761 123.699 14.8299H132.033L132.307 15.1291C132.896 15.8077 133.436 16.5275 133.922 17.283H125.691ZM122.434 12.3682C122.158 11.4401 122.077 10.4647 122.198 9.50378C122.319 8.5429 122.638 7.61761 123.135 6.78672C123.616 6.00305 124.25 5.32438 124.999 4.79126C125.748 4.25815 126.597 3.88155 127.495 3.68397C129.358 3.24382 131.298 3.24382 133.162 3.68397C133.663 3.79012 134.157 3.93004 134.64 4.1028L134.196 9.79544C132.845 9.37661 130.29 9.0518 129.623 10.2997C129.05 11.3767 129.999 12.599 130.743 13.4367H122.819C122.663 13.0911 122.535 12.7338 122.434 12.3682ZM131.922 27.4888C131.502 27.7077 131.061 27.8852 130.606 28.0187C129.053 28.4438 127.431 28.5514 125.836 28.335C125.682 28.335 124.725 28.1726 123.939 28.0187C123.366 27.9076 122.879 27.7879 122.887 27.7025C122.896 27.617 122.887 27.3776 122.939 26.8477H132.871C132.575 27.0902 132.257 27.3048 131.922 27.4888ZM133.974 25.7194H123.016C123.016 25.2835 123.084 24.8049 123.11 24.3347H134.751C134.551 24.827 134.29 25.2922 133.974 25.7194ZM135.093 23.1552H123.187C123.187 22.5227 123.272 21.9927 123.289 21.685C123.289 21.5141 123.289 21.4115 123.289 21.4115C123.571 21.497 123.922 21.5995 124.306 21.685C125.12 21.9117 125.98 21.9117 126.794 21.685H135.23C135.238 22.1871 135.192 22.6885 135.093 23.1808V23.1552ZM144.795 27.9931H137.504V26.8733H144.795V27.9931ZM144.795 25.6852H137.504V24.3347H144.795V25.6852ZM144.795 23.121H137.504V21.7107H144.795V23.121ZM144.795 20.5055H137.504V18.6763H144.795V20.5055ZM144.795 17.2232H137.504V14.8299H144.795V17.2232ZM144.795 13.3768H137.504V3.71816H144.795V13.3768Z" fill="#2F2F2F"/>
<path d="M16.2402 5.26562H17.6591L20.2234 9.7958V5.26562H21.4884V11.7617H20.1806L17.5309 7.15462V11.7617H16.2402V5.26562Z" fill="#2F2F2F"/>
<path d="M24.4885 5.26562H26.027L28.3263 11.7617H26.8562L26.4202 10.4283H24.0269L23.591 11.7617H22.1636L24.4885 5.26562ZM24.3945 9.30859H26.0612L25.2065 6.74434L24.3945 9.30859Z" fill="#2F2F2F"/>
<path d="M33.0275 5.26562V6.41099H31.0872V11.7617H29.7196V6.41099H27.7622V5.26562H33.0275Z" fill="#2F2F2F"/>
<path d="M34.8822 11.7617H33.5317V5.26562H34.8822V11.7617Z" fill="#2F2F2F"/>
<path d="M40.9767 11.1888C40.6929 11.454 40.3573 11.6577 39.9911 11.7871C39.6248 11.9165 39.2358 11.9689 38.8484 11.941C38.4666 11.9642 38.084 11.9095 37.724 11.7801C37.364 11.6508 37.0341 11.4497 36.7542 11.1888C36.4093 10.8439 36.1399 10.431 35.9633 9.97624C35.7867 9.52151 35.7068 9.03499 35.7285 8.54766C35.6882 8.04568 35.7591 7.54097 35.9365 7.06962C36.1138 6.59827 36.393 6.1719 36.7542 5.821C37.0381 5.55584 37.3736 5.35216 37.7399 5.22272C38.1061 5.09329 38.4951 5.0409 38.8826 5.06882C39.27 5.0409 39.659 5.09329 40.0253 5.22272C40.3915 5.35216 40.7271 5.55584 41.0109 5.821C41.3583 6.17879 41.6233 6.60825 41.7872 7.07928C41.9511 7.5503 42.01 8.05148 41.9597 8.54766C41.987 9.0319 41.9138 9.51657 41.7446 9.97113C41.5755 10.4257 41.314 10.8403 40.9767 11.1888ZM40.122 10.1973C40.471 9.69868 40.637 9.0948 40.5921 8.48782C40.6358 7.907 40.4887 7.32779 40.1732 6.83816C40.0128 6.65625 39.8155 6.51057 39.5945 6.41078C39.3734 6.31099 39.1337 6.25938 38.8911 6.25938C38.6486 6.25938 38.4088 6.31099 38.1878 6.41078C37.9667 6.51057 37.7694 6.65625 37.609 6.83816C37.257 7.33569 37.0879 7.93966 37.1303 8.54766C37.0879 9.15565 37.257 9.75962 37.609 10.2572C37.762 10.4513 37.9586 10.6066 38.1828 10.7106C38.4071 10.8145 38.6527 10.8642 38.8997 10.8555C39.1494 10.8574 39.3959 10.7985 39.6178 10.6838C39.8397 10.5691 40.0303 10.4022 40.1732 10.1973H40.122Z" fill="#2F2F2F"/>
<path d="M42.7974 5.26562H44.2162L46.7805 9.7958V5.26562H48.0455V11.7617H46.7036L44.0624 7.15462V11.7617H42.7974V5.26562Z" fill="#2F2F2F"/>
<path d="M51.02 5.26562H52.5585L54.8578 11.7617H53.3876L52.9945 10.4283H50.6012L50.1652 11.7617H48.7207L51.02 5.26562ZM50.926 9.30859H52.6355L51.7807 6.74434L50.926 9.30859Z" fill="#2F2F2F"/>
<path d="M55.499 5.26562H56.8581V10.5993H60.1061V11.7617H55.499V5.26562Z" fill="#2F2F2F"/>
<path d="M1.84635 20.7959H0.504395V14.2998H1.84635V20.7959Z" fill="#2F2F2F"/>
<path d="M2.91479 14.2998H4.34223L6.90648 18.83V14.2998H8.1886V20.7959H6.8381L4.18837 16.1803V20.7959H2.91479V14.2998Z" fill="#2F2F2F"/>
<path d="M9.28247 14.3086H13.9152V15.4454H10.633V16.9412H13.5135V18.0695H10.633V20.7961H9.28247V14.3086Z" fill="#2F2F2F"/>
<path d="M19.6592 20.2229C19.3747 20.4872 19.0391 20.6904 18.673 20.8197C18.3069 20.9491 17.9182 21.002 17.5308 20.9751C17.1406 21.0054 16.7483 20.9542 16.379 20.8247C16.0096 20.6952 15.6713 20.4903 15.3854 20.2229C15.0402 19.8708 14.7734 19.4496 14.6025 18.987C14.4316 18.5245 14.3605 18.031 14.3939 17.539C14.3555 17.0466 14.4242 16.5517 14.5954 16.0883C14.7666 15.625 15.0361 15.2043 15.3854 14.8551C15.6688 14.5888 16.0041 14.3838 16.3703 14.253C16.7365 14.1221 17.1257 14.0681 17.5137 14.0944C17.9017 14.0686 18.2908 14.1228 18.6569 14.2537C19.023 14.3845 19.3583 14.5892 19.6421 14.8551C19.9899 15.205 20.2578 15.6261 20.4275 16.0894C20.5971 16.5527 20.6645 17.0472 20.625 17.539C20.6601 18.029 20.5923 18.5209 20.426 18.9831C20.2597 19.4454 19.9984 19.8677 19.6592 20.2229ZM18.8044 19.2314C19.1521 18.7322 19.3181 18.1287 19.2745 17.5219C19.3167 16.9152 19.1509 16.3122 18.8044 15.8124C18.6542 15.6174 18.4593 15.4612 18.2362 15.3571C18.0131 15.253 17.7683 15.204 17.5223 15.2141C17.2753 15.2054 17.0297 15.255 16.8054 15.359C16.5812 15.4629 16.3846 15.6183 16.2316 15.8124C15.8796 16.3099 15.7105 16.9139 15.753 17.5219C15.7119 18.1298 15.8809 18.7333 16.2316 19.2314C16.3855 19.4245 16.5823 19.5791 16.8063 19.683C17.0303 19.7868 17.2755 19.8371 17.5223 19.8297C17.768 19.8378 18.0121 19.7878 18.2349 19.6838C18.4576 19.5799 18.6527 19.4249 18.8044 19.2314Z" fill="#2F2F2F"/>
<path d="M25.6426 14.4616C25.8762 14.5654 26.0836 14.7202 26.2495 14.9147C26.3849 15.0795 26.4944 15.2639 26.5743 15.4617C26.6555 15.6804 26.6961 15.9122 26.694 16.1455C26.7075 16.4731 26.64 16.799 26.4974 17.0943C26.4178 17.2457 26.3088 17.3796 26.1766 17.4883C26.0445 17.5969 25.892 17.678 25.7281 17.7268C25.9917 17.8198 26.2151 18.001 26.3606 18.2396C26.4836 18.5518 26.5305 18.8887 26.4974 19.2226V19.6585C26.4783 19.8604 26.4783 20.0636 26.4974 20.2654C26.5107 20.3417 26.5405 20.4141 26.5848 20.4776C26.6291 20.5411 26.6868 20.5941 26.7538 20.6329V20.7953H25.2922C25.2574 20.6801 25.2289 20.5632 25.2067 20.4449C25.1695 20.262 25.1494 20.076 25.1469 19.8893V19.2824C25.1811 18.9811 25.1052 18.6775 24.9332 18.4277C24.709 18.2638 24.4312 18.1905 24.1553 18.2225H22.8219V20.7868H21.4971V14.2907H24.6084C24.9607 14.2832 25.3114 14.3411 25.6426 14.4616ZM22.8219 15.4275V17.137H24.2836C24.5077 17.1487 24.7318 17.1137 24.9417 17.0344C25.0724 16.9649 25.179 16.8575 25.2476 16.7263C25.3163 16.5952 25.3437 16.4464 25.3264 16.2994C25.3416 16.1452 25.3146 15.9898 25.2484 15.8498C25.1821 15.7098 25.0791 15.5904 24.9503 15.5044C24.7542 15.4178 24.5402 15.3797 24.3263 15.3933L22.8219 15.4275Z" fill="#2F2F2F"/>
<path d="M32.1214 14.2998H34.0788V20.7959H32.8052V16.4025C32.8052 16.2743 32.8052 16.0948 32.8052 15.864V15.3853L31.6257 20.7959H30.2666L29.0614 15.3853V15.9067C29.0614 16.1375 29.0614 16.317 29.0614 16.4452V20.8386H27.7878V14.3425H29.7623L30.9419 19.471L32.1214 14.2998Z" fill="#2F2F2F"/>
<path d="M37.0107 14.2998H38.5493L40.8485 20.7959H39.3784L38.9424 19.4625H36.5491L36.1132 20.7959H34.6858L37.0107 14.2998ZM36.9167 18.3428H38.6262L37.7714 15.7785L36.9167 18.3428Z" fill="#2F2F2F"/>
<path d="M45.5497 14.2998V15.4452H43.5923V20.7959H42.2247V15.4452H40.2844V14.2998H45.5497Z" fill="#2F2F2F"/>
<path d="M47.4045 20.7959H46.054V14.2998H47.4045V20.7959Z" fill="#2F2F2F"/>
<path d="M49.114 14.9742C49.3728 14.7081 49.6845 14.4991 50.029 14.3607C50.3735 14.2223 50.7431 14.1576 51.1141 14.1708C51.569 14.1342 52.0257 14.2138 52.4414 14.4022C52.857 14.5906 53.218 14.8816 53.4903 15.2478C53.7466 15.6041 53.9003 16.0239 53.9348 16.4615H52.5757C52.5172 16.2037 52.4035 15.9617 52.2424 15.7521C52.0912 15.6045 51.9102 15.491 51.7115 15.4193C51.5127 15.3476 51.301 15.3192 51.0904 15.3362C50.8798 15.3533 50.6753 15.4152 50.4907 15.5179C50.3061 15.6206 50.1456 15.7616 50.02 15.9316C49.7055 16.4437 49.5591 17.0415 49.6012 17.6411C49.5562 18.2203 49.7133 18.7972 50.0457 19.2736C50.1757 19.447 50.3449 19.587 50.5396 19.6821C50.7343 19.7772 50.9488 19.8247 51.1654 19.8207C51.3682 19.8339 51.5711 19.798 51.7571 19.7162C51.9431 19.6344 52.1066 19.509 52.2339 19.3506C52.3977 19.1267 52.5114 18.8701 52.5672 18.5984H53.9177C53.835 19.2487 53.5336 19.8515 53.063 20.3079C52.5625 20.7641 51.9018 21.0037 51.2252 20.9746C50.8169 20.9958 50.4089 20.9263 50.0305 20.7712C49.6522 20.616 49.3129 20.379 49.0371 20.0771C48.475 19.3774 48.1918 18.4944 48.2422 17.5983C48.2078 17.1251 48.2671 16.6497 48.4167 16.1994C48.5663 15.7491 48.8032 15.3328 49.114 14.9742Z" fill="#2F2F2F"/>
<path d="M55.8152 18.804C55.8363 19.0445 55.9219 19.2748 56.063 19.4707C56.2133 19.6194 56.3949 19.7327 56.5945 19.8022C56.7942 19.8717 57.0068 19.8957 57.217 19.8725C57.4885 19.8811 57.7597 19.8464 58.0204 19.7699C58.1883 19.7292 58.3373 19.6325 58.443 19.4958C58.5486 19.3591 58.6046 19.1905 58.6016 19.0177C58.6036 18.9152 58.5776 18.814 58.5264 18.7252C58.4752 18.6363 58.4007 18.5631 58.311 18.5134C58.0423 18.3723 57.7543 18.2715 57.4563 18.2142L56.7468 18.0604C56.2483 17.9755 55.7682 17.8049 55.328 17.5561C55.106 17.3997 54.9286 17.1881 54.8132 16.9424C54.6978 16.6966 54.6484 16.425 54.6698 16.1543C54.6636 15.8799 54.7178 15.6075 54.8286 15.3564C54.9394 15.1053 55.104 14.8816 55.3109 14.7012C55.8465 14.2796 56.5198 14.0724 57.1999 14.12C57.836 14.1058 58.4596 14.2977 58.9777 14.667C59.2209 14.8519 59.4172 15.0913 59.5509 15.366C59.6845 15.6407 59.7517 15.9429 59.747 16.2483H58.3965C58.401 16.0708 58.3542 15.8957 58.2618 15.7441C58.1693 15.5925 58.035 15.4708 57.8751 15.3936C57.6216 15.2736 57.3434 15.2151 57.0631 15.2226C56.7637 15.2119 56.4674 15.286 56.2083 15.4363C56.1089 15.4987 56.0275 15.5858 55.972 15.6893C55.9166 15.7927 55.889 15.9088 55.8921 16.0261C55.8871 16.1346 55.9145 16.2421 55.9708 16.3349C56.0271 16.4278 56.1098 16.5018 56.2083 16.5475C56.4813 16.6724 56.7683 16.7643 57.0631 16.821L58.1999 17.086C58.6068 17.1601 58.9921 17.3236 59.3282 17.5646C59.5235 17.7233 59.6781 17.9263 59.7792 18.1567C59.8803 18.3871 59.9249 18.6384 59.9094 18.8895C59.9138 19.1724 59.8538 19.4525 59.7338 19.7087C59.6139 19.9649 59.4371 20.1905 59.2171 20.3682C58.6632 20.7935 57.9737 21.0031 57.2768 20.958C56.5555 20.9968 55.842 20.7921 55.251 20.3768C55.0143 20.1902 54.8245 19.9507 54.6969 19.6776C54.5692 19.4045 54.5073 19.1054 54.5159 18.804H55.8152Z" fill="#2F2F2F"/>
<path d="M25.2493 24.0101C25.5081 23.7439 25.8197 23.5349 26.1642 23.3965C26.5087 23.2581 26.8784 23.1934 27.2494 23.2066C27.7029 23.1707 28.1582 23.2507 28.5724 23.4391C28.9865 23.6275 29.346 23.9181 29.617 24.2836C29.8804 24.6362 30.0349 25.0581 30.0615 25.4973H28.711C28.6451 25.2421 28.5321 25.0015 28.3776 24.7879C28.2399 24.6432 28.072 24.5307 27.8859 24.4583C27.6997 24.3859 27.4999 24.3555 27.3007 24.3691C27.0743 24.3611 26.8497 24.412 26.6489 24.5169C26.4481 24.6218 26.278 24.777 26.1553 24.9674C25.8397 25.4791 25.6931 26.0772 25.7365 26.6769C25.6912 27.2576 25.8449 27.8364 26.1724 28.318C26.3046 28.491 26.4756 28.6306 26.6715 28.7256C26.8674 28.8206 27.0829 28.8684 27.3007 28.8651C27.5033 28.8775 27.706 28.8414 27.8919 28.7596C28.0778 28.6778 28.2414 28.5528 28.3691 28.3949C28.5295 28.1691 28.6428 27.9133 28.7024 27.6428H30.0529C29.967 28.2921 29.6661 28.8939 29.1982 29.3523C28.9493 29.5792 28.6582 29.7549 28.3414 29.8693C28.0246 29.9837 27.6884 30.0345 27.3519 30.019C26.9482 30.0449 26.5437 29.9818 26.167 29.8341C25.7904 29.6864 25.4508 29.4577 25.1723 29.1642C24.6102 28.4645 24.3271 27.5815 24.3774 26.6854C24.3341 26.2037 24.389 25.7182 24.5389 25.2583C24.6887 24.7984 24.9304 24.3738 25.2493 24.0101Z" fill="#2F2F2F"/>
<path d="M35.7798 24.4801H32.3608V25.8648H35.5233V26.993H32.3608V28.7026H35.8994V29.8308H31.0103V23.3262H35.7798V24.4801Z" fill="#2F2F2F"/>
<path d="M36.7542 23.3262H38.1816L40.7458 27.8649V23.3262H42.0109V29.8308H40.7031L38.0619 25.2152V29.8308H36.7542V23.3262Z" fill="#2F2F2F"/>
<path d="M47.8661 23.3262V24.4801H45.9344V29.8308H44.5667V24.4801H42.6179V23.3262H47.8661Z" fill="#2F2F2F"/>
<path d="M52.6612 23.4967C52.8968 23.5969 53.105 23.7523 53.268 23.9497C53.4052 24.1133 53.5149 24.2981 53.5928 24.4968C53.6791 24.7141 53.7198 24.9469 53.7125 25.1806C53.7099 25.4995 53.6308 25.8132 53.4817 26.0952C53.3188 26.3992 53.0423 26.6266 52.7124 26.7277C52.9775 26.8181 53.2017 26.9999 53.345 27.2405C53.4921 27.5584 53.5567 27.9082 53.533 28.2577V28.6936C53.518 28.8928 53.518 29.0928 53.533 29.2919C53.5468 29.3692 53.5767 29.4426 53.6209 29.5074C53.6651 29.5723 53.7226 29.627 53.7894 29.668V29.8304H52.3193C52.3193 29.6851 52.2509 29.574 52.2338 29.48C52.2007 29.2964 52.1808 29.1108 52.174 28.9244V28.3175C52.214 28.0158 52.1376 27.7101 51.9603 27.4628C51.7387 27.3002 51.4641 27.227 51.191 27.2576H49.849V29.8219H48.5242V23.3258H51.6355C51.985 23.3187 52.3328 23.3767 52.6612 23.4967ZM49.849 24.454V26.2063H51.285C51.51 26.2202 51.7352 26.1822 51.9432 26.0952C52.0732 26.0271 52.1795 25.9212 52.2481 25.7915C52.3168 25.6618 52.3446 25.5144 52.3278 25.3686C52.343 25.2145 52.3161 25.0591 52.2498 24.9191C52.1836 24.7791 52.0805 24.6597 51.9517 24.5737C51.7568 24.4828 51.5424 24.4417 51.3277 24.454H49.849Z" fill="#2F2F2F"/>
<path d="M59.6445 24.4801H56.2255V25.8648H59.3881V26.993H56.2255V28.7026H59.8326V29.8308H54.875V23.3262H59.6445V24.4801Z" fill="#2F2F2F"/>
<path d="M105.22 35.0875C105.035 35.0815 104.852 35.1186 104.684 35.1957C104.517 35.2729 104.369 35.388 104.254 35.532C104.015 35.9168 103.888 36.361 103.888 36.8141C103.888 37.2673 104.015 37.7115 104.254 38.0963C104.369 38.2403 104.517 38.3554 104.684 38.4326C104.852 38.5097 105.035 38.5468 105.22 38.5407C105.405 38.5488 105.589 38.5127 105.757 38.4354C105.924 38.3581 106.072 38.2418 106.186 38.0963C106.446 37.728 106.573 37.2815 106.545 36.8312C106.573 36.3783 106.446 35.9292 106.186 35.5577C106.074 35.4074 105.928 35.2862 105.76 35.2043C105.592 35.1225 105.407 35.0824 105.22 35.0875Z" fill="#2F2F2F"/>
<path d="M112.981 35.3014C112.833 35.2378 112.672 35.2086 112.511 35.216H111.391V36.5237H112.485C112.651 36.5319 112.817 36.5058 112.972 36.4468C113.071 36.3966 113.152 36.3172 113.204 36.2192C113.256 36.1213 113.277 36.0098 113.263 35.8998C113.278 35.7835 113.259 35.6655 113.209 35.5595C113.159 35.4535 113.08 35.364 112.981 35.3014Z" fill="#2F2F2F"/>
<path d="M118.622 37.4039H119.87L119.255 35.4893L118.622 37.4039Z" fill="#2F2F2F"/>
<path d="M98.4673 35.216H97.5527V36.652H98.4673C98.6639 36.6596 98.8571 36.5993 99.0144 36.481C99.0826 36.4066 99.1346 36.3187 99.1669 36.223C99.1993 36.1274 99.2114 36.026 99.2024 35.9254C99.2129 35.826 99.2016 35.7256 99.1691 35.631C99.1366 35.5365 99.0838 35.4503 99.0144 35.3784C98.856 35.2632 98.6629 35.2059 98.4673 35.216Z" fill="#2F2F2F"/>
<path d="M92.2019 35.3014C92.0537 35.2378 91.8929 35.2086 91.7318 35.216H90.6035V36.5237H91.6976C91.8636 36.5335 92.0298 36.5073 92.1848 36.4468C92.2837 36.3966 92.3646 36.3172 92.4166 36.2192C92.4687 36.1213 92.4892 36.0098 92.4754 35.8998C92.4911 35.7844 92.4737 35.6669 92.4253 35.561C92.3769 35.4551 92.2994 35.3651 92.2019 35.3014Z" fill="#2F2F2F"/>
<path d="M84.4494 35.087C84.2646 35.079 84.0806 35.1151 83.9126 35.1924C83.7446 35.2697 83.5975 35.3859 83.4835 35.5315C83.2383 35.9142 83.1079 36.3591 83.1079 36.8136C83.1079 37.2681 83.2383 37.7131 83.4835 38.0958C83.6022 38.2347 83.7497 38.3463 83.9157 38.4227C84.0817 38.4992 84.2623 38.5388 84.4451 38.5388C84.6279 38.5388 84.8085 38.4992 84.9745 38.4227C85.1405 38.3463 85.2879 38.2347 85.4067 38.0958C85.6674 37.7275 85.7941 37.281 85.7657 36.8307C85.794 36.3778 85.6674 35.9287 85.4067 35.5572C85.2967 35.4076 85.1522 35.2867 84.9856 35.2049C84.8189 35.123 84.635 35.0826 84.4494 35.087Z" fill="#2F2F2F"/>
<path d="M138.376 35.2156H137.427V38.4038H138.376C138.598 38.4113 138.817 38.3449 138.998 38.2151C139.179 38.0852 139.312 37.8991 139.376 37.6858C139.489 37.3917 139.541 37.0776 139.529 36.7627C139.556 36.3671 139.476 35.9718 139.299 35.6173C139.196 35.4726 139.056 35.3588 138.893 35.288C138.73 35.2172 138.551 35.1921 138.376 35.2156Z" fill="#2F2F2F"/>
<path d="M23.3689 35.301C23.2201 35.2392 23.0598 35.2101 22.8988 35.2155H21.7705V36.5232H22.8646C23.0334 36.5322 23.2022 36.506 23.3603 36.4463C23.4568 36.394 23.5353 36.3138 23.5856 36.2162C23.6359 36.1187 23.6557 36.0082 23.6424 35.8993C23.6581 35.7839 23.6407 35.6664 23.5923 35.5605C23.5439 35.4546 23.4664 35.3646 23.3689 35.301Z" fill="#2F2F2F"/>
</svg>
