<svg width="146" height="17" viewBox="0 0 146 17" fill="none" xmlns="http://www.w3.org/2000/svg">
<path d="M119.357 8.89503C120.411 8.89503 121.159 8.75459 121.6 8.47371C122.04 8.19283 122.259 7.69676 122.259 6.98777V6.34447C122.259 5.66718 122.04 5.18017 121.6 4.88344C121.159 4.5867 120.411 4.4372 119.357 4.4372H113.458V8.8973H119.357V8.89503ZM109.286 0.643066H119.383C121.83 0.643066 123.616 1.08024 124.743 1.95686C125.87 2.83347 126.433 4.20389 126.433 6.07038V7.135C126.433 8.45559 126.014 9.53381 125.175 10.3696C124.335 11.2032 123.156 11.7129 121.637 11.8941C122.053 11.9756 122.468 12.1863 122.884 12.5261C123.301 12.8659 123.684 13.2396 124.035 13.6541L126.889 16.9998H121.661L119.311 14.422C118.831 13.8942 118.408 13.4888 118.04 13.2079C117.671 12.927 117.301 12.7254 116.924 12.6008C116.549 12.4762 116.113 12.4151 115.617 12.4151H113.458V16.9998H109.284V0.643066H109.286Z" fill="#2F2F2F"/>
<path d="M10.8401 13.0337C12.4381 13.0337 13.5934 12.9182 14.3058 12.6871C15.0183 12.4561 15.4764 12.071 15.6847 11.5342C15.8929 10.9973 15.9959 10.1343 15.9959 8.9451V8.05263C15.9959 6.87928 15.8841 6.02079 15.6606 5.47488C15.437 4.92898 14.97 4.54164 14.2576 4.31059C13.5451 4.07955 12.4074 3.96402 10.8401 3.96402H9.40203C7.80397 3.96402 6.64872 4.07955 5.93628 4.31059C5.22384 4.54164 4.76568 4.92672 4.55743 5.46356C4.34918 6.0004 4.24615 6.86342 4.24615 8.05263V8.9451C4.24615 10.1185 4.35795 10.9769 4.58154 11.5229C4.80514 12.0688 5.27206 12.4561 5.9845 12.6871C6.69695 12.9182 7.83466 13.0337 9.40203 13.0337H10.8401ZM9.39984 17C6.84163 17 4.88406 16.7101 3.52494 16.1324C2.16582 15.5548 1.23855 14.7235 0.743131 13.643C0.24771 12.5603 0 11.1355 0 9.36869V7.63358C0 5.88261 0.24771 4.46236 0.743131 3.37055C1.23855 2.28101 2.1702 1.44517 3.53809 0.867555C4.90379 0.28994 6.85916 0 9.39984 0H10.8379C13.3961 0 15.3537 0.28994 16.7128 0.867555C18.0719 1.44517 18.9992 2.28101 19.4946 3.37055C19.99 4.46009 20.2377 5.88261 20.2377 7.63358V9.36869C20.2377 11.1197 19.99 12.5399 19.4946 13.6317C18.9992 14.7213 18.0675 15.5571 16.6996 16.1347C15.3317 16.7123 13.3785 17.0023 10.8357 17.0023H9.39764L9.39984 17Z" fill="#2F2F2F"/>
<path fill-rule="evenodd" clip-rule="evenodd" d="M134.87 4.53461H127.823V0.643066H146V4.53461H139.128L139.117 16.9998H134.873L134.87 4.53461Z" fill="#2F2F2F"/>
<path fill-rule="evenodd" clip-rule="evenodd" d="M100.787 10.7796L97.9573 4.23787H96.9731L94.1671 10.7796H100.785H100.787ZM94.2395 0.643066H100.811L107.982 16.9975H103.473L102.346 14.3699H92.6568L91.5059 16.9975H87.0449L94.2395 0.643066Z" fill="#2F2F2F"/>
<path fill-rule="evenodd" clip-rule="evenodd" d="M54.3142 10.7796L51.4842 4.23787H50.4999L47.694 10.7796H54.312H54.3142ZM47.7663 0.643066H54.3383L61.5088 16.9975H56.9996L55.8728 14.3699H46.1836L45.0328 16.9975H40.5718L47.7663 0.643066Z" fill="#2F2F2F"/>
<path d="M71.2353 16.9999C69.6197 16.9999 68.162 16.9251 66.8598 16.7779C65.5577 16.6284 64.3148 16.3973 63.131 16.0847V12.268C64.2819 12.5828 65.5731 12.8252 67.0045 12.9996C68.436 13.174 69.8543 13.2601 71.2616 13.2601C72.4125 13.2601 73.2872 13.2103 73.8878 13.1106C74.4884 13.0109 74.9028 12.8592 75.1351 12.653C75.3675 12.4469 75.4837 12.1524 75.4837 11.7741C75.4837 11.4774 75.4004 11.2328 75.2316 11.0425C75.0628 10.8522 74.7164 10.6914 74.1881 10.56C73.6598 10.4286 72.886 10.3199 71.8623 10.2384L68.2891 9.94164C66.4017 9.79214 65.0316 9.33457 64.1767 8.56669C63.3218 7.7988 62.8943 6.62092 62.8943 5.03531C62.8943 3.89593 63.1266 2.96269 63.5892 2.23557C64.0539 1.50846 64.8606 0.95576 66.0115 0.575214C67.1624 0.194668 68.7604 0.00439453 70.8079 0.00439453H71.768C73.1754 0.00439453 74.5739 0.135774 75.9637 0.400797C76.8296 0.566153 77.6078 0.772283 78.2918 1.02145L78.34 1.03957V1.21172V5.03531C77.5728 4.58907 76.617 4.26742 75.4749 4.06808C74.3328 3.86875 73.1052 3.77135 71.7943 3.77135H71.1959C70.1239 3.77135 69.3019 3.80759 68.7253 3.88234C68.1488 3.95709 67.7389 4.08847 67.4912 4.27874C67.2435 4.46902 67.1185 4.74537 67.1185 5.10779C67.1185 5.38867 67.2018 5.61066 67.3706 5.77601C67.5394 5.94137 67.8375 6.07275 68.2694 6.17242C68.7012 6.27208 69.3326 6.35363 70.1634 6.41932L73.9053 6.71605C75.3916 6.83158 76.5644 7.08301 77.4193 7.47262C78.2742 7.85996 78.8858 8.39453 79.2541 9.07182C79.6224 9.7491 79.8065 10.6167 79.8065 11.6745C79.8065 12.8637 79.5786 13.8377 79.1226 14.5988C78.6666 15.3599 77.8161 15.9488 76.5688 16.3701C75.3215 16.7915 73.548 17.0021 71.2441 17.0021" fill="#2F2F2F"/>
<path d="M38.8224 10.1953C38.8224 12.1864 38.5901 13.6905 38.1232 14.7121C37.6562 15.7314 36.8517 16.352 35.7074 16.5718C34.5631 16.7915 33.5723 16.9183 32.7349 16.9523C31.8975 16.984 31.0996 17.0021 30.3433 17.0021C28.2586 17.0021 26.7153 16.9002 25.7113 16.6963C24.7095 16.4925 23.9313 15.9466 23.3789 15.0564C22.8265 14.1662 22.5503 12.7097 22.5503 10.6869L22.5744 9.87822H27.1932L27.1691 10.9542C27.1691 11.8195 27.4168 12.379 27.9144 12.6304C28.412 12.8841 29.1332 13.0087 30.0824 13.0087H31.3626C32.1365 13.0087 32.7678 12.9067 33.2588 12.7029C33.7477 12.499 33.9932 12.0777 33.9932 11.4434L34.0173 10.1953V0.525391H38.8268V10.1931L38.8224 10.1953Z" fill="#2F2F2F"/>
</svg>
