<svg width="82" height="63" viewBox="0 0 82 63" fill="none" xmlns="http://www.w3.org/2000/svg">
<path d="M0.839918 61.99C0.496019 61.8767 0.238906 61.7472 0.0739861 61.6038C-0.0395654 61.505 -0.0333471 61.4794 0.169694 61.2275L0.387334 60.9573L0.781791 61.1644C1.41011 61.494 2.02004 61.4096 2.02004 60.9926C2.02004 60.8518 1.62045 60.6409 1.12596 60.5201C0.420049 60.348 0.0885858 60.0087 0.0885858 59.4588C0.0885858 59.0872 0.33191 58.7366 0.732855 58.5297C0.998891 58.3924 1.13434 58.3692 1.51934 58.394C1.96056 58.4226 2.52048 58.6287 2.62782 58.8018C2.66377 58.8601 2.54671 59.0829 2.3315 59.3652C2.31987 59.3803 2.15063 59.3242 1.95516 59.2404C1.53556 59.0602 1.14434 59.0438 0.987806 59.1999C0.715553 59.4715 0.899127 59.656 1.65506 59.8707C2.04546 59.9818 2.32069 60.1104 2.5021 60.2671C2.75759 60.4872 2.77111 60.5201 2.77111 60.9298C2.77111 61.416 2.63295 61.6688 2.24174 61.8972C1.95137 62.0671 1.22086 62.1151 0.839918 61.99ZM8.04963 61.9859C7.29803 61.7405 6.81138 61.0509 6.81408 60.2334C6.81787 59.1622 7.51351 58.4515 8.62199 58.3865C9.05375 58.3611 9.15892 58.3827 9.56176 58.5807C10.4269 59.0055 10.8011 59.8779 10.5199 60.8143C10.412 61.173 9.95486 61.6914 9.57582 61.8845C9.2065 62.0728 8.46653 62.1219 8.04963 61.9859Z" fill="#2F2F2F"/>
<path d="M9.04351 61.2978C9.36173 61.2096 9.64317 60.8949 9.74645 60.5119C9.93759 59.8045 9.38876 59.0879 8.65581 59.0879C8.3157 59.0879 7.90421 59.3614 7.74281 59.6947C7.48596 60.2241 7.60195 60.7762 8.03912 61.1053C8.39005 61.369 8.62418 61.4138 9.04351 61.2978Z" fill="white"/>
<path d="M18.9016 61.9557C18.4511 61.8073 18.1137 61.6064 18.117 61.4883C18.118 61.4438 18.217 61.3 18.3365 61.1687C18.5358 60.9502 18.5641 60.9395 18.6766 61.0411C18.9916 61.3254 19.6753 61.46 19.9795 61.2976C20.1698 61.1962 20.1571 60.9006 19.9568 60.7725C19.8684 60.7159 19.651 60.6339 19.4739 60.5902C18.9927 60.4715 18.5239 60.2404 18.3852 60.0535C18.0296 59.574 18.2467 58.8304 18.8302 58.5297C19.1022 58.3894 19.2252 58.3692 19.625 58.3997C20.099 58.4361 20.7616 58.681 20.7616 58.8199C20.7616 58.9261 20.474 59.3736 20.4058 59.3736C20.3739 59.3736 20.2077 59.3099 20.0363 59.2325C19.6383 59.0523 19.2476 59.0464 19.0916 59.2188C18.8437 59.492 19.0116 59.6508 19.7894 59.8782C20.2098 60.0009 20.4261 60.1104 20.6302 60.304C20.8817 60.5427 20.9047 60.5967 20.9047 60.9459C20.9047 61.6264 20.4783 62.018 19.6886 62.0628C19.4442 62.0765 19.146 62.0358 18.9016 61.9557ZM27.9527 61.9759C27.2122 61.6941 27.0564 61.2893 27.0564 59.6462V58.4461H27.8432L27.8437 59.6055C27.8437 60.6142 27.8613 60.7935 27.9781 60.9848C28.2558 61.4387 28.9206 61.4805 29.2315 61.0632C29.3672 60.8809 29.3834 60.7488 29.404 59.6541L29.4264 58.4458H30.2153L30.1918 59.7485C30.1694 60.9842 30.1591 61.0667 29.9885 61.3707C29.7441 61.8057 29.335 62.0261 28.7108 62.059C28.4042 62.0752 28.1365 62.0455 27.9527 61.9759ZM39.36 61.98C38.6133 61.7386 38.1456 61.0646 38.1456 60.2299C38.1456 59.0801 39.0126 58.2985 40.1844 58.3924C41.2307 58.476 41.9382 59.2304 41.9336 60.2566C41.9309 60.9114 41.511 61.5727 40.8981 61.8883C40.531 62.0768 39.7958 62.1207 39.36 61.98Z" fill="#2F2F2F"/>
<path d="M40.5059 61.2396C40.8944 61.0338 41.0769 60.711 41.0769 60.2301C41.0769 59.7495 40.8944 59.4264 40.5059 59.2206C39.4699 58.6712 38.433 60.0437 39.1984 60.951C39.548 61.3653 40.0568 61.4777 40.5059 61.2396Z" fill="white"/>
<path d="M57.8868 62.0186C57.5688 61.9224 57.2818 61.7445 57.0546 61.5026C56.6715 61.0964 56.5667 60.8227 56.5667 60.2299C56.5667 59.6371 56.6715 59.3636 57.0546 58.9569C57.4505 58.537 57.7727 58.4121 58.4594 58.4121C59.1797 58.4121 59.5103 58.5518 59.9207 59.0303C60.9641 60.2461 60.0535 62.1065 58.4289 62.079C58.2294 62.0757 57.9855 62.0485 57.8868 62.0186Z" fill="#2F2F2F"/>
<path d="M58.9243 61.2289C59.7097 60.8497 59.7308 59.6714 58.96 59.2393C58.2338 58.8321 57.3865 59.3429 57.3865 60.1881C57.3865 60.6844 57.5703 61.0107 57.9613 61.2111C58.3479 61.4088 58.5442 61.4126 58.9243 61.2289Z" fill="white"/>
<path d="M3.52222 60.2304V58.4463H4.44739C5.41772 58.4463 5.66672 58.4975 5.9433 58.7543C6.2096 59.0016 6.32234 59.2856 6.32234 59.7082C6.32234 60.4828 5.84651 60.8814 4.86348 60.931L4.30924 60.9591V62.0144H3.52249L3.52222 60.2304Z" fill="#2F2F2F"/>
<path d="M5.35946 60.0745C5.57034 59.8769 5.58116 59.5006 5.3819 59.3019C5.26835 59.1886 5.14344 59.1592 4.77386 59.1592H4.30884V60.2296H4.75142C5.10721 60.2296 5.22644 60.1991 5.35946 60.0745Z" fill="white"/>
<path d="M11.3191 60.2245V58.4355L12.4514 58.4582C13.5179 58.4798 13.5985 58.4911 13.8402 58.6567C14.1579 58.8741 14.3236 59.2074 14.3236 59.6287C14.3236 60.0273 14.1895 60.2954 13.8513 60.5737L13.5904 60.7881L13.993 61.3707C14.2141 61.6911 14.3953 61.9667 14.3953 61.9832C14.3953 61.9999 14.1941 62.0126 13.9481 62.0118L13.5009 62.0099L13.1251 61.4406L12.7493 60.8715H12.1058V62.0131H11.3191V60.2242V60.2245Z" fill="#2F2F2F"/>
<path d="M13.3712 60.0031C13.5821 59.8057 13.5862 59.496 13.3804 59.3045C13.2507 59.184 13.1285 59.1592 12.6651 59.1592H12.106V60.1582H12.6559C13.1217 60.1582 13.2309 60.1347 13.3712 60.0031Z" fill="white"/>
<path d="M15.8973 60.5864V59.1597H14.8242V58.4458H17.7571V59.1594H16.684V62.0139H15.8973V60.5864ZM22.9077 61.9602C22.9077 61.9308 23.243 61.1201 23.6526 60.1586L24.3974 58.4102H25.1382L25.8376 60.0513C26.7685 62.2356 26.7263 62.0258 26.2297 61.9996L25.8198 61.978L25.6765 61.6013L25.5332 61.2245L24.7467 61.2444L23.9603 61.2644L23.8178 61.6393L23.6753 62.0139H23.2914C23.0805 62.0139 22.9077 61.9896 22.9077 61.9602Z" fill="#2F2F2F"/>
<path d="M25.1973 60.4621C25.1981 60.3677 24.8047 59.4456 24.7636 59.4453C24.7417 59.4453 24.623 59.6862 24.4997 59.9804L24.2759 60.5155H24.7363C24.9894 60.5155 25.197 60.4915 25.1973 60.4621Z" fill="white"/>
<path d="M31.8493 60.5891V59.1651L31.2996 59.1441L30.75 59.1233L30.7565 58.8913C30.7603 58.7638 30.7662 58.6111 30.77 58.5523C30.7754 58.4606 30.9931 58.4453 32.271 58.4453H33.7659L33.7553 58.7843L33.7451 59.1233L33.1905 59.1441L32.6363 59.1648V62.0134H31.8496L31.8493 60.5891ZM34.3528 60.2293V58.4453H35.1347L35.155 59.1411L35.1755 59.8369L35.8731 59.8571C36.403 59.8728 36.5714 59.8555 36.5738 59.7859C36.5757 59.7355 36.5782 59.4132 36.5792 59.0696L36.5817 58.4453H37.429V62.0134H36.5706V60.5859H35.1398V62.0131H34.3531V60.2291L34.3528 60.2293ZM42.6507 60.2245V58.4355L43.7903 58.4582C44.809 58.4787 44.9507 58.4968 45.1272 58.6281C45.4409 58.8619 45.5966 59.1182 45.6355 59.4634C45.6861 59.9105 45.5509 60.2563 45.213 60.5449L44.9245 60.7914L45.3254 61.3723C45.5463 61.6919 45.7266 61.9667 45.7266 61.9832C45.7266 61.9996 45.5255 62.0123 45.2797 62.011L44.8326 62.0083L44.4459 61.44C44.062 60.8761 44.0566 60.8715 43.7484 60.8715H43.4375V62.0131H42.6507V60.2242V60.2245Z" fill="#2F2F2F"/>
<path d="M44.7257 59.9629C44.8366 59.8224 44.868 59.7096 44.8379 59.5602C44.7736 59.2404 44.6116 59.1638 43.992 59.1611L43.4377 59.1592V60.1582H44.0047C44.5373 60.1582 44.5811 60.1463 44.7257 59.9629Z" fill="white"/>
<path d="M46.4419 60.2304V58.4463H47.2286V62.0144H46.4419V60.2304ZM48.9454 60.5872V59.1599H47.8726V58.4463H50.8412L50.8163 58.8031L50.7917 59.1599H49.7325V62.0144H48.9457L48.9454 60.5872ZM52.4488 61.283L52.4469 60.5516L51.7807 59.5167L51.1148 58.4822L51.5066 58.4606C51.722 58.4484 51.9362 58.4533 51.9824 58.4711C52.0289 58.4886 52.236 58.7956 52.4426 59.1526C52.6494 59.51 52.8405 59.8023 52.8676 59.8023C52.8946 59.8023 53.0952 59.5051 53.3134 59.1421L53.71 58.4822L54.1534 58.4606C54.3973 58.4493 54.5968 58.4565 54.5968 58.4773C54.5968 58.4981 54.291 58.9914 53.9171 59.5736L53.2377 60.6322V62.0144H52.4509L52.4488 61.283ZM61.1063 60.2304V58.4463H63.8245V59.1599H61.893V59.9447H63.6179L63.5957 60.2838L63.5741 60.6228L62.7336 60.643L61.893 60.663V62.0142H61.1063V60.2304ZM66.042 60.2304V58.4463H66.8287V62.0144H66.042V60.2304ZM67.7588 60.2304V58.4463L68.1343 58.4471C68.4687 58.4479 68.5255 58.4711 68.6528 58.6569C69.0289 59.2055 70.0668 60.5157 70.125 60.5157C70.162 60.5157 70.1909 60.0634 70.1909 59.4809V58.4463H70.9777V62.0217L70.6067 62.0001L70.2355 61.9786L69.4082 60.893L68.5815 59.8075L68.5617 60.9108L68.542 62.0142H67.7588V60.2301V60.2304ZM71.8361 60.2304V58.4463L72.784 58.4471C73.6283 58.4476 73.7713 58.4662 74.0933 58.6159C75.2153 59.137 75.4873 60.5858 74.6254 61.4494C74.166 61.9095 73.8121 62.0144 72.7175 62.0144H71.8361V60.2304Z" fill="#2F2F2F"/>
<path d="M73.7651 61.1747C74.0944 61.0091 74.2847 60.6663 74.2847 60.2388C74.2847 59.5168 73.8948 59.1597 73.1059 59.1592H72.623V61.2998H73.07C73.3533 61.2995 73.6082 61.2539 73.7651 61.1747Z" fill="white"/>
<path d="M75.8896 61.9662C75.8634 61.94 75.842 61.1374 75.842 60.1824V58.4458H76.7004V62.0139H76.319C76.1092 62.0139 75.9161 61.9923 75.8896 61.9662ZM77.4531 61.6034C77.5499 61.3777 77.8962 60.567 78.2223 59.8018L78.8149 58.4102H79.1702C79.5046 58.4102 79.533 58.425 79.652 58.6599C79.7904 58.9331 81.0638 61.9295 81.0638 61.9815C81.0638 61.9993 80.8851 62.0139 80.6664 62.0139H80.2689L80.094 61.6188L79.9191 61.2239L79.1599 61.2442L78.4005 61.2644L78.248 61.6393L78.0952 62.0136H77.2768L77.4531 61.6034Z" fill="#2F2F2F"/>
<path d="M79.6334 60.4841C79.6334 60.422 79.2498 59.5498 79.1946 59.4867C79.1633 59.4506 79.1081 59.498 79.0711 59.5938C79.0343 59.6882 78.937 59.9344 78.8548 60.1405L78.7056 60.5153H79.1695C79.4247 60.5153 79.6334 60.5013 79.6334 60.4841Z" fill="white"/>
<path d="M15.7186 54.6156C10.648 54.4657 6.63528 53.5937 3.12113 51.8782C2.06158 51.3611 0.390483 50.3425 0.17825 50.0846C0.0893014 49.9768 0.210152 49.7416 0.963648 48.556C2.00724 46.9138 3.47909 46.1009 5.40865 46.1009C6.63933 46.1009 7.41689 46.2471 9.5668 46.8817C12.8549 47.8526 14.3379 48.0603 17.6141 48.0082C20.4331 47.9634 21.7082 47.7995 22.9962 47.3159C24.4202 46.7811 25.1996 45.3924 25.1104 43.5482C25.0312 41.903 24.2012 41.1147 21.8344 40.4364C20.3507 40.0113 19.5869 39.8673 15.3609 39.2154C11.9349 38.6871 9.73821 38.1595 7.89759 37.4227C6.22866 36.7547 5.26076 36.1861 4.38966 35.3619C3.19899 34.2357 2.48308 32.7674 2.20244 30.8784C1.94911 29.1712 1.99156 27.1819 2.31599 25.5513C2.99325 22.1476 5.08178 19.8951 8.63703 18.7332C9.81472 18.3484 10.8042 18.1385 12.5708 17.8982C13.6874 17.7467 13.9372 17.7421 22.7474 17.7181C31.2438 17.6946 31.7821 17.7005 31.8267 17.8162C31.8775 17.9481 31.7721 18.6591 31.5901 19.4129C31.4403 20.0332 30.8061 21.3412 30.3889 21.8909C29.6268 22.8942 28.4569 23.7753 27.3595 24.1726C26.247 24.5755 26.3938 24.5663 20.1893 24.6208C14.1692 24.6737 13.8877 24.6882 12.571 25.0156C11.8541 25.1939 11.0165 25.6462 10.6499 26.0532C10.1248 26.6357 9.99965 27.0457 9.99749 28.19C9.99586 29.1237 10.0029 29.1677 10.2192 29.6173C10.4714 30.1416 10.9359 30.6556 11.3993 30.9226C12.3772 31.4863 14.5212 32.0023 17.9718 32.5039C22.6998 33.1911 24.7827 33.6366 26.8037 34.394C28.6032 35.0682 29.4932 35.5685 30.3751 36.4011C32.4888 38.3974 33.3453 41.6044 32.8032 45.4946C32.4842 47.7868 31.7185 49.4633 30.3151 50.9439C28.1506 53.2277 24.6478 54.3405 18.8302 54.5924C17.945 54.6307 17.0274 54.6561 16.7917 54.6485C16.5554 54.641 16.0728 54.6261 15.7186 54.6156ZM33.852 54.5498C33.852 54.5139 34.1442 53.7461 34.5014 52.8437C35.1186 51.2848 36.415 47.9912 37.1417 46.1368C37.531 45.1426 39.5839 39.9347 40.7702 36.9316C41.2198 35.7934 41.6797 34.6213 41.7922 34.3268C41.9047 34.0326 42.1877 33.31 42.421 32.7213C42.6544 32.1325 43.433 30.1578 44.1516 28.3327L46.1328 23.302C46.5038 22.3602 47.0147 21.0597 47.2681 20.4118C47.5214 19.764 47.8658 18.8975 48.0337 18.4854L48.339 17.7361L51.7804 17.7173C54.4799 17.703 55.237 17.7183 55.2927 17.789C55.3316 17.8384 55.5757 18.4247 55.835 19.0917C56.0945 19.7592 56.609 21.0756 56.9789 22.0176L59.3878 28.1544C60.2515 30.3548 61.1157 32.5551 61.9803 34.7551C62.8079 36.8604 63.2788 38.0603 65.2427 43.0684C66.1373 45.348 67.0325 47.6275 67.9282 49.9066C68.8972 52.3725 69.6902 54.4406 69.6902 54.5023C69.6902 54.6032 69.5066 54.6102 67.9555 54.5698C65.4763 54.5053 64.4719 54.3327 63.2788 53.7661C61.8062 53.067 60.7799 51.7023 59.5276 48.7769C59.3932 48.4629 59.2507 48.1824 59.2113 48.1536C59.1715 48.1245 55.8109 48.1085 51.7434 48.1177L44.3476 48.1347L43.838 49.2764C42.6755 51.8809 41.7338 53.0883 40.3287 53.7763C39.6158 54.1256 39.1778 54.2515 38.1083 54.4155C37.2837 54.542 33.852 54.6501 33.852 54.5498Z" fill="#2F2F2F"/>
<path d="M56.4864 41.4905C56.5486 41.4665 56.5997 41.4048 56.5997 41.353C56.5997 41.3012 55.664 38.8882 54.5201 35.9908C53.7393 34.0159 52.9612 32.0398 52.1858 30.0628C51.9409 29.4282 51.8289 29.3001 51.687 29.4921C51.6508 29.5412 51.4388 30.0469 51.216 30.6159C50.2725 33.0201 49.3245 35.4225 48.3718 37.8231C46.9032 41.5302 46.9554 41.3816 47.0903 41.4665C47.2039 41.5383 56.3015 41.5612 56.4864 41.4905Z" fill="white"/>
<path d="M73.7337 54.524C73.7034 54.4752 73.7012 46.8038 73.7288 37.4767C73.771 23.3214 73.7959 20.4448 73.8797 20.0726C74.1041 19.0758 74.6489 18.3837 75.5429 17.9614L76.0207 17.7356L78.5431 17.7135L81.0659 17.6914L81.0469 33.4482L81.028 49.2047L80.835 49.9021C80.0201 52.8467 77.9494 54.411 74.6545 54.5706C74.003 54.6025 73.775 54.5909 73.7337 54.524Z" fill="#2F2F2F"/>
<path d="M66.5426 16.3936C66.5426 16.4739 67.0617 16.0505 67.6035 15.5278C68.991 14.1888 69.6815 12.6795 69.5966 11.1708C69.5255 9.90645 69.0402 8.88212 67.2975 6.31835C65.678 3.9358 64.6244 2.43114 64.5333 2.24774C64.4771 2.1342 64.7391 2.51124 65.7359 3.7071C66.4934 4.61599 68.1551 6.26656 68.8172 6.80435C69.6266 7.46242 70.3569 7.95597 71.045 8.31036C72.0615 8.83439 72.6157 9.00349 73.4555 9.04664C74.0962 9.07928 74.259 9.06148 74.8489 8.89264C75.5946 8.67904 76.4051 8.29741 77.1232 7.82112C78.2628 7.06542 79.7422 5.64166 80.716 4.36328C80.9072 4.11219 81.0637 3.95064 81.0637 4.00458C81.0637 4.19121 80.042 5.968 79.2293 7.19406C78.242 8.68416 77.2895 9.83902 75.9479 11.1732C72.3129 14.788 67.8182 17.2226 63.0017 18.1852C62.2266 18.34 61.6715 18.4279 61.7856 18.3775C61.8251 18.36 62.2344 18.2494 62.6949 18.1321C63.749 17.8629 64.6141 17.5325 64.8104 17.3238" fill="#2F2F2F"/>
<path d="M66.5426 16.3936C66.5426 16.4739 67.0617 16.0505 67.6035 15.5278C68.991 14.1888 69.6815 12.6795 69.5966 11.1708C69.5255 9.90645 69.0402 8.88212 67.2975 6.31834C65.678 3.9358 64.6244 2.43114 64.5333 2.24774C64.4771 2.1342 64.7391 2.51124 65.7359 3.7071C66.4934 4.61599 68.1551 6.26656 68.8172 6.80435C69.6266 7.46242 70.3569 7.95597 71.045 8.31036C72.0615 8.83439 72.6157 9.00349 73.4555 9.04664C74.0962 9.07928 74.259 9.06148 74.8489 8.89264C75.5946 8.67904 76.4051 8.29741 77.1232 7.82112C78.2628 7.06542 79.7422 5.64166 80.716 4.36328C80.9072 4.11219 81.0637 3.95064 81.0637 4.00458C81.0637 4.19121 80.042 5.968 79.2293 7.19406C78.242 8.68416 77.2895 9.83902 75.9479 11.1732C72.3129 14.788 67.8182 17.2226 63.0017 18.1852C62.2266 18.34 61.6715 18.4279 61.7856 18.3775C61.8251 18.36 62.2344 18.2494 62.6949 18.1321C63.749 17.8629 64.6141 17.5325 64.8104 17.3238" stroke="#2F2F2F" stroke-width="0.446316"/>
<path d="M64.8105 17.3241C65.2128 16.8972 65.2926 16.1533 65.0095 15.4667C64.7497 14.8361 64.4553 14.3884 63.2968 12.8603C61.7909 10.8737 61.4951 10.1824 61.5519 8.78052C61.5719 8.28535 61.6303 7.89536 61.7236 7.62998C61.889 7.15989 62.3197 6.42441 62.4268 6.42873C62.4676 6.43035 62.5722 6.58273 62.6587 6.76774C62.7455 6.95249 63.0372 7.47301 63.3065 7.92422C63.8032 8.75625 63.9694 9.01031 65.5281 11.3252C66.8845 13.3398 67.16 14.0518 66.9826 15.0832C66.9345 15.3645 66.8155 15.7671 66.7187 15.9783C66.622 16.1892 66.5427 16.3761 66.5427 16.3937" fill="#2F2F2F"/>
<path d="M64.6201 17.4605C64.9118 17.3317 65.2007 17.1967 65.4866 17.0557C65.7543 16.9235 66.02 16.786 66.2634 16.6142C66.3607 16.5457 66.4537 16.472 66.5427 16.3936" stroke="#2F2F2F" stroke-width="0.318797"/>
<path d="M68.6 14.1601C68.6075 14.0811 68.6132 13.8338 68.6124 13.6107C68.6113 13.255 68.6054 13.173 68.5637 12.944C68.4191 12.1482 68.1074 11.4445 67.562 10.6842C67.3965 10.4569 67.2292 10.231 67.06 10.0065C65.8217 8.35912 65.0661 7.31592 64.528 6.51059C63.4028 4.82603 62.9605 3.91256 62.7748 2.8885C62.7323 2.65332 62.7274 2.58185 62.7266 2.17649C62.7258 1.78677 62.7312 1.69561 62.7661 1.50089C62.8515 1.02352 62.9621 0.684502 63.1706 0.259453L63.2976 0L63.5631 0.520523C63.9187 1.21851 64.1831 1.68024 64.5367 2.22153C64.6305 2.36528 64.7373 2.53978 64.7741 2.60963C64.8679 2.78844 65.3216 3.47753 66.1908 4.76265C67.8557 7.22314 68.2206 7.77953 68.5937 8.42682C69.1426 9.37886 69.3991 10.0296 69.5108 10.7543C69.5576 11.0578 69.5668 11.6756 69.5284 11.9529C69.4497 12.5241 69.2896 13.0374 69.0255 13.5657C68.9117 13.7933 68.6932 14.1682 68.6216 14.2594L68.5862 14.3044L68.6 14.1601Z" fill="#7C7C7C"/>
<path d="M73.6933 8.04938C74.3809 8.04938 74.9383 7.49333 74.9383 6.8074C74.9383 6.12148 74.3809 5.56543 73.6933 5.56543C73.0057 5.56543 72.4482 6.12148 72.4482 6.8074C72.4482 7.49333 73.0057 8.04938 73.6933 8.04938Z" fill="#2F2F2F"/>
</svg>
