<svg width="158" height="43" viewBox="0 0 158 43" fill="none" xmlns="http://www.w3.org/2000/svg">
<path d="M39.9647 0V1.31211H41.2768V0H39.9647ZM39.9647 2.62423V3.93634H41.2768V2.62423H39.9647ZM36.0283 3.93634V5.24846H37.3404V3.93634H36.0283Z" fill="#2F2F2F"/>
<path d="M18.8617 4.91992C8.443 4.91992 0 13.3629 0 23.7816C0 34.2002 8.443 42.6432 18.8617 42.6432C29.2803 42.6432 37.7233 34.2002 37.7233 23.7816C37.7233 13.3629 29.2803 4.91992 18.8617 4.91992ZM18.8617 10.9338C25.9506 10.9338 31.7094 16.6926 31.7094 23.7816C31.7094 30.8705 25.9506 36.6294 18.8617 36.6294C11.7727 36.6294 6.06853 30.8705 6.06853 23.7816C6.06853 16.6926 11.7727 10.9338 18.8617 10.9338Z" fill="#2F2F2F"/>
<path d="M48.6682 33.763C45.9565 33.763 43.6822 33.0894 41.8452 31.7423L43.6035 28.8557C45.073 29.8879 46.735 30.404 48.5895 30.404C49.4992 30.404 50.2165 30.229 50.7414 29.8791C51.2662 29.5117 51.5286 29.0044 51.5286 28.3571C51.5286 28.1821 51.5111 28.0247 51.4761 27.8847C51.4411 27.7447 51.3799 27.6135 51.2924 27.4911C51.205 27.3511 51.1175 27.2374 51.03 27.1499C50.9425 27.0449 50.8026 26.94 50.6101 26.835C50.4352 26.73 50.2777 26.6426 50.1378 26.5726C50.0153 26.5026 49.8141 26.4151 49.5342 26.3102C49.2543 26.2052 49.0181 26.1265 48.8257 26.074C48.6507 26.004 48.3795 25.9078 48.0122 25.7853C47.6448 25.6629 47.3386 25.5579 47.0937 25.4704C46.4464 25.243 45.8953 25.0068 45.4404 24.7619C44.9855 24.4994 44.5219 24.167 44.0496 23.7647C43.5772 23.3448 43.2186 22.8199 42.9736 22.1901C42.7287 21.5428 42.6062 20.808 42.6062 19.9858C42.6062 18.3238 43.1836 17.0379 44.3382 16.1281C45.4929 15.2009 47.0149 14.7373 48.9044 14.7373C51.1787 14.7373 53.0244 15.1572 54.4415 15.9969L53.1032 19.0148C51.7735 18.385 50.4177 18.0701 49.0356 18.0701C47.2161 18.0701 46.3064 18.6649 46.3064 19.8546C46.3064 20.1345 46.3589 20.3794 46.4639 20.5893C46.5688 20.7993 46.6825 20.9742 46.805 21.1142C46.9275 21.2542 47.1462 21.3941 47.4611 21.5341C47.7935 21.674 48.0646 21.779 48.2746 21.849C48.502 21.919 48.8694 22.0327 49.3768 22.1901C49.6042 22.2601 49.7791 22.3126 49.9016 22.3476C50.5139 22.54 51.0388 22.7237 51.4761 22.8987C51.9135 23.0736 52.3946 23.3273 52.9195 23.6597C53.4443 23.9746 53.8729 24.3332 54.2053 24.7356C54.5377 25.138 54.8176 25.6454 55.0451 26.2577C55.2725 26.87 55.3862 27.5523 55.3862 28.3046C55.3862 29.9491 54.8001 31.27 53.628 32.2672C52.4733 33.2644 50.8201 33.763 48.6682 33.763Z" fill="#2F2F2F"/>
<path d="M61.8626 34.1307L56.9028 19.9336H61.0229L63.5684 29.8532L65.7202 19.9336H69.5779L65.5103 33.6846C64.5656 36.8686 62.5974 38.4606 59.6058 38.4607C58.906 38.4606 58.1625 38.3819 57.3752 38.2245L57.7951 35.4428C58.4949 35.5128 58.941 35.5478 59.1334 35.5478C59.8507 35.5478 60.4105 35.434 60.8129 35.2066C61.2153 34.9967 61.5652 34.638 61.8626 34.1307Z" fill="#2F2F2F"/>
<path d="M82.5894 21.7175C83.9015 20.318 85.3011 19.6182 86.7882 19.6182C88.1702 19.6182 89.1412 20.0905 89.7011 21.0352C90.2784 21.98 90.567 23.1609 90.5671 24.578V33.5003H86.5782V24.5255C86.5782 23.4408 86.1583 22.8985 85.3186 22.8985C84.6538 22.8985 83.9102 23.2659 83.088 24.0006V33.5003H79.0992V24.5255C79.0992 23.4408 78.6793 22.8985 77.8395 22.8985C77.0698 22.8985 76.3262 23.2834 75.6089 24.0531V33.5003H71.6201V19.9331H74.0869L74.8742 22.0062C76.2563 20.4142 77.7346 19.6182 79.3091 19.6182C80.8836 19.6182 81.9771 20.318 82.5894 21.7175Z" fill="#2F2F2F"/>
<path d="M100.531 24.8141V24.473C100.531 23.8607 100.391 23.4146 100.111 23.1346C99.8487 22.8547 99.3851 22.7148 98.7203 22.7148C97.6881 22.7148 96.4198 23.0647 94.9152 23.7644L93.5506 21.1402C95.3001 20.1255 97.1371 19.6182 99.0615 19.6182C100.863 19.6182 102.219 20.0643 103.129 20.9565C104.056 21.8313 104.52 23.0822 104.52 24.7092V33.5003H102.053C101.598 32.5381 101.362 32.057 101.345 32.057C100.102 33.1942 98.7728 33.7628 97.3557 33.7628C96.1486 33.7628 95.1339 33.4129 94.3116 32.7131C93.5069 31.9958 93.1045 31.0248 93.1045 29.8002C93.1045 28.3656 93.5681 27.3159 94.4953 26.6511C95.58 25.8463 97.5919 25.234 100.531 24.8141ZM100.531 30.1413V27.2809C98.7991 27.6308 97.7494 28.0157 97.382 28.4356C97.1371 28.698 97.0146 29.0566 97.0146 29.5115C97.0146 30.4737 97.4782 30.9548 98.4054 30.9548C99.1752 30.9548 99.8837 30.6837 100.531 30.1413Z" fill="#2F2F2F"/>
<path d="M107.703 33.5003V19.9331H110.17L110.957 22.0062C112.339 20.4142 113.853 19.6182 115.497 19.6182C118.086 19.6182 119.381 21.2714 119.381 24.578V33.5003H115.392V24.5255C115.392 23.4408 114.937 22.8985 114.028 22.8985C113.188 22.8985 112.409 23.2834 111.692 24.0531V33.5003H107.703Z" fill="#2F2F2F"/>
<path d="M123.511 22.663H121.516V19.9338H123.563L124.245 16.0762H127.499V19.9338H130.386V22.663H127.499V29.1973C127.499 29.7921 127.596 30.2033 127.788 30.4307C127.98 30.6581 128.374 30.7719 128.969 30.7719C129.301 30.7719 129.765 30.6844 130.36 30.5094L130.832 33.2649C129.835 33.5973 128.82 33.7635 127.788 33.7635C124.936 33.7635 123.511 32.3114 123.511 29.4073V22.663Z" fill="#2F2F2F"/>
<path d="M136.588 27.8845C136.676 28.8117 136.929 29.494 137.349 29.9314C137.787 30.3688 138.434 30.5874 139.291 30.5874C139.764 30.5874 140.236 30.5175 140.708 30.3775C141.198 30.2375 141.557 30.1063 141.784 29.9839C142.029 29.8614 142.388 29.669 142.86 29.4065L144.435 31.9258C143.892 32.3282 143.429 32.6431 143.044 32.8705C142.659 33.0805 142.108 33.2817 141.391 33.4741C140.673 33.6665 139.877 33.7628 139.003 33.7628C137.008 33.7628 135.416 33.1504 134.227 31.9258C133.054 30.6837 132.468 28.9954 132.468 26.861C132.468 24.7267 133.028 22.9859 134.148 21.6388C135.267 20.2917 136.807 19.6182 138.766 19.6182C140.778 19.6182 142.283 20.2917 143.28 21.6388C144.277 22.9859 144.776 24.7179 144.776 26.8348V27.8845H136.588ZM136.588 25.5489H140.708C140.708 23.502 140.052 22.4786 138.74 22.4786C138.11 22.4786 137.62 22.7235 137.271 23.2134C136.921 23.6857 136.693 24.4643 136.588 25.5489Z" fill="#2F2F2F"/>
<path d="M153.302 33.7628C151.133 33.7628 149.497 33.1242 148.395 31.8471C147.31 30.5525 146.768 28.8642 146.768 26.7823C146.768 24.7004 147.337 22.9859 148.474 21.6388C149.611 20.2917 151.221 19.6182 153.302 19.6182C155.139 19.6182 156.635 20.1255 157.79 21.1402L155.927 23.7907C155.454 23.4408 155.043 23.2046 154.693 23.0821C154.343 22.9422 153.888 22.8722 153.329 22.8722C151.702 22.8722 150.888 24.1581 150.888 26.7298C150.888 29.2491 151.719 30.5087 153.381 30.5087C154.273 30.5087 155.174 30.1501 156.084 29.4328L158 31.8996C156.758 33.1417 155.192 33.7628 153.302 33.7628Z" fill="#2F2F2F"/>
<path d="M24.2195 14.4326C20.7947 18.7131 19.9316 20.5926 18.5672 24.0534C17.0191 20.9223 15.1716 18.7614 11.9731 17.3302C11.3672 17.1755 11.0693 17.0858 10.661 17.6582C10.2528 18.2306 10.5003 18.7456 10.989 19.353C12.2698 20.9448 13.709 22.4154 14.7067 24.2188C15.8763 26.333 17.3325 29.8174 17.823 30.7247C18.213 31.4463 19.1564 31.7635 19.5178 31.7635C21.4534 31.5344 21.4541 30.5504 21.8231 28.8445C22.4214 26.0473 23.1964 23.1553 26.8438 19.6811V14.4326H24.2195Z" fill="#2F2F2F"/>
<path d="M38.6529 1.3125V2.62461H39.965V1.3125H38.6529ZM38.6529 2.62461H36.0287V3.93673H38.6529V2.62461ZM36.0287 3.93673H34.7165V6.56096H36.0287V3.93673ZM36.0287 6.56096V7.87307H37.3408V6.56096H36.0287ZM37.3408 6.56096H38.6529V5.24884H37.3408V6.56096ZM36.0287 7.87307H34.7165V9.18519H33.4044V7.87307H30.7802V9.18519H29.4681V10.4973H30.7802V11.8094H29.4681V10.4973H28.156V11.8094H26.8439V13.1215H25.5317V18.37H28.156V17.0579H29.4681V15.7458H30.7802V14.4336H29.4681V13.1215H30.7802V14.4336H32.0923V13.1215H33.4044V11.8094H34.7165V10.4973H36.0287V7.87307ZM33.4044 7.87307H34.7165V6.56096H33.4044V7.87307ZM33.4044 6.56096V5.24884H32.0923V6.56096H33.4044Z" fill="#2F2F2F"/>
</svg>
