<svg width="20" height="20" viewBox="0 0 20 20" fill="none" xmlns="http://www.w3.org/2000/svg">
<mask id="mask0_619_798" style="mask-type:luminance" maskUnits="userSpaceOnUse" x="0" y="0" width="20" height="20">
<path d="M20 0H0V20H20V0Z" fill="white"/>
</mask>
<g mask="url(#mask0_619_798)">
<path d="M0 20V0H20V20H0ZM3.25345 16.6155H6.22075V7.68818H3.25345V16.6155ZM4.71749 6.46971H4.7371C5.77231 6.46971 6.41596 5.78396 6.41596 4.92681C6.39653 4.05086 5.77231 3.38453 4.75653 3.38453C3.74097 3.38453 3.07692 4.05086 3.07692 4.92681C3.07692 5.78396 3.72211 6.46971 4.71749 6.46971ZM13.955 16.6155H16.9231V11.4961C16.9231 8.75424 15.459 7.47864 13.5058 7.47864C11.9291 7.47864 11.2252 8.34633 10.8308 8.95323V7.68822H7.86211C7.90189 8.52571 7.86211 16.6155 7.86211 16.6155H10.8308V11.6298C10.8308 11.3622 10.8512 11.0971 10.9292 10.9063C11.144 10.3722 11.6315 9.82088 12.4519 9.82088C13.5262 9.82088 13.955 10.6397 13.955 11.8393V16.6155Z" fill="#121212"/>
</g>
</svg>
