<svg width="18" height="20" viewBox="0 0 18 20" fill="none" xmlns="http://www.w3.org/2000/svg">
<path d="M15 0.504883C15.6617 0.504883 16.2968 0.767462 16.7646 1.23535C17.2325 1.70325 17.4951 2.3383 17.4951 3C17.4951 3.4934 17.3483 3.97548 17.0742 4.38574C16.8001 4.79592 16.4108 5.11583 15.9551 5.30469C15.4993 5.49347 14.9975 5.54342 14.5137 5.44727C14.0297 5.351 13.5843 5.11357 13.2354 4.76465C12.8864 4.41572 12.649 3.9703 12.5527 3.48633C12.4566 3.00249 12.5065 2.50067 12.6953 2.04492C12.8842 1.58919 13.2041 1.19985 13.6143 0.925781C14.0245 0.651694 14.5066 0.504885 15 0.504883Z" fill="#5F5F5F" stroke="#5F5F5F" stroke-width="1.0101"/>
<path d="M3 7.50488C3.6617 7.50488 4.29675 7.76746 4.76465 8.23535C5.23254 8.70324 5.49512 9.3383 5.49512 10C5.49512 10.4934 5.34831 10.9755 5.07422 11.3857C4.80014 11.7959 4.41081 12.1158 3.95508 12.3047C3.49932 12.4935 2.99751 12.5434 2.51367 12.4473C2.0297 12.351 1.58428 12.1136 1.23535 11.7646C0.88643 11.4157 0.649002 10.9703 0.552734 10.4863C0.456587 10.0025 0.506534 9.50067 0.695312 9.04492C0.88417 8.58919 1.20408 8.19985 1.61426 7.92578C2.02452 7.65169 2.5066 7.50488 3 7.50488Z" fill="#5F5F5F" stroke="#5F5F5F" stroke-width="1.0101"/>
<path d="M15 14.5049C15.3276 14.5049 15.6524 14.5699 15.9551 14.6953C16.2576 14.8207 16.5331 15.0038 16.7646 15.2354C16.9962 15.4669 17.1793 15.7424 17.3047 16.0449C17.4301 16.3476 17.4951 16.6724 17.4951 17C17.4951 17.4934 17.3483 17.9755 17.0742 18.3857C16.8001 18.7959 16.4108 19.1158 15.9551 19.3047C15.4993 19.4935 14.9975 19.5434 14.5137 19.4473C14.0297 19.351 13.5843 19.1136 13.2354 18.7646C12.8864 18.4157 12.649 17.9703 12.5527 17.4863C12.4566 17.0025 12.5065 16.5007 12.6953 16.0449C12.8842 15.5892 13.2041 15.1999 13.6143 14.9258C14.0245 14.6517 14.5066 14.5049 15 14.5049Z" fill="#5F5F5F" stroke="#5F5F5F" stroke-width="1.0101"/>
<path d="M5.59082 11.5107L12.4214 15.4905L5.59082 11.5107Z" fill="#5F5F5F"/>
<path d="M5.59082 11.5107L12.4214 15.4905" stroke="#5F5F5F" stroke-width="2.0202" stroke-linecap="round" stroke-linejoin="round"/>
<path d="M12.4113 4.50952L5.59082 8.48933L12.4113 4.50952Z" fill="#5F5F5F"/>
<path d="M12.4113 4.50952L5.59082 8.48933" stroke="#5F5F5F" stroke-width="2.0202" stroke-linecap="round" stroke-linejoin="round"/>
</svg>
