<svg width="56" height="63" viewBox="0 0 56 63" fill="none" xmlns="http://www.w3.org/2000/svg">
<path d="M39.6762 21.4124V41.5748C39.6762 43.0957 40.9097 44.3286 42.4313 44.3286H53.2572C54.7738 44.336 56 45.5664 56 47.0824V60.2462C56 61.7621 54.7739 62.9926 53.2572 63H40.1024C38.5808 63 37.3448 61.7671 37.3448 60.2462V49.4134C37.3399 47.9073 36.1236 46.6867 34.6168 46.6719H12.0889C11.3552 46.6744 10.6511 46.3864 10.1315 45.8697C9.61203 45.3529 9.31901 44.649 9.31901 43.9157V21.4128C9.33133 20.6794 9.04573 19.9706 8.53115 19.4489C8.01411 18.9247 7.31241 18.6319 6.57623 18.6319H2.75508C1.27042 18.6319 0.0492259 17.4555 0 15.9691V9.75527C0 8.23439 1.23348 6.99903 2.75508 6.99903H8.9201C10.4417 6.99903 11.6752 8.23439 11.6752 9.75527V13.5746C11.6727 14.3056 11.9608 15.0093 12.4803 15.5262C12.9973 16.043 13.7014 16.3333 14.4327 16.3284H34.6166C36.1382 16.3284 37.3717 15.0955 37.3717 13.5746V2.75378C37.3717 1.2428 38.5904 0.014742 40.1021 0H53.257C54.7736 0.00738295 55.9997 1.23782 55.9997 2.75378V15.9693C55.948 17.4508 54.7367 18.6246 53.257 18.632H42.431C41.6949 18.632 40.9907 18.9249 40.4737 19.4466C39.9566 19.9708 39.6688 20.6765 39.6762 21.4124Z" fill="url(#paint0_linear_174_89)"/>
<defs>
<linearGradient id="paint0_linear_174_89" x1="14" y1="7.33765" x2="86.024" y2="40.111" gradientUnits="userSpaceOnUse">
<stop stop-color="#2033D5"/>
<stop offset="1" stop-color="#4E6CFE"/>
</linearGradient>
</defs>
</svg>
