<svg width="59" height="56" viewBox="0 0 59 56" fill="none" xmlns="http://www.w3.org/2000/svg">
<path d="M48.1855 25.5664C51.9818 25.5666 55.0645 28.65 55.0645 32.4463V48.1846C55.0645 51.9808 51.9818 55.0662 48.1855 55.0664H38.3477C36.5261 55.0662 35.5767 53.986 34.624 52.6982C34.0871 51.9725 33.4956 51.131 32.4541 51.1309H26.5518C25.578 51.1309 25.0536 51.8088 24.3975 52.7061C23.059 54.5365 22.0157 55.0663 20.6523 55.0664H10.8145C7.01822 55.0662 3.93555 51.9808 3.93555 48.1846V32.4463C3.93555 28.65 7.01822 25.5666 10.8145 25.5664H48.1855ZM50.1367 41.2803C49.5936 41.2908 49.1621 41.7401 49.1729 42.2832V48.1846C49.1729 48.8836 48.8905 49.1718 48.1914 49.1719C46.7629 49.0436 46.7629 51.2591 48.1914 51.1309C49.8073 51.1306 51.1387 49.8005 51.1387 48.1846V42.2832C51.1496 41.7251 50.6948 41.2692 50.1367 41.2803ZM1.9668 35.4014V45.2295H0.987305C0.444349 45.2316 0.00212834 44.7929 1.92342e-07 44.25V36.3809C-0.000313355 35.8755 0.38275 35.4519 0.936524 35.4014H1.9668ZM58.0205 35.4014C58.5605 35.4035 58.9978 35.8409 59 36.3809V44.25C58.9977 44.7899 58.5605 45.2275 58.0205 45.2295H57.0313V35.4014H58.0205ZM50.1367 36.3662C49.5968 36.3768 49.1671 36.8204 49.1729 37.3604V38.3477C49.2016 39.6297 51.1097 39.6297 51.1387 38.3477V37.3604C51.145 36.8054 50.6916 36.3551 50.1367 36.3662ZM24.5342 29.5C23.2026 29.5949 23.3014 31.5044 24.585 31.4668H34.4229C35.7047 31.438 35.7047 29.5301 34.4229 29.5H24.5342ZM36.3887 21.6309C36.7604 21.6316 37.1003 21.8422 37.2666 22.1748L37.9795 23.5996H21.0283L21.7412 22.1748C21.9075 21.8426 22.2466 21.6317 22.6182 21.6309H36.3887ZM29.5 11.7959C31.1176 11.7959 32.4541 13.1324 32.4541 14.75C32.4539 16.3674 31.1175 17.6963 29.5 17.6963C27.8825 17.6963 26.5519 16.3674 26.5518 14.75C26.5518 13.1324 27.8824 11.7959 29.5 11.7959ZM29.5 7.86035C31.3247 7.86035 33.0796 8.58884 34.3701 9.87891C35.2996 10.8084 33.9061 12.2027 32.9766 11.2734C32.0543 10.3513 30.8042 9.82715 29.5 9.82715C28.1955 9.82715 26.9458 10.3508 26.0234 11.2734C25.094 12.2354 23.6695 10.803 24.6367 9.87891C25.9274 8.58797 27.6746 7.86035 29.5 7.86035ZM29.5 3.93457C32.3682 3.93457 35.1231 5.07056 37.1514 7.09863C38.0807 8.02818 36.6864 9.42169 35.7568 8.49219C34.0969 6.83262 31.8473 5.90137 29.5 5.90137C27.1525 5.90133 24.9031 6.83233 23.2432 8.49219C22.3137 9.45438 20.8892 8.02279 21.8564 7.09863C23.8847 5.07019 26.6315 3.93457 29.5 3.93457ZM29.5 0C33.4114 0 37.1648 1.5536 39.9307 4.31934C41.0059 5.24078 39.4654 6.78126 38.5439 5.70605C36.1463 3.30859 32.8906 1.9668 29.5 1.9668C26.1092 1.9668 22.8596 3.31415 20.4619 5.71191C19.5346 6.7221 18.0591 5.24669 19.0693 4.31934C21.8353 1.5533 25.5883 3.03115e-07 29.5 0Z" fill="url(#paint0_linear_1361_347)"/>
<defs>
<linearGradient id="paint0_linear_1361_347" x1="14.75" y1="6.41362" x2="85.1621" y2="45.0333" gradientUnits="userSpaceOnUse">
<stop stop-color="#2033D5"/>
<stop offset="1" stop-color="#4E6CFE"/>
</linearGradient>
</defs>
</svg>
