<svg width="68" height="68" viewBox="0 0 68 68" fill="none" xmlns="http://www.w3.org/2000/svg">
<path d="M33.999 54.0312C34.6054 54.0312 35.0986 54.5245 35.0986 55.1309V59.9922C36.8185 60.4711 38.082 62.0527 38.082 63.9199C38.0819 66.1724 36.2487 68.0029 33.999 68.0029C31.7494 68.0028 29.9191 66.1695 29.9189 63.9199C29.9189 62.0499 31.1825 60.474 32.8994 59.9922V55.1309C32.8994 54.5246 33.3927 54.0313 33.999 54.0312ZM48.1631 48.1689C48.5937 47.7411 49.2851 47.7411 49.7158 48.1689L53.1553 51.6025C54.708 50.7271 56.7196 50.9512 58.0371 52.2715C59.6295 53.8639 59.6267 56.4535 58.0371 58.0459C57.2438 58.8391 56.1987 59.2362 55.1533 59.2363C54.1078 59.2363 53.0619 58.8393 52.2686 58.0459C50.9482 56.7199 50.7241 54.708 51.5996 53.1553L48.1631 49.7217C47.7353 49.291 47.7353 48.5996 48.1631 48.1689ZM18.2822 48.168C18.7129 47.7373 19.4071 47.7373 19.835 48.168C20.2652 48.5986 20.2655 49.2902 19.835 49.7207L16.3975 53.1572C17.273 54.7128 17.0462 56.7216 15.7314 58.042C14.9325 58.8352 13.8844 59.2324 12.8418 59.2324C11.7991 59.2324 10.7504 58.8354 9.95703 58.042C9.95435 58.0419 9.9541 58.0391 9.9541 58.0391C8.36765 56.4496 8.36764 53.8628 9.9541 52.2705C11.2801 50.9502 13.2921 50.729 14.8447 51.6016L18.2822 48.168ZM21.1318 38.6875C23.7554 41.2262 28.4873 42.8898 34.001 42.8955C39.5142 42.8955 44.2492 41.229 46.873 38.6904V42.5322C46.873 46.1562 40.9767 49.2227 34.001 49.2227C27.0254 49.2226 21.1318 46.1589 21.1318 42.5322V38.6875ZM25.4082 43.2012C24.8614 42.9405 24.207 43.173 23.9463 43.7227C23.6856 44.2723 23.9209 44.9239 24.4678 45.1846C25.9636 45.8928 27.6493 46.4224 29.4766 46.7539C29.5445 46.7652 29.6125 46.7715 29.6748 46.7715C30.1962 46.7715 30.6585 46.4 30.7549 45.8701C30.8624 45.2725 30.4657 44.7035 29.8682 44.5928C28.2305 44.2952 26.7285 43.8273 25.4082 43.2012ZM46.873 34.001C46.873 37.6278 40.9767 40.6934 34.001 40.6934C27.0252 40.6934 21.1318 37.6278 21.1318 34.001L21.1289 30.1641C21.2904 30.3227 21.4633 30.4759 21.6445 30.6289C21.6785 30.6572 21.7152 30.6914 21.752 30.7197C21.854 30.8047 21.9567 30.8845 22.0615 30.9639C22.1123 30.9977 22.1573 31.0346 22.208 31.0713C22.2561 31.1081 22.3046 31.1448 22.3555 31.1787C22.466 31.258 22.5771 31.3375 22.6904 31.4111C22.7839 31.4734 22.8803 31.5363 22.9766 31.5986C23.0302 31.6325 23.0812 31.6663 23.1377 31.7002C23.2453 31.7682 23.3533 31.8303 23.4609 31.8926C23.4662 31.8927 23.469 31.8979 23.4717 31.8984C23.5255 31.9296 23.583 31.9639 23.6396 31.9922C23.7557 32.0573 23.8722 32.1164 23.9883 32.1787C24.0476 32.207 24.1039 32.2413 24.166 32.2695C24.2963 32.3347 24.4324 32.4006 24.5684 32.4629C24.6193 32.4855 24.6649 32.5076 24.7158 32.5303C24.7782 32.5614 24.841 32.5897 24.9033 32.6152C24.9655 32.6435 25.0306 32.6718 25.0928 32.6973C25.155 32.7227 25.2229 32.7519 25.2852 32.7773C25.4325 32.8397 25.5833 32.8984 25.7363 32.9551C25.7816 32.9721 25.8297 32.9899 25.875 33.0068C26.0761 33.0805 26.2804 33.1537 26.4844 33.2217C26.6117 33.2641 26.739 33.3071 26.8691 33.3467C26.8974 33.3523 26.9259 33.3607 26.9541 33.3691C27.0504 33.3975 27.147 33.4258 27.2461 33.4541C27.5265 33.5363 27.8156 33.6156 28.1045 33.6836C28.1725 33.7006 28.2466 33.7174 28.3203 33.7344C28.4278 33.7598 28.5409 33.7859 28.6484 33.8086C28.7958 33.8426 28.9495 33.876 29.1025 33.9043C29.2328 33.927 29.369 33.9559 29.5049 33.9785C29.5699 33.9898 29.6352 34.0014 29.7002 34.0127C29.7681 34.024 29.8364 34.0346 29.9043 34.0459C29.9864 34.0629 30.0713 34.0746 30.1562 34.0859C30.2752 34.1029 30.3888 34.1197 30.5078 34.1367C30.6663 34.1565 30.8249 34.1793 30.9834 34.1963C31.1533 34.2161 31.3234 34.233 31.499 34.25C31.6549 34.267 31.814 34.2787 31.9727 34.29C32.0916 34.2957 32.2053 34.3068 32.3242 34.3125C32.3609 34.3125 32.398 34.3155 32.4375 34.3184C32.5563 34.324 32.6722 34.3293 32.791 34.335H32.8398C32.9106 34.3406 32.9841 34.3439 33.0576 34.3467C33.1993 34.3523 33.3409 34.3556 33.4854 34.3584C33.6553 34.3641 33.8282 34.3633 34.001 34.3633C34.1766 34.3633 34.3467 34.3641 34.5166 34.3584C34.6638 34.3556 34.8057 34.3523 34.9473 34.3467C35.0153 34.3438 35.0892 34.3407 35.1572 34.3379C35.1797 34.3351 35.205 34.3348 35.2275 34.332C35.338 34.3264 35.4521 34.3211 35.5654 34.3154C35.605 34.3154 35.6421 34.3124 35.6816 34.3096C35.8004 34.3039 35.9163 34.2984 36.0322 34.2871C36.1881 34.2758 36.35 34.2641 36.5059 34.2471C36.6787 34.2329 36.8515 34.216 37.0215 34.1934C37.1631 34.1764 37.3047 34.1624 37.4463 34.1426C37.5766 34.1227 37.7074 34.1058 37.832 34.0859C37.9283 34.069 38.0218 34.058 38.1152 34.041C38.1776 34.0353 38.2374 34.024 38.2969 34.0127C38.3675 34.0014 38.4381 33.9898 38.5059 33.9785C38.6417 33.9559 38.7752 33.9298 38.9082 33.9043C39.0584 33.8703 39.2121 33.8426 39.3623 33.8086C39.4642 33.7888 39.5661 33.7629 39.668 33.7402C39.7501 33.7232 39.8328 33.7063 39.9121 33.6836C40.1443 33.627 40.3711 33.5643 40.5977 33.502C40.6881 33.4765 40.7729 33.454 40.8633 33.4258C40.9028 33.4145 40.9399 33.4029 40.9766 33.3916C41.0389 33.3718 41.1076 33.3547 41.1699 33.332C41.2747 33.2981 41.3795 33.2644 41.4814 33.2305C41.7336 33.1455 41.98 33.0574 42.2236 32.9639C42.3114 32.9327 42.3965 32.8992 42.4814 32.8652C42.5608 32.8312 42.6404 32.8026 42.7197 32.7686C42.952 32.6751 43.1785 32.5727 43.3994 32.4707C43.4673 32.4368 43.5355 32.4089 43.6006 32.375C43.677 32.341 43.7538 32.3013 43.833 32.2617C43.8925 32.2334 43.9522 32.1992 44.0117 32.1709C44.1279 32.1086 44.247 32.0457 44.3604 31.9834C44.4169 31.9523 44.4708 31.9208 44.5273 31.8896C44.5301 31.8895 44.5335 31.8848 44.5391 31.8848C44.6466 31.8225 44.7537 31.7565 44.8613 31.6914C44.9152 31.6574 44.9696 31.6238 45.0234 31.5898C45.1197 31.5276 45.2133 31.4646 45.3096 31.4023C45.4228 31.3259 45.536 31.2492 45.6436 31.1699L45.9385 30.9551C46.0433 30.8758 46.1451 30.7959 46.2471 30.7109C46.2809 30.6827 46.3206 30.6493 46.3545 30.6211C46.3998 30.5871 46.4459 30.5475 46.4912 30.5078C46.5337 30.471 46.5757 30.4332 46.6182 30.3936C46.6188 30.3929 46.6216 30.3911 46.624 30.3887C46.6664 30.352 46.7057 30.3122 46.748 30.2783C46.7905 30.2387 46.8334 30.1988 46.873 30.1592V34.001ZM25.4072 34.6758C24.8605 34.4152 24.2061 34.6469 23.9453 35.1963C23.6847 35.7431 23.9199 36.3985 24.4668 36.6592C25.9541 37.3617 27.6399 37.8883 29.4756 38.2227C29.5436 38.234 29.6125 38.2402 29.6748 38.2402C30.196 38.24 30.6575 37.8685 30.7539 37.3389C30.8615 36.7439 30.465 36.1711 29.8672 36.0605C28.221 35.763 26.7191 35.2963 25.4072 34.6758ZM63.917 29.9189C66.1693 29.9191 68.0026 31.7516 68 34.0039C68 36.2536 66.1666 38.0838 63.917 38.084C62.0469 38.084 60.4709 36.8206 59.9893 35.1035H55.1328C54.5266 35.1034 54.0342 34.6102 54.0342 34.0039C54.0344 33.3978 54.5267 32.9054 55.1328 32.9053H59.9893C60.4681 31.1826 62.047 29.9189 63.917 29.9189ZM4.08008 29.9189C5.95019 29.9189 7.52799 31.1853 8.00684 32.9023H12.8691C13.4755 32.9023 13.9688 33.3956 13.9688 34.002C13.9685 34.6081 13.4753 35.1006 12.8691 35.1006H8.00684C7.52796 36.8176 5.95012 38.082 4.08008 38.082C1.83049 38.082 0.000257354 36.2515 0 34.002C0 31.7494 1.83034 29.919 4.08008 29.9189ZM34.001 18.7764C40.9768 18.7764 46.8702 21.8429 46.873 25.4697C46.8725 29.0963 40.9764 32.1621 34.001 32.1621C27.0257 32.162 21.1323 29.0962 21.1318 25.4697C21.1318 21.843 27.0252 18.7765 34.001 18.7764ZM9.95605 9.95898C11.5483 8.36671 14.1381 8.36692 15.7305 9.95898C17.0508 11.2822 17.272 13.2911 16.3994 14.8438L19.8311 18.2842C20.2613 18.7148 20.2614 19.4082 19.8311 19.8359C19.6157 20.0513 19.3352 20.1592 19.0547 20.1592C18.7742 20.1592 18.4937 20.0513 18.2783 19.8359L14.8438 16.3994C14.2233 16.7478 13.5321 16.9238 12.8408 16.9238C11.7982 16.9238 10.7494 16.5209 9.95605 15.7275C8.36979 14.138 8.36961 11.5512 9.95605 9.95898ZM55.1475 8.76074C56.2409 8.76364 57.2637 9.18557 58.0371 9.95605C58.8078 10.7267 59.2334 11.7528 59.2334 12.8408V12.8467C59.2333 13.9374 58.8077 14.9579 58.0371 15.7285C57.2666 16.4989 56.241 16.9237 55.1533 16.9238H55.1504C54.4392 16.9238 53.753 16.7393 53.1523 16.3965L49.7158 19.834C49.5006 20.0492 49.2199 20.1562 48.9395 20.1562C48.662 20.1562 48.3784 20.0492 48.1631 19.8369C47.7353 19.4063 47.7353 18.712 48.1631 18.2842L51.5996 14.8438C51.2541 14.2432 51.0723 13.5605 51.0723 12.8467C51.0723 11.7558 51.4979 10.7267 52.2686 9.95605C53.0336 9.18552 54.0595 8.76074 55.1475 8.76074ZM34.0039 0C36.2565 0 38.0869 1.83324 38.0869 4.08301C38.0869 5.95302 36.8175 7.52802 35.1006 8.00977V12.8691C35.1006 13.4755 34.6073 13.9688 34.001 13.9688C33.3947 13.9687 32.9014 13.4755 32.9014 12.8691V8.00977C31.1845 7.53074 29.921 5.95004 29.9238 4.08301C29.9238 1.83042 31.7542 1.00054e-05 34.0039 0Z" fill="url(#paint0_linear_1361_40)"/>
<defs>
<linearGradient id="paint0_linear_1361_40" x1="17" y1="7.92034" x2="100.648" y2="50.7389" gradientUnits="userSpaceOnUse">
<stop stop-color="#2033D5"/>
<stop offset="1" stop-color="#4E6CFE"/>
</linearGradient>
</defs>
</svg>
