<svg width="55" height="56" viewBox="0 0 55 56" fill="none" xmlns="http://www.w3.org/2000/svg">
<path d="M15.2031 41.2598C15.7831 43.8297 16.5231 46.1702 17.4131 48.2002C18.7031 51.19 20.3031 53.5499 22.123 55.0898C15.403 53.8398 9.54273 50.1194 5.55273 44.8994C7.88272 43.4195 11.0528 42.2094 14.7627 41.3594C14.9127 41.3194 15.0531 41.2898 15.2031 41.2598ZM39.4424 41.3594C43.1623 42.2094 46.3222 43.4197 48.6621 44.8896C44.6621 50.1096 38.802 53.8301 32.082 55.0801C33.912 53.5601 35.512 51.18 36.792 48.2002C37.682 46.1702 38.422 43.8298 39.002 41.2598C39.152 41.2898 39.2924 41.3194 39.4424 41.3594ZM25.5615 53.6895C23.5615 52.8595 21.7012 50.4495 20.2012 46.9795C19.4112 45.1495 18.7312 43.0292 18.2012 40.6992C20.5212 40.3392 22.9915 40.1196 25.5615 40.0596V53.6895ZM28.6426 40.0498C31.2226 40.1198 33.6929 40.3295 36.0029 40.6895C35.473 43.0293 34.7929 45.1396 34.0029 46.9795C32.5029 50.4595 30.6326 52.8597 28.6426 53.6797V40.0498ZM13.8418 28.4102C13.8418 31.87 14.1221 35.1899 14.6221 38.2598C14.4421 38.2898 14.262 38.3399 14.082 38.3799C9.97207 39.3099 6.46226 40.6904 3.82227 42.3604C1.61227 38.6804 0.251953 34.4399 0.00195312 29.9199C-0.0179778 29.5102 0.111862 29.1602 0.391602 28.8604C0.681506 28.5604 1.03181 28.4103 1.43164 28.4102H13.8418ZM52.7822 28.3896C53.1921 28.3898 53.5424 28.5499 53.8223 28.8398C54.102 29.1297 54.2418 29.4897 54.2119 29.8994C53.9619 34.4394 52.6016 38.6796 50.3916 42.3496H50.3818C47.7519 40.6796 44.2318 39.3101 40.1318 38.3701C39.9518 38.3301 39.7718 38.29 39.5918 38.25C40.0918 35.18 40.3623 31.8496 40.3623 28.3896H52.7822ZM25.5723 36.9902C22.8023 37.0502 20.132 37.3004 17.6221 37.6904C17.1621 34.8104 16.9023 31.6804 16.9023 28.4004H25.5723V36.9902ZM37.3027 28.3896C37.3027 31.6696 37.053 34.7995 36.583 37.6895C34.073 37.2995 31.4028 37.0493 28.6328 36.9893V28.3896H37.3027ZM50.5215 11.2305C51.7615 12.4704 52.542 14.1804 52.542 16.0703V22.0508C52.5418 22.5705 52.1118 22.9998 51.582 23H48.6719V19.4609C48.6719 18.6209 47.9816 17.9307 47.1416 17.9307C46.3017 17.9307 45.6113 18.611 45.6113 19.4609V23H42.5215V19.4609C42.5215 18.6211 41.842 17.9309 40.9922 17.9307C40.1422 17.9307 39.4521 18.6109 39.4521 19.4609V23H36.542C36.0221 23 35.592 22.5806 35.5918 22.0508C35.5916 22.5706 35.1615 23 34.6416 23H31.7314V19.4609C31.7314 18.6209 31.0314 17.9307 30.1914 17.9307C29.3516 17.9308 28.6621 18.611 28.6621 19.4609V23H25.5713V19.4609C25.5713 18.621 24.8819 17.9308 24.042 17.9307C23.202 17.9307 22.5117 18.6109 22.5117 19.4609V23H19.6016C19.0717 22.9999 18.6418 22.5806 18.6416 22.0508C18.6414 22.5706 18.2113 23 17.6914 23H14.7812V19.4609C14.7812 18.6211 14.082 17.9309 13.2422 17.9307C12.4022 17.9307 11.7119 18.6109 11.7119 19.4609V23H8.63184V19.4609C8.63184 18.621 7.93177 17.9307 7.0918 17.9307C6.2518 17.9307 5.56152 18.6109 5.56152 19.4609V23H2.65137C2.12163 22.9998 1.69215 22.5805 1.75195 22.0508V16.0703C1.752 14.1804 2.53159 12.4704 3.77148 11.2305C5.34147 13.0105 7.6617 14.1406 10.2217 14.1406C12.7817 14.1406 15.0919 13.0205 16.6719 11.2305C17.9118 12.4704 18.6816 14.1804 18.6816 16.0703C18.6817 14.1805 19.4515 12.4704 20.6914 11.2305C22.2713 13.0104 24.5915 14.1405 27.1514 14.1406C29.7113 14.1406 32.0216 13.0204 33.6016 11.2305C34.8415 12.4704 35.6113 14.1804 35.6113 16.0703C35.6114 14.1804 36.3821 12.4704 37.6221 11.2305C39.202 13.0103 41.5015 14.1405 44.0713 14.1406C46.6412 14.1406 48.9515 13.0204 50.5215 11.2305ZM10.1611 0C13.2311 1.54084e-06 15.7012 2.48004 15.7012 5.54004C15.7012 8.60002 13.2211 11.0801 10.1611 11.0801C7.10115 11.0801 4.62111 8.60002 4.62109 5.54004C4.62109 2.48004 7.09113 0 10.1611 0ZM27.1025 0C30.1622 1.03081e-06 32.6426 2.48038 32.6426 5.54004C32.6426 8.59968 30.1622 11.0801 27.1025 11.0801C24.0429 11.0801 21.5625 8.59968 21.5625 5.54004C21.5625 2.48038 24.0429 0 27.1025 0ZM44.042 0C47.102 0 49.582 2.48004 49.582 5.54004C49.582 8.60002 47.102 11.0801 44.042 11.0801C40.982 11.0801 38.502 8.60002 38.502 5.54004C38.502 2.48004 40.982 0 44.042 0Z" fill="url(#paint0_linear_1361_531)"/>
<defs>
<linearGradient id="paint0_linear_1361_531" x1="13.554" y1="6.41635" x2="80.6834" y2="40.2356" gradientUnits="userSpaceOnUse">
<stop stop-color="#2033D5"/>
<stop offset="1" stop-color="#4E6CFE"/>
</linearGradient>
</defs>
</svg>
