<svg width="63" height="67" viewBox="0 0 63 67" fill="none" xmlns="http://www.w3.org/2000/svg">
<path d="M33.2334 0C33.8594 0 34.4623 0.248449 34.9053 0.691406C35.348 1.13423 35.5956 1.73652 35.5957 2.3623C35.5987 3.36626 36.2367 4.25518 37.1846 4.58301H37.1875C37.7071 4.77194 38.2091 4.97577 38.7139 5.21191C39.6115 5.6578 40.6955 5.48103 41.4072 4.77246C41.8502 4.3295 42.4501 4.08108 43.0762 4.07812C43.7021 4.0782 44.3042 4.32959 44.7441 4.77246L47.2012 7.22949C47.647 7.66941 47.8984 8.27154 47.8984 8.89746C47.8984 9.52643 47.6471 10.1264 47.2012 10.5693C46.7672 11.0093 46.5225 11.6026 46.5254 12.2227C46.5254 12.58 46.6082 12.9379 46.7617 13.2627C46.9979 13.7645 47.2017 14.2695 47.3906 14.7891C47.7185 15.7369 48.6103 16.375 49.6113 16.3809C50.24 16.378 50.8394 16.6286 51.2822 17.0713C51.7252 17.5142 51.9766 18.1142 51.9736 18.7432V22.207C51.9766 22.833 51.7251 23.435 51.2822 23.8779C50.8394 24.3208 50.2402 24.5692 49.6113 24.5693C48.6103 24.5723 47.7184 25.2103 47.3906 26.1611C47.2017 26.6807 46.9979 27.1826 46.7617 27.6875C46.3188 28.5881 46.4955 29.6692 47.2012 30.3809C47.6441 30.8238 47.8926 31.4238 47.8955 32.0498C47.8954 32.6786 47.647 33.2779 47.2012 33.7207L44.7441 36.1777C44.3042 36.6235 43.702 36.8749 43.0762 36.875C42.4501 36.875 41.8472 36.6236 41.4072 36.1777C40.9673 35.7408 40.371 35.4981 39.7539 35.498C39.3936 35.501 39.0387 35.5808 38.7139 35.7344L38.7109 35.7373C38.2091 35.9735 37.7042 36.1772 37.1846 36.3662C36.2367 36.691 35.5988 37.5831 35.5957 38.5869C35.5957 39.2129 35.3481 39.8158 34.9053 40.2588C34.4623 40.7017 33.8594 40.9502 33.2334 40.9502H33.0742V47.248H56.6982C57.1175 47.248 57.5162 47.4138 57.8115 47.709C58.1097 48.0043 58.2753 48.406 58.2754 48.8223V55.124H61.4229C61.8421 55.124 62.2408 55.2898 62.5361 55.585C62.8344 55.8803 63 56.2819 63 56.6982V64.5742C62.9999 64.9906 62.8343 65.3923 62.5361 65.6875C62.2408 65.9826 61.8421 66.1484 61.4229 66.1484H51.9736C51.5573 66.1484 51.1556 65.9828 50.8604 65.6875C50.5651 65.3922 50.3995 64.9905 50.3994 64.5742V56.6982C50.3994 56.2818 50.565 55.8803 50.8604 55.585C51.1557 55.2897 51.5573 55.124 51.9736 55.124H55.124V50.3994H33.0742V55.124H37.0137C37.43 55.1241 37.8317 55.2897 38.127 55.585C38.4222 55.8803 38.5879 56.2819 38.5879 56.6982V64.5742C38.5878 64.9905 38.4222 65.3922 38.127 65.6875C37.8317 65.9827 37.43 66.1484 37.0137 66.1484H25.9863C25.5701 66.1483 25.1683 65.9828 24.873 65.6875C24.5779 65.3922 24.4131 64.9905 24.4131 64.5742V56.6982C24.4131 56.2819 24.5778 55.8802 24.873 55.585C25.1683 55.2898 25.5701 55.1241 25.9863 55.124H29.9258V50.3994H7.87598V55.124H11.0264C11.4427 55.124 11.8444 55.2897 12.1396 55.585C12.435 55.8803 12.6006 56.2819 12.6006 56.6982V64.5742C12.6005 64.9906 12.435 65.3922 12.1396 65.6875C11.8443 65.9827 11.4426 66.1484 11.0264 66.1484H1.57715C1.15788 66.1484 0.759154 65.9827 0.463867 65.6875C0.165659 65.3922 5.18434e-05 64.9905 0 64.5742V56.6982C5.12758e-06 56.2818 0.165616 55.8803 0.463867 55.585C0.759216 55.2897 1.15787 55.124 1.57715 55.124L4.72461 55.1211V48.8223C4.72467 48.4059 4.89028 48.0042 5.18848 47.709C5.48381 47.4137 5.88249 47.2481 6.30176 47.248H29.9258V40.9492H29.7666C29.1407 40.9492 28.5386 40.7016 28.0957 40.2588C27.6527 39.8159 27.4043 39.213 27.4043 38.5869C27.4012 37.5831 26.7632 36.691 25.8154 36.3662L25.8125 36.3633C25.2929 36.1743 24.791 35.9706 24.2861 35.7344C23.3884 35.2914 22.3045 35.469 21.5928 36.1777C21.1498 36.6177 20.5499 36.8682 19.9238 36.8682C19.298 36.871 18.6958 36.6205 18.2559 36.1777L15.7988 33.7207C15.3531 33.2779 15.1017 32.6786 15.1016 32.0498C15.1016 31.4238 15.3529 30.8209 15.7988 30.3809C16.2328 29.941 16.4784 29.3475 16.4756 28.7275C16.4756 28.3673 16.3928 28.0123 16.2393 27.6875C16.0031 27.1856 15.7993 26.6808 15.6104 26.1611C15.2826 25.2104 14.3905 24.5725 13.3896 24.5693C12.7607 24.5693 12.1607 24.3209 11.7178 23.8779C11.275 23.435 11.0234 22.8329 11.0264 22.207V18.7432C11.0234 18.1142 11.2748 17.5142 11.7178 17.0713C12.1607 16.6284 12.7607 16.3779 13.3896 16.3809C14.3905 16.3748 15.2826 15.7368 15.6104 14.7891C15.7993 14.2694 16.0031 13.7676 16.2393 13.2627C16.6822 12.3621 16.5045 11.2781 15.7988 10.5693C15.3559 10.1264 15.1074 9.5235 15.1045 8.89746C15.1046 8.27159 15.3531 7.67238 15.7988 7.22949L18.2559 4.77246C18.6957 4.32665 19.298 4.07531 19.9238 4.0752C20.5499 4.0752 21.1528 4.32656 21.5928 4.77246C22.0327 5.20937 22.6291 5.45112 23.2461 5.44824C23.6064 5.44824 23.9613 5.36842 24.2861 5.21191H24.2891C24.7909 4.97574 25.2958 4.77196 25.8154 4.58301C26.7634 4.25521 27.4013 3.36631 27.4043 2.3623C27.4044 1.7364 27.6528 1.13428 28.0957 0.691406C28.5386 0.248552 29.1406 1.60139e-05 29.7666 0H33.2334ZM35.418 11.0176C31.5908 9.43202 27.1881 10.3091 24.2617 13.2354C21.3323 16.1617 20.4582 20.5684 22.041 24.3926C23.6272 28.2165 27.36 30.7119 31.5 30.7119C34.2137 30.7118 36.8179 29.6333 38.7373 27.7139C40.6567 25.7945 41.7373 23.1903 41.7373 20.4736C41.7373 16.3333 39.2421 12.6004 35.418 11.0176Z" fill="url(#paint0_linear_1361_104)"/>
<defs>
<linearGradient id="paint0_linear_1361_104" x1="15.75" y1="7.70435" x2="94.7706" y2="46.2307" gradientUnits="userSpaceOnUse">
<stop stop-color="#2033D5"/>
<stop offset="1" stop-color="#4E6CFE"/>
</linearGradient>
</defs>
</svg>
