<svg width="68" height="60" viewBox="0 0 68 60" fill="none" xmlns="http://www.w3.org/2000/svg">
<path d="M42.1875 27.0273C43.01 26.8563 43.862 26.7666 44.7344 26.7666C51.625 26.7666 57.2344 32.376 57.2344 39.2666C57.2344 40.5697 57.0321 41.8266 56.6602 43.0088C56.7878 43.1566 56.8875 43.3289 56.9521 43.5166C57.7333 45.7196 59.6242 46.8761 61.8271 48.2197C62.9989 48.954 64.2334 49.7043 65.3115 50.6572C66.3739 51.6102 66.9833 52.923 67.0303 54.376C67.0771 55.876 66.4834 57.3291 65.4365 58.3916L65.4209 58.4072C64.4053 59.4228 62.999 60.001 61.5615 60.001H61.4053C59.9523 59.954 58.6396 59.3447 57.6865 58.2822C56.7336 57.2042 55.9833 55.9696 55.249 54.7979C53.9938 52.74 52.9019 50.9557 50.9678 50.0928C49.1312 51.1547 47.0033 51.7666 44.7344 51.7666C40.7055 51.7666 37.1168 49.8472 34.8291 46.877H0V40.627H32.3086C32.26 40.18 32.2344 39.7262 32.2344 39.2666C32.2344 38.667 32.2783 38.0773 32.3604 37.5H0V0H42.1875V27.0273ZM44.7344 29.8916C39.5664 29.8916 35.3594 34.0986 35.3594 39.2666C35.3594 44.4346 39.5664 48.6416 44.7344 48.6416C49.9024 48.6416 54.1094 44.4346 54.1094 39.2666C54.1094 34.0986 49.9024 29.8916 44.7344 29.8916ZM9.37598 18.75C8.50098 18.75 7.81348 19.4375 7.81348 20.3125V29.6094C7.81368 30.4686 8.5011 31.1719 9.37598 31.1719C10.235 31.1716 10.9383 30.4684 10.9385 29.6094V20.3125C10.9385 19.4377 10.2351 18.7503 9.37598 18.75ZM17.1885 15.624C16.3136 15.624 15.6262 16.3118 15.626 17.1865V29.6094C15.6262 30.4686 16.3136 31.1719 17.1885 31.1719C18.0475 31.1716 18.7508 30.4684 18.751 29.6094V17.1865C18.7507 16.3119 18.0475 15.6243 17.1885 15.624ZM25.001 21.875C24.126 21.875 23.4385 22.5625 23.4385 23.4375V29.6094C23.4387 30.4686 24.1261 31.1719 25.001 31.1719C25.86 31.1716 26.5633 30.4684 26.5635 29.6094V23.4375C26.5635 22.5627 25.8601 21.8753 25.001 21.875ZM32.8135 17.1875C31.9385 17.1875 31.251 17.875 31.251 18.75V29.6094C31.2512 30.4686 31.9386 31.1719 32.8135 31.1719C33.6725 31.1716 34.3758 30.4684 34.376 29.6094V18.75C34.376 17.8752 33.6726 17.1878 32.8135 17.1875ZM17.1885 5.46777C15.9072 5.46777 14.8916 6.46783 14.8447 7.7334L9.98438 11.8115C9.79697 11.7491 9.57796 11.7178 9.375 11.7178C8.07835 11.718 7.03129 12.7648 7.03125 14.0615C7.03125 15.3427 8.07832 16.405 9.375 16.4053C10.5157 16.4053 11.4697 15.5772 11.6729 14.4834L16.8604 10.124C16.9696 10.1241 17.0793 10.1553 17.1885 10.1553C17.3289 10.1552 17.4699 10.124 17.5947 10.1084L22.6572 14.0303V14.0615C22.6572 15.3428 23.7041 16.4053 25.001 16.4053C26.0789 16.4051 27.001 15.6551 27.251 14.6396L32.1572 11.6084C32.3603 11.6708 32.5792 11.7178 32.8135 11.7178C34.0946 11.7175 35.1572 10.6551 35.1572 9.37402C35.1571 8.07736 34.0944 7.03049 32.8135 7.03027C31.6573 7.03027 30.7042 7.85848 30.501 8.95215L25.8135 11.8584C25.548 11.7647 25.2821 11.7178 25.001 11.7178C24.923 11.7178 24.8602 11.7333 24.7979 11.7334L19.501 7.63965C19.4229 6.42104 18.4227 5.46799 17.1885 5.46777Z" fill="url(#paint0_linear_1361_451)"/>
<defs>
<linearGradient id="paint0_linear_1361_451" x1="16.7582" y1="6.98835" x2="95.1747" y2="51.8353" gradientUnits="userSpaceOnUse">
<stop stop-color="#2033D5"/>
<stop offset="1" stop-color="#4E6CFE"/>
</linearGradient>
</defs>
</svg>
