<svg width="78" height="61" viewBox="0 0 78 61" fill="none" xmlns="http://www.w3.org/2000/svg">
<path d="M52.2096 13.32C52.2132 16.8583 50.8229 20.2487 48.346 22.752C45.8693 25.2551 42.5096 26.6619 39.0071 26.6619C35.501 26.6619 32.1414 25.2588 29.6608 22.7592C27.184 20.2597 25.7901 16.8693 25.7901 13.3346C25.7901 9.7963 27.1804 6.40585 29.6573 3.90624C32.134 1.40673 35.4972 0 38.9999 0C42.4988 0.00360661 45.8549 1.41024 48.3315 3.90624C50.8081 6.40225 52.2025 9.78919 52.2096 13.32ZM50.3047 26.1315C47.1989 28.9449 43.1709 30.4994 39.0004 30.4994C34.83 30.4994 30.8016 28.9449 27.6961 26.1315C24.4938 28.8366 22.6461 32.8366 22.6461 37.0492V55.2282C22.6461 58.4166 25.2051 60.9991 28.3645 60.9991H49.6372C52.7966 60.9991 55.3557 58.4166 55.3557 55.2282V37.0492C55.3557 32.8364 53.507 28.8365 50.3047 26.1315ZM54.2504 20.8799C54.0789 21.6482 53.9931 22.4309 53.9931 23.2171C53.9931 23.6283 54.0181 24.0395 54.0681 24.4506C56.0982 26.5607 57.585 29.1395 58.4035 31.9601C62.0097 34.6255 66.8739 34.7626 70.6199 32.2991C74.3692 29.8392 76.2133 25.2983 75.259 20.8911C74.3047 16.4836 70.7486 13.1328 66.3275 12.4763C61.9029 11.8163 57.5389 13.9876 55.3664 17.9298C55.084 18.947 54.7115 19.935 54.2504 20.8799ZM13.2669 34.0885C15.5507 34.0849 17.7773 33.3419 19.6144 31.9712C20.4328 29.1471 21.9196 26.5682 23.9497 24.4582C23.9997 24.0506 24.0247 23.6394 24.0283 23.2283C24.0176 22.4384 23.9282 21.6521 23.7495 20.8802C23.2885 19.9353 22.9168 18.9469 22.6344 17.9298C20.7509 14.5286 17.209 12.4077 13.3494 12.3681C9.48941 12.332 5.90471 14.3843 3.9565 17.7459C2.00865 21.1075 1.99081 25.2625 3.91361 28.6424C5.84005 32.0183 9.40657 34.0957 13.2669 34.0885ZM18.871 55.2499V37.0497V36.7792C17.0982 37.5438 15.1933 37.9333 13.2669 37.9333C9.4998 37.9406 5.87932 36.4726 3.16301 33.836C1.12934 35.9892 -0.00355992 38.8459 8.40389e-06 41.8215V56.0651C8.40389e-06 58.7919 2.1873 60.9993 4.88934 60.9993H20.7583C19.511 59.3401 18.8354 57.3131 18.8319 55.2284L18.871 55.2499ZM74.8369 33.8364C72.1206 36.473 68.5001 37.941 64.7331 37.9338C62.8031 37.9374 60.8945 37.5442 59.1183 36.7796V37.0501V55.2291C59.1218 57.3102 58.4535 59.3372 57.2133 61H73.1107C75.8126 61 78 58.7926 78 56.0658V41.8222C78.0036 38.8465 76.8705 35.9897 74.8369 33.8364Z" fill="url(#paint0_linear_1358_69752)"/>
<defs>
<linearGradient id="paint0_linear_1358_69752" x1="19.5" y1="7.10471" x2="104.269" y2="62.5929" gradientUnits="userSpaceOnUse">
<stop stop-color="#2033D5"/>
<stop offset="1" stop-color="#4E6CFE"/>
</linearGradient>
</defs>
</svg>
