<svg width="48" height="60" viewBox="0 0 48 60" fill="none" xmlns="http://www.w3.org/2000/svg">
<path d="M35.625 8.99902C36.0609 8.97873 36.4966 9.04727 36.9053 9.2002C37.314 9.35315 37.6874 9.58813 38.0029 9.88965C38.3184 10.1911 38.5699 10.5537 38.7412 10.9551C38.9125 11.3563 39.0005 11.7883 39 12.2246V58.7246L34.6504 54.6748C34.2961 54.3687 33.8432 54.2002 33.375 54.2002C32.9068 54.2002 32.4539 54.3687 32.0996 54.6748L26.4004 59.7744L20.7754 54.6748C20.4147 54.3825 19.9642 54.2227 19.5 54.2227C19.0358 54.2227 18.5853 54.3825 18.2246 54.6748L12.5996 59.7744L6.90039 54.6748C6.54614 54.3687 6.09319 54.2002 5.625 54.2002C5.15681 54.2002 4.70385 54.3687 4.34961 54.6748L0 58.7246V12.2246C-0.000472172 11.7883 0.0875436 11.3563 0.258789 10.9551C0.430138 10.5537 0.681586 10.1911 0.99707 9.88965C1.31261 9.58813 1.68597 9.35315 2.09473 9.2002C2.50345 9.04727 2.93908 8.97873 3.375 8.99902H35.625ZM44.625 0C45.5269 0.0196135 46.3857 0.391247 47.0166 1.03613C47.6473 1.68091 48.0001 2.54729 48 3.44922V49.875L43.6504 45.8242C43.3161 45.5457 42.8978 45.3876 42.4629 45.374C42.028 45.3604 41.6011 45.493 41.25 45.75V12.2246C41.2402 11.4958 41.0868 10.7761 40.7988 10.1064C40.5108 9.43683 40.0936 8.83068 39.5713 8.32227C39.049 7.81393 38.4319 7.41334 37.7549 7.14355C37.0777 6.87376 36.3539 6.74008 35.625 6.75H9V3.44922C8.9999 2.54729 9.35272 1.68091 9.9834 1.03613C10.6143 0.391248 11.4731 0.0196144 12.375 0H44.625ZM10.2002 39.749C9.90183 39.749 9.61528 39.8681 9.4043 40.0791C9.19353 40.29 9.07531 40.5759 9.0752 40.874C9.0752 41.1723 9.1934 41.459 9.4043 41.6699C9.61528 41.8809 9.90183 41.999 10.2002 41.999H28.7998C29.0982 41.999 29.3847 41.8809 29.5957 41.6699C29.8066 41.459 29.9248 41.1723 29.9248 40.874C29.9247 40.5759 29.8065 40.29 29.5957 40.0791C29.3847 39.8681 29.0982 39.749 28.7998 39.749H10.2002ZM10.2002 29.999C9.90183 29.999 9.61528 30.1181 9.4043 30.3291C9.19353 30.54 9.07531 30.8259 9.0752 31.124C9.0752 31.4223 9.1934 31.709 9.4043 31.9199C9.61528 32.1309 9.90183 32.249 10.2002 32.249H28.7998C29.0982 32.249 29.3847 32.1309 29.5957 31.9199C29.8066 31.709 29.9248 31.4223 29.9248 31.124C29.9247 30.8259 29.8065 30.54 29.5957 30.3291C29.3847 30.1181 29.0982 29.999 28.7998 29.999H10.2002ZM10.2002 20.249C9.90183 20.249 9.61528 20.3681 9.4043 20.5791C9.19353 20.79 9.07531 21.0759 9.0752 21.374C9.0752 21.6723 9.1934 21.959 9.4043 22.1699C9.61528 22.3809 9.90183 22.499 10.2002 22.499H19.7998C20.0982 22.499 20.3847 22.3809 20.5957 22.1699C20.8066 21.959 20.9248 21.6723 20.9248 21.374C20.9247 21.0759 20.8065 20.79 20.5957 20.5791C20.3847 20.3681 20.0982 20.249 19.7998 20.249H10.2002Z" fill="url(#paint0_linear_1361_241)"/>
<defs>
<linearGradient id="paint0_linear_1361_241" x1="12" y1="6.96196" x2="75.7454" y2="33.1662" gradientUnits="userSpaceOnUse">
<stop stop-color="#2033D5"/>
<stop offset="1" stop-color="#4E6CFE"/>
</linearGradient>
</defs>
</svg>
