<svg width="51" height="51" viewBox="0 0 51 51" fill="none" xmlns="http://www.w3.org/2000/svg">
<path d="M51 19.833V48.167C50.9998 49.7328 49.7328 50.9998 48.167 51H2.83301C1.26721 50.9998 0.000175671 49.7328 0 48.167V19.833H51ZM19.833 24.083C16.3137 24.0832 13.4582 26.9387 13.458 30.458C13.458 33.9775 16.3136 36.8328 19.833 36.833H31.167C34.6864 36.8328 37.542 33.9775 37.542 30.458C37.5418 26.9387 34.6863 24.0832 31.167 24.083H19.833ZM31.167 26.917C33.1229 26.9172 34.7078 28.5021 34.708 30.458C34.708 32.4141 33.123 33.9998 31.167 34H19.833C17.877 33.9998 16.292 32.4141 16.292 30.458C16.2922 28.5021 17.8771 26.9172 19.833 26.917H31.167ZM37.542 0C39.1078 0.000174513 40.3748 1.26721 40.375 2.83301V17H4.95801V2.83301C4.95818 1.2671 6.22605 0 7.79199 0H37.542ZM43.208 5.66699C44.7741 5.66699 46.042 6.93395 46.042 8.5V17H43.208V5.66699ZM9.91699 13.458C9.13395 13.458 8.5 14.0919 8.5 14.875C8.5 15.658 9.13393 16.292 9.91699 16.292H18.417C19.1999 16.2918 19.833 15.6579 19.833 14.875C19.833 14.0921 19.1999 13.4582 18.417 13.458H9.91699ZM29.75 4.95801C27.4038 4.95801 25.5002 6.8618 25.5 9.20801V12.042C25.5002 14.3882 27.4038 16.292 29.75 16.292H32.583C34.9293 16.292 36.8328 14.3882 36.833 12.042V9.20801C36.8328 6.8618 34.9293 4.95801 32.583 4.95801H29.75ZM32.583 7.79199C33.366 7.79199 33.9998 8.42512 34 9.20801V12.042C33.9998 12.8249 33.3659 13.458 32.583 13.458H29.75C28.967 13.458 28.3332 12.8249 28.333 12.042V9.20801C28.3332 8.4251 28.9671 7.79199 29.75 7.79199H32.583ZM9.91699 9.20801C9.13395 9.20801 8.5 9.84194 8.5 10.625C8.5 11.408 9.13393 12.042 9.91699 12.042H15.583C16.366 12.042 17 11.408 17 10.625C17 9.84196 16.3661 9.20801 15.583 9.20801H9.91699ZM9.91699 4.95801C9.13393 4.95801 8.5 5.59196 8.5 6.375C8.5 7.15804 9.13395 7.79199 9.91699 7.79199H15.583C16.3661 7.79199 17 7.15804 17 6.375C17 5.59196 16.366 4.95801 15.583 4.95801H9.91699Z" fill="url(#paint0_linear_1361_368)"/>
<defs>
<linearGradient id="paint0_linear_1361_368" x1="12.75" y1="5.94" x2="75.4848" y2="38.0547" gradientUnits="userSpaceOnUse">
<stop stop-color="#2033D5"/>
<stop offset="1" stop-color="#4E6CFE"/>
</linearGradient>
</defs>
</svg>
