<svg width="65" height="65" viewBox="0 0 65 65" fill="none" xmlns="http://www.w3.org/2000/svg">
<path d="M15.8443 32.5002V16.8374C15.8443 7.5557 23.3165 0 32.4949 0C41.6736 0 49.1454 7.55601 49.1454 16.8374V35.6022C49.1454 38.8602 46.5286 41.5063 43.3068 41.5063H32.4948C31.8535 41.5063 31.3331 40.9801 31.3331 40.3316V38.7653C31.3331 38.1168 31.8535 37.5906 32.4948 37.5906C33.1361 37.5906 33.6565 38.1168 33.6565 38.7653V39.1569H43.3068C45.2429 39.1569 46.8221 37.56 46.8221 35.6022V33.6749H44.1509C42.6323 33.6749 41.401 32.4299 41.401 30.8942V23.1485C41.401 21.6128 42.6322 20.3677 44.1509 20.3677H46.8221V16.8436C46.8221 8.85641 40.3936 2.3556 32.4949 2.3556C24.5962 2.3556 18.1676 8.85625 18.1676 16.8436V20.3677H20.8389C22.3575 20.3677 23.5888 21.6128 23.5888 23.1485V30.8942C23.5888 32.4298 22.3575 33.6749 20.8389 33.6749H17.006C16.3646 33.6749 15.8443 33.1426 15.8443 32.5002ZM32.4949 10.9639C31.8535 10.9639 31.3332 11.4901 31.3332 12.1386V15.6627H27.8482C27.2069 15.6627 26.6865 16.1889 26.6865 16.8374C26.6865 17.486 27.2069 18.0121 27.8482 18.0121H31.3332V21.5363C31.3332 22.1848 31.8535 22.711 32.4949 22.711C33.1362 22.711 33.6565 22.1848 33.6565 21.5363V18.0121H37.1415C37.7829 18.0121 38.3032 17.486 38.3032 16.8374C38.3032 16.1889 37.7829 15.6627 37.1415 15.6627H33.6565V12.1386C33.6565 11.487 33.1392 10.9639 32.4949 10.9639ZM64.5344 63.5194C63.9687 64.4433 62.9855 65 61.9086 65H3.0903C2.01336 65 1.03012 64.4432 0.46447 63.5194C-0.101238 62.5955 -0.15569 61.4606 0.331358 60.4817L6.55719 47.881L6.56022 16.0144C6.56022 14.0872 8.10911 12.5209 10.0149 12.5209H12.3686C13.0099 12.5209 13.5302 13.0471 13.5302 13.6956C13.5302 14.3442 13.0099 14.8703 12.3686 14.8703H10.0149C9.39478 14.8703 8.88355 15.3782 8.88355 16.0144V46.9789H56.1247V16.0144C56.1247 15.3873 55.6225 14.8703 54.9933 14.8703H52.6397C51.9983 14.8703 51.478 14.3442 51.478 13.6956C51.478 13.0471 51.9983 12.5209 52.6397 12.5209H54.9933C56.8991 12.5209 58.448 14.0872 58.448 16.0144V47.881L64.6738 60.4817C65.1548 61.4515 65.1001 62.5864 64.5344 63.5194ZM41.9299 62.2192L39.5915 57.4806C39.3737 57.0432 38.932 56.7679 38.454 56.7679H26.5469C26.0659 56.7679 25.6242 57.0432 25.4094 57.4806L23.071 62.2192H41.9299Z" fill="url(#paint0_linear_1361_58)"/>
<defs>
<linearGradient id="paint0_linear_1361_58" x1="16.25" y1="7.57059" x2="96.2061" y2="48.5011" gradientUnits="userSpaceOnUse">
<stop stop-color="#2033D5"/>
<stop offset="1" stop-color="#4E6CFE"/>
</linearGradient>
</defs>
</svg>
