<svg width="63" height="64" viewBox="0 0 63 64" fill="none" xmlns="http://www.w3.org/2000/svg">
<path d="M14.6357 52.2607C14.8729 52.2607 15.1007 52.3549 15.2686 52.5225C15.4363 52.6902 15.5311 52.9181 15.5312 53.1553C15.5312 53.3926 15.4364 53.6212 15.2686 53.7891C15.1008 53.9566 14.8729 54.0508 14.6357 54.0508H12.1201C15.944 57.3273 20.5357 59.5818 25.4668 60.6025C30.3981 61.6233 35.5079 61.3771 40.3184 59.8877C43.1703 59.0048 45.8713 57.6924 48.3281 55.9961C48.4227 55.9173 48.5331 55.8593 48.6514 55.8252C48.7696 55.7911 48.8937 55.7814 49.0156 55.7979C49.1377 55.8143 49.2552 55.8558 49.3604 55.9199C49.4654 55.9841 49.5556 56.0699 49.626 56.1709C49.6964 56.272 49.7448 56.3869 49.7686 56.5078C49.7922 56.6286 49.7906 56.7529 49.7637 56.873C49.7367 56.9932 49.6853 57.1069 49.6123 57.2061C49.5393 57.3051 49.4465 57.3879 49.3398 57.4492C43.5752 61.4246 36.649 63.3633 29.6582 62.958C22.6675 62.5527 16.0117 59.8267 10.7451 55.2119V57.9424C10.745 58.1796 10.6502 58.4074 10.4824 58.5752C10.3146 58.7429 10.0868 58.8369 9.84961 58.8369C9.61235 58.8369 9.38459 58.7429 9.2168 58.5752C9.04904 58.4074 8.95518 58.1796 8.95508 57.9424V53.1553C8.95514 53.038 8.97764 52.9218 9.02246 52.8135C9.06744 52.7049 9.13369 52.6056 9.2168 52.5225C9.29975 52.4395 9.3985 52.3741 9.50684 52.3291C9.61536 52.2841 9.73214 52.2608 9.84961 52.2607H14.6357ZM56.876 13.3545C57.0963 13.3841 57.298 13.4953 57.4404 13.666C61.4146 19.431 63.3525 26.3573 62.9473 33.3477C62.542 40.338 59.8169 46.9937 55.2031 52.2607H57.9326C58.1698 52.2607 58.3976 52.3549 58.5654 52.5225C58.7332 52.6902 58.828 52.9181 58.8281 53.1553C58.8281 53.3926 58.7333 53.6212 58.5654 53.7891C58.3976 53.9566 58.1698 54.0508 57.9326 54.0508H53.1465C52.9093 54.0507 52.6814 53.9568 52.5137 53.7891C52.3458 53.6212 52.252 53.3926 52.252 53.1553V48.3691C52.252 48.1319 52.3459 47.9041 52.5137 47.7363C52.6814 47.5686 52.9092 47.4747 53.1465 47.4746C53.3837 47.4746 53.6115 47.5687 53.7793 47.7363C53.9471 47.9041 54.0419 48.1319 54.042 48.3691V50.8857C57.3186 47.0618 59.572 42.4693 60.5928 37.5381C61.6134 32.607 61.3682 27.4978 59.8789 22.6875C58.996 19.8356 57.6835 17.1345 55.9873 14.6777C55.8765 14.485 55.842 14.257 55.8906 14.04C55.9393 13.8233 56.0677 13.6328 56.25 13.5059C56.4324 13.3788 56.6557 13.3249 56.876 13.3545ZM33.4111 9.46289C33.8355 9.45961 34.2482 9.60337 34.5791 9.86914C34.91 10.135 35.1394 10.5076 35.2275 10.9229C35.6492 12.8942 36.81 14.6257 38.2432 15.2158C39.6765 15.806 41.7389 15.404 43.4316 14.3145C43.7882 14.0817 44.2144 13.9793 44.6377 14.0254C45.0609 14.0715 45.4548 14.2634 45.7529 14.5674L48.4443 17.2588C48.7483 17.5568 48.9401 17.9508 48.9863 18.374C49.0324 18.7973 48.9299 19.2235 48.6973 19.5801C47.6078 21.2986 47.2124 23.3547 47.7959 24.7686C48.3796 26.1824 50.1442 27.3561 52.0898 27.7842C52.505 27.8724 52.8767 28.1018 53.1426 28.4326C53.4085 28.7635 53.5521 29.1761 53.5488 29.6006V33.4141C53.5533 33.8405 53.4099 34.2555 53.1426 34.5879C52.8753 34.9202 52.5005 35.1492 52.083 35.2363C50.1116 35.6579 48.3803 36.8188 47.79 38.252C47.1999 39.6852 47.6018 41.7477 48.6914 43.4404C48.9241 43.797 49.0256 44.2232 48.9795 44.6465C48.9334 45.0698 48.7425 45.4646 48.4385 45.7627L45.7471 48.4541C45.449 48.7581 45.0541 48.949 44.6309 48.9951C44.2076 49.0412 43.7813 48.9397 43.4248 48.707C41.7062 47.6175 39.6502 47.222 38.2363 47.8057C36.8227 48.3895 35.6487 50.1532 35.2207 52.0986C35.1326 52.5137 34.9039 52.8855 34.5732 53.1514C34.2424 53.4172 33.8297 53.5608 33.4053 53.5576H29.5918C29.17 53.5618 28.7592 53.4212 28.4287 53.1592C28.0983 52.8971 27.8675 52.5297 27.7754 52.1182C27.3538 50.1466 26.1931 48.4144 24.7598 47.8242C23.3265 47.2342 21.2639 47.6371 19.5713 48.7266C19.2148 48.9591 18.7884 49.0607 18.3652 49.0146C17.9422 48.9685 17.548 48.7774 17.25 48.4736L14.5586 45.7822C14.2545 45.4841 14.0627 45.0893 14.0166 44.666C13.9705 44.2427 14.073 43.8165 14.3057 43.46C15.3951 41.7413 15.7907 39.6853 15.207 38.2715C14.6233 36.8577 12.8587 35.6839 10.9131 35.2559C10.498 35.1676 10.1262 34.9382 9.86035 34.6074C9.59458 34.2766 9.45082 33.8638 9.4541 33.4395V29.627C9.45082 29.2026 9.59457 28.7898 9.86035 28.459C10.1262 28.1282 10.498 27.8988 10.9131 27.8105C12.8847 27.389 14.6168 26.2282 15.207 24.7949C15.7972 23.3617 15.3951 21.2991 14.3057 19.6064C14.073 19.2499 13.9705 18.8237 14.0166 18.4004C14.0627 17.9771 14.2545 17.5823 14.5586 17.2842L17.25 14.5928C17.548 14.289 17.9422 14.0979 18.3652 14.0518C18.7884 14.0057 19.2148 14.1073 19.5713 14.3398C21.2898 15.4293 23.3459 15.8257 24.7598 15.2422C26.1736 14.6585 27.3473 12.8939 27.7754 10.9482C27.8636 10.533 28.093 10.1614 28.4238 9.89551C28.7547 9.62961 29.1673 9.48598 29.5918 9.48926L33.4111 9.46289ZM9.84961 8.96387C10.0868 8.96387 10.3146 9.05792 10.4824 9.22559C10.6502 9.39334 10.745 9.62117 10.7451 9.8584V14.6455C10.745 14.8827 10.6502 15.1106 10.4824 15.2783C10.3146 15.446 10.0868 15.54 9.84961 15.54C9.61237 15.54 9.38458 15.446 9.2168 15.2783C9.04906 15.1106 8.9552 14.8827 8.95508 14.6455V12.1289C5.67835 15.9529 3.42406 20.5453 2.40332 25.4766C1.38271 30.4076 1.62882 35.5168 3.11816 40.3271C4.00101 43.179 5.31262 45.8802 7.00879 48.3369C7.08768 48.4315 7.14654 48.5418 7.18066 48.6602C7.21473 48.7784 7.22343 48.9024 7.20703 49.0244C7.19061 49.1465 7.14914 49.264 7.08496 49.3691C7.02089 49.474 6.93578 49.5645 6.83496 49.6348C6.73389 49.7052 6.61891 49.7546 6.49805 49.7783C6.37732 49.802 6.25287 49.8003 6.13281 49.7734C6.01262 49.7465 5.89898 49.6941 5.7998 49.6211C5.70073 49.5481 5.61796 49.4553 5.55664 49.3486C1.58445 43.5827 -0.352498 36.657 0.0527344 29.667C0.458038 22.6772 3.18217 16.022 7.79395 10.7539H5.06348C4.82613 10.7539 4.5985 10.659 4.43066 10.4912C4.26296 10.3234 4.16895 10.0957 4.16895 9.8584C4.16905 9.62117 4.26291 9.39334 4.43066 9.22559C4.59848 9.05786 4.82621 8.96388 5.06348 8.96387H9.84961ZM31.498 21.0264C30.1216 21.0255 28.7582 21.2969 27.4863 21.8232C26.2146 22.3496 25.0592 23.1215 24.0859 24.0947C23.1126 25.068 22.3399 26.2233 21.8135 27.4951C21.2871 28.7669 21.0168 30.1304 21.0176 31.5068C21.0176 33.5797 21.6326 35.6066 22.7842 37.3301C23.9358 39.0535 25.5723 40.3972 27.4873 41.1904C29.4024 41.9837 31.5099 42.1905 33.543 41.7861C35.576 41.3817 37.4435 40.3837 38.9092 38.918C40.3749 37.4523 41.373 35.5847 41.7773 33.5518C42.1817 31.5188 41.9739 29.4111 41.1807 27.4961C40.3874 25.5813 39.0445 23.9445 37.3213 22.793C35.5978 21.6414 33.5709 21.0264 31.498 21.0264ZM36.0381 28.3037C36.2286 28.1829 36.4581 28.1385 36.6797 28.1807C36.9012 28.2228 37.0986 28.3481 37.2314 28.5303C37.3643 28.7126 37.4232 28.9392 37.3955 29.1631C37.3677 29.387 37.2554 29.5919 37.082 29.7363L29.4746 35.2881C29.3781 35.3706 29.2655 35.4322 29.1436 35.4678C29.0216 35.5033 28.8933 35.5119 28.7676 35.4941C28.6418 35.4763 28.5213 35.4322 28.4141 35.3643C28.3069 35.2964 28.2153 35.2065 28.1455 35.1006L25.6611 31.3516C25.5856 31.2541 25.5312 31.142 25.501 31.0225C25.4707 30.9028 25.4651 30.778 25.4854 30.6562C25.5056 30.5345 25.5508 30.4179 25.6182 30.3145C25.6855 30.211 25.7738 30.1224 25.877 30.0547C25.9802 29.9869 26.097 29.9416 26.2188 29.9209C26.3404 29.9003 26.4652 29.9048 26.585 29.9346C26.7046 29.9644 26.8173 30.0185 26.915 30.0938C27.0128 30.1691 27.094 30.2639 27.1533 30.3721L29.0986 33.3428L36.0381 28.3037ZM13.6572 5.56543C19.421 1.58794 26.3476 -0.352574 33.3389 0.0527344C40.3302 0.458081 46.9864 3.18572 52.252 7.80273V5.07227C52.252 4.83499 52.3459 4.60724 52.5137 4.43945C52.6815 4.27167 52.9092 4.17781 53.1465 4.17773C53.3837 4.17773 53.6115 4.27177 53.7793 4.43945C53.9471 4.60724 54.0419 4.83499 54.042 5.07227V9.8584C54.042 10.0957 53.9471 10.3234 53.7793 10.4912C53.6115 10.6591 53.3839 10.7539 53.1465 10.7539H48.3604C48.123 10.7539 47.8954 10.659 47.7275 10.4912C47.5599 10.3234 47.4658 10.0956 47.4658 9.8584C47.4659 9.62117 47.5598 9.39334 47.7275 9.22559C47.8953 9.05785 48.1231 8.9639 48.3604 8.96387H50.877C47.053 5.68714 42.4606 3.43285 37.5293 2.41211C32.5981 1.39142 27.4882 1.63752 22.6777 3.12695C19.8259 4.00982 17.1256 5.32239 14.6689 7.01855L14.6748 7.00488C14.484 7.10713 14.2625 7.13653 14.0518 7.08691C13.841 7.0372 13.6554 6.91205 13.5303 6.73535C13.4052 6.55846 13.3487 6.34137 13.3721 6.12598C13.3955 5.91067 13.4972 5.71135 13.6572 5.56543Z" fill="url(#paint0_linear_1361_555)"/>
<defs>
<linearGradient id="paint0_linear_1361_555" x1="15.75" y1="7.3389" x2="93.2514" y2="47.0062" gradientUnits="userSpaceOnUse">
<stop stop-color="#2033D5"/>
<stop offset="1" stop-color="#4E6CFE"/>
</linearGradient>
</defs>
</svg>
