<svg width="83" height="49" viewBox="0 0 83 49" fill="none" xmlns="http://www.w3.org/2000/svg">
<path fill-rule="evenodd" clip-rule="evenodd" d="M1.58718 22.3086C3.41007 17.9688 10.0063 18.5764 12.6106 19.4443C13.2182 19.6179 14.1732 20.1384 14.9544 20.6592C15.7339 21.1789 23.3409 26.3659 23.3743 26.3887L30.5794 22.7432C32.4889 21.7016 34.8324 22.4822 35.7874 24.3916C36.7421 26.3011 35.9611 28.558 33.8782 29.6865L24.677 34.374C24.1562 34.6344 23.5483 34.8086 22.9407 34.8086C22.1596 34.8086 21.3784 34.5481 20.7708 34.1143L17.1243 31.5967V33.0723C17.2111 37.2388 16.4308 46.7877 16.344 47.2217C16.2572 47.9159 15.9961 48.3496 15.1282 48.3496H1.23953C0.545295 48.3495 0.0247941 47.7421 0.0246836 47.0479C0.0246836 38.6279 -0.322489 26.8224 1.58718 22.3086ZM80.1448 0.78125C81.4466 0.781476 82.4876 1.82322 82.5745 3.125V45.9189C82.5745 47.221 81.5328 48.2627 80.2307 48.2627H32.4895C31.1875 48.2627 30.1458 47.221 30.1458 45.9189V35.2422L34.7464 32.8984V35.1553C34.7464 39.8427 38.4789 43.5752 43.1663 43.5752H69.468C74.1552 43.5749 77.888 39.8425 77.888 35.1553V13.9756C77.8879 9.28841 74.1552 5.55592 69.468 5.55566H43.1663C38.4789 5.55566 34.7464 9.28825 34.7464 13.9756V19.7051C33.9651 19.4447 33.1837 19.2705 32.3157 19.2705C31.5345 19.2705 30.7533 19.3578 30.0589 19.6182V3.125C30.059 1.82307 31.1006 0.78125 32.4026 0.78125H80.1448ZM52.2805 12.8467C53.1484 12.8468 53.9294 13.3675 54.2766 14.1484L60.3528 28.4717L62.4368 23.4365C62.7841 22.6555 63.565 22.1348 64.4329 22.1348H69.2942C70.5092 22.135 71.4641 23.0896 71.4641 24.3047C71.4641 25.5198 70.5093 26.4744 69.2942 26.4746H65.9085L62.4368 34.7207C62.0896 35.5019 61.3078 36.0234 60.4397 36.0234C59.5717 36.0234 58.7908 35.5019 58.4436 34.7207L52.3675 20.3984L50.2835 25.2598C49.9362 26.0408 49.1553 26.5615 48.2874 26.5615V26.7354H43.3391C42.1242 26.7351 41.1694 25.7804 41.1692 24.5654C41.1692 23.3503 42.1241 22.3958 43.3391 22.3955H46.8118L50.2835 14.1484C50.6307 13.3673 51.4126 12.8467 52.2805 12.8467ZM9.65945 0C14.3096 0 18.0794 3.76973 18.0794 8.41992C18.0794 13.0701 14.3096 16.8398 9.65945 16.8398C5.00947 16.8396 1.23953 13.07 1.23953 8.41992C1.23953 3.76989 5.00947 0.00025499 9.65945 0Z" fill="url(#paint0_linear_1361_170)"/>
<defs>
<linearGradient id="paint0_linear_1361_170" x1="20.6436" y1="5.63131" x2="93.3002" y2="69.1533" gradientUnits="userSpaceOnUse">
<stop stop-color="#2033D5"/>
<stop offset="1" stop-color="#4E6CFE"/>
</linearGradient>
</defs>
</svg>
