<svg width="52" height="52" viewBox="0 0 52 52" fill="none" xmlns="http://www.w3.org/2000/svg">
<path d="M27.8574 0C30.9295 0.000151723 33.4286 2.49918 33.4287 5.57129V14.8574C32.8532 14.2822 32.2296 13.7721 31.5713 13.3242V5.57129C31.5712 3.52297 29.9057 1.85757 27.8574 1.85742H5.57129C3.52292 1.8575 1.8575 3.52292 1.85742 5.57129V46.4287C1.8575 48.4771 3.52292 50.1425 5.57129 50.1426H27.8574C29.9057 50.1424 31.5712 48.477 31.5713 46.4287V45.915C32.1313 46.2412 32.7634 46.4287 33.4287 46.4287C33.4286 49.5008 30.9295 51.9998 27.8574 52H5.57129C2.49913 51.9999 7.63467e-05 49.5009 0 46.4287V5.57129C7.55729e-05 2.49913 2.49913 7.55709e-05 5.57129 0H27.8574ZM13 3.71387C13 5.76504 14.6627 7.42848 16.7139 7.42871C18.7652 7.42871 20.4287 5.76518 20.4287 3.71387H27.8574C28.883 3.71402 29.7138 4.54573 29.7139 5.57129V12.29C28.0844 11.547 26.3057 11.1426 24.4609 11.1426H16.7139V13C14.6657 13.0002 13.0002 14.6657 13 16.7139V39C13 41.0483 14.6656 42.7136 16.7139 42.7139H24.4609C26.3803 42.7139 28.1922 43.3375 29.7139 44.4463V46.4287C29.7138 47.4543 28.883 48.286 27.8574 48.2861H5.57129C4.5458 48.2861 3.71394 47.4543 3.71387 46.4287V5.57129C3.71394 4.54569 4.5458 3.71394 5.57129 3.71387H13ZM50.1426 14.8574C51.1689 14.8574 51.9998 15.6885 52 16.7139V39C52 40.0256 51.1691 40.8574 50.1426 40.8574H42.3955C39.5046 40.8574 36.7852 41.9834 34.7412 44.0273C34.3931 44.3754 33.9219 44.5713 33.4287 44.5713C32.9354 44.5713 32.4634 44.3756 32.1152 44.0273C30.0713 41.9835 27.3536 40.8574 24.4609 40.8574H16.7139C15.6885 40.8572 14.8574 40.0255 14.8574 39V16.7139C14.8576 15.6886 15.6886 14.8576 16.7139 14.8574V39H24.4619C27.825 39.0001 31.0506 40.3358 33.4287 42.7139C35.8069 40.3359 39.0323 39 42.3955 39H50.1426V14.8574ZM24.4609 13C27.3535 13 30.0713 14.1262 32.1152 16.1699L33.4287 17.4844L34.7412 16.1699C36.7852 14.126 39.5046 13 42.3955 13H48.2861V37.1426H42.3955C39.102 37.1426 35.9768 38.2303 33.4287 40.2344C30.8806 38.2303 27.7545 37.1426 24.4609 37.1426H18.5713V13H24.4609ZM27.6416 20.7617C27.3133 20.3682 26.7257 20.3163 26.334 20.6445L20.7627 25.2871C20.5505 25.463 20.4287 25.7243 20.4287 26C20.4288 26.2755 20.5506 26.537 20.7627 26.7129L26.334 31.3555C26.508 31.5004 26.7184 31.5713 26.9287 31.5713C27.1935 31.5712 27.4585 31.4567 27.6416 31.2373C27.9697 30.8438 27.9169 30.2579 27.5234 29.9297L22.8076 26L27.5234 22.0693C27.9169 21.7411 27.9698 21.1552 27.6416 20.7617ZM36.6924 20.5605C36.259 20.2958 35.6856 20.4394 35.4189 20.8799L29.8477 30.166C29.5829 30.6049 29.7263 31.1765 30.167 31.4395C30.3156 31.5299 30.4805 31.5713 30.6436 31.5713C30.9572 31.5713 31.2653 31.4101 31.4395 31.1201L37.0117 21.834C37.2762 21.3951 37.1329 20.8235 36.6924 20.5605ZM40.5234 20.6436C40.1317 20.3153 39.5441 20.3682 39.2158 20.7617C38.8876 21.1552 38.9395 21.7411 39.333 22.0693L44.0488 25.999L39.333 29.9297C38.9398 30.258 38.8877 30.8439 39.2158 31.2373C39.399 31.4565 39.6641 31.5703 39.9287 31.5703C40.1389 31.5702 40.3495 31.4995 40.5234 31.3545L46.0947 26.7119C46.3068 26.536 46.4287 26.2746 46.4287 25.999C46.4287 25.7234 46.3069 25.462 46.0947 25.2861L40.5234 20.6436Z" fill="url(#paint0_linear_1361_475)"/>
<defs>
<linearGradient id="paint0_linear_1361_475" x1="13" y1="6.05647" x2="76.9648" y2="38.8009" gradientUnits="userSpaceOnUse">
<stop stop-color="#2033D5"/>
<stop offset="1" stop-color="#4E6CFE"/>
</linearGradient>
</defs>
</svg>
