<svg width="31" height="55" viewBox="0 0 31 55" fill="none" xmlns="http://www.w3.org/2000/svg">
<path d="M3.72218 0C1.66134 0 0.00247962 1.67238 0.00247962 3.75V5.00001H31V3.75C31 1.67238 29.3411 0 27.2803 0H3.72218ZM0.00247962 7.50001V45.0001H31V7.50001H0.00247962ZM17.9835 16.875C18.1458 16.875 18.308 16.9068 18.4582 16.9702C19.0902 17.2363 19.3881 17.9688 19.1265 18.606L12.927 33.606C12.7987 33.9112 12.5565 34.1553 12.2538 34.2798C11.9487 34.4068 11.6072 34.4068 11.3046 34.2798C10.6725 34.0137 10.3746 33.2812 10.6386 32.6441L16.8381 17.644C17.0294 17.1777 17.4822 16.8726 17.9835 16.875ZM9.36987 20.6275C9.6411 20.6421 9.90022 20.7471 10.1085 20.9253C10.3579 21.1426 10.5129 21.4478 10.5371 21.7798C10.5638 22.1094 10.4572 22.4366 10.2441 22.688L7.217 26.25L10.2441 29.812C10.4572 30.0635 10.5638 30.3906 10.5371 30.7202C10.5129 31.0522 10.3579 31.3574 10.1085 31.5747C9.58782 32.0215 8.80801 31.9629 8.36245 31.438L4.64275 27.063C4.24317 26.5942 4.24317 25.9033 4.64275 25.437L8.36245 21.062C8.61188 20.7666 8.98482 20.6055 9.36987 20.6275ZM21.6356 20.6275C22.0182 20.6055 22.3912 20.7666 22.643 21.062L26.3627 25.437C26.7599 25.9033 26.7599 26.5943 26.3627 27.063L22.643 31.438C22.1974 31.9629 21.4152 32.0215 20.8946 31.5748C20.6451 31.3575 20.4901 31.0523 20.4659 30.7203C20.4393 30.3907 20.5458 30.0635 20.7614 29.8121L23.7885 26.2501L20.7614 22.6881C20.5458 22.4366 20.4393 22.1094 20.4659 21.7799C20.4901 21.4478 20.6451 21.1427 20.8946 20.9254C21.1028 20.7471 21.3619 20.6421 21.6356 20.6275ZM0 47.5V51.25C0 53.3276 1.65886 55 3.7197 55H27.2778C29.3387 55 30.9975 53.3276 30.9975 51.25V47.5H0ZM15.5012 48.75C16.5279 48.75 17.361 49.5899 17.361 50.625C17.361 51.6601 16.5279 52.5 15.5012 52.5C14.4744 52.5 13.6413 51.6601 13.6413 50.625C13.6413 49.5899 14.4744 48.75 15.5012 48.75Z" fill="url(#paint0_linear_1361_254)"/>
<defs>
<linearGradient id="paint0_linear_1361_254" x1="7.75" y1="6.40589" x2="52.1772" y2="19.2246" gradientUnits="userSpaceOnUse">
<stop stop-color="#2033D5"/>
<stop offset="1" stop-color="#4E6CFE"/>
</linearGradient>
</defs>
</svg>
