<svg width="62" height="65" viewBox="0 0 62 65" fill="none" xmlns="http://www.w3.org/2000/svg">
<path d="M46.6379 25.7068C46.9605 24.7725 47.8382 24.1456 48.8233 24.1428C49.4423 24.1428 50.0323 23.899 50.4682 23.4637C50.9041 23.0285 51.1511 22.4365 51.1482 21.8213V18.4176C51.1511 17.7995 50.9041 17.2104 50.4682 16.7752C50.0323 16.3399 49.4423 16.0933 48.8233 16.0962C47.8382 16.0904 46.9605 15.4636 46.6379 14.5321C46.4519 14.0214 46.2514 13.5251 46.0189 13.0319C45.8678 12.7127 45.7864 12.3616 45.7864 12.0104C45.7835 11.4011 46.0247 10.8178 46.4519 10.3854C46.8907 9.95016 47.1378 9.36111 47.1378 8.74305C47.1378 8.12787 46.8908 7.5359 46.4519 7.10356L44.034 4.68927C43.601 4.254 43.0081 4.00735 42.3921 4.00735C41.776 4.01025 41.186 4.254 40.7501 4.68927C40.0497 5.3857 38.9832 5.55982 38.0997 5.12163C37.6027 4.88949 37.1087 4.68927 36.5972 4.50355H36.5943C35.6614 4.18146 35.0337 3.308 35.0308 2.3214C35.0308 1.70623 34.7867 1.11426 34.3507 0.679018C33.9148 0.243747 33.322 0 32.7059 0H29.2941C28.678 0 28.0851 0.243747 27.6492 0.679018C27.2133 1.11429 26.9692 1.70624 26.9692 2.3214C26.9663 3.308 26.3386 4.18145 25.4057 4.50355C24.8942 4.68927 24.3972 4.88949 23.9032 5.12163H23.9003C23.5806 5.27543 23.2319 5.35378 22.8773 5.35378C22.27 5.35668 21.6829 5.11873 21.2499 4.68927C20.8169 4.2511 20.224 4.00444 19.6079 4.00444C18.9919 4.00444 18.399 4.25109 17.966 4.68927L15.5481 7.10356C15.1092 7.53883 14.8651 8.12789 14.8651 8.74305C14.868 9.35823 15.1121 9.95019 15.5481 10.3854C16.2426 11.0819 16.417 12.1468 15.9811 13.0319C15.7486 13.5281 15.5481 14.0214 15.3621 14.5321C15.0395 15.4635 14.1618 16.0904 13.1767 16.0962C12.5576 16.0933 11.9677 16.3399 11.5318 16.7752C11.0959 17.2105 10.8489 17.7995 10.8518 18.4176V21.8213C10.8489 22.4365 11.0959 23.0285 11.5318 23.4637C11.9677 23.899 12.5577 24.1428 13.1767 24.1428C14.1618 24.1457 15.0395 24.7724 15.3621 25.7068C15.5481 26.2176 15.7486 26.7138 15.9811 27.207C16.1322 27.5262 16.2136 27.8745 16.2136 28.2285C16.2165 28.8379 15.9753 29.4211 15.5481 29.8535C15.1092 30.2858 14.8622 30.8778 14.8622 31.493C14.8622 32.111 15.1092 32.7001 15.5481 33.1354L17.966 35.5496C18.399 35.9849 18.9919 36.2316 19.6079 36.2287C20.224 36.2287 20.814 35.982 21.2499 35.5496C21.9503 34.8532 23.0168 34.6791 23.9003 35.1144C24.3973 35.3465 24.8913 35.5467 25.4028 35.7325L25.4057 35.7354C26.3385 36.0546 26.9663 36.9309 26.9692 37.9175C26.9692 38.5327 27.2133 39.1247 27.6492 39.5599C28.0852 39.9952 28.678 40.2389 29.2941 40.2389H29.451V46.4284H6.20182C5.78914 46.4284 5.39684 46.5909 5.10617 46.8811C4.81265 47.1713 4.6499 47.5659 4.6499 47.9751V54.1646L1.55192 54.1675C1.13924 54.1675 0.746936 54.33 0.456265 54.6202C0.162745 54.9104 0 55.305 0 55.7142V63.4533C0 63.8625 0.162745 64.2571 0.456265 64.5473C0.746884 64.8375 1.13921 65 1.55192 65H10.8516C11.2614 65 11.6566 64.8375 11.9473 64.5473C12.2379 64.2571 12.4006 63.8625 12.4006 63.4533V55.7142C12.4006 55.3051 12.2379 54.9104 11.9473 54.6202C11.6566 54.33 11.2614 54.1675 10.8516 54.1675H7.75071V49.5246H29.451V54.1675H25.5742C25.1644 54.1675 24.7692 54.33 24.4785 54.6202C24.1879 54.9104 24.0252 55.305 24.0252 55.7142V63.4533C24.0252 63.8625 24.1879 64.2571 24.4785 64.5473C24.7692 64.8375 25.1644 65 25.5742 65H36.4258C36.8356 65 37.2308 64.8375 37.5215 64.5473C37.8121 64.2571 37.9748 63.8625 37.9748 63.4533V55.7142C37.9748 55.3051 37.8121 54.9104 37.5215 54.6202C37.2308 54.33 36.8356 54.1675 36.4258 54.1675H32.549V49.5246H54.2493V54.1675H51.1484C50.7386 54.1675 50.3434 54.33 50.0527 54.6202C49.7621 54.9104 49.5994 55.305 49.5994 55.7142V63.4533C49.5994 63.8625 49.7621 64.2571 50.0527 64.5473C50.3434 64.8375 50.7386 65 51.1484 65H60.4481C60.8608 65 61.2531 64.8375 61.5437 64.5473C61.8373 64.2571 62 63.8625 62 63.4533V55.7142C62 55.3051 61.8373 54.9104 61.5437 54.6202C61.2531 54.33 60.8608 54.1675 60.4481 54.1675H57.3501V47.9751C57.3501 47.566 57.1874 47.1713 56.8938 46.8811C56.6032 46.5909 56.2109 46.4284 55.7982 46.4284H32.549V40.2389H32.7059C33.322 40.2389 33.9149 39.9952 34.3508 39.5599C34.7867 39.1246 35.0308 38.5327 35.0308 37.9175C35.0337 36.9309 35.6614 36.0546 36.5943 35.7354C37.1058 35.5497 37.6028 35.3494 38.0968 35.1173L38.0997 35.1144C38.4194 34.9635 38.7681 34.8851 39.1227 34.8822C39.7301 34.8822 40.3171 35.1202 40.7501 35.5497C41.1831 35.9878 41.776 36.2345 42.3921 36.2345C43.0081 36.2345 43.601 35.9878 44.034 35.5497L46.4519 33.1354C46.8908 32.7001 47.1349 32.111 47.1349 31.493C47.132 30.8778 46.8879 30.2887 46.4519 29.8535C45.7574 29.1542 45.583 28.0921 46.0189 27.2071C46.2514 26.7108 46.4519 26.2176 46.6379 25.7068ZM30.9996 30.1785C26.9251 30.1785 23.2518 27.7264 21.6909 23.9686C20.1332 20.2108 20.9935 15.8811 23.8764 13.0055C26.7564 10.1298 31.0894 9.26804 34.856 10.8263C38.6194 12.3817 41.0751 16.0495 41.0751 20.1179C41.0751 22.7876 40.0115 25.347 38.1225 27.2331C36.2334 29.1193 33.6703 30.1785 30.9996 30.1785Z" fill="url(#paint0_linear_1358_69753)"/>
<defs>
<linearGradient id="paint0_linear_1358_69753" x1="15.5" y1="7.57059" x2="93.2211" y2="45.5207" gradientUnits="userSpaceOnUse">
<stop stop-color="#2033D5"/>
<stop offset="1" stop-color="#4E6CFE"/>
</linearGradient>
</defs>
</svg>
