<svg width="60" height="63" viewBox="0 0 60 63" fill="none" xmlns="http://www.w3.org/2000/svg">
<path d="M39.3105 0C41.0172 0.000108889 42.4139 1.39683 42.4141 3.10352V4.13867H45.5176C47.8036 4.13885 49.6553 5.99029 49.6553 8.27637V37.418C55.5207 38.4005 59.9999 43.5106 60 49.6553C60 56.5036 54.4344 62.0693 47.5859 62.0693C42.186 62.0692 37.5926 58.6135 35.8857 53.793H4.1377C1.85161 53.7928 0 51.9414 0 49.6553V8.27637C0 5.99026 1.85161 4.1388 4.1377 4.13867H7.24121V8.27637C7.2413 9.98314 8.63794 11.3798 10.3447 11.3799C12.0516 11.3799 13.4482 9.98318 13.4482 8.27637C13.4482 7.70749 12.9829 7.24233 12.4141 7.24219C11.8451 7.24219 11.3789 7.7074 11.3789 8.27637C11.3788 8.84526 10.9136 9.31055 10.3447 9.31055C9.77586 9.31049 9.31063 8.84523 9.31055 8.27637V4.13867H11.3789V3.10352C11.3788 2.53467 10.9136 2.06934 10.3447 2.06934C9.7759 2.06939 9.3107 2.53471 9.31055 3.10352V4.13867H7.24121V3.10352C7.24136 1.3968 8.63799 5.50735e-05 10.3447 0C12.0515 0 13.4481 1.39676 13.4482 3.10352V4.13867H36.207V8.27637C36.2071 9.98318 37.6037 11.3799 39.3105 11.3799C41.0173 11.3798 42.414 9.98311 42.4141 8.27637C42.4141 7.7074 41.9479 7.24219 41.3789 7.24219C40.8101 7.24241 40.3447 7.70753 40.3447 8.27637C40.3446 8.8452 39.8794 9.31044 39.3105 9.31055C38.7416 9.31055 38.2755 8.84527 38.2754 8.27637V4.13867H40.3447V3.10352C40.3446 2.53474 39.8793 2.06944 39.3105 2.06934C38.7417 2.06934 38.2755 2.53467 38.2754 3.10352V4.13867H36.207V3.10352C36.2072 1.39676 37.6038 0 39.3105 0ZM47.5859 39.3105C42.2378 39.3107 37.8309 43.3972 37.293 48.6006C37.2724 48.6729 37.2725 48.7455 37.2725 48.8281C37.2518 49.097 37.2412 49.3761 37.2412 49.6553C37.2412 50.6586 37.3864 51.6312 37.6553 52.5518C38.9072 56.8448 42.8895 59.9999 47.5859 60L47.5762 60.001C53.2758 60.0008 57.9206 55.3559 57.9209 49.6562C57.9209 44.3079 53.8343 39.9002 48.6309 39.3623H48.6104C48.5484 39.352 48.4864 39.3418 48.4141 39.3418C48.1451 39.3211 47.8652 39.3105 47.5859 39.3105ZM46.8096 43.9668C47.0992 43.2737 48.0512 43.2737 48.3408 43.9668L49.541 46.832L52.5195 47.1318H52.4785C53.2026 47.2146 53.5023 48.1455 52.9541 48.6523L50.7197 50.7217L51.3613 53.7734C51.5267 54.5182 50.7609 55.0976 50.1299 54.7148L47.5547 53.1318L44.9785 54.7148C44.3579 55.0975 43.5921 54.5182 43.7471 53.7734L44.3887 50.7217L42.1543 48.6523C41.6167 48.1454 41.906 47.2045 42.6299 47.1318L45.6094 46.832L46.8096 43.9668ZM2.06934 45.5176C2.06934 46.6555 2.99984 47.5868 4.1377 47.5869H35.3486C36.3311 41.7215 41.4413 37.2423 47.5859 37.2422V16.5518H2.06934V45.5176ZM11.3789 38.2764C11.9505 38.2764 12.4141 38.8486 12.4141 39.3115V43.4492C12.414 44.0207 11.9504 44.4834 11.3789 44.4834H7.24121C6.66971 44.4834 6.20709 43.9121 6.20703 43.4492V39.3115C6.20703 38.74 6.66967 38.2764 7.24121 38.2764H11.3789ZM21.7227 38.2764C22.2942 38.2764 22.7578 38.8486 22.7578 39.3115V43.4492C22.7578 44.0207 22.2942 44.4834 21.7227 44.4834H17.585C17.0135 44.4833 16.5508 43.9121 16.5508 43.4492V39.3115C16.5508 38.74 17.0135 38.2765 17.585 38.2764H21.7227ZM32.0684 38.2764C32.6397 38.2766 33.1025 38.8487 33.1025 39.3115V43.4492C33.1025 44.0206 32.6397 44.4832 32.0684 44.4834H27.9297C27.3583 44.4832 26.8956 43.912 26.8955 43.4492V39.3115C26.8955 38.7401 27.3583 38.2766 27.9297 38.2764H32.0684ZM11.3789 28.9668C11.9504 28.9668 12.414 29.5381 12.4141 30.001V34.1387C12.4141 34.7102 11.9505 35.1738 11.3789 35.1738H7.24121C6.66967 35.1738 6.20703 34.6016 6.20703 34.1387V30.001C6.20708 29.4295 6.6697 28.9668 7.24121 28.9668H11.3789ZM21.7227 28.9668C22.2942 28.9668 22.7577 29.5381 22.7578 30.001V34.1387C22.7578 34.7102 22.2942 35.1738 21.7227 35.1738H17.585C17.0135 35.1737 16.5508 34.6016 16.5508 34.1387V30.001C16.5508 29.4295 17.0135 28.9669 17.585 28.9668H21.7227ZM32.0684 28.9668C32.6397 28.967 33.1025 29.5382 33.1025 30.001V34.1387C33.1025 34.7101 32.6397 35.1736 32.0684 35.1738H27.9297C27.3583 35.1736 26.8955 34.6015 26.8955 34.1387V30.001C26.8956 29.4296 27.3583 28.967 27.9297 28.9668H32.0684ZM42.4131 28.9668C42.9845 28.9669 43.4472 29.5381 43.4473 30.001V34.1387C43.4473 34.7102 42.9846 35.1737 42.4131 35.1738H38.2754C37.7038 35.1738 37.2402 34.6016 37.2402 34.1387V30.001C37.2403 29.4295 37.7039 28.9668 38.2754 28.9668H42.4131ZM11.3789 19.6553C11.9503 19.6553 12.4138 20.2266 12.4141 20.6895V24.8281C12.4139 25.3995 11.9504 25.8623 11.3789 25.8623H7.24121C6.66979 25.8623 6.20723 25.291 6.20703 24.8281V20.6895C6.20727 20.1181 6.66982 19.6553 7.24121 19.6553H11.3789ZM21.7227 19.6553C22.294 19.6553 22.7575 20.2266 22.7578 20.6895V24.8281C22.7577 25.3995 22.2941 25.8623 21.7227 25.8623H17.585C17.0136 25.8622 16.551 25.291 16.5508 24.8281V20.6895C16.551 20.1182 17.0136 19.6554 17.585 19.6553H21.7227ZM32.0684 19.6553C32.6396 19.6555 33.1022 20.2267 33.1025 20.6895V24.8281C33.1024 25.3994 32.6396 25.8621 32.0684 25.8623H27.9297C27.3584 25.8621 26.8957 25.2909 26.8955 24.8281V20.6895C26.8957 20.1182 27.3585 19.6555 27.9297 19.6553H32.0684ZM42.4131 19.6553C42.9844 19.6554 43.447 20.2266 43.4473 20.6895V24.8281C43.4471 25.3995 42.9845 25.8622 42.4131 25.8623H38.2754C37.704 25.8623 37.2404 25.291 37.2402 24.8281V20.6895C37.2405 20.1181 37.704 19.6553 38.2754 19.6553H42.4131Z" fill="url(#paint0_linear_1361_409)"/>
<defs>
<linearGradient id="paint0_linear_1361_409" x1="15" y1="7.22926" x2="89.8243" y2="44.2558" gradientUnits="userSpaceOnUse">
<stop stop-color="#2033D5"/>
<stop offset="1" stop-color="#4E6CFE"/>
</linearGradient>
</defs>
</svg>
