<svg width="56" height="63" viewBox="0 0 56 63" fill="none" xmlns="http://www.w3.org/2000/svg">
<path fill-rule="evenodd" clip-rule="evenodd" d="M15.8457 23.6136L28.0008 30.6095L40.1552 23.6122L34.5144 20.3659L28.0008 16.6163L21.4873 20.3659L15.8457 23.6136ZM27.1232 46.1121L21.4873 42.8679L14.9744 39.1183V25.1265L27.1211 32.1203V46.1149L27.1232 46.1121ZM28.8785 32.1196L41.0251 25.1258V39.1183L34.5122 42.8679L28.8785 46.1121V32.1196ZM27.1232 15.1076V7.85968C26.1654 7.64436 25.3209 7.08451 24.7512 6.28724C24.1814 5.48996 23.9265 4.51124 24.0352 3.5383C24.1438 2.56537 24.6084 1.66652 25.34 1.01372C26.0717 0.360923 27.019 0 28.0008 0C28.9826 0 29.9299 0.360923 30.6616 1.01372C31.3932 1.66652 31.8578 2.56537 31.9664 3.5383C32.0751 4.51124 31.8202 5.48996 31.2504 6.28724C30.6807 7.08451 29.8362 7.64436 28.8785 7.85968V15.1055L28.4495 14.8584C28.3155 14.7786 28.1625 14.736 28.0065 14.735C27.8504 14.7341 27.697 14.7747 27.562 14.8528L27.1232 15.1055V15.1076ZM0.734742 15.919C0.996728 15.4664 1.34562 15.0696 1.76148 14.7515C2.17733 14.4334 2.652 14.2001 3.15833 14.065C3.66466 13.9299 4.19274 13.8956 4.71236 13.9641C5.23199 14.0326 5.73298 14.2026 6.18669 14.4642C6.97187 14.9156 7.57928 15.6204 7.90872 16.4623C8.23817 17.3042 8.26996 18.2329 7.99886 19.0953L14.0947 22.6062L13.7134 22.826C13.5657 22.898 13.4413 23.01 13.3544 23.1491C13.2675 23.2883 13.2216 23.449 13.2219 23.6129V24.1142L7.12964 20.6068C6.51564 21.2716 5.69282 21.7081 4.79675 21.8442C3.90067 21.9804 2.98481 21.8081 2.20006 21.3558C1.74608 21.0946 1.34819 20.7467 1.02914 20.3321C0.710079 19.9174 0.476113 19.4441 0.340612 18.9393C0.205112 18.4344 0.170735 17.9079 0.239446 17.3898C0.308158 16.8716 0.478611 16.3721 0.74106 15.9197L0.734742 15.919ZM55.4298 15.7461C55.4563 15.7851 55.4797 15.826 55.5 15.8686C56.0071 16.7808 56.1345 17.855 55.8547 18.8599C55.575 19.8649 54.9105 20.72 54.0045 21.241C53.2201 21.6934 52.3045 21.8658 51.4087 21.7299C50.5129 21.594 49.6902 21.1579 49.0763 20.4933L42.7846 24.1149V23.6122C42.7847 23.4591 42.7444 23.3087 42.6678 23.1761C42.5911 23.0435 42.4808 22.9334 42.3479 22.8568L41.9027 22.6062L48.1965 18.9833C47.9297 18.1319 47.9578 17.2158 48.2761 16.3822C48.5945 15.5487 49.1847 14.846 49.9518 14.3872C49.996 14.3563 50.043 14.3296 50.0923 14.3074C50.9959 13.8128 52.0566 13.6866 53.0516 13.9553C54.0466 14.2239 54.8985 14.8665 55.4284 15.7482L55.4298 15.7461ZM55.4642 47.4282C55.2025 47.8808 54.8539 48.2774 54.4384 48.5955C54.0229 48.9136 53.5485 49.1469 53.0424 49.282C52.5364 49.4171 52.0086 49.4514 51.4892 49.383C50.9699 49.3145 50.4692 49.1446 50.0157 48.883C49.2306 48.4315 48.6232 47.7268 48.2934 46.885C47.9636 46.0432 47.9312 45.1146 48.2015 44.252L41.9027 40.6291L42.2861 40.4085C42.4338 40.3364 42.5582 40.2243 42.6451 40.085C42.732 39.9458 42.7779 39.785 42.7776 39.6209V39.1183L49.0693 42.7398C49.6832 42.0753 50.5059 41.6391 51.4017 41.5032C52.2975 41.3673 53.2131 41.5397 53.9974 41.9921C54.4516 42.2532 54.8496 42.601 55.1687 43.0157C55.4879 43.4303 55.7219 43.9036 55.8575 44.4085C55.993 44.9134 56.0273 45.44 55.9585 45.9582C55.8897 46.4764 55.7191 46.9759 55.4564 47.4282H55.4642ZM30.824 61.8345C30.3861 62.271 29.8524 62.5999 29.265 62.7953C28.6776 62.9907 28.0528 63.0473 27.4397 62.9604C26.8267 62.8736 26.2423 62.6458 25.7327 62.2951C25.2232 61.9443 24.8024 61.4802 24.5037 60.9394C24.205 60.3986 24.0365 59.796 24.0115 59.1791C23.9865 58.5622 24.1058 57.948 24.3599 57.3849C24.614 56.8219 24.9959 56.3255 25.4755 55.935C25.955 55.5445 26.5191 55.2705 27.1232 55.1347V48.1283L27.5522 48.3748C27.6861 48.4545 27.839 48.4971 27.995 48.4982C28.151 48.4993 28.3045 48.4589 28.4396 48.3811L28.8785 48.1283V55.1347C29.5756 55.2913 30.2178 55.6315 30.7381 56.1199C31.2584 56.6084 31.6377 57.2271 31.8365 57.9115C32.0352 58.5959 32.0461 59.3209 31.868 60.011C31.6899 60.701 31.3294 61.3308 30.824 61.8345ZM2.95975 49.2793C2.19702 49.076 1.51191 48.6516 0.991131 48.0599C0.470356 47.4683 0.137327 46.7358 0.0341934 45.9554C-0.0689406 45.1749 0.0624563 44.3814 0.411754 43.6754C0.761052 42.9695 1.31255 42.3827 1.99645 41.9893C2.78083 41.5369 3.69636 41.3645 4.59219 41.5004C5.48801 41.6363 6.31068 42.0725 6.92462 42.737L13.2163 39.1155V39.6181C13.2162 39.7712 13.2565 39.9216 13.3331 40.0542C13.4098 40.1868 13.5201 40.2969 13.653 40.3735L14.0918 40.6263L7.79805 44.2492C8.06831 45.1118 8.03588 46.0404 7.70611 46.8822C7.37633 47.724 6.76887 48.4287 5.98378 48.8802C5.53088 49.1419 5.03061 49.3119 4.51167 49.3804C3.99273 49.4489 3.46534 49.4145 2.95975 49.2793Z" fill="url(#paint0_linear_1039_2328)"/>
<defs>
<linearGradient id="paint0_linear_1039_2328" x1="14" y1="7.33765" x2="86.024" y2="40.111" gradientUnits="userSpaceOnUse">
<stop stop-color="#2033D5"/>
<stop offset="1" stop-color="#4E6CFE"/>
</linearGradient>
</defs>
</svg>
