<svg width="59" height="48" viewBox="0 0 59 48" fill="none" xmlns="http://www.w3.org/2000/svg">
<path d="M59 15.4531V43.5479C58.9999 45.8761 57.1134 47.7617 54.7852 47.7617H4.21484C1.88657 47.7617 6.74282e-05 45.8761 0 43.5479V15.4531H59ZM9.13184 38.6309C8.35572 38.6309 7.72656 39.26 7.72656 40.0361C7.72672 40.8121 8.35582 41.4404 9.13184 41.4404H15.4531C16.229 41.4402 16.8573 40.812 16.8574 40.0361C16.8574 39.2601 16.2291 38.631 15.4531 38.6309H9.13184ZM23.8809 28.7979C22.3287 28.7979 21.0714 30.0553 21.0713 31.6074V38.6318C21.0715 40.1839 22.3287 41.4404 23.8809 41.4404H31.6064C33.1586 41.4404 34.4158 40.1839 34.416 38.6318V31.6074C34.4159 30.0553 33.1586 28.7979 31.6064 28.7979H23.8809ZM41.4404 28.7979C39.8883 28.7979 38.631 30.0553 38.6309 31.6074V38.6318C38.6311 40.1839 39.8884 41.4404 41.4404 41.4404H49.167C50.719 41.4402 51.9763 40.1838 51.9766 38.6318V31.6074C51.9764 30.0554 50.719 28.798 49.167 28.7979H41.4404ZM31.6064 31.6074V38.6318H23.8809V31.6074H31.6064ZM49.167 38.6318H41.4404V31.6074H49.167V38.6318ZM9.13184 30.9053C8.3558 30.9053 7.72669 31.5336 7.72656 32.3096C7.72656 33.0857 8.35572 33.7148 9.13184 33.7148H15.4531C16.2291 33.7147 16.8574 33.0856 16.8574 32.3096C16.8573 31.5337 16.229 30.9055 15.4531 30.9053H9.13184ZM10.5361 20.3682C9.3737 20.3682 8.42873 21.3132 8.42871 22.4756C8.42871 23.638 9.37368 24.583 10.5361 24.583C11.6984 24.5828 12.6426 23.6379 12.6426 22.4756C12.6426 21.3133 11.6984 20.3684 10.5361 20.3682ZM21.7744 21.0723C20.9983 21.0723 20.3692 21.7005 20.3691 22.4766C20.3691 23.2527 20.9983 23.8818 21.7744 23.8818H50.5713C51.3473 23.8818 51.9756 23.2526 51.9756 22.4766C51.9756 21.7005 51.3473 21.0724 50.5713 21.0723H21.7744ZM54.7852 0C57.1134 0.000138183 58.999 1.88661 58.999 4.21484V12.6426H0V4.21484C0 1.88664 1.88571 0.000192165 4.21387 0H54.7852ZM42.1426 4.21484C40.9802 4.21484 40.0353 5.15898 40.0352 6.32129C40.0352 7.48374 40.9801 8.42871 42.1426 8.42871C43.305 8.42862 44.25 7.48368 44.25 6.32129C44.2498 5.15904 43.3048 4.21494 42.1426 4.21484ZM51.9756 4.21484C50.8134 4.21509 49.8693 5.15914 49.8691 6.32129C49.8691 7.48359 50.8133 8.42846 51.9756 8.42871C53.138 8.42871 54.083 7.48374 54.083 6.32129C54.0828 5.15898 53.1379 4.21484 51.9756 4.21484Z" fill="url(#paint0_linear_1361_72)"/>
<defs>
<linearGradient id="paint0_linear_1361_72" x1="14.75" y1="5.56284" x2="80.1798" y2="46.9384" gradientUnits="userSpaceOnUse">
<stop stop-color="#2033D5"/>
<stop offset="1" stop-color="#4E6CFE"/>
</linearGradient>
</defs>
</svg>
