<svg width="58" height="59" viewBox="0 0 58 59" fill="none" xmlns="http://www.w3.org/2000/svg">
<path fill-rule="evenodd" clip-rule="evenodd" d="M20.8022 38.1817C16.0431 33.4189 8.32868 33.4189 3.56932 38.1817C-1.18977 42.9444 -1.18977 50.6648 3.56932 55.4278C8.32842 60.1909 16.0428 60.1906 20.8022 55.4278C25.5615 50.6651 25.5613 42.9447 20.8022 38.1817ZM4.93307 48.2453C4.61068 47.9226 4.61068 47.3951 4.93307 47.0725C5.25546 46.7498 5.78256 46.7498 6.10496 47.0725L9.39538 50.3654L18.2663 41.4877C18.5887 41.165 19.1158 41.165 19.4382 41.4877C19.7606 41.8103 19.7606 42.3378 19.4382 42.6605L9.98103 52.1249C9.65864 52.4475 9.13154 52.4475 8.80914 52.1249L4.93307 48.2453ZM58 25.8087C57.7851 32.379 55.0371 38.3095 50.6998 42.6497C44.2494 49.1051 34.7161 51.5786 25.8681 48.9233C27.3266 39.4051 18.883 31.3395 9.46186 33.2215C8.62776 30.835 8.16716 28.364 8.08528 25.8082H15.6822C16.1402 25.8082 16.5112 25.4369 16.5112 24.9786C16.5112 15.8419 23.9135 8.43448 33.0425 8.43448C42.1715 8.43448 49.5738 15.8426 49.5738 24.9786C49.5738 25.4369 49.9449 25.8082 50.4028 25.8082L58 25.8087ZM19.6101 12.7061L14.81 7.90233C10.8057 12.1811 8.29056 17.8709 8.08561 24.1469H14.8736C15.0706 19.7451 16.8313 15.7503 19.6101 12.7061ZM32.2139 6.79358V0.00301544C25.9426 0.207866 20.2572 2.72494 15.9819 6.73262L20.7819 11.5364C23.8267 8.7555 27.8182 6.99378 32.214 6.7966L32.2139 6.79358ZM51.2762 7.90489L46.4762 12.7086C49.2549 15.7558 51.0153 19.7503 51.2123 24.1495H57.9976C57.7929 17.8734 55.2778 12.1836 51.2732 7.90495L51.2762 7.90489ZM45.3043 11.5333L50.1043 6.7296C45.8288 2.72219 40.1435 0.205113 33.8723 0V6.79319C38.2707 6.99035 42.2624 8.75248 45.3043 11.5333ZM34.4762 23.5451C33.2046 22.2725 31.0169 23.179 31.0169 24.9791C31.0169 26.7792 33.202 27.6857 34.4762 26.4131C35.2668 25.6218 35.2668 24.3364 34.4762 23.5451ZM33.0434 21.2918C31.0092 21.2918 29.3589 22.9434 29.3589 24.9791C29.3589 27.0148 31.0092 28.6664 33.0434 28.6664C35.9449 28.6664 37.6925 25.4631 36.1675 23.0253L42.1649 17.0232C42.4873 16.7006 42.4873 16.1731 42.1649 15.8504C41.8425 15.5278 41.3154 15.5278 40.993 15.8504L34.9956 21.8525C34.4301 21.4966 33.7598 21.2918 33.0434 21.2918ZM25.9456 37.2675C25.4876 37.2675 25.1166 36.8962 25.1166 36.4379C25.1166 35.9796 25.4876 35.6083 25.9456 35.6083H40.1437C40.6018 35.6083 40.9727 35.9796 40.9727 36.4379C40.9727 36.8962 40.6017 37.2675 40.1437 37.2675H25.9456Z" fill="url(#paint0_linear_1361_567)"/>
<defs>
<linearGradient id="paint0_linear_1361_567" x1="14.5" y1="6.87177" x2="86.3468" y2="43.0277" gradientUnits="userSpaceOnUse">
<stop stop-color="#2033D5"/>
<stop offset="1" stop-color="#4E6CFE"/>
</linearGradient>
</defs>
</svg>
