<svg width="53" height="55" viewBox="0 0 53 55" fill="none" xmlns="http://www.w3.org/2000/svg">
<path d="M48.2676 0.00195312C49.0292 -0.0239502 49.7644 0.26685 50.3037 0.803711C50.8408 1.34313 51.1325 2.07901 51.1064 2.84082C51.1253 4.04248 50.3563 5.11633 49.2139 5.49023V13.25C49.2139 14.8186 47.9426 16.0889 46.374 16.0889H43.7246C43.8027 16.2994 43.8335 16.5272 43.8193 16.752V26.499H47.5098C47.8837 25.3565 48.9584 24.5875 50.1602 24.6064C50.9219 24.5805 51.6579 24.8722 52.1973 25.4092C52.7341 25.9486 53.0251 26.6847 52.999 27.4463C52.9988 29.0145 51.7284 30.285 50.1602 30.2852C48.9584 30.3041 47.8837 29.5351 47.5098 28.3926H43.8193L43.8184 29.8115C43.842 32.9534 43.061 36.0478 41.5469 38.8018H46.374C47.1357 38.7758 47.8718 39.0675 48.4111 39.6045C48.9478 40.1438 49.2388 40.8792 49.2129 41.6406V49.4014C50.3555 49.7752 51.1244 50.849 51.1055 52.0508C51.1054 53.6193 49.8351 54.8896 48.2666 54.8896C46.9109 54.8565 45.7699 53.8699 45.5381 52.5332C45.3087 51.1989 46.0546 49.8864 47.3203 49.4014V41.6406C47.3202 41.39 47.2203 41.149 47.043 40.9717C46.8656 40.7943 46.6247 40.6944 46.374 40.6943H40.3174C39.3568 42.0476 38.2114 43.2595 36.9102 44.291L35.6797 45.332C32.8122 47.6481 29.2397 48.9183 25.5537 48.9277C21.8937 48.9348 18.3449 47.6624 15.5225 45.332L14.1973 44.291C12.8961 43.2595 11.7515 42.0476 10.791 40.6943H4.73438C4.21165 40.6943 3.78831 41.118 3.78809 41.6406V49.4014C4.93051 49.7753 5.69956 50.8491 5.68066 52.0508C5.68062 53.6193 4.40936 54.8896 2.84082 54.8896C1.2725 54.8894 0.00199446 53.6192 0.00195312 52.0508C-0.0169713 50.8491 0.752087 49.7753 1.89453 49.4014V41.6406C1.86863 40.879 2.16032 40.1428 2.69727 39.6035C3.23665 39.0667 3.97275 38.7757 4.73438 38.8018H9.65527C8.11274 36.055 7.29854 32.9606 7.28906 29.8115V16.8467C7.27487 16.5912 7.30571 16.3326 7.38379 16.0889H4.73438C3.16581 16.0889 1.89453 14.8186 1.89453 13.25V5.49023C0.752131 5.11632 -0.0168237 4.04246 0.00195312 2.84082C-0.0240719 2.07901 0.267639 1.34312 0.804688 0.803711C1.3441 0.26672 2.08004 -0.024089 2.8418 0.00195312C3.60339 -0.0239367 4.33864 0.266847 4.87793 0.803711C5.41499 1.34313 5.70671 2.07901 5.68066 2.84082C5.69947 4.04246 4.9305 5.11632 3.78809 5.49023V13.25C3.78809 13.5008 3.88701 13.7425 4.06445 13.9199C4.24189 14.0974 4.4836 14.1963 4.73438 14.1963H8.0459C8.73435 12.8525 9.98161 11.8829 11.4531 11.5469C14.6731 10.7874 17.704 9.37014 20.3496 7.38281L21.1064 6.81543C23.7586 4.85645 27.3907 4.89342 30.0029 6.90918C32.6054 8.9533 35.6005 10.4346 38.8037 11.2627L39.75 11.5469C41.2215 11.8829 42.4688 12.8525 43.1572 14.1963H46.374C46.6248 14.1963 46.8665 14.0973 47.0439 13.9199C47.2214 13.7425 47.3203 13.5008 47.3203 13.25V5.49023C46.1945 5.09266 45.4397 4.033 45.4277 2.84082C45.4277 1.27225 46.699 0.00195312 48.2676 0.00195312ZM25.459 14.5752C22.8447 14.5752 20.7275 16.6923 20.7275 19.3066V20.2529H17.6992C16.1307 20.2529 14.8595 21.5234 14.8594 23.0918V34.7324C14.8594 36.301 16.1307 37.5713 17.6992 37.5713H33.125C34.6934 37.5711 35.9639 36.3009 35.9639 34.7324V23.0918C35.9637 21.5234 34.6925 20.2529 33.124 20.2529H30.1904V19.3066C30.1407 16.7137 28.052 14.6249 25.459 14.5752ZM33.125 22.1455C33.3756 22.1456 33.6166 22.2455 33.7939 22.4229C33.9713 22.6002 34.0712 22.8411 34.0713 23.0918V34.7324C34.0713 34.9832 33.9714 35.2249 33.7939 35.4023C33.6166 35.5795 33.3755 35.6786 33.125 35.6787H17.6992C17.1764 35.6787 16.752 35.2553 16.752 34.7324V23.0918C16.7521 22.5691 17.1765 22.1455 17.6992 22.1455H33.125ZM25.459 24.0381C23.8905 24.0382 22.6201 25.3094 22.6201 26.8779C22.6014 28.0796 23.3701 29.1536 24.5127 29.5273V32.4609C24.4819 32.7212 24.5723 32.9795 24.7568 33.1641C24.9413 33.3483 25.1989 33.4379 25.459 33.4072C25.7098 33.4072 25.9514 33.3083 26.1289 33.1309C26.3064 32.9534 26.4053 32.7117 26.4053 32.4609V29.5273C27.5313 29.1299 28.2859 28.0702 28.2979 26.8779C28.2482 25.3306 27.0063 24.0878 25.459 24.0381ZM25.459 25.9316C25.9629 25.9766 26.3603 26.374 26.4053 26.8779C26.4052 27.1285 26.3061 27.3695 26.1289 27.5469C25.9515 27.7243 25.7098 27.8242 25.459 27.8242C25.1989 27.8549 24.9413 27.7645 24.7568 27.5801C24.5724 27.3956 24.4821 27.1381 24.5127 26.8779C24.5127 26.3551 24.9362 25.9318 25.459 25.9316ZM25.459 16.4678C27.0063 16.5174 28.2482 17.7593 28.2979 19.3066V20.2529H22.6201V19.3066C22.6201 17.7381 23.8905 16.4678 25.459 16.4678Z" fill="url(#paint0_linear_1361_491)"/>
<defs>
<linearGradient id="paint0_linear_1361_491" x1="13.2508" y1="6.39311" x2="79.3746" y2="39.0766" gradientUnits="userSpaceOnUse">
<stop stop-color="#2033D5"/>
<stop offset="1" stop-color="#4E6CFE"/>
</linearGradient>
</defs>
</svg>
