<svg width="43" height="53" viewBox="0 0 43 53" fill="none" xmlns="http://www.w3.org/2000/svg">
<path fill-rule="evenodd" clip-rule="evenodd" d="M7.27372 6.40466V1.64255L1.63797 7.29325H6.38749C6.87305 7.29325 7.27372 6.89154 7.27372 6.40466ZM9.5907 0H40.3671C41.8097 0 43 1.18165 43 2.63985V50.3578C43 51.0833 42.7054 51.7451 42.2269 52.2248L42.2246 52.2224C41.7461 52.7022 41.0884 53 40.3672 53H2.63522C1.19271 53 0.00235708 51.8184 0.00235708 50.3602L0 9.61619H6.38772C8.15083 9.61619 9.59099 8.17456 9.59099 6.40442L9.5907 0ZM9.49406 41.6466H33.5081C35.0331 41.6466 35.0331 39.3235 33.5081 39.3235H9.49406C7.96905 39.3235 7.96905 41.6466 9.49406 41.6466ZM9.49406 48.6067H33.5081C35.0331 48.6067 35.0331 46.2836 33.5081 46.2836H9.49406C7.96905 46.2836 7.96905 48.6067 9.49406 48.6067ZM33.5081 16.3735L28.3626 16.3711C27.7238 16.3711 27.2029 16.891 27.2029 17.5339C27.2029 19.044 29.131 18.6966 30.6254 18.6966L24.0796 25.2574L20.0325 21.1996C19.5799 20.7458 18.8469 20.7458 18.3943 21.1996L8.75844 30.861C7.68123 31.9411 9.31942 33.5859 10.3966 32.5035L19.2142 23.6625L23.2613 27.7203C23.7139 28.174 24.4469 28.174 24.8995 27.7203L32.2653 20.3349V22.606C32.2653 24.1351 34.5823 24.1351 34.5823 22.606V17.532C34.5823 16.9199 34.1038 16.407 33.5075 16.3739L33.5081 16.3735Z" fill="url(#paint0_linear_1361_185)"/>
<defs>
<linearGradient id="paint0_linear_1361_185" x1="10.75" y1="6.17294" x2="67.6842" y2="29.8192" gradientUnits="userSpaceOnUse">
<stop stop-color="#2033D5"/>
<stop offset="1" stop-color="#4E6CFE"/>
</linearGradient>
</defs>
</svg>
