<svg width="48" height="56" viewBox="0 0 48 56" fill="none" xmlns="http://www.w3.org/2000/svg">
<path d="M46 0H8C6.9 0 6 0.9 6 2V8H3C1.3 8 0 9.3 0 11C0 12.7 1.3 14 3 14H6V24H3C1.3 24 0 25.3 0 27C0 28.7 1.3 30 3 30H6V40H3C1.3 40 0 41.3 0 43C0 44.7 1.3 46 3 46H6V54C6 55.1 6.9 56 8 56H27.4C27.5 56 27.7 56 27.8 56C27.9 56 27.9 56 28 55.9C28.1 55.9 28.1 55.9 28.2 55.8C28.3 55.8 28.4 55.7 28.4 55.7C28.4 55.7 28.5 55.7 28.5 55.6C28.6 55.5 28.7 55.4 28.8 55.4L47.4 36.8C47.5 36.7 47.6 36.5 47.7 36.4C47.7 36.4 47.7 36.3 47.8 36.3C47.9 36.1 47.9 36 48 35.8C48 35.7 48 35.6 48 35.4V2C48 0.9 47.1 0 46 0ZM29.4 49.2V37.4H41.1L29.4 49.2Z" fill="url(#paint0_linear_1358_69754)"/>
<defs>
<linearGradient id="paint0_linear_1358_69754" x1="12" y1="6.52236" x2="74.4868" y2="33.9405" gradientUnits="userSpaceOnUse">
<stop stop-color="#2033D5"/>
<stop offset="1" stop-color="#4E6CFE"/>
</linearGradient>
</defs>
</svg>
