<svg width="55" height="55" viewBox="0 0 55 55" fill="none" xmlns="http://www.w3.org/2000/svg">
<path d="M54.645 23.1116C54.3548 21.3319 52.9349 19.8904 51.1144 19.5234L49.1093 19.1204C48.8191 19.0628 48.6943 18.8566 48.644 18.739C48.596 18.6215 48.5384 18.3889 48.7015 18.1394L49.8361 16.4389C50.865 14.8918 50.8482 12.8698 49.7953 11.4067C48.9414 10.2219 47.9844 9.09218 46.9435 8.05122C45.9049 7.01266 44.7753 6.05564 43.5904 5.20178C42.1273 4.14885 40.1029 4.13203 38.5583 5.1634L36.8554 6.29554C36.6084 6.46104 36.3733 6.40108 36.2582 6.35311C36.1406 6.30514 35.9344 6.18041 35.8768 5.88779L35.4739 3.88263C35.1069 2.06217 33.6654 0.644633 31.8857 0.354383C28.9955 -0.118128 26.0021 -0.118128 23.1119 0.354383C21.3323 0.644608 19.8907 2.06457 19.5237 3.88503L19.1208 5.89019C19.0632 6.18041 18.857 6.30513 18.7394 6.3555C18.6219 6.40347 18.3893 6.46104 18.1398 6.29794L16.4393 5.1634C14.8923 4.13681 12.8703 4.14885 11.4072 5.20418C10.2224 6.05804 9.09268 7.01506 8.05173 8.05602C7.01318 9.09458 6.05617 10.2243 5.20232 11.4091C4.1494 12.8722 4.13258 14.8966 5.16394 16.4413L6.29607 18.1442C6.46157 18.3913 6.404 18.6263 6.35364 18.7414C6.30567 18.859 6.18094 19.0652 5.88833 19.1228L3.88319 19.5258C2.06275 19.8927 0.645223 21.3342 0.354976 23.114C0.119924 24.5603 0 26.0354 0 27.5009C0 28.9664 0.119924 30.4439 0.354976 31.8878C0.645198 33.6675 2.06514 35.109 3.88558 35.476L5.89072 35.879C6.18094 35.9366 6.30566 36.1428 6.35603 36.2604C6.404 36.3779 6.46157 36.6105 6.29847 36.86L5.16394 38.5605C4.13497 40.1076 4.1518 42.1296 5.20472 43.5927C6.05857 44.7775 7.01558 45.9072 8.05653 46.9482C9.09508 47.9867 10.2247 48.9438 11.4096 49.7976C12.8751 50.8506 14.8995 50.865 16.4417 49.836L18.1446 48.7039C18.3916 48.5384 18.6267 48.5983 18.7418 48.6463C18.8594 48.6943 19.0656 48.819 19.1232 49.1116L19.5261 51.1168C19.8931 52.9372 21.3346 54.3548 23.1143 54.645C24.5607 54.8801 26.0357 55 27.5012 55C28.9667 55 30.4442 54.8801 31.8881 54.645C33.6677 54.3548 35.1093 52.9348 35.4763 51.1144L35.8792 49.1092C35.9368 48.819 36.143 48.6943 36.2606 48.6439C36.3781 48.5959 36.6107 48.5384 36.8602 48.7015L38.5607 49.836C40.1053 50.865 42.1273 50.8482 43.5928 49.7952C44.7777 48.9414 45.9073 47.9843 46.9483 46.9434C47.9868 45.9048 48.9438 44.7751 49.7977 43.5903C50.8506 42.1272 50.8674 40.1028 49.8361 38.5581L48.7039 36.8552C48.5384 36.6082 48.596 36.3731 48.6464 36.258C48.6943 36.1404 48.8191 35.9342 49.1117 35.8766L51.1168 35.4736C52.9373 35.1067 54.3548 33.6652 54.645 31.8854C54.8801 30.4391 55 28.964 55 27.4985C55 26.033 54.8801 24.5555 54.645 23.1116ZM15.3141 27.9518L19.3172 31.955C20.0679 32.7057 20.0679 33.9194 19.3172 34.6677C18.943 35.0419 18.4513 35.229 17.9596 35.229C17.4679 35.229 16.9786 35.0419 16.6021 34.6677L12.599 30.6646C10.8529 28.9184 10.8529 26.0786 12.599 24.3328L16.6021 20.3296C17.3529 19.5789 18.5665 19.5789 19.3148 20.3296C20.0632 21.0804 20.0656 22.294 19.3148 23.0424L15.3117 27.0455C15.1486 27.2086 15.1247 27.3981 15.1247 27.4989C15.1247 27.5972 15.1486 27.7867 15.3117 27.9522L15.3141 27.9518ZM33.2139 17.4029L25.3852 38.9079C25.1022 39.6874 24.3658 40.1719 23.5815 40.1719C23.3633 40.1719 23.1426 40.1335 22.9267 40.0568C21.929 39.6946 21.4157 38.5937 21.7802 37.5983L29.609 16.0933C29.9712 15.0955 31.0745 14.5846 32.0674 14.9468C33.0652 15.309 33.5785 16.4099 33.2139 17.4053V17.4029ZM42.3954 30.6646L38.3923 34.6677C38.0181 35.0419 37.5264 35.229 37.0347 35.229C36.5431 35.229 36.0537 35.0419 35.6772 34.6677C34.9264 33.917 34.9264 32.7034 35.6772 31.955L39.6803 27.9518C39.8434 27.7887 39.8674 27.5993 39.8674 27.4985C39.8674 27.4002 39.8434 27.2107 39.6803 27.0452L35.6772 23.0421C34.9264 22.2913 34.9264 21.0777 35.6772 20.3293C36.428 19.5809 37.6416 19.5785 38.3899 20.3293L42.393 24.3324C44.1392 26.0786 44.1392 28.9185 42.393 30.6643L42.3954 30.6646Z" fill="url(#paint0_linear_1361_265)"/>
<defs>
<linearGradient id="paint0_linear_1361_265" x1="13.75" y1="6.40589" x2="81.4051" y2="41.0394" gradientUnits="userSpaceOnUse">
<stop stop-color="#2033D5"/>
<stop offset="1" stop-color="#4E6CFE"/>
</linearGradient>
</defs>
</svg>
