<svg width="60" height="60" viewBox="0 0 60 60" fill="none" xmlns="http://www.w3.org/2000/svg">
<path fill-rule="evenodd" clip-rule="evenodd" d="M4.88481 46.4099C3.36993 44.0948 2.16662 41.5597 1.33195 38.856C0.465886 36.0522 0 33.0769 0 29.999C0 21.7164 3.35845 14.2166 8.78649 8.78605C14.2172 3.35843 21.7174 0 30.0005 0C33.4961 0 36.8547 0.600207 39.979 1.70058C42.6257 2.63516 45.1039 3.92994 47.3532 5.52765L46.8873 2.62374C46.8245 2.22646 47.096 1.85204 47.4933 1.78918C47.8906 1.72631 48.265 1.99783 48.3279 2.39511L49.0767 7.06245C49.1167 7.26537 49.071 7.48545 48.931 7.66265C48.8109 7.81414 48.6394 7.90273 48.4622 7.92846H48.4593L43.566 8.61155C43.1658 8.66586 42.7971 8.38862 42.7428 7.98848C42.6885 7.58834 42.9657 7.21963 43.3659 7.16534L46.5157 6.72519C44.3749 5.20182 42.014 3.96711 39.49 3.07818C36.5231 2.0321 33.3276 1.46336 29.9974 1.46336C22.1168 1.46336 14.9826 4.65877 9.81808 9.82064C4.65887 14.9853 1.4633 22.1195 1.4633 29.999C1.4633 32.9372 1.90634 35.7696 2.72669 38.428C3.5127 40.9718 4.6446 43.364 6.06801 45.5505C6.41958 45.4076 6.80544 45.3276 7.20562 45.3276C8.8806 45.3276 10.2382 46.6852 10.2382 48.36C10.2382 50.0348 8.88052 51.3896 7.20562 51.3896C5.53064 51.3896 4.17586 50.032 4.17586 48.36C4.173 47.6169 4.44168 46.9367 4.88471 46.4107L4.88481 46.4099ZM29.2686 19.3435V8.43704C26.4704 8.77715 23.9208 11.0494 22.0086 14.5535C21.374 15.7167 20.8081 17.0143 20.3279 18.4176C23.0318 18.9721 26.0586 19.3006 29.2686 19.3435ZM46.6097 43.8205C45.049 43.0631 43.1883 42.4114 41.1046 41.9027C40.5873 43.4461 39.9727 44.8694 39.2753 46.1442C38.2064 48.0992 36.9401 49.714 35.5338 50.8916C39.2782 49.9026 42.6252 47.9362 45.2833 45.2782C45.7435 44.8123 46.1895 44.3264 46.6097 43.8205ZM24.4693 50.8916C23.0601 49.714 21.7968 48.0992 20.7278 46.1442C20.0304 44.8694 19.4158 43.4461 18.8985 41.9027C16.8119 42.4143 14.9541 43.0631 13.3935 43.8205C13.8136 44.3264 14.2595 44.8123 14.7226 45.2782C17.3779 47.9362 20.7252 49.9026 24.4693 50.8916ZM12.4786 42.6455C14.165 41.7937 16.1915 41.0707 18.4638 40.5076C17.6235 37.5609 17.1262 34.2426 17.0661 30.7301H8.40256C8.55118 35.1716 10.0405 39.2761 12.4786 42.6455ZM8.4027 29.2667H17.0633C17.1234 25.754 17.6236 22.4357 18.4611 19.4892C16.1887 18.9261 14.1622 18.2002 12.4758 17.3513C10.0406 20.7239 8.55131 24.8254 8.4027 29.2667ZM13.3904 16.1761C14.951 16.9336 16.8118 17.5852 18.8954 18.0939C19.4128 16.5505 20.0273 15.1272 20.7247 13.8524C21.7937 11.8975 23.0599 10.2826 24.4662 9.10507C20.7219 10.094 17.3748 12.0633 14.7197 14.7185C14.2567 15.1843 13.8105 15.6702 13.3904 16.1761ZM35.5308 9.10507C36.9371 10.2826 38.2032 11.8975 39.2723 13.8524C39.9697 15.1272 40.5842 16.5505 41.1016 18.0939C43.1881 17.5823 45.046 16.9336 46.6066 16.1761C46.1864 15.6702 45.7405 15.1843 45.2775 14.7185C42.6222 12.0633 39.2749 10.094 35.5308 9.10507ZM47.5215 17.3511C45.8351 18.2 43.8086 18.9259 41.5362 19.489C42.3765 22.4357 42.8739 25.7512 42.9339 29.2665H51.5946C51.4488 24.825 49.9595 20.7205 47.5215 17.3511ZM51.5974 30.73H42.9338C42.8738 34.2426 42.3736 37.5609 41.5361 40.5074C43.8084 41.0705 45.8349 41.7964 47.5213 42.6453C49.9594 39.2756 51.4487 35.1713 51.5974 30.73ZM30.7316 8.43631V19.3428C33.9415 19.2999 36.9684 18.9712 39.6725 18.4168C39.1923 17.0105 38.6292 15.7158 37.9918 14.5526C36.0796 11.0485 33.5299 8.77647 30.7316 8.43631ZM30.7316 20.8061V29.2659H41.4704C41.4103 25.8561 40.9244 22.6493 40.1098 19.814L40.0212 19.834C37.1972 20.4171 34.0498 20.7604 30.7316 20.8061ZM30.7316 30.7292V39.189C34.0501 39.2347 37.197 39.5777 40.0208 40.1607L40.1094 40.1807C40.924 37.3454 41.4071 34.1386 41.47 30.7288L30.7316 30.7292ZM30.7316 40.6523V51.5588C33.5299 51.2187 36.0795 48.9465 37.9945 45.4424C38.6291 44.2791 39.195 42.9815 39.6752 41.5782C36.9685 41.0237 33.9418 40.6952 30.7316 40.6523ZM29.2682 51.5588V40.6523C26.0584 40.6952 23.0315 41.0239 20.3273 41.5783C20.8075 42.9846 21.3706 44.2793 22.008 45.4425C23.9202 48.9466 26.47 51.2215 29.2682 51.5588ZM29.2682 39.189V30.7292H18.5295C18.5895 34.139 19.0754 37.3458 19.89 40.1811L19.9786 40.1611C22.8026 39.5809 25.95 39.2347 29.2682 39.189ZM29.2682 29.2659V20.8061C25.9497 20.7604 22.8028 20.4174 19.979 19.8315L19.8904 19.8115C19.0758 22.6468 18.5928 25.8536 18.5299 29.2634L29.2682 29.2659ZM52.7944 8.60752C51.1195 8.60752 49.7647 9.96516 49.7647 11.6371C49.7647 13.312 51.1224 14.6696 52.7944 14.6696C53.1975 14.6696 53.5805 14.5924 53.9321 14.4495C55.3555 16.636 56.4874 19.0282 57.2734 21.572C58.0937 24.2301 58.5368 27.0625 58.5368 30.001C58.5368 37.8812 55.3412 45.0151 50.1791 50.1794C45.0141 55.344 37.8796 58.5366 29.9997 58.5366C26.6698 58.5366 23.4742 57.9679 20.5071 56.9218C17.9833 56.033 15.6223 54.7983 13.4814 53.2748L16.6313 52.8347C17.0314 52.7804 17.3087 52.4117 17.2544 52.0115C17.2001 51.6114 16.8313 51.3341 16.4312 51.3885L11.5378 52.0715C11.3606 52.0973 11.1891 52.1859 11.069 52.3373C10.929 52.5117 10.8804 52.7318 10.9233 52.9376L11.6721 57.6049C11.735 58.0022 12.1094 58.2737 12.5067 58.2108C12.904 58.1479 13.1755 57.7735 13.1127 57.3763L12.6468 54.4723C14.8962 56.0701 17.3743 57.3648 20.021 58.2994C23.1451 59.3998 26.5036 60 29.9995 60C38.2826 60 45.7827 56.6417 51.2135 51.2139C56.6414 45.7863 60 38.2866 60 30.001C60 26.9228 59.5341 23.9475 58.668 21.144C57.8335 18.443 56.6301 15.905 55.1152 13.5901C55.5582 13.0642 55.8269 12.384 55.8269 11.6408C55.8269 9.96589 54.4692 8.60833 52.7943 8.60833L52.7944 8.60752Z" fill="url(#paint0_linear_1361_433)"/>
<defs>
<linearGradient id="paint0_linear_1361_433" x1="15" y1="6.98824" x2="88.8056" y2="44.7703" gradientUnits="userSpaceOnUse">
<stop stop-color="#2033D5"/>
<stop offset="1" stop-color="#4E6CFE"/>
</linearGradient>
</defs>
</svg>
