<svg width="63" height="56" viewBox="0 0 63 56" fill="none" xmlns="http://www.w3.org/2000/svg">
<path d="M16.583 36.8438C16.9001 36.8439 17.1616 37.0794 17.1943 37.3965C17.9401 44.1951 18.8034 45.065 25.6084 45.8105C25.9255 45.8433 26.161 46.1016 26.1611 46.4219C26.1611 46.739 25.9255 47.0004 25.6084 47.0332C18.8099 47.7789 17.9399 48.6427 17.1943 55.4473C17.1616 55.7644 16.9001 55.9999 16.583 56C16.2658 56 16.0044 55.7645 15.9717 55.4473C15.226 48.6491 14.3621 47.7788 7.55762 47.0332C7.24042 47.0005 7.00488 46.7391 7.00488 46.4219C7.00502 46.1048 7.24051 45.8432 7.55762 45.8105C14.3558 45.0648 15.2261 44.2013 15.9717 37.3965C16.0044 37.0793 16.2658 36.8438 16.583 36.8438ZM38.6758 6.43945C39.4213 6.43945 40.0234 6.98294 40.1084 7.72852C41.0208 16.0664 42.0732 21.1384 45.0127 24.0781C47.9427 27.0081 53.0246 28.0612 61.3633 28.9834C62.1056 29.0684 62.6514 29.6705 62.6514 30.416C62.6512 31.1614 62.1087 31.7627 61.3633 31.8477C53.0248 32.7601 47.9525 33.8132 45.0127 36.7529C42.0829 39.6829 41.0306 44.7651 40.1084 53.1035C40.0331 53.8489 39.4278 54.3916 38.6758 54.3916C37.9303 54.3916 37.3283 53.8489 37.2432 53.1035C36.3308 44.7652 35.2785 39.6927 32.3389 36.7529C29.4089 33.8229 24.3269 32.7698 15.9883 31.8477C15.2428 31.7725 14.7004 31.1679 14.7002 30.416C14.7002 29.6705 15.2427 29.0684 15.9883 28.9834C24.3267 28.071 29.4089 27.0081 32.3389 24.0781C35.2686 21.1482 36.321 16.0666 37.2432 7.72852C37.3183 6.98291 37.9237 6.43945 38.6758 6.43945ZM13.4922 0C13.9368 6.93483e-05 14.2897 0.326957 14.3389 0.761719C15.3945 10.3662 16.6142 11.5867 26.2217 12.6396C26.6664 12.692 26.9844 13.0416 26.9844 13.4863C26.9843 13.931 26.6566 14.284 26.2217 14.333C16.6183 15.3886 15.399 16.612 14.3428 26.2129C14.2905 26.6576 13.9398 26.9746 13.4951 26.9746C13.0505 26.9745 12.6975 26.6477 12.6484 26.2129C11.5861 16.6083 10.3628 15.3889 0.761719 14.3359C0.31708 14.2836 0 13.9329 0 13.4883C0.000205295 13.0438 0.327032 12.6907 0.761719 12.6416C10.3624 11.586 11.586 10.3662 12.6455 0.761719C12.6979 0.317122 13.0476 0 13.4922 0Z" fill="url(#paint0_linear_1361_89)"/>
<defs>
<linearGradient id="paint0_linear_1361_89" x1="15.6628" y1="6.52236" x2="88.9028" y2="48.468" gradientUnits="userSpaceOnUse">
<stop stop-color="#2033D5"/>
<stop offset="1" stop-color="#4E6CFE"/>
</linearGradient>
</defs>
</svg>
