<svg width="75" height="52" viewBox="0 0 75 52" fill="none" xmlns="http://www.w3.org/2000/svg">
<path d="M72.4775 6.44727C73.8661 6.44727 74.9999 7.58022 75 8.96875V35.6562C74.9998 37.0447 73.866 38.1777 72.4775 38.1777H52.207L41.9287 51.2344V38.1777H34.6182C33.2297 38.1777 32.0969 37.0287 32.0967 35.6562V8.96875C32.0968 7.58023 33.2296 6.44729 34.6182 6.44727H72.4775ZM17.7158 40.2998C17.6679 40.7467 17.6367 41.2262 17.6367 41.7051C17.6366 44.2108 15.609 46.2373 13.1191 46.2373C10.6294 46.2372 8.58609 44.1948 8.58594 41.7051H8.60254C8.60254 41.2262 8.57034 40.7467 8.52246 40.2998H17.7158ZM13.0879 8.64941C20.327 8.65792 26.1758 14.5288 26.1758 21.7539C26.1756 28.6168 20.9094 31.474 18.627 36.709H14.8594V25.6006C15.7053 25.3292 16.456 24.8497 17.0625 24.2432C18.0839 23.2217 18.7227 21.817 18.7227 20.2529C18.7225 19.2634 17.9241 18.4658 16.9346 18.4658C15.9451 18.4659 15.1476 19.2635 15.1475 20.2529C15.1475 20.8275 14.9081 21.3389 14.541 21.7061C14.1739 22.0732 13.6625 22.3125 13.0879 22.3125C12.5135 22.3124 12.0028 22.073 11.6357 21.7061C11.2686 21.3389 11.0293 20.8275 11.0293 20.2529C11.0292 19.2634 10.2307 18.4658 9.24121 18.4658C8.25182 18.466 7.45422 19.2635 7.4541 20.2529C7.4541 21.8171 8.09275 23.2217 9.11426 24.2432C9.72076 24.8496 10.4705 25.3293 11.3164 25.6006V36.709H7.5498C5.26741 31.4738 0.000199843 28.984 0 21.7539C0 14.5289 5.86493 8.65816 13.0879 8.64941ZM37.7627 28.4258C36.7732 28.4258 35.9748 29.2234 35.9746 30.2129C35.9746 31.2025 36.7731 32.001 37.7627 32.001H69.3174C70.307 32.001 71.1055 31.2025 71.1055 30.2129C71.1053 29.2234 70.3069 28.4258 69.3174 28.4258H37.7627ZM37.7627 20.5244C36.7731 20.5244 35.9746 21.3229 35.9746 22.3125C35.9747 23.302 36.7731 24.0996 37.7627 24.0996H69.3174C70.3069 24.0996 71.1054 23.302 71.1055 22.3125C71.1055 21.3229 70.307 20.5244 69.3174 20.5244H37.7627ZM37.7627 12.624C36.7731 12.624 35.9746 13.4225 35.9746 14.4121C35.9748 15.4015 36.7733 16.1992 37.7627 16.1992H53.5322C54.5216 16.1992 55.3191 15.4015 55.3193 14.4121C55.3193 13.4226 54.5218 12.6241 53.5322 12.624H37.7627ZM21.5459 3.41406C22.0248 2.56834 23.1258 2.26503 23.9717 2.75977C24.8176 3.23861 25.1208 4.34026 24.626 5.20215L23.6367 6.91016C23.1419 7.7559 22.0561 8.04316 21.1943 7.56445L21.21 7.58008C20.3642 7.08521 20.0769 5.9995 20.5557 5.1377L21.5459 3.41406ZM2.23242 2.9834C3.07831 2.48863 4.1803 2.79187 4.65918 3.6377L5.45703 5.01074C5.95178 5.85667 5.64865 6.95834 4.80273 7.45312C3.95681 7.94785 2.85513 7.65972 2.36035 6.79785L1.5625 5.42578L1.57812 5.41016C1.08338 4.5643 1.37072 3.46231 2.23242 2.9834ZM13.04 0C14.0136 0 14.828 0.797646 14.8281 1.78711V3.54297C14.8281 4.5166 14.0296 5.33105 13.04 5.33105C12.0507 5.33081 11.2529 4.53241 11.2529 3.54297V1.78711C11.2531 0.813752 12.0667 0.000251918 13.04 0Z" fill="url(#paint0_linear_1361_591)"/>
<defs>
<linearGradient id="paint0_linear_1361_591" x1="18.75" y1="5.9673" x2="93.3125" y2="61.8421" gradientUnits="userSpaceOnUse">
<stop stop-color="#2033D5"/>
<stop offset="1" stop-color="#4E6CFE"/>
</linearGradient>
</defs>
</svg>
