<svg width="62" height="61" viewBox="0 0 62 61" fill="none" xmlns="http://www.w3.org/2000/svg">
<path d="M25.1504 54.6875H28.0615C29.8026 54.6876 31.2165 56.1066 31.2168 57.8477C31.2168 58.6926 30.891 59.4843 30.2871 60.0801C29.6914 60.6756 28.9008 61 28.0615 61H25.1504C23.9508 61 22.8786 60.3424 22.3369 59.2676C22.1176 58.8371 21.9981 58.3439 21.998 57.8457C21.998 57.3474 22.1088 56.8542 22.3525 56.3965C22.4906 56.1122 22.6831 55.8579 22.9268 55.6143C23.509 55.0104 24.3083 54.6855 25.1533 54.6855L25.1504 54.6875ZM9.6709 46.8232C9.81712 47.0236 10.0044 47.2046 10.2129 47.3291V47.3369C11.293 52.3959 15.5937 56.209 20.7227 56.7373C20.6252 57.0975 20.5771 57.4798 20.5771 57.8535C20.5772 58.1865 20.6252 58.5116 20.6875 58.8311C14.1419 58.2354 8.88025 53.29 7.96484 46.8232H9.6709ZM49.6943 29.3691C49.957 29.3691 50.179 29.5244 50.29 29.7871C50.3171 29.844 50.3311 29.9195 50.3311 30.0088V45.6074C50.3311 45.6887 50.3171 45.7727 50.29 45.835C50.1871 46.0841 49.9516 46.2441 49.6943 46.2441H47.4551C47.1084 46.2441 46.8242 45.9511 46.8242 45.6045V30.0059C46.8243 29.6512 47.1085 29.3672 47.4551 29.3672H49.6943V29.3691ZM13.5537 29.3643C13.9004 29.3643 14.1846 29.6482 14.1846 30.0029V45.6016C14.1846 45.9482 13.9004 46.2412 13.5537 46.2412H11.3145C11.2387 46.2412 11.1683 46.2271 11.0654 46.1865V46.1836C10.9138 46.1294 10.7889 46.0054 10.7266 45.8457C10.6914 45.7672 10.6777 45.6909 10.6777 45.6016V30.0029C10.6777 29.9109 10.6919 29.8354 10.7324 29.7461C10.8299 29.5159 11.0518 29.3643 11.3145 29.3643H13.5537ZM9.26172 45.4072H7.60449C7.45825 45.4072 7.31976 45.3994 7.18164 45.3994C3.15494 45.1775 0 41.8403 0 37.7998C6.26039e-05 35.7742 0.79068 33.8542 2.21777 32.4189L2.22559 32.4219C3.21675 31.4307 4.46533 30.7293 5.84375 30.4043C6.40434 30.2662 7.00058 30.1963 7.60449 30.1963H9.26172V45.4072ZM53.4092 30.1924C54.0131 30.1924 54.6037 30.2633 55.1777 30.4014L55.1836 30.3984C58.6146 31.2246 61.0136 34.2602 61.0137 37.7969C61.0137 39.8441 60.223 41.7506 58.7959 43.1777C57.3471 44.613 55.4403 45.4043 53.4092 45.4043H51.752V30.1924H53.4092ZM31.7344 17.3232C32.1838 17.3234 32.5381 17.6839 32.5381 18.1279V19.1602C32.5382 19.6935 32.9068 20.151 33.3779 20.2539C34.2173 20.4976 34.9947 20.8223 35.7285 21.2393C36.1725 21.4748 36.7194 21.3995 37.0742 21.0449L37.8164 20.3027C38.1359 19.9913 38.6427 19.9913 38.9541 20.3027L40.709 22.0576C41.0202 22.3772 41.0204 22.8839 40.709 23.1953L39.9668 23.9365C39.6148 24.2912 39.5367 24.8464 39.7803 25.2959C40.1892 26.0108 40.5085 26.7943 40.7441 27.5986C40.8553 28.1047 41.3125 28.4647 41.8457 28.4648H42.8779C43.3221 28.4649 43.6826 28.82 43.6826 29.2695V31.7305C43.6826 32.18 43.3221 32.5351 42.8779 32.5352H41.8457C41.3124 32.5353 40.8548 32.9039 40.752 33.375C40.5082 34.2144 40.1836 34.9917 39.7666 35.7256C39.531 36.1642 39.6063 36.7165 39.9609 37.0713L40.7031 37.8135C41.0146 38.133 41.0146 38.6397 40.7031 38.9512L38.9482 40.7061C38.6287 41.0172 38.1219 41.0174 37.8105 40.7061L37.0693 39.9639C36.7147 39.6119 36.1675 39.533 35.71 39.7764C34.995 40.1853 34.2116 40.5056 33.4072 40.7412C32.9011 40.8524 32.5411 41.3095 32.541 41.8428V42.875C32.5409 43.3191 32.1858 43.6787 31.7363 43.6787H29.2754C28.8259 43.6787 28.4708 43.3191 28.4707 42.875V41.8428C28.4706 41.3094 28.102 40.8519 27.6309 40.749C26.7914 40.5053 26.0141 40.1797 25.2803 39.7627C24.8363 39.5273 24.2892 39.6034 23.9346 39.958L23.1924 40.7002C22.8728 41.0116 22.3661 41.0116 22.0547 40.7002L20.2998 38.9453C19.9886 38.6258 19.9885 38.119 20.2998 37.8076L21.042 37.0654C21.394 36.7107 21.4732 36.1556 21.2295 35.7061C20.8206 34.9912 20.5002 34.2086 20.2646 33.4043C20.1535 32.8981 19.6964 32.5382 19.1631 32.5381H18.1309C17.6868 32.538 17.3271 32.1829 17.3271 31.7334V29.2715C17.3274 28.8222 17.687 28.4679 18.1309 28.4678H19.1631C19.6965 28.4677 20.1539 28.0991 20.2568 27.6279C20.5006 26.7885 20.8261 26.0112 21.2432 25.2773C21.4786 24.8387 21.4024 24.2864 21.0479 23.9316L20.3057 23.1895C19.9942 22.8699 19.9942 22.3632 20.3057 22.0518L22.0605 20.2969C22.3801 19.9856 22.8869 19.9855 23.1982 20.2969L23.9404 21.0391C24.2952 21.391 24.8503 21.4693 25.2998 21.2256C26.0146 20.8168 26.7974 20.4973 27.6016 20.2617C28.1077 20.1507 28.4676 19.6934 28.4678 19.1602V18.1279C28.4678 17.6838 28.8229 17.3232 29.2725 17.3232H31.7344ZM30.5049 23.9287C26.8814 23.9287 23.9268 26.8806 23.9268 30.5068C23.9268 34.1304 26.8787 37.085 30.5049 37.085C34.1283 37.0848 37.083 34.133 37.083 30.5068C37.083 26.8834 34.131 23.9289 30.5049 23.9287ZM10.5703 20.2158C9.57921 22.9402 9.03181 25.8161 8.90723 28.7705H7.60156C7.19276 28.7705 6.79758 28.8116 6.40234 28.8604C6.51341 25.8867 7.01453 22.9889 7.9082 20.2158H10.5703ZM53.0957 20.2158C53.9921 22.9891 54.4905 25.8868 54.6016 28.8604C54.2063 28.8062 53.8111 28.7705 53.4023 28.7705H52.0996C51.9751 25.8024 51.4141 22.9266 50.4365 20.2158H53.0957ZM30.4961 0C40.5941 0.00367595 49.9096 6.8924 54.2334 17.5459C54.3444 17.8166 54.3248 18.1093 54.1787 18.3584C54.0406 18.6021 53.8049 18.762 53.5205 18.7891C53.4854 18.7945 53.437 18.8027 53.3965 18.8027H48.3213C47.9666 18.8027 47.647 18.6107 47.5088 18.3184C44.0694 11.1146 37.5482 6.64355 30.4961 6.64355C23.4468 6.64359 16.9227 11.1145 13.4834 18.3184C13.3425 18.608 13.0256 18.8027 12.6709 18.8027H7.5957C7.55518 18.8027 7.50675 18.7972 7.47168 18.7891C7.19545 18.7593 6.95159 18.6021 6.81348 18.3584C6.6701 18.1147 6.64877 17.8166 6.75977 17.5459C11.0834 6.88686 20.3983 0.00373736 30.4961 0Z" fill="url(#paint0_linear_1361_215)"/>
<defs>
<linearGradient id="paint0_linear_1361_215" x1="15.2534" y1="7.10471" x2="90.2989" y2="45.5301" gradientUnits="userSpaceOnUse">
<stop stop-color="#2033D5"/>
<stop offset="1" stop-color="#4E6CFE"/>
</linearGradient>
</defs>
</svg>
