<svg width="57" height="57" viewBox="0 0 57 57" fill="none" xmlns="http://www.w3.org/2000/svg">
<path d="M28.5 0C44.2156 4.97032e-07 57 12.7844 57 28.5C57 44.2156 44.2156 57 28.5 57C12.7844 57 4.97002e-07 44.2156 0 28.5C0 12.7844 12.7844 0 28.5 0ZM28.4912 13.3096C28.4271 13.3096 28.3674 13.326 28.3057 13.3379C28.2605 13.3474 28.215 13.3428 28.1699 13.3594C28.1559 13.3642 28.1489 13.3761 28.1348 13.3809C28.0754 13.4046 28.0253 13.4448 27.9707 13.4805C27.9208 13.5137 27.8685 13.5427 27.8281 13.583C27.7903 13.6233 27.7636 13.6728 27.7305 13.7178C27.6925 13.7723 27.6521 13.8246 27.626 13.8887C27.6212 13.9029 27.6102 13.9106 27.6055 13.9248L26.3799 17.292C24.8411 21.5263 21.5278 24.8418 17.291 26.3809L13.9229 27.6064C13.9086 27.6112 13.899 27.6237 13.8848 27.6309C13.828 27.6569 13.7805 27.6921 13.7285 27.7275C13.6787 27.7608 13.6238 27.7922 13.5811 27.835C13.5431 27.873 13.5162 27.9207 13.4854 27.9658C13.4451 28.0226 13.405 28.0748 13.3789 28.1387C13.3742 28.1529 13.3622 28.1606 13.3574 28.1748C13.3434 28.2173 13.3482 28.2622 13.3389 28.3047C13.3246 28.3688 13.3096 28.4335 13.3096 28.5C13.3096 28.5664 13.3243 28.6303 13.3291 28.6943C13.3386 28.7394 13.3311 28.7825 13.3477 28.8252C13.3548 28.8418 13.3649 28.8539 13.3721 28.8682C13.3863 28.9012 13.4049 28.9298 13.4238 28.9629C13.4618 29.0318 13.5073 29.0958 13.5596 29.1504C13.5857 29.1789 13.6121 29.2028 13.6406 29.2266C13.7094 29.2858 13.7852 29.3306 13.8682 29.3662C13.8871 29.3757 13.899 29.3903 13.918 29.3975L17.2861 30.623C21.5205 32.1619 24.8361 35.475 26.375 39.7119L27.6006 43.0801C27.6076 43.0964 27.617 43.1081 27.624 43.1221C27.6383 43.1553 27.6578 43.1845 27.6768 43.2178C27.7147 43.2865 27.7594 43.3507 27.8115 43.4053C27.8376 43.4338 27.8641 43.4577 27.8926 43.4814C27.9613 43.5406 28.0372 43.5855 28.1201 43.6211C28.139 43.6305 28.1511 43.6452 28.1699 43.6523C28.177 43.6547 28.1823 43.6519 28.1895 43.6543C28.2892 43.6875 28.3916 43.709 28.4961 43.709C28.6028 43.7089 28.7046 43.6875 28.8018 43.6543C28.8089 43.6543 28.8142 43.6547 28.8213 43.6523C28.8402 43.6452 28.8521 43.6282 28.8711 43.6211C28.954 43.5855 29.0299 43.5383 29.0986 43.4814C29.1295 43.4577 29.1536 43.4314 29.1797 43.4053C29.2319 43.3483 29.2774 43.2866 29.3154 43.2178C29.3321 43.1869 29.3529 43.1553 29.3672 43.1221C29.3743 43.1058 29.3858 43.0964 29.3906 43.0801L30.6162 39.7119C32.155 35.4776 35.4682 32.1621 39.7051 30.623L43.0732 29.3975C43.0922 29.3903 43.104 29.3733 43.123 29.3662C43.2062 29.3306 43.2827 29.2835 43.3516 29.2266C43.3823 29.2029 43.4056 29.1764 43.4316 29.1504C43.4839 29.0934 43.5294 29.0318 43.5674 28.9629C43.5839 28.9321 43.6049 28.9013 43.6191 28.8682C43.6263 28.8515 43.6388 28.8418 43.6436 28.8252C43.6578 28.7825 43.6526 28.7371 43.6621 28.6943C43.6763 28.6303 43.6933 28.5664 43.6934 28.5C43.6934 28.4335 43.6761 28.3689 43.6523 28.3096C43.6429 28.2646 43.6504 28.2214 43.6338 28.1787C43.6289 28.1648 43.617 28.1577 43.6123 28.1436C43.5862 28.0818 43.5458 28.0296 43.5078 27.9727C43.4769 27.9252 43.4505 27.8773 43.4102 27.8369C43.3699 27.7968 43.3178 27.7685 43.2705 27.7354C43.2159 27.6974 43.1661 27.6589 43.1045 27.6328C43.0926 27.6281 43.0826 27.6161 43.0684 27.6113L39.7012 26.3857C35.4667 24.8469 32.1503 21.5339 30.6113 17.2969L29.3867 13.9297C29.382 13.9154 29.37 13.9078 29.3652 13.8936C29.3391 13.8319 29.2987 13.7772 29.2607 13.7227C29.2276 13.6753 29.2014 13.6253 29.1611 13.585C29.1208 13.5446 29.07 13.5186 29.0225 13.4854C28.9656 13.4474 28.9132 13.4069 28.8516 13.3809C28.8375 13.3761 28.8305 13.3641 28.8164 13.3594C28.776 13.3451 28.7332 13.3493 28.6904 13.3398C28.6241 13.3233 28.5599 13.3096 28.4912 13.3096ZM39.8955 9.50879C39.8386 9.50879 39.7816 9.51841 39.7246 9.53027C39.6581 9.54215 39.5959 9.55688 39.5342 9.58301C39.5153 9.58998 39.4915 9.59018 39.4727 9.59961C39.4396 9.61622 39.4184 9.64705 39.3877 9.66602C39.3331 9.70397 39.2808 9.7397 39.2334 9.78711C39.1859 9.83461 39.1499 9.88483 39.1143 9.93945C39.0953 9.97012 39.0644 9.99134 39.0479 10.0244L37.5732 12.9746C37.3904 13.3402 37.0883 13.6414 36.7227 13.8242L33.7725 15.2998C33.7371 15.3188 33.7153 15.3469 33.6846 15.3682C33.63 15.4037 33.5806 15.4399 33.5332 15.4873C33.4858 15.5347 33.4496 15.5841 33.4141 15.6387C33.3951 15.6695 33.3643 15.6914 33.3477 15.7246C33.3382 15.7459 33.3405 15.7677 33.3311 15.7891C33.3074 15.8483 33.2931 15.9126 33.2812 15.9766C33.2718 16.0358 33.2598 16.0902 33.2598 16.1494C33.2598 16.2088 33.2713 16.2639 33.2832 16.3232C33.2951 16.3873 33.3069 16.4491 33.333 16.5107C33.3401 16.5321 33.3401 16.5538 33.3496 16.5752C33.3757 16.6297 33.4146 16.6723 33.4502 16.7197C33.4643 16.7386 33.4737 16.7575 33.4902 16.7764C33.5661 16.8617 33.6538 16.9283 33.751 16.9805C33.7605 16.9852 33.7659 16.9952 33.7754 17L36.7246 18.4746C37.0903 18.6574 37.3923 18.9594 37.5752 19.3252L39.0498 22.2744C39.0759 22.329 39.1138 22.3724 39.1494 22.4199C39.1637 22.4389 39.1738 22.4576 39.1904 22.4766C39.2663 22.5619 39.3539 22.6285 39.4512 22.6807C39.4607 22.6854 39.4661 22.6954 39.4756 22.7002C39.5133 22.719 39.5511 22.7261 39.5889 22.7402C39.615 22.7474 39.637 22.7595 39.6631 22.7666C39.7414 22.7879 39.8221 22.7998 39.9004 22.7998H39.9023C39.9807 22.7998 40.0599 22.788 40.1406 22.7666C40.1666 22.7595 40.1902 22.7497 40.2139 22.7402C40.2518 22.7284 40.2901 22.7192 40.3281 22.7002C40.3375 22.6954 40.3421 22.6854 40.3516 22.6807C40.4488 22.6285 40.5364 22.5619 40.6123 22.4766C40.6289 22.46 40.6391 22.4389 40.6533 22.4199C40.6889 22.3748 40.7268 22.329 40.7529 22.2744L42.2275 19.3252C42.4104 18.9595 42.7124 18.6575 43.0781 18.4746L46.0273 17C46.0368 16.9952 46.0423 16.9852 46.0518 16.9805C46.149 16.9282 46.2366 16.8618 46.3125 16.7764C46.3291 16.7597 46.3393 16.7387 46.3535 16.7197C46.3891 16.6747 46.427 16.6296 46.4531 16.5752C46.4626 16.5538 46.4603 16.5321 46.4697 16.5107C46.4934 16.4514 46.5077 16.3873 46.5195 16.3232C46.529 16.2639 46.541 16.2088 46.541 16.1494C46.541 16.0901 46.5287 16.0353 46.5098 15.9736C46.4979 15.9096 46.4861 15.8478 46.46 15.7861C46.4529 15.7648 46.4528 15.743 46.4434 15.7217C46.4267 15.6887 46.3982 15.6674 46.377 15.6367C46.3413 15.5821 46.3053 15.5319 46.2578 15.4844C46.2105 15.4371 46.1608 15.4017 46.1064 15.3662C46.0732 15.3449 46.0517 15.3135 46.0186 15.2969L43.0684 13.8223C42.7027 13.6394 42.4016 13.3374 42.2188 12.9717L40.7432 10.0225C40.7265 9.98921 40.6981 9.9674 40.6768 9.93652C40.6412 9.88195 40.6061 9.83164 40.5586 9.78418C40.5111 9.73905 40.4579 9.70164 40.4033 9.66602C40.3726 9.64703 40.3514 9.61621 40.3184 9.59961C40.2995 9.59016 40.2781 9.59233 40.2568 9.58301C40.1951 9.55688 40.1329 9.54215 40.0664 9.53027C40.0095 9.52078 39.9525 9.50879 39.8955 9.50879Z" fill="url(#paint0_linear_1361_504)"/>
<defs>
<linearGradient id="paint0_linear_1361_504" x1="14.25" y1="6.63883" x2="84.3653" y2="42.5318" gradientUnits="userSpaceOnUse">
<stop stop-color="#2033D5"/>
<stop offset="1" stop-color="#4E6CFE"/>
</linearGradient>
</defs>
</svg>
