<svg width="47" height="47" viewBox="0 0 47 47" fill="none" xmlns="http://www.w3.org/2000/svg">
<path d="M47 45.5293C46.9991 45.919 46.8439 46.2928 46.5684 46.5684C46.2928 46.844 45.919 46.9991 45.5293 47H1.4707C1.08094 46.9991 0.707259 46.844 0.431641 46.5684C0.156068 46.2928 0.000890837 45.919 0 45.5293V11.75H47V45.5293ZM5.86719 32.3086C5.47742 32.3095 5.10376 32.4647 4.82812 32.7402C4.55248 33.0159 4.39638 33.3895 4.39551 33.7793V39.6621C4.39638 40.0519 4.55248 40.4255 4.82812 40.7012C5.10376 40.9767 5.47743 41.1319 5.86719 41.1328H11.75C12.1398 41.1319 12.5134 40.9768 12.7891 40.7012C13.0646 40.4255 13.2198 40.0519 13.2207 39.6621V33.7793C13.2198 33.3895 13.0646 33.0159 12.7891 32.7402C12.5134 32.4646 12.1398 32.3095 11.75 32.3086H5.86719ZM17.6162 38.1914C17.2291 38.1958 16.8592 38.3527 16.5869 38.6279C16.3146 38.9032 16.1622 39.2749 16.1621 39.6621C16.1621 40.0493 16.3147 40.4209 16.5869 40.6963C16.8592 40.9715 17.2291 41.1285 17.6162 41.1328H33.7793C34.1693 41.1327 34.5436 40.9779 34.8193 40.7021C35.095 40.4263 35.25 40.0521 35.25 39.6621C35.2499 39.2721 35.0951 38.8978 34.8193 38.6221C34.5436 38.3463 34.1693 38.1915 33.7793 38.1914H17.6162ZM10.2803 35.25V38.1914H7.33789V35.25H10.2803ZM17.6162 32.3086C17.2291 32.313 16.8592 32.4698 16.5869 32.7451C16.3147 33.0205 16.1621 33.3921 16.1621 33.7793C16.1622 34.1665 16.3146 34.5382 16.5869 34.8135C16.8592 35.0887 17.2291 35.2456 17.6162 35.25H41.1328C41.5228 35.25 41.897 35.095 42.1729 34.8193C42.4486 34.5436 42.6035 34.1693 42.6035 33.7793C42.6035 33.3892 42.4487 33.0151 42.1729 32.7393C41.897 32.4634 41.5229 32.3086 41.1328 32.3086H17.6162ZM5.86719 17.6172C5.47739 17.618 5.10377 17.7732 4.82812 18.0488C4.55248 18.3245 4.39638 18.6981 4.39551 19.0879V24.9707C4.39638 25.3605 4.55248 25.7341 4.82812 26.0098C5.10375 26.2853 5.47747 26.4406 5.86719 26.4414H11.75C12.1398 26.4405 12.5134 26.2854 12.7891 26.0098C13.0647 25.7341 13.2198 25.3605 13.2207 24.9707V19.0879C13.2198 18.6982 13.0646 18.3244 12.7891 18.0488C12.5134 17.7732 12.1398 17.6181 11.75 17.6172H5.86719ZM17.6162 23.5C17.2291 23.5044 16.8592 23.6613 16.5869 23.9365C16.3146 24.2119 16.1621 24.5835 16.1621 24.9707C16.1621 25.3579 16.3146 25.7295 16.5869 26.0049C16.8592 26.2801 17.2291 26.437 17.6162 26.4414H33.7793C34.1693 26.4413 34.5436 26.2865 34.8193 26.0107C35.0951 25.7349 35.25 25.3607 35.25 24.9707C35.25 24.5807 35.0951 24.2065 34.8193 23.9307C34.5436 23.6549 34.1693 23.5001 33.7793 23.5H17.6162ZM10.2803 23.5H7.33789V20.5586H10.2803V23.5ZM17.6162 17.6172C17.2292 17.6217 16.86 17.7785 16.5879 18.0537C16.3157 18.3291 16.1621 18.7007 16.1621 19.0879C16.1622 19.4749 16.3158 19.8468 16.5879 20.1221C16.86 20.397 17.2294 20.5541 17.6162 20.5586H41.1328C41.3264 20.5592 41.5183 20.5209 41.6973 20.4473C41.8762 20.3736 42.0387 20.2655 42.1758 20.1289C42.3129 19.9923 42.4219 19.8301 42.4961 19.6514C42.5702 19.4727 42.6083 19.2813 42.6084 19.0879C42.6084 18.8944 42.5703 18.7022 42.4961 18.5234C42.4219 18.3447 42.3128 18.1825 42.1758 18.0459C42.0387 17.9093 41.8762 17.8012 41.6973 17.7275C41.5183 17.6539 41.3263 17.6166 41.1328 17.6172H17.6162ZM45.5293 0C45.919 0.000931156 46.2928 0.156034 46.5684 0.431641C46.8439 0.707253 46.9991 1.08097 47 1.4707V8.80859H0V1.4707C0.000884546 1.08095 0.156049 0.707257 0.431641 0.431641C0.707259 0.156022 1.08092 0.000884653 1.4707 0H45.5293ZM31.4014 3.05176C31.1346 2.94216 30.8414 2.91311 30.5586 2.96973C30.2757 3.02642 30.0156 3.16608 29.8115 3.37012C29.6075 3.57414 29.4688 3.8343 29.4121 4.11719C29.3555 4.40003 29.3835 4.69314 29.4932 4.95996C29.6028 5.22687 29.7891 5.45585 30.0283 5.61719C30.2675 5.77836 30.5495 5.86555 30.8379 5.86719C31.0316 5.86998 31.2238 5.8335 31.4033 5.76074C31.583 5.68785 31.7466 5.57951 31.8838 5.44238C32.0209 5.30524 32.1292 5.14165 32.2021 4.96191C32.275 4.78225 32.3114 4.58936 32.3086 4.39551C32.3069 4.10726 32.2197 3.82596 32.0586 3.58691C31.8973 3.34767 31.6683 3.16143 31.4014 3.05176ZM37.2852 3.05176C37.0183 2.94208 36.7243 2.91304 36.4414 2.96973C36.1586 3.02642 35.8993 3.16622 35.6953 3.37012C35.4913 3.57415 35.3516 3.83426 35.2949 4.11719C35.2383 4.39995 35.2664 4.69321 35.376 4.95996C35.4856 5.22687 35.6719 5.45585 35.9111 5.61719C36.1504 5.7785 36.4322 5.86555 36.7207 5.86719C36.9141 5.86816 37.1063 5.8304 37.2852 5.75684C37.4638 5.68332 37.6261 5.57503 37.7627 5.43848C37.8995 5.30171 38.0085 5.13884 38.082 4.95996C38.1556 4.78113 38.1924 4.58886 38.1914 4.39551C38.1897 4.10718 38.1026 3.826 37.9414 3.58691C37.7801 3.34776 37.5519 3.16145 37.2852 3.05176ZM43.1475 3.0498C42.8798 2.94077 42.5859 2.91377 42.3027 2.97168C42.0194 3.02971 41.759 3.17029 41.5557 3.37598C41.3524 3.58162 41.215 3.84302 41.1602 4.12695C41.1053 4.41097 41.1358 4.70506 41.248 4.97168C41.3603 5.23818 41.5487 5.4657 41.79 5.625C42.0313 5.78424 42.3144 5.86873 42.6035 5.86719C42.7958 5.86734 42.9866 5.82884 43.1641 5.75488C43.3416 5.68082 43.5034 5.57236 43.6387 5.43555C43.7739 5.29882 43.8801 5.13627 43.9521 4.95801C44.0242 4.77959 44.0609 4.58791 44.0586 4.39551C44.0569 4.10653 43.9695 3.82437 43.8076 3.58496C43.6456 3.34536 43.4153 3.15899 43.1475 3.0498Z" fill="url(#paint0_linear_1361_285)"/>
<defs>
<linearGradient id="paint0_linear_1361_285" x1="11.75" y1="5.47412" x2="69.5644" y2="35.0701" gradientUnits="userSpaceOnUse">
<stop stop-color="#2033D5"/>
<stop offset="1" stop-color="#4E6CFE"/>
</linearGradient>
</defs>
</svg>
