<svg width="59" height="59" viewBox="0 0 59 59" fill="none" xmlns="http://www.w3.org/2000/svg">
<path fill-rule="evenodd" clip-rule="evenodd" d="M59 13.1566V42.4261C59 45.7708 56.2671 48.505 52.9239 48.505H49.1925V59L38.7022 48.505H16.6999L21.3146 43.8882H45.8468C50.5444 43.8882 54.3801 40.0507 54.3801 35.3511L54.3827 7.25734C57.0247 7.91611 58.9974 10.3182 58.9974 13.1568L59 13.1566ZM9.81015 51.9223V41.4272H6.07882C2.73561 41.4272 0.00267639 38.6931 0.00267639 35.3483L0 6.07889C0 2.73417 2.73294 0 6.07615 0H45.8494C49.1927 0 51.9256 2.73417 51.9256 6.07889V35.3483C51.9256 38.6931 49.1927 41.4272 45.8494 41.4272H20.3003L9.81015 51.9223ZM36.494 32.3094H42.4149V9.11874H36.494V32.3094ZM27.5003 32.3094H33.4211V18.0439H27.5003V32.3094ZM18.5065 22.5541V22.5568V32.3101H24.4274V16.5048V12.0567H18.5065V22.5541ZM15.4336 32.3094V24.0966H9.51276V32.3094H15.4336Z" fill="url(#paint0_linear_1358_69755)"/>
<defs>
<linearGradient id="paint0_linear_1358_69755" x1="14.75" y1="6.87177" x2="87.3255" y2="44.0241" gradientUnits="userSpaceOnUse">
<stop stop-color="#2033D5"/>
<stop offset="1" stop-color="#4E6CFE"/>
</linearGradient>
</defs>
</svg>
