<svg width="63" height="63" viewBox="0 0 63 63" fill="none" xmlns="http://www.w3.org/2000/svg">
<path fill-rule="evenodd" clip-rule="evenodd" d="M27.041 24.934C26.698 24.591 26.222 24.374 25.69 24.374C25.158 24.374 24.689 24.584 24.339 24.934C23.989 25.284 23.779 25.753 23.779 26.285C23.779 26.817 23.989 27.286 24.339 27.636C24.689 27.986 25.158 28.196 25.69 28.196C26.222 28.196 26.691 27.986 27.041 27.636C27.384 27.293 27.601 26.817 27.601 26.285C27.601 25.753 27.391 25.284 27.041 24.934ZM46.2 27.23C45.857 26.887 45.381 26.67 44.849 26.67C44.317 26.67 43.848 26.88 43.498 27.23C43.155 27.573 42.938 28.049 42.938 28.581C42.938 29.113 43.148 29.582 43.498 29.932C43.841 30.275 44.317 30.492 44.849 30.492C45.381 30.492 45.85 30.282 46.2 29.932C46.543 29.589 46.76 29.113 46.76 28.581C46.76 28.049 46.55 27.58 46.2 27.23ZM38.052 44.191C37.709 43.848 37.233 43.631 36.701 43.631C36.169 43.631 35.7 43.841 35.35 44.191C35.007 44.534 34.79 45.01 34.79 45.542C34.79 46.074 35 46.543 35.35 46.893C35.693 47.236 36.169 47.453 36.701 47.453C37.233 47.453 37.702 47.243 38.052 46.893C38.395 46.55 38.612 46.074 38.612 45.542C38.612 45.01 38.402 44.541 38.052 44.191ZM36.701 42.084C35.749 42.084 34.881 42.469 34.258 43.099C33.635 43.729 33.243 44.59 33.243 45.542C33.243 45.899 33.299 46.235 33.397 46.557L14.049 57.729C12.313 56.574 10.696 55.244 9.226 53.774C8.449 52.997 7.707 52.171 7.014 51.317L42.322 30.933C42.322 30.933 42.378 30.996 42.413 31.024C43.036 31.647 43.904 32.039 44.856 32.039C45.808 32.039 46.676 31.654 47.299 31.024C47.922 30.401 48.314 29.533 48.314 28.581C48.314 27.629 47.929 26.761 47.299 26.138C46.676 25.515 45.808 25.123 44.856 25.123C43.904 25.123 43.036 25.508 42.413 26.138C41.79 26.761 41.398 27.629 41.398 28.581C41.398 28.938 41.454 29.274 41.552 29.596L6.062 50.085C4.095 47.397 2.541 44.38 1.498 41.139L23.156 28.637C23.156 28.637 23.212 28.7 23.24 28.728C23.863 29.351 24.731 29.743 25.683 29.743C26.635 29.743 27.503 29.358 28.126 28.728C28.749 28.098 29.141 27.237 29.141 26.285C29.141 25.333 28.756 24.465 28.126 23.842C27.503 23.219 26.635 22.827 25.683 22.827C24.731 22.827 23.863 23.212 23.24 23.842C22.617 24.465 22.225 25.333 22.225 26.285C22.225 26.635 22.281 26.978 22.379 27.3L1.057 39.613C0.371 37.023 0 34.307 0 31.5C0 22.799 3.528 14.924 9.226 9.226C14.924 3.528 22.799 0 31.5 0C40.201 0 48.076 3.528 53.774 9.226C59.472 14.924 63 22.799 63 31.5C63 40.201 59.472 48.076 53.774 53.774C48.076 59.472 40.201 63 31.5 63C25.669 63 20.209 61.418 15.526 58.653L34.167 47.887C34.167 47.887 34.223 47.95 34.258 47.978C34.881 48.601 35.749 48.993 36.701 48.993C37.653 48.993 38.521 48.608 39.144 47.978C39.767 47.355 40.159 46.487 40.159 45.535C40.159 44.583 39.774 43.715 39.144 43.092C38.521 42.469 37.653 42.077 36.701 42.077V42.084Z" fill="url(#paint0_linear_174_92)"/>
<defs>
<linearGradient id="paint0_linear_174_92" x1="15.75" y1="7.33765" x2="93.2459" y2="47.0088" gradientUnits="userSpaceOnUse">
<stop stop-color="#2033D5"/>
<stop offset="1" stop-color="#4E6CFE"/>
</linearGradient>
</defs>
</svg>
